<?xml version="1.0" standalone="no"?>
<!DOCTYPE svg PUBLIC "-//W3C//DTD SVG 1.1//EN" "http://www.w3.org/Graphics/SVG/1.1/DTD/svg11.dtd" >
<svg xmlns="http://www.w3.org/2000/svg" xmlns:xlink="http://www.w3.org/1999/xlink" version="1.1">
<metadata>
Created by FontForge 20170731 at Thu Apr  6 12:27:41 2006
 By Aleksey,,,
2005 Mike Abbink, Paul van der Laan published by FSI Fonts und Software GmbH
</metadata>
<defs>
<font id="KievitPro-ExtraBold" horiz-adv-x="566" >
  <font-face 
    font-family="KievitPro-ExtraBold"
    font-weight="800"
    font-stretch="normal"
    units-per-em="1000"
    panose-1="2 0 5 3 4 0 0 2 0 4"
    ascent="760"
    descent="-240"
    x-height="490"
    cap-height="666"
    bbox="-190 -250 1278 934"
    underline-thickness="20"
    underline-position="-193"
    unicode-range="U+000D-FB04"
  />
<missing-glyph 
d="M59 0v666h448v-666h-448zM175 116h216v434h-216v-434z" />
    <glyph glyph-name="IJ" unicode="IJ" horiz-adv-x="683" 
d="M84 0v666h163v-666h-163zM401 -209q-65 0 -111 19l25 130q23 -10 49 -10q43 0 60.5 21t17.5 72v643h163v-664q0 -102 -54.5 -156.5t-149.5 -54.5z" />
    <glyph glyph-name="ij" unicode="ij" horiz-adv-x="577" 
d="M145 544q-39 0 -64.5 25.5t-25.5 61.5t25.5 61.5t64.5 25.5t64.5 -25.5t25.5 -61.5t-25.5 -61.5t-64.5 -25.5zM68 0v490h154v-490h-154zM332 -234q-60 0 -99 13l26 117q25 -7 40 -7q33 0 45 22t12 79v500h154v-515q0 -209 -178 -209zM432 544q-39 0 -64.5 25.5
t-25.5 61.5t25.5 61.5t64.5 25.5t65 -25.5t26 -61.5t-26 -61.5t-65 -25.5z" />
    <glyph glyph-name="uniFB00" unicode="ff" horiz-adv-x="681" 
d="M88 0v378h-72v112h72v40q0 90 56 143t156 53q92 0 153 -36q50 42 132 42q88 0 130 -26l-35 -112q-28 14 -68 14q-72 0 -72 -87v-31h116v-112h-116v-378h-152v378h-148v-378h-152zM240 490h148v43q0 23 5 48q-27 21 -72 21q-81 0 -81 -87v-25z" />
    <glyph glyph-name="fi" unicode="fi" horiz-adv-x="604" 
d="M87 0v378h-71v112h71v42q0 93 61 146.5t165 53.5q108 0 187 -42l-51 -111q-51 29 -114 29q-96 0 -96 -88v-30h305v-490h-152v378h-153v-378h-152z" />
    <glyph glyph-name="fl" unicode="fl" horiz-adv-x="617" 
d="M87 0v378h-71v112h71v43q0 94 62.5 146.5t183.5 52.5q125 0 216 -31v-701h-152v599q-25 9 -74 9q-84 0 -84 -88v-30h98v-112h-98v-378h-152z" />
    <glyph glyph-name="uniFB03" unicode="ffi" horiz-adv-x="903" 
d="M88 0v378h-72v112h72v40q0 90 56 143t156 53q93 0 160 -39q61 45 154 45q108 0 187 -42l-51 -111q-51 29 -115 29q-95 0 -95 -88v-30h303v-490h-152v378h-151v-378h-152v378h-148v-378h-152zM240 490h148v42q0 26 6 48q-29 22 -73 22q-81 0 -81 -87v-25z" />
    <glyph glyph-name="uniFB04" unicode="ffl" horiz-adv-x="917" 
d="M88 0v378h-72v112h72v40q0 90 56 143t156 53q98 0 158 -40q63 46 176 46q125 0 216 -31v-701h-152v599q-27 9 -74 9q-84 0 -84 -88v-30h100v-112h-100v-378h-152v378h-148v-378h-152zM240 490h148v43q0 25 6 48q-27 21 -73 21q-81 0 -81 -87v-25z" />
    <glyph glyph-name=".notdef" 
d="M59 0v666h448v-666h-448zM175 116h216v434h-216v-434z" />
    <glyph glyph-name=".null" horiz-adv-x="0" 
 />
    <glyph glyph-name=".null" horiz-adv-x="0" 
 />
    <glyph glyph-name="nonmarkingreturn" horiz-adv-x="333" 
 />
    <glyph glyph-name="CR" unicode="&#xd;" horiz-adv-x="184" 
 />
    <glyph glyph-name="space" unicode=" " horiz-adv-x="184" 
 />
    <glyph glyph-name="exclam" unicode="!" horiz-adv-x="313" 
d="M156 -10q-40 0 -66.5 26.5t-26.5 63.5t26.5 63t66.5 26q41 0 67.5 -26t26.5 -63t-26.5 -63.5t-67.5 -26.5zM95 234l-27 432h177l-28 -432h-122z" />
    <glyph glyph-name="quotedbl" unicode="&#x22;" horiz-adv-x="404" 
d="M63 414l-29 252h145l-16 -252h-100zM241 414l-16 252h145l-29 -252h-100z" />
    <glyph glyph-name="numbersign" unicode="#" horiz-adv-x="537" 
d="M92 82l19 119h-87l18 108h85l11 75h-85l17 108h84l19 118h102l-18 -118h73l18 118h103l-19 -118h79l-18 -108h-77l-11 -75h78l-18 -108h-76l-17 -119h-103l18 119h-74l-18 -119h-103zM226 305h80l12 82h-80z" />
    <glyph glyph-name="dollar" unicode="$" horiz-adv-x="430" 
d="M154 -123v114q-81 9 -133 44l49 105q67 -41 128 -41q76 0 76 36q0 15 -18 24.5t-56.5 22t-61.5 23.5q-53 27 -79.5 59t-26.5 83q0 55 32 93.5t90 52.5v107h125v-101q72 -8 114 -35l-50 -103q-47 30 -109 30q-67 0 -67 -36q0 -9 6 -15.5t18 -12t24.5 -10t31 -10.5
t30.5 -11q64 -25 98.5 -58t34.5 -89q0 -126 -131 -154v-118h-125z" />
    <glyph glyph-name="percent" unicode="%" horiz-adv-x="909" 
d="M200 179q-85 0 -132 45.5t-47 114.5q0 68 48 115.5t133 47.5q86 0 132.5 -44.5t46.5 -113.5t-48 -117t-133 -48zM202 271q50 0 50 68q0 71 -51 71q-50 0 -50 -66q0 -73 51 -73zM707 -12q-86 0 -132.5 45.5t-46.5 114.5q0 68 48 115.5t133 47.5t132 -45t47 -114
q0 -68 -48 -116t-133 -48zM709 80q49 0 49 68q0 71 -50 71q-51 0 -51 -67q0 -31 12.5 -51.5t39.5 -20.5zM245 0l294 490h126l-294 -490h-126z" />
    <glyph glyph-name="ampersand" unicode="&#x26;" horiz-adv-x="678" 
d="M268 -12q-115 0 -176.5 51.5t-61.5 134.5q0 66 33 110.5t104 82.5q-65 79 -65 147q0 75 57 119.5t148 44.5t142.5 -42.5t51.5 -108.5q0 -52 -34 -93t-104 -82l104 -118q28 54 38 110l128 -22q-18 -106 -81 -187l118 -135h-183l-38 43q-83 -55 -181 -55zM296 427
q67 44 67 92q0 23 -15 38.5t-40 15.5q-26 0 -42 -15.5t-16 -40.5q0 -39 46 -90zM282 104q51 0 91 28l-131 147q-55 -40 -55 -93q0 -38 26 -60t69 -22z" />
    <glyph glyph-name="quotesingle" unicode="'" horiz-adv-x="219" 
d="M59 414l-24 252h149l-24 -252h-101z" />
    <glyph glyph-name="parenleft" unicode="(" horiz-adv-x="359" 
d="M215 -165q-178 190 -178 448q0 144 54 256.5t124 180.5h144q-61 -68 -109.5 -178.5t-48.5 -254.5q0 -263 158 -452h-144z" />
    <glyph glyph-name="parenright" unicode=")" horiz-adv-x="360" 
d="M0 -165q160 188 160 443q0 144 -47.5 255.5t-112.5 186.5h146q71 -72 124.5 -183t53.5 -255q0 -79 -17 -152t-46 -129t-56.5 -95t-58.5 -71h-146z" />
    <glyph glyph-name="asterisk" unicode="*" horiz-adv-x="506" 
d="M182 272l-100 70l88 99l-128 35l40 108l116 -47l-7 129h124l-7 -129l116 47l40 -108l-128 -35l88 -99l-101 -70l-70 112z" />
    <glyph glyph-name="plus" unicode="+" horiz-adv-x="556" 
d="M214 27v178h-173v115h173v173h129v-173h172v-115h-172v-178h-129z" />
    <glyph glyph-name="comma" unicode="," horiz-adv-x="304" 
d="M78 -148q41 64 41 108q0 30 -32 63t-32 71q0 36 25.5 59.5t63.5 23.5q44 0 74.5 -32.5t30.5 -87.5q0 -100 -75 -205h-96z" />
    <glyph glyph-name="hyphen" unicode="-" horiz-adv-x="336" 
d="M50 219v122h237v-122h-237z" />
    <glyph glyph-name="period" unicode="." horiz-adv-x="304" 
d="M152 -10q-41 0 -69 27t-28 67q0 39 28 66t69 27t69 -27t28 -66q0 -40 -28 -67t-69 -27z" />
    <glyph glyph-name="slash" unicode="/" horiz-adv-x="465" 
d="M15 -119l298 825h147l-298 -825h-147z" />
    <glyph glyph-name="zero" unicode="0" horiz-adv-x="590" 
d="M296 -12q-130 0 -198.5 75.5t-68.5 179.5t69.5 181.5t199.5 77.5q67 0 119.5 -21.5t83.5 -58t46.5 -81t15.5 -93.5t-16 -94t-47.5 -82.5t-84 -60.5t-119.5 -23zM298 108q102 0 102 135q0 67 -26.5 103t-77.5 36q-104 0 -104 -134q0 -67 27.5 -103.5t78.5 -36.5z" />
    <glyph glyph-name="one" unicode="1" horiz-adv-x="383" 
d="M164 0v359l-117 -34l-31 119l183 46h116v-490h-151z" />
    <glyph glyph-name="two" unicode="2" horiz-adv-x="518" 
d="M19 0v70q39 26 56.5 38t57 40.5t60.5 47.5t47 44t37.5 46t11.5 39q0 58 -74 58q-58 0 -115 -50l-72 95q84 75 212 75q100 0 156 -36.5t56 -109.5q0 -37 -16 -71t-48 -65.5t-61.5 -53.5t-72.5 -51q36 4 67 4h170v-120h-472z" />
    <glyph glyph-name="three" unicode="3" horiz-adv-x="467" 
d="M142 -188q-77 0 -111 8l23 121q28 -10 82 -10q66 0 105.5 25.5t39.5 73.5q0 87 -162 87v109q54 2 99.5 29.5t45.5 68.5q0 57 -75 57q-55 0 -102 -41l-70 96q83 66 207 66q94 0 145.5 -41.5t51.5 -110.5q0 -60 -40 -100.5t-92 -54.5v-2q61 -6 108 -49t47 -114
q0 -100 -82.5 -159t-219.5 -59z" />
    <glyph glyph-name="four" unicode="4" horiz-adv-x="617" 
d="M331 -177v177h-310v95l326 395h136v-375h102v-115h-102v-177h-152zM183 115h148v185h-2z" />
    <glyph glyph-name="five" unicode="5" horiz-adv-x="466" 
d="M132 -188q-64 0 -106 12l28 119q40 -11 78 -11q62 0 101.5 28.5t39.5 82.5q0 107 -144 107q-51 0 -75 -7l22 347h345v-116h-208l-7 -107q106 -3 168 -60.5t62 -155.5q0 -111 -82 -175t-222 -64z" />
    <glyph glyph-name="six" unicode="6" horiz-adv-x="557" 
d="M283 -12q-88 0 -146 42t-82 106.5t-24 147.5q0 176 116.5 285t312.5 109l32 -121q-62 0 -122.5 -15.5t-96.5 -44.5q-59 -46 -74 -121q48 35 123 35q90 0 148.5 -53.5t58.5 -149.5q0 -100 -70 -160t-176 -60zM287 102q37 0 59 26.5t22 69.5q0 99 -85 99q-55 0 -93 -31v-8
q-1 -66 23.5 -111t73.5 -45z" />
    <glyph glyph-name="seven" unicode="7" horiz-adv-x="490" 
d="M162 -202l-127 62l237 507h-251v123h429v-78z" />
    <glyph glyph-name="eight" unicode="8" horiz-adv-x="544" 
d="M273 -12q-114 0 -178 48.5t-64 131.5q0 104 125 172q-105 59 -105 157q0 80 63.5 130.5t157.5 50.5q104 0 164 -45t60 -127q0 -87 -114 -151q65 -34 97.5 -76.5t32.5 -104.5q0 -88 -66 -137t-173 -49zM271 99q40 0 62 21t22 53q0 29 -22 53t-73 52q-75 -46 -75 -105
q0 -34 22.5 -54t63.5 -20zM277 412q66 43 66 89q0 30 -17.5 48.5t-50.5 18.5t-51.5 -18t-18.5 -45q0 -50 72 -93z" />
    <glyph glyph-name="nine" unicode="9" horiz-adv-x="560" 
d="M89 -184l-33 120q61 0 125.5 16.5t103.5 44.5q64 46 78 120q-51 -36 -126 -36q-91 0 -150 53t-59 149q0 100 72 159.5t178 59.5q129 0 189.5 -83.5t60.5 -212.5q0 -180 -114.5 -285t-324.5 -105zM276 194q56 0 93 31v7q2 67 -21.5 111.5t-73.5 44.5q-38 0 -61 -26
t-23 -72q0 -48 23 -72t63 -24z" />
    <glyph glyph-name="colon" unicode=":" horiz-adv-x="306" 
d="M153 -10q-41 0 -69.5 27t-28.5 67q0 39 28.5 66t69.5 27t69 -26.5t28 -66.5t-28 -67t-69 -27zM153 308q-41 0 -69.5 27.5t-28.5 67.5q0 39 28.5 66t69.5 27t69 -27t28 -66q0 -40 -28 -67.5t-69 -27.5z" />
    <glyph glyph-name="semicolon" unicode=";" horiz-adv-x="306" 
d="M81 -148q41 64 41 108q0 30 -32 63t-32 71q0 36 25.5 59.5t63.5 23.5q44 0 74.5 -32.5t30.5 -87.5q0 -100 -75 -205h-96zM153 308q-41 0 -69.5 27.5t-28.5 67.5q0 39 28.5 66t69.5 27t69 -27t28 -66q0 -40 -28 -67.5t-69 -27.5z" />
    <glyph glyph-name="less" unicode="&#x3c;" horiz-adv-x="401" 
d="M286 18l-260 230l258 236l80 -82l-165 -150l168 -147z" />
    <glyph glyph-name="equal" unicode="=" horiz-adv-x="484" 
d="M40 109v114h404v-114h-404zM40 303v114h404v-114h-404z" />
    <glyph glyph-name="greater" unicode="&#x3e;" horiz-adv-x="401" 
d="M117 18l-80 82l165 150l-168 148l81 86l260 -230z" />
    <glyph glyph-name="question" unicode="?" horiz-adv-x="415" 
d="M96 232v51q0 44 16.5 70t51.5 49q32 22 46 41t14 48q0 63 -77 63q-38 0 -88 -24l-52 111q70 37 170 37q104 0 158 -48t54 -125q0 -90 -84 -149q-8 -6 -29 -20.5t-28 -20.5t-14.5 -19t-7.5 -29v-35h-130zM162 -10q-40 0 -66.5 26t-26.5 64q0 37 26 63t67 26t67 -26t26 -63
q0 -38 -26.5 -64t-66.5 -26z" />
    <glyph glyph-name="at" unicode="@" horiz-adv-x="827" 
d="M407 -101q-164 0 -261.5 95t-97.5 247q0 99 48 189t138.5 148t199.5 58q172 0 266.5 -90t94.5 -227q0 -109 -58.5 -174.5t-154.5 -65.5q-98 0 -108 78h-3q-46 -75 -130 -75q-48 0 -76.5 34t-28.5 86q0 114 59 190.5t156 76.5q80 0 158 -28l-30 -177q-7 -42 -7 -55
q0 -36 31 -36q39 0 66 37t27 102q0 114 -69 173.5t-194 59.5q-114 0 -194 -85.5t-80 -215.5q0 -122 65.5 -187t193.5 -65q78 0 144 29l35 -88q-84 -34 -190 -34zM389 181q64 0 96 163l7 30q-21 7 -45 7q-41 0 -65 -46t-24 -110q0 -44 31 -44z" />
    <glyph glyph-name="A" unicode="A" horiz-adv-x="697" 
d="M258 240h166l-49 137q-6 17 -33 116h-2q-1 -4 -6 -22t-12.5 -44t-15.5 -50zM13 0l254 666h155l262 -666h-176l-39 112h-254l-39 -112h-163z" />
    <glyph glyph-name="B" unicode="B" horiz-adv-x="611" 
d="M78 0v666h238q49 0 89 -8.5t73.5 -26.5t52.5 -51.5t19 -79.5q0 -124 -118 -154v-2q63 -10 104 -51t41 -109q0 -184 -264 -184h-235zM237 122h68q109 0 109 79q0 82 -103 82h-74v-161zM237 396h57q51 0 74.5 18.5t23.5 57.5q0 72 -94 72h-61v-148z" />
    <glyph glyph-name="C" unicode="C" horiz-adv-x="619" 
d="M387 -12q-166 0 -256.5 100t-90.5 246q0 93 38 169.5t119 125.5t193 49q122 0 204 -54l-71 -117q-62 38 -136 38q-83 0 -129.5 -58t-46.5 -149q0 -95 46.5 -155.5t132.5 -60.5q77 0 146 50l66 -113q-30 -27 -89 -49t-126 -22z" />
    <glyph glyph-name="D" unicode="D" horiz-adv-x="715" 
d="M78 0v666h217q189 0 285 -87t96 -237q0 -152 -98.5 -247t-288.5 -95h-211zM240 128h62q204 0 204 210q0 103 -51 151.5t-158 48.5h-57v-410z" />
    <glyph glyph-name="E" unicode="E" horiz-adv-x="539" 
d="M78 0v666h398v-132h-238v-129h210v-124h-210v-149h245v-132h-405z" />
    <glyph glyph-name="F" unicode="F" horiz-adv-x="516" 
d="M78 0v666h394v-132h-232v-147h205v-123h-205v-264h-162z" />
    <glyph glyph-name="G" unicode="G" horiz-adv-x="711" 
d="M398 -12q-168 0 -263 101t-95 245q0 143 100.5 243.5t271.5 100.5q139 0 222 -59l-70 -120q-67 46 -155 46q-96 0 -147 -56t-51 -151q0 -98 46.5 -159t139.5 -61q66 0 102 21v115h-116v124h270v-328q-104 -62 -255 -62z" />
    <glyph glyph-name="H" unicode="H" horiz-adv-x="752" 
d="M78 0v666h162v-255h273v255h160v-666h-160v279h-273v-279h-162z" />
    <glyph glyph-name="I" unicode="I" horiz-adv-x="338" 
d="M84 0v666h163v-666h-163z" />
    <glyph glyph-name="J" unicode="J" horiz-adv-x="346" 
d="M64 -209q-65 0 -111 19l25 130q23 -10 49 -10q43 0 60.5 21t17.5 72v643h163v-664q0 -102 -54.5 -156.5t-149.5 -54.5z" />
    <glyph glyph-name="K" unicode="K" horiz-adv-x="650" 
d="M78 0v666h162v-279l212 279h177l-238 -307l247 -359h-189l-209 306v-306h-162z" />
    <glyph glyph-name="L" unicode="L" horiz-adv-x="528" 
d="M81 0v666h163v-537h243v-129h-406z" />
    <glyph glyph-name="M" unicode="M" horiz-adv-x="891" 
d="M37 0l92 666h157l125 -397q8 -26 19 -67t12 -45h2q2 5 13 45.5t19 66.5l130 397h157l91 -666h-165l-37 314q-11 90 -11 98h-2q-20 -75 -27 -96l-98 -316h-159l-98 316q-7 24 -16 59t-10 37h-2q0 -29 -8 -99l-39 -313h-145z" />
    <glyph glyph-name="N" unicode="N" horiz-adv-x="752" 
d="M78 0v666h163l216 -310q15 -21 29 -43t22 -35.5t14.5 -25.5t7.5 -13h2q-4 28 -4 109v318h146v-666h-147l-237 336q-18 25 -33.5 48.5t-24 38t-10.5 17.5h-2q4 -28 4 -93v-347h-146z" />
    <glyph glyph-name="O" unicode="O" horiz-adv-x="778" 
d="M393 -12q-164 0 -258.5 101t-94.5 243q0 92 38.5 169.5t119.5 127t191 49.5q164 0 256 -99.5t92 -241.5q0 -69 -22 -131t-63.5 -111t-108.5 -78t-150 -29zM389 117q90 0 134 60.5t44 154.5q0 95 -43 156t-131 61q-90 0 -136 -59.5t-46 -152.5q0 -95 45 -157.5t133 -62.5z
" />
    <glyph glyph-name="P" unicode="P" horiz-adv-x="606" 
d="M77 0v666h235q117 0 189 -54.5t72 -161.5q0 -109 -74.5 -166.5t-203.5 -57.5h-57v-226h-161zM238 347h58q60 0 88 24.5t28 76.5q0 97 -112 97h-62v-198z" />
    <glyph glyph-name="Q" unicode="Q" horiz-adv-x="778" 
d="M603 -180q-85 0 -154 38.5t-144 140.5q-124 25 -194.5 118.5t-70.5 214.5q0 92 38.5 169.5t119.5 127t191 49.5q164 0 256 -99.5t92 -241.5q0 -120 -63.5 -213.5t-180.5 -123.5q25 -34 51.5 -47.5t65.5 -13.5q46 0 80 27l51 -104q-53 -42 -138 -42zM389 117
q90 0 134 60.5t44 154.5q0 95 -43 156t-131 61q-90 0 -136 -59.5t-46 -152.5q0 -95 45 -157.5t133 -62.5z" />
    <glyph glyph-name="R" unicode="R" horiz-adv-x="637" 
d="M78 0v666h236q122 0 188 -50.5t66 -145.5q0 -76 -41.5 -121t-103.5 -60v-2q35 -25 81 -99l119 -188h-176l-118 190q-31 48 -45.5 60.5t-35.5 12.5h-8v-263h-162zM240 375h70q99 0 99 85t-105 85h-64v-170z" />
    <glyph glyph-name="S" unicode="S" horiz-adv-x="522" 
d="M238 -12q-130 0 -211 65l66 112q72 -48 140 -48q46 0 71 18.5t25 47.5q0 18 -13.5 33t-29.5 22.5t-50 22.5t-54 25q-68 33 -103.5 79.5t-35.5 122.5q0 85 63 137.5t159 52.5q123 0 201 -57l-63 -112q-66 40 -127 40q-80 0 -80 -60q0 -11 5 -21t10.5 -16.5t20 -14.5
t23.5 -12t30.5 -13.5t33.5 -14.5q81 -36 123 -79.5t42 -125.5q0 -95 -65.5 -149.5t-180.5 -54.5z" />
    <glyph glyph-name="T" unicode="T" horiz-adv-x="550" 
d="M194 0v534h-181v132h525v-132h-182v-534h-162z" />
    <glyph glyph-name="U" unicode="U" horiz-adv-x="723" 
d="M368 -12q-293 0 -293 273v405h162v-393q0 -80 30.5 -117t103.5 -37q128 0 128 147v400h148v-389q0 -141 -70.5 -215t-208.5 -74z" />
    <glyph glyph-name="V" unicode="V" horiz-adv-x="680" 
d="M268 0l-257 666h175l129 -379q7 -22 15 -47.5t12.5 -42.5t5.5 -20h2q7 33 32 110l125 379h162l-248 -666h-153z" />
    <glyph glyph-name="W" unicode="W" horiz-adv-x="926" 
d="M194 0l-179 666h172l75 -317q24 -100 24 -124h2q0 18 27 130l79 311h158l77 -310q26 -112 26 -131h3q0 2 3 20.5t9 50t12 55.5l77 315h153l-181 -666h-149l-86 343q-26 102 -26 123h-2q0 -17 -29 -123l-96 -343h-149z" />
    <glyph glyph-name="X" unicode="X" horiz-adv-x="632" 
d="M18 0l210 341l-202 325h184l114 -192l107 192h162l-191 -322l213 -344h-182l-128 214l-125 -214h-162z" />
    <glyph glyph-name="Y" unicode="Y" horiz-adv-x="612" 
d="M229 0v251l-220 415h179l129 -265h1l128 265h157l-212 -415v-251h-162z" />
    <glyph glyph-name="Z" unicode="Z" horiz-adv-x="574" 
d="M46 0v104l286 431h-275v131h471v-102l-288 -433h296v-131h-490z" />
    <glyph glyph-name="bracketleft" unicode="[" horiz-adv-x="353" 
d="M61 -161v881h265v-112h-120v-657h120v-112h-265z" />
    <glyph glyph-name="backslash" unicode="\" horiz-adv-x="465" 
d="M318 -161l-318 881h147l318 -881h-147z" />
    <glyph glyph-name="bracketright" unicode="]" horiz-adv-x="353" 
d="M26 -161v112h121v657h-121v112h266v-881h-266z" />
    <glyph glyph-name="asciicircum" unicode="^" horiz-adv-x="584" 
d="M39 288l200 378h105l200 -378h-140l-112 221l-112 -221h-141z" />
    <glyph glyph-name="underscore" unicode="_" horiz-adv-x="445" 
d="M-1 -192v116h447v-116h-447z" />
    <glyph glyph-name="grave" unicode="`" horiz-adv-x="500" 
d="M261 541l-142 138h192l80 -138h-130z" />
    <glyph glyph-name="a" unicode="a" horiz-adv-x="512" 
d="M180 -12q-65 0 -107.5 37.5t-42.5 102.5q0 88 75 131.5t185 43.5h16v23q0 30 -16 43.5t-58 13.5q-67 0 -123 -44l-64 91q81 72 206 72q108 0 157.5 -44t49.5 -143v-160q0 -89 14 -155h-149q-7 21 -9 51q-50 -63 -134 -63zM229 95q44 0 77 35v82h-16q-116 0 -116 -71
q0 -22 15.5 -34t39.5 -12z" />
    <glyph glyph-name="b" unicode="b" horiz-adv-x="563" 
d="M271 -12q-127 0 -213 39v693h152v-269q51 51 119 51q94 0 150.5 -64t56.5 -189t-74 -193t-191 -68zM271 106q104 0 104 143q0 134 -91 134q-45 0 -74 -34v-234q22 -9 61 -9z" />
    <glyph glyph-name="c" unicode="c" horiz-adv-x="464" 
d="M290 -12q-121 0 -192 69t-71 187q0 121 73.5 189.5t193.5 68.5q93 0 150 -37l-46 -103q-42 26 -98 26q-53 0 -82.5 -37t-29.5 -102q0 -67 29.5 -106t85.5 -39q52 0 101 26l44 -100q-69 -42 -158 -42z" />
    <glyph glyph-name="d" unicode="d" horiz-adv-x="567" 
d="M228 -13q-93 0 -146.5 67t-53.5 189q0 116 62 187.5t158 71.5q67 0 110 -33v251h152v-568q0 -88 15 -152h-149q-9 21 -11 52q-55 -65 -137 -65zM277 107q47 0 81 43v205q-31 29 -75 29q-45 0 -69.5 -36.5t-24.5 -105.5q0 -135 88 -135z" />
    <glyph glyph-name="e" unicode="e" horiz-adv-x="528" 
d="M291 -12q-124 0 -194 69.5t-70 189.5q0 116 71.5 185.5t177.5 69.5q118 0 174 -77.5t43 -220.5h-302q12 -105 115 -105q60 0 125 31l47 -95q-84 -47 -187 -47zM187 304h161q-2 91 -74 91q-73 0 -87 -91z" />
    <glyph glyph-name="f" unicode="f" horiz-adv-x="381" 
d="M87 0v378h-71v112h71v43q0 90 52 144.5t145 54.5q88 0 130 -26l-34 -112q-31 14 -69 14q-72 0 -72 -87v-31h114v-112h-114v-378h-152z" />
    <glyph glyph-name="g" unicode="g" horiz-adv-x="547" 
d="M244 -239q-221 0 -221 128q0 74 82 118q-43 27 -43 75q0 63 56 97q-86 47 -86 145q0 81 59.5 129.5t163.5 48.5q51 0 92 -12h183v-97h-65q16 -34 16 -69q0 -81 -56.5 -129t-160.5 -48q-27 0 -59 5q-14 -12 -14 -25q0 -19 22 -25t86 -9q31 -2 44.5 -2.5t42.5 -4.5
t43.5 -9.5t35.5 -17t31 -26.5t18 -38t8 -53q0 -80 -75.5 -130.5t-202.5 -50.5zM254 -141q55 0 86 18.5t31 45.5q0 19 -12 28.5t-26 11.5t-52 5q-16 1 -25 2q-33 2 -59 6q-29 -23 -29 -56q0 -61 86 -61zM256 243q37 0 58 21t21 60t-21 60.5t-58 21.5t-57.5 -21.5t-20.5 -60.5
t20.5 -60t57.5 -21z" />
    <glyph glyph-name="h" unicode="h" horiz-adv-x="565" 
d="M58 0v720h152v-286q65 68 151 68q77 0 112.5 -43.5t35.5 -117.5v-341h-152v310q0 34 -13.5 50t-45.5 16q-47 0 -88 -53v-323h-152z" />
    <glyph glyph-name="i" unicode="i" horiz-adv-x="290" 
d="M145 544q-39 0 -64.5 25.5t-25.5 61.5t25.5 61.5t64.5 25.5t64.5 -25.5t25.5 -61.5t-25.5 -61.5t-64.5 -25.5zM68 0v490h154v-490h-154z" />
    <glyph glyph-name="j" unicode="j" horiz-adv-x="287" 
d="M43 -234q-60 0 -99 13l26 117q25 -7 40 -7q33 0 45 22t12 79v500h154v-515q0 -209 -178 -209zM143 544q-39 0 -64.5 25.5t-25.5 61.5t25.5 61.5t64.5 25.5t65 -25.5t26 -61.5t-26 -61.5t-65 -25.5z" />
    <glyph glyph-name="k" unicode="k" horiz-adv-x="533" 
d="M58 0v720h152v-419l147 189h165l-175 -220l177 -270h-175l-139 223v-223h-152z" />
    <glyph glyph-name="l" unicode="l" horiz-adv-x="286" 
d="M67 0v720h152v-720h-152z" />
    <glyph glyph-name="m" unicode="m" horiz-adv-x="832" 
d="M59 0v490h149v-59q62 71 146 71q95 0 125 -76q68 76 157 76q140 0 140 -161v-341h-152v310q0 34 -11.5 50t-39.5 16q-40 0 -80 -49v-327h-152v310q0 66 -50 66q-8 0 -15.5 -2t-13.5 -4.5t-12.5 -7t-10.5 -7.5t-9.5 -8.5t-8 -8.5t-6.5 -7.5t-4 -5.5v-325h-152z" />
    <glyph glyph-name="n" unicode="n" 
d="M59 0v490h149v-60q63 72 154 72q77 0 112.5 -44t35.5 -117v-341h-152v310q0 34 -13.5 50t-45.5 16q-48 0 -88 -53v-323h-152z" />
    <glyph glyph-name="o" unicode="o" horiz-adv-x="558" 
d="M278 -12q-121 0 -186 75t-65 180q0 106 64.5 182.5t186.5 76.5t187 -74.5t65 -179.5t-65.5 -182.5t-186.5 -77.5zM281 101q48 0 68 36t20 106q0 148 -93 148q-48 0 -68 -37t-20 -106q0 -147 93 -147z" />
    <glyph glyph-name="p" unicode="p" horiz-adv-x="569" 
d="M59 -219v709h149v-51q53 63 134 63q94 0 146.5 -67t52.5 -190q0 -115 -61.5 -186t-158.5 -71q-66 0 -110 32v-239h-152zM286 104q45 0 69.5 36.5t24.5 105.5q0 136 -87 136q-48 0 -82 -44v-205q33 -29 75 -29z" />
    <glyph glyph-name="q" unicode="q" horiz-adv-x="564" 
d="M356 -218v257q-49 -51 -119 -51q-94 0 -150.5 64t-56.5 189t74 193t191 68q125 0 213 -36v-684h-152zM282 105q43 0 74 34v236q-27 9 -59 9q-106 0 -106 -144q0 -135 91 -135z" />
    <glyph glyph-name="r" unicode="r" horiz-adv-x="405" 
d="M59 0v490h152v-64q45 76 122 76q45 0 71 -15l-36 -130q-22 12 -54 12q-63 0 -103 -66v-303h-152z" />
    <glyph glyph-name="s" unicode="s" horiz-adv-x="424" 
d="M200 -12q-110 0 -179 46l49 105q62 -40 121 -40q74 0 74 36q0 13 -15.5 22t-52 22.5t-61.5 25.5q-52 25 -76.5 57.5t-24.5 84.5q0 71 52.5 113t138.5 42q93 0 161 -37l-50 -103q-53 29 -104 29q-63 0 -63 -36q0 -8 5 -14.5t16 -12t21.5 -9t29 -10t31.5 -11.5
q64 -26 96 -59t32 -90q0 -79 -53 -120t-148 -41z" />
    <glyph glyph-name="t" unicode="t" horiz-adv-x="399" 
d="M260 -12q-90 0 -128 41t-38 119v230h-76v112h76v141h152v-141h112v-112h-112v-198q0 -36 10.5 -52t35.5 -16q32 0 64 16l33 -112q-51 -28 -129 -28z" />
    <glyph glyph-name="u" unicode="u" 
d="M204 -12q-148 0 -148 160v342h152v-310q0 -34 13.5 -50t45.5 -16q45 0 88 52v324h152v-337q0 -89 14 -153h-150q-8 26 -10 64q-59 -76 -157 -76z" />
    <glyph glyph-name="v" unicode="v" horiz-adv-x="522" 
d="M189 0l-180 490h163l91 -303h2l93 303h155l-182 -490h-142z" />
    <glyph glyph-name="w" unicode="w" horiz-adv-x="757" 
d="M146 0l-137 490h163l65 -294h2l74 294h139l74 -296h2l68 296h151l-137 -490h-137l-95 311h-2l-93 -311h-137z" />
    <glyph glyph-name="x" unicode="x" horiz-adv-x="527" 
d="M14 0l167 252l-162 238h171q78 -118 79 -121l69 121h155l-151 -231l172 -259h-172l-89 142l-82 -142h-157z" />
    <glyph glyph-name="y" unicode="y" horiz-adv-x="532" 
d="M85 -235q-48 0 -85 10l22 120q21 -6 51 -6q47 0 70 19t37 58l17 47l-183 477h161l101 -302h3l89 302h155l-200 -538q-37 -99 -88 -143t-150 -44z" />
    <glyph glyph-name="z" unicode="z" horiz-adv-x="469" 
d="M38 0v81l202 295h-193v114h378v-86l-200 -290h201v-114h-388z" />
    <glyph glyph-name="braceleft" unicode="{" horiz-adv-x="421" 
d="M263 -161q-49 0 -86 34t-37 95v162q0 96 -115 97v116q60 1 87.5 25t27.5 73v151q0 63 36.5 95.5t88.5 32.5h129v-112h-60q-28 0 -38.5 -16t-10.5 -49v-136q0 -93 -88 -119v-2q88 -29 88 -126v-145q0 -36 9 -50t39 -14h61v-112h-131z" />
    <glyph glyph-name="bar" unicode="|" horiz-adv-x="287" 
d="M76 -250v1000h135v-1000h-135z" />
    <glyph glyph-name="braceright" unicode="}" horiz-adv-x="421" 
d="M26 -161v112h61q28 0 38.5 16t10.5 49v147q0 93 88 119v2q-88 29 -88 126v134q0 36 -9 50t-39 14h-62v112h132q49 0 86 -34t37 -95v-150q0 -97 115 -98v-116q-60 -1 -87.5 -24.5t-27.5 -72.5v-163q0 -63 -36.5 -95.5t-88.5 -32.5h-130z" />
    <glyph glyph-name="asciitilde" unicode="~" horiz-adv-x="584" 
d="M387 160q-50 0 -104.5 27.5t-92.5 27.5q-48 0 -89 -41l-69 89q71 76 164 76q46 0 100.5 -27.5t96.5 -27.5q49 0 90 41l69 -89q-71 -76 -165 -76z" />
    <glyph glyph-name="uni00A0" unicode="&#xa0;" horiz-adv-x="184" 
 />
    <glyph glyph-name="exclamdown" unicode="&#xa1;" horiz-adv-x="305" 
d="M157 322q-41 0 -67.5 26t-26.5 63t26.5 64t67.5 27q40 0 66.5 -27t26.5 -64t-26.5 -63t-66.5 -26zM68 -175l28 433h121l28 -433h-177z" />
    <glyph glyph-name="cent" unicode="&#xa2;" horiz-adv-x="464" 
d="M202 -123v122q-82 22 -128.5 86.5t-46.5 158.5q0 95 47 159t128 86v111h124v-99q72 -6 118 -36l-46 -103q-42 26 -98 26q-53 0 -82.5 -37t-29.5 -102q0 -67 29.5 -106t85.5 -39q52 0 101 26l44 -100q-57 -34 -122 -40v-113h-124z" />
    <glyph glyph-name="sterling" unicode="&#xa3;" horiz-adv-x="527" 
d="M62 260v109h83q-12 66 -12 110q0 91 60.5 145t167.5 54q90 0 151 -38l-59 -105q-40 22 -83 22q-78 0 -78 -91q0 -42 11 -97h144v-109h-129v-3q0 -45 -17.5 -81t-41.5 -56h225v-120h-417v96q47 23 70.5 65t23.5 92v7h-99z" />
    <glyph glyph-name="currency" unicode="&#xa4;" horiz-adv-x="647" 
d="M177 -3l-111 85l79 100q-33 49 -33 116q0 66 37 120l-80 101l111 85l78 -106q36 12 71 12q31 0 63 -9l77 104l112 -86l-76 -95q41 -51 41 -126q0 -71 -38 -124l71 -91l-111 -85l-71 97q-35 -10 -68 -10q-40 0 -77 13zM329 218q35 0 54.5 22.5t19.5 57.5q0 36 -20 58
t-54 22q-33 0 -54 -22.5t-21 -57.5t20 -57.5t55 -22.5z" />
    <glyph glyph-name="yen" unicode="&#xa5;" horiz-adv-x="603" 
d="M225 0v82h-163v103h163v54h-163v103h115l-172 324h179l129 -268h1l128 268h157l-166 -324h117v-103h-164v-54h164v-103h-164v-82h-161z" />
    <glyph glyph-name="brokenbar" unicode="&#xa6;" horiz-adv-x="261" 
d="M61 -250v378h136v-378h-136zM61 382v368h136v-368h-136z" />
    <glyph glyph-name="section" unicode="&#xa7;" horiz-adv-x="464" 
d="M188 -152q-92 0 -142 34l43 109q35 -25 79 -25q34 0 53 15.5t19 43.5q0 20 -21.5 44t-52.5 48t-62 52.5t-52.5 68.5t-21.5 84q0 86 79 137q-35 53 -35 104q0 76 54 122.5t135 46.5q91 0 148 -39l-54 -97q-35 23 -74 23q-26 0 -40.5 -14t-14.5 -37t21 -48t51.5 -50.5
t61 -55t51.5 -70t21 -86.5q0 -77 -76 -135q36 -48 36 -98q0 -87 -58.5 -132t-147.5 -45zM271 208q18 18 18 44q0 6 -2 12.5t-6 14t-8.5 13.5t-12 14.5t-13 14.5t-15.5 15t-15 14t-16 14.5t-15 13.5q-13 -13 -13 -44q0 -18 17.5 -43t34 -41t46.5 -42z" />
    <glyph glyph-name="dieresis" unicode="&#xa8;" horiz-adv-x="500" 
d="M141 543q-35 0 -57.5 22.5t-22.5 55.5q0 31 22.5 54t57.5 23t58 -23t23 -54q0 -33 -23 -55.5t-58 -22.5zM359 543q-35 0 -58 22.5t-23 55.5q0 31 23 54t58 23t57.5 -23t22.5 -54q0 -33 -22.5 -55.5t-57.5 -22.5z" />
    <glyph glyph-name="copyright" unicode="&#xa9;" horiz-adv-x="827" 
d="M419 138q-94 0 -156 62.5t-62 158.5q0 95 63.5 158t157.5 63q88 0 150 -55l-59 -84q-41 33 -87 33q-45 0 -73.5 -31.5t-28.5 -81.5q0 -53 29.5 -87t74.5 -34q49 0 96 44l56 -78q-68 -68 -161 -68zM413 -14q-154 0 -263 109.5t-109 263.5t109 263.5t263 109.5
q155 0 264 -109t109 -264t-109 -264t-264 -109zM413 71q124 0 203 79t79 209q0 129 -79 208.5t-203 79.5t-203 -79.5t-79 -208.5q0 -130 79 -209t203 -79z" />
    <glyph glyph-name="ordfeminine" unicode="&#xaa;" horiz-adv-x="382" 
d="M133 311q-50 0 -81.5 26.5t-31.5 74.5q0 58 49 91t149 33v14q0 20 -10.5 29.5t-39.5 9.5q-42 0 -89 -32l-49 70q59 51 152 51q81 0 117 -31t36 -103v-113q0 -64 14 -111h-117q-5 11 -7 33q-40 -42 -92 -42zM167 392q27 0 51 21v55q-58 0 -77 -18q-11 -11 -11 -27
q0 -31 37 -31z" />
    <glyph glyph-name="guillemotleft" unicode="&#xab;" horiz-adv-x="559" 
d="M144 52l-116 193l116 194h155l-115 -194l115 -193h-155zM380 52l-116 193l116 194h155l-115 -194l115 -193h-155z" />
    <glyph glyph-name="logicalnot" unicode="&#xac;" horiz-adv-x="635" 
d="M470 29v178h-430v116h550v-294h-120z" />
    <glyph glyph-name="uni00AD" unicode="&#xad;" horiz-adv-x="336" 
d="M50 219v122h237v-122h-237z" />
    <glyph glyph-name="registered" unicode="&#xae;" horiz-adv-x="827" 
d="M267 163v405h149q74 0 113 -31.5t39 -88.5q0 -88 -87 -110q22 -18 48 -62l66 -113h-111l-69 123q-14 23 -22.5 30t-23.5 7v-160h-102zM413 -14q-154 0 -263 109.5t-109 263.5t109 263.5t263 109.5q155 0 264 -109t109 -264t-109 -264t-264 -109zM413 71q124 0 203 79
t79 209q0 129 -79 208.5t-203 79.5t-203 -79.5t-79 -208.5q0 -130 79 -209t203 -79zM369 391h36q61 0 61 51t-58 51h-39v-102z" />
    <glyph glyph-name="macron" unicode="&#xaf;" horiz-adv-x="500" 
d="M107 558v106h285v-106h-285z" />
    <glyph glyph-name="degree" unicode="&#xb0;" horiz-adv-x="346" 
d="M173 390q-60 0 -103.5 42t-43.5 102t43.5 102t103.5 42t103.5 -42t43.5 -102t-43 -102t-104 -42zM173 473q25 0 41 17t16 44t-16 44t-41 17t-41 -17t-16 -44t16 -44t41 -17z" />
    <glyph glyph-name="plusminus" unicode="&#xb1;" horiz-adv-x="574" 
d="M215 27v178h-174v115h174v173h128v-173h173v-115h-173v-178h-128zM49 -164v116h459v-116h-459z" />
    <glyph glyph-name="twosuperior" unicode="&#xb2;" horiz-adv-x="346" 
d="M22 330v60q8 6 25.5 19.5t25.5 20t23 18t22 18.5t18 17t16.5 17.5t11 16.5t8 17.5t2.5 16.5q0 33 -36 33q-37 0 -73 -32l-54 73q57 48 143 48q69 0 106.5 -30t37.5 -79q0 -40 -29 -73.5t-83 -74.5q18 2 50 2h75v-88h-289z" />
    <glyph glyph-name="threesuperior" unicode="&#xb3;" horiz-adv-x="327" 
d="M109 324q-61 0 -90 11l21 85q28 -12 65 -12q60 0 60 26q0 29 -86 31v66q78 3 78 35q0 21 -32 21t-63 -18l-40 72q53 32 130 32q57 0 91 -21.5t34 -58.5q0 -31 -22 -50t-51 -26v-1q33 -5 59.5 -24.5t26.5 -56.5q0 -52 -47.5 -81.5t-133.5 -29.5z" />
    <glyph glyph-name="acute" unicode="&#xb4;" horiz-adv-x="500" 
d="M144 541l80 138h192l-142 -138h-130z" />
    <glyph glyph-name="uni00B5" unicode="&#xb5;" horiz-adv-x="571" 
d="M57 -210v700h152v-312q0 -33 12.5 -48.5t42.5 -15.5q48 0 91 52v324h152v-338q0 -88 14 -152h-149q-9 21 -11 63q-55 -62 -117 -70q-23 -2 -39 2h-4q4 -18 4 -95v-110h-148z" />
    <glyph glyph-name="paragraph" unicode="&#xb6;" horiz-adv-x="668" 
d="M238 -177v421q-88 0 -148.5 58.5t-60.5 151.5q0 94 60 153t149 59h406v-118h-73v-725h-132v725h-69v-725h-132z" />
    <glyph glyph-name="periodcentered" unicode="&#xb7;" horiz-adv-x="270" 
d="M135 196q-41 0 -69 27t-28 67t28 67t69 27t69 -27t28 -67t-28 -67t-69 -27z" />
    <glyph glyph-name="cedilla" unicode="&#xb8;" horiz-adv-x="493" 
d="M230 -233q-56 0 -88 16l19 65q22 -11 51 -11q47 0 47 33q0 42 -71 36l36 98h85l-21 -56q33 -7 52.5 -29t19.5 -56q0 -42 -36 -69t-94 -27z" />
    <glyph glyph-name="onesuperior" unicode="&#xb9;" horiz-adv-x="295" 
d="M107 330v238l-73 -17l-24 89l127 26h86v-336h-116z" />
    <glyph glyph-name="ordmasculine" unicode="&#xba;" horiz-adv-x="416" 
d="M208 311q-88 0 -136.5 53t-48.5 129q0 77 48 131t136 54t137 -52.5t49 -128.5q0 -77 -48.5 -131.5t-136.5 -54.5zM209 397q33 0 45.5 24t12.5 72q0 101 -62 101q-32 0 -44.5 -24.5t-12.5 -72.5q0 -100 61 -100z" />
    <glyph glyph-name="guillemotright" unicode="&#xbb;" horiz-adv-x="559" 
d="M24 52l115 194l-115 193h154l116 -193l-116 -194h-154zM260 52l115 194l-115 193h155l116 -193l-116 -194h-155z" />
    <glyph glyph-name="onequarter" unicode="&#xbc;" horiz-adv-x="777" 
d="M107 330v238l-73 -17l-24 89l127 26h86v-336h-116zM105 0l406 666h120l-406 -666h-120zM587 0v59h-168v69l174 209h110v-195h52v-83h-52v-59h-116zM524 140q18 2 43 2h24v78h-1z" />
    <glyph glyph-name="onehalf" unicode="&#xbd;" horiz-adv-x="790" 
d="M107 330v238l-73 -17l-24 89l127 26h86v-336h-116zM105 0l406 666h120l-406 -666h-120zM466 0v60q96 73 119 97q33 36 33 65q0 32 -35 32q-36 0 -74 -31l-54 72q57 48 143 48q69 0 106.5 -30t37.5 -78q0 -41 -29 -74.5t-83 -74.5q18 2 51 2h74v-88h-289z" />
    <glyph glyph-name="threequarters" unicode="&#xbe;" horiz-adv-x="809" 
d="M109 324q-61 0 -90 11l21 85q28 -12 65 -12q60 0 60 26q0 29 -86 31v66q78 3 78 35q0 21 -32 21t-63 -18l-40 72q53 32 130 32q57 0 91 -21.5t34 -58.5q0 -31 -22 -50t-51 -26v-1q33 -5 59.5 -24.5t26.5 -56.5q0 -52 -47.5 -81.5t-133.5 -29.5zM137 0l406 666h121
l-406 -666h-121zM620 0v59h-169v69l175 209h109v-195h52v-83h-52v-59h-115zM557 140q18 2 42 2h25v78h-1z" />
    <glyph glyph-name="questiondown" unicode="&#xbf;" horiz-adv-x="414" 
d="M239 -187q-105 0 -159 48.5t-54 124.5q0 89 84 150q8 6 24 16.5t23 16t16 14t12.5 18.5t3.5 23v35h130v-50q0 -45 -16 -71t-51 -49q-33 -22 -47 -41t-14 -48q0 -63 78 -63q39 0 87 24l52 -110q-69 -38 -169 -38zM253 322q-40 0 -66.5 26t-26.5 63t26.5 64t66.5 27
q41 0 67.5 -27t26.5 -64t-26.5 -63t-67.5 -26z" />
    <glyph glyph-name="Agrave" unicode="&#xc0;" horiz-adv-x="697" 
d="M258 240h166l-49 137q-6 17 -33 116h-2q-1 -4 -6 -22t-12.5 -44t-15.5 -50zM13 0l254 666h155l262 -666h-176l-39 112h-254l-39 -112h-163zM287 715l-142 138h192l80 -138h-130z" />
    <glyph glyph-name="Aacute" unicode="&#xc1;" horiz-adv-x="697" 
d="M258 240h166l-49 137q-6 17 -33 116h-2q-1 -4 -6 -22t-12.5 -44t-15.5 -50zM13 0l254 666h155l262 -666h-176l-39 112h-254l-39 -112h-163zM264 715l80 138h192l-142 -138h-130z" />
    <glyph glyph-name="Acircumflex" unicode="&#xc2;" horiz-adv-x="697" 
d="M258 240h166l-49 137q-6 17 -33 116h-2q-1 -4 -6 -22t-12.5 -44t-15.5 -50zM13 0l254 666h155l262 -666h-176l-39 112h-254l-39 -112h-163zM154 716l129 162h116l127 -162h-127l-59 60l-59 -60h-127z" />
    <glyph glyph-name="Atilde" unicode="&#xc3;" horiz-adv-x="697" 
d="M258 240h166l-49 137q-6 17 -33 116h-2q-1 -4 -6 -22t-12.5 -44t-15.5 -50zM13 0l254 666h155l262 -666h-176l-39 112h-254l-39 -112h-163zM402 721q-34 0 -69 17t-53 17q-25 0 -55 -30l-68 58q17 32 48.5 56.5t70.5 24.5q35 0 69.5 -17t52.5 -17q29 0 57 31l68 -59
q-18 -32 -50 -56.5t-71 -24.5z" />
    <glyph glyph-name="Adieresis" unicode="&#xc4;" horiz-adv-x="697" 
d="M258 240h166l-49 137q-6 17 -33 116h-2q-1 -4 -6 -22t-12.5 -44t-15.5 -50zM13 0l254 666h155l262 -666h-176l-39 112h-254l-39 -112h-163zM231 717q-35 0 -57.5 22.5t-22.5 55.5q0 31 22.5 54t57.5 23t58 -23t23 -54q0 -33 -23 -55.5t-58 -22.5zM449 717q-35 0 -58 22.5
t-23 55.5q0 31 23 54t58 23t57.5 -23t22.5 -54q0 -33 -22.5 -55.5t-57.5 -22.5z" />
    <glyph glyph-name="Aring" unicode="&#xc5;" horiz-adv-x="697" 
d="M258 240h166l-49 137q-6 17 -33 116h-2q-1 -4 -6 -22t-12.5 -44t-15.5 -50zM13 0l254 666h155l262 -666h-176l-39 112h-254l-39 -112h-163zM340 707q-46 0 -80 31.5t-34 77.5q0 47 34 78.5t80 31.5t80 -31.5t34 -78.5q0 -46 -34 -77.5t-80 -31.5zM340 767q20 0 32.5 14.5
t12.5 34.5q0 21 -12.5 35t-32.5 14t-32.5 -14t-12.5 -35q0 -20 12.5 -34.5t32.5 -14.5z" />
    <glyph glyph-name="AE" unicode="&#xc6;" horiz-adv-x="873" 
d="M-26 0l377 666h459v-132h-239v-129h211v-124h-211v-149h246v-132h-405v127h-196l-68 -127h-174zM282 252h130v242z" />
    <glyph glyph-name="Ccedilla" unicode="&#xc7;" horiz-adv-x="619" 
d="M315 -233q-56 0 -88 16l19 65q22 -11 51 -11q47 0 47 33q0 42 -71 36l33 90q-129 24 -197.5 118t-68.5 220q0 93 38 169.5t119 125.5t193 49q122 0 204 -54l-71 -117q-62 38 -136 38q-83 0 -129.5 -58t-46.5 -149q0 -95 46.5 -155.5t132.5 -60.5q77 0 146 50l66 -113
q-30 -26 -88.5 -48t-125.5 -23l-15 -40q33 -7 52.5 -29t19.5 -56q0 -42 -36 -69t-94 -27z" />
    <glyph glyph-name="Egrave" unicode="&#xc8;" horiz-adv-x="539" 
d="M78 0v666h398v-132h-238v-129h210v-124h-210v-149h245v-132h-405zM223 715l-142 138h192l80 -138h-130z" />
    <glyph glyph-name="Eacute" unicode="&#xc9;" horiz-adv-x="539" 
d="M199 715l80 138h192l-142 -138h-130zM78 0v666h398v-132h-238v-129h210v-124h-210v-149h245v-132h-405z" />
    <glyph glyph-name="Ecircumflex" unicode="&#xca;" horiz-adv-x="539" 
d="M89 716l129 162h116l127 -162h-127l-59 60l-59 -60h-127zM78 0v666h398v-132h-238v-129h210v-124h-210v-149h245v-132h-405z" />
    <glyph glyph-name="Edieresis" unicode="&#xcb;" horiz-adv-x="539" 
d="M166 717q-35 0 -57.5 22.5t-22.5 55.5q0 31 23 54t57 23q35 0 58 -23t23 -54q0 -33 -23 -55.5t-58 -22.5zM384 717q-35 0 -58 22.5t-23 55.5q0 31 23 54t58 23q34 0 57 -23t23 -54q0 -33 -22.5 -55.5t-57.5 -22.5zM78 0v666h398v-132h-238v-129h210v-124h-210v-149h245
v-132h-405z" />
    <glyph glyph-name="Igrave" unicode="&#xcc;" horiz-adv-x="338" 
d="M84 0v666h163v-666h-163zM113 715l-142 138h192l80 -138h-130z" />
    <glyph glyph-name="Iacute" unicode="&#xcd;" horiz-adv-x="338" 
d="M84 0v666h163v-666h-163zM90 715l80 138h192l-142 -138h-130z" />
    <glyph glyph-name="Icircumflex" unicode="&#xce;" horiz-adv-x="338" 
d="M84 0v666h163v-666h-163zM-20 716l129 162h116l127 -162h-127l-59 60l-59 -60h-127z" />
    <glyph glyph-name="Idieresis" unicode="&#xcf;" horiz-adv-x="338" 
d="M84 0v666h163v-666h-163zM57 717q-35 0 -57.5 22.5t-22.5 55.5q0 31 22.5 54t57.5 23t58 -23t23 -54q0 -33 -23 -55.5t-58 -22.5zM275 717q-35 0 -58 22.5t-23 55.5q0 31 23 54t58 23t57.5 -23t22.5 -54q0 -33 -22.5 -55.5t-57.5 -22.5z" />
    <glyph glyph-name="Eth" unicode="&#xd0;" horiz-adv-x="715" 
d="M78 0v281h-62v112h62v273h217q189 0 285 -87t96 -237q0 -152 -98.5 -247t-288.5 -95h-211zM240 128h62q204 0 204 210q0 103 -51 151.5t-158 48.5h-57v-145h103v-112h-103v-153z" />
    <glyph glyph-name="Ntilde" unicode="&#xd1;" horiz-adv-x="752" 
d="M78 0v666h163l216 -310q15 -21 29 -43t22 -35.5t14.5 -25.5t7.5 -13h2q-4 28 -4 109v318h146v-666h-147l-237 336q-18 25 -33.5 48.5t-24 38t-10.5 17.5h-2q4 -28 4 -93v-347h-146zM437 721q-34 0 -69 17t-53 17q-25 0 -55 -30l-68 58q17 32 48.5 56.5t70.5 24.5
q35 0 69.5 -17t52.5 -17q29 0 57 31l68 -59q-18 -32 -50 -56.5t-71 -24.5z" />
    <glyph glyph-name="Ograve" unicode="&#xd2;" horiz-adv-x="778" 
d="M393 -12q-164 0 -258.5 101t-94.5 243q0 92 38.5 169.5t119.5 127t191 49.5q164 0 256 -99.5t92 -241.5q0 -69 -22 -131t-63.5 -111t-108.5 -78t-150 -29zM389 117q90 0 134 60.5t44 154.5q0 95 -43 156t-131 61q-90 0 -136 -59.5t-46 -152.5q0 -95 45 -157.5t133 -62.5z
M336 715l-142 138h192l80 -138h-130z" />
    <glyph glyph-name="Oacute" unicode="&#xd3;" horiz-adv-x="778" 
d="M312 715l80 138h192l-142 -138h-130zM393 -12q-164 0 -258.5 101t-94.5 243q0 92 38.5 169.5t119.5 127t191 49.5q164 0 256 -99.5t92 -241.5q0 -69 -22 -131t-63.5 -111t-108.5 -78t-150 -29zM389 117q90 0 134 60.5t44 154.5q0 95 -43 156t-131 61q-90 0 -136 -59.5
t-46 -152.5q0 -95 45 -157.5t133 -62.5z" />
    <glyph glyph-name="Ocircumflex" unicode="&#xd4;" horiz-adv-x="778" 
d="M202 716l129 162h116l127 -162h-127l-59 60l-59 -60h-127zM393 -12q-164 0 -258.5 101t-94.5 243q0 92 38.5 169.5t119.5 127t191 49.5q164 0 256 -99.5t92 -241.5q0 -69 -22 -131t-63.5 -111t-108.5 -78t-150 -29zM389 117q90 0 134 60.5t44 154.5q0 95 -43 156t-131 61
q-90 0 -136 -59.5t-46 -152.5q0 -95 45 -157.5t133 -62.5z" />
    <glyph glyph-name="Otilde" unicode="&#xd5;" horiz-adv-x="778" 
d="M393 -12q-164 0 -258.5 101t-94.5 243q0 92 38.5 169.5t119.5 127t191 49.5q164 0 256 -99.5t92 -241.5q0 -69 -22 -131t-63.5 -111t-108.5 -78t-150 -29zM389 117q90 0 134 60.5t44 154.5q0 95 -43 156t-131 61q-90 0 -136 -59.5t-46 -152.5q0 -95 45 -157.5t133 -62.5z
M450 721q-34 0 -69 17t-53 17q-25 0 -55 -30l-68 58q17 32 48.5 56.5t70.5 24.5q35 0 69.5 -17t52.5 -17q29 0 57 31l68 -59q-18 -32 -50 -56.5t-71 -24.5z" />
    <glyph glyph-name="Odieresis" unicode="&#xd6;" horiz-adv-x="778" 
d="M279 717q-35 0 -57.5 22.5t-22.5 55.5q0 31 22.5 54t57.5 23t58 -23t23 -54q0 -33 -23 -55.5t-58 -22.5zM497 717q-35 0 -58 22.5t-23 55.5q0 31 23 54t58 23t57.5 -23t22.5 -54q0 -33 -22.5 -55.5t-57.5 -22.5zM393 -12q-164 0 -258.5 101t-94.5 243q0 92 38.5 169.5
t119.5 127t191 49.5q164 0 256 -99.5t92 -241.5q0 -69 -22 -131t-63.5 -111t-108.5 -78t-150 -29zM389 117q90 0 134 60.5t44 154.5q0 95 -43 156t-131 61q-90 0 -136 -59.5t-46 -152.5q0 -95 45 -157.5t133 -62.5z" />
    <glyph glyph-name="multiply" unicode="&#xd7;" horiz-adv-x="511" 
d="M377 57l-121 121l-117 -117l-87 87l117 117l-118 118l87 88l119 -118l116 116l87 -87l-116 -116l121 -121z" />
    <glyph glyph-name="Oslash" unicode="&#xd8;" horiz-adv-x="778" 
d="M167 -77l-97 68l68 94q-98 98 -98 247q0 92 38.5 169.5t119.5 127t191 49.5q88 0 156 -31l65 90l96 -69l-63 -87q94 -97 94 -244q0 -69 -22 -131t-63.5 -111t-108.5 -78t-150 -29q-86 0 -157 30zM211 337q0 -74 26 -126l231 322q-34 16 -75 16q-90 0 -136 -59.5
t-46 -152.5zM389 117q90 0 134 60.5t44 154.5q0 70 -24 122l-231 -321q32 -16 77 -16z" />
    <glyph glyph-name="Ugrave" unicode="&#xd9;" horiz-adv-x="723" 
d="M368 -12q-293 0 -293 273v405h162v-393q0 -80 30.5 -117t103.5 -37q128 0 128 147v400h148v-389q0 -141 -70.5 -215t-208.5 -74zM308 715l-142 138h192l80 -138h-130z" />
    <glyph glyph-name="Uacute" unicode="&#xda;" horiz-adv-x="723" 
d="M285 715l80 138h192l-142 -138h-130zM368 -12q-293 0 -293 273v405h162v-393q0 -80 30.5 -117t103.5 -37q128 0 128 147v400h148v-389q0 -141 -70.5 -215t-208.5 -74z" />
    <glyph glyph-name="Ucircumflex" unicode="&#xdb;" horiz-adv-x="723" 
d="M175 716l129 162h116l127 -162h-127l-59 60l-59 -60h-127zM368 -12q-293 0 -293 273v405h162v-393q0 -80 30.5 -117t103.5 -37q128 0 128 147v400h148v-389q0 -141 -70.5 -215t-208.5 -74z" />
    <glyph glyph-name="Udieresis" unicode="&#xdc;" horiz-adv-x="723" 
d="M252 717q-35 0 -57.5 22.5t-22.5 55.5q0 31 23 54t57 23q35 0 58 -23t23 -54q0 -33 -23 -55.5t-58 -22.5zM470 717q-35 0 -58 22.5t-23 55.5q0 31 23 54t58 23q34 0 57 -23t23 -54q0 -33 -22.5 -55.5t-57.5 -22.5zM368 -12q-293 0 -293 273v405h162v-393q0 -80 30.5 -117
t103.5 -37q128 0 128 147v400h148v-389q0 -141 -70.5 -215t-208.5 -74z" />
    <glyph glyph-name="Yacute" unicode="&#xdd;" horiz-adv-x="612" 
d="M229 0v251l-220 415h179l129 -265h1l128 265h157l-212 -415v-251h-162zM234 715l80 138h192l-142 -138h-130z" />
    <glyph glyph-name="Thorn" unicode="&#xde;" horiz-adv-x="620" 
d="M77 0v666h161v-106h74q117 0 189 -55t72 -161q0 -109 -74.5 -166.5t-203.5 -57.5h-57v-120h-161zM238 241h58q60 0 88 24.5t28 76.5q0 96 -112 96h-62v-197z" />
    <glyph glyph-name="germandbls" unicode="&#xdf;" horiz-adv-x="590" 
d="M391 -12q-87 0 -145 31l39 107q38 -27 84 -27q60 0 60 42q0 9 -4.5 17t-14 16t-18.5 14t-25 15.5t-26 16.5q-75 53 -75 120q0 19 3 34t12 29t13 19.5t18.5 20.5t15.5 16q38 38 38 81q0 76 -71 76q-83 0 -83 -121v-495h-152v497q0 119 67 177t171 58t161.5 -53t57.5 -133
q0 -61 -49 -108q-9 -11 -28 -26.5t-27.5 -27.5t-8.5 -27q0 -4 1 -8t2.5 -7.5t4.5 -7.5t5.5 -6.5t7.5 -6.5t8.5 -6.5t10 -6.5t10.5 -6.5t12.5 -7.5t12.5 -7q28 -18 44.5 -32t31.5 -44.5t15 -70.5q0 -70 -47.5 -111t-131.5 -41z" />
    <glyph glyph-name="agrave" unicode="&#xe0;" horiz-adv-x="512" 
d="M180 -12q-65 0 -107.5 37.5t-42.5 102.5q0 88 75 131.5t185 43.5h16v23q0 30 -16 43.5t-58 13.5q-67 0 -123 -44l-64 91q81 72 206 72q108 0 157.5 -44t49.5 -143v-160q0 -89 14 -155h-149q-7 21 -9 51q-50 -63 -134 -63zM229 95q44 0 77 35v82h-16q-116 0 -116 -71
q0 -22 15.5 -34t39.5 -12zM202 541l-142 138h192l80 -138h-130z" />
    <glyph glyph-name="aacute" unicode="&#xe1;" horiz-adv-x="512" 
d="M180 -12q-65 0 -107.5 37.5t-42.5 102.5q0 88 75 131.5t185 43.5h16v23q0 30 -16 43.5t-58 13.5q-67 0 -123 -44l-64 91q81 72 206 72q108 0 157.5 -44t49.5 -143v-160q0 -89 14 -155h-149q-7 21 -9 51q-50 -63 -134 -63zM229 95q44 0 77 35v82h-16q-116 0 -116 -71
q0 -22 15.5 -34t39.5 -12zM178 541l80 138h192l-142 -138h-130z" />
    <glyph glyph-name="acircumflex" unicode="&#xe2;" horiz-adv-x="512" 
d="M180 -12q-65 0 -107.5 37.5t-42.5 102.5q0 88 75 131.5t185 43.5h16v23q0 30 -16 43.5t-58 13.5q-67 0 -123 -44l-64 91q81 72 206 72q108 0 157.5 -44t49.5 -143v-160q0 -89 14 -155h-149q-7 21 -9 51q-50 -63 -134 -63zM229 95q44 0 77 35v82h-16q-116 0 -116 -71
q0 -22 15.5 -34t39.5 -12zM68 542l129 162h116l127 -162h-127l-59 60l-59 -60h-127z" />
    <glyph glyph-name="atilde" unicode="&#xe3;" horiz-adv-x="512" 
d="M180 -12q-65 0 -107.5 37.5t-42.5 102.5q0 88 75 131.5t185 43.5h16v23q0 30 -16 43.5t-58 13.5q-67 0 -123 -44l-64 91q81 72 206 72q108 0 157.5 -44t49.5 -143v-160q0 -89 14 -155h-149q-7 21 -9 51q-50 -63 -134 -63zM229 95q44 0 77 35v82h-16q-116 0 -116 -71
q0 -22 15.5 -34t39.5 -12zM316 547q-34 0 -69 17t-53 17q-25 0 -55 -30l-68 58q17 32 48.5 56.5t70.5 24.5q35 0 69.5 -17t52.5 -17q29 0 57 31l68 -59q-18 -32 -50 -56.5t-71 -24.5z" />
    <glyph glyph-name="adieresis" unicode="&#xe4;" horiz-adv-x="512" 
d="M180 -12q-65 0 -107.5 37.5t-42.5 102.5q0 88 75 131.5t185 43.5h16v23q0 30 -16 43.5t-58 13.5q-67 0 -123 -44l-64 91q81 72 206 72q108 0 157.5 -44t49.5 -143v-160q0 -89 14 -155h-149q-7 21 -9 51q-50 -63 -134 -63zM229 95q44 0 77 35v82h-16q-116 0 -116 -71
q0 -22 15.5 -34t39.5 -12zM145 543q-35 0 -57.5 22.5t-22.5 55.5q0 31 22.5 54t57.5 23t58 -23t23 -54q0 -33 -23 -55.5t-58 -22.5zM363 543q-35 0 -58 22.5t-23 55.5q0 31 23 54t58 23t57.5 -23t22.5 -54q0 -33 -22.5 -55.5t-57.5 -22.5z" />
    <glyph glyph-name="aring" unicode="&#xe5;" horiz-adv-x="512" 
d="M180 -12q-65 0 -107.5 37.5t-42.5 102.5q0 88 75 131.5t185 43.5h16v23q0 30 -16 43.5t-58 13.5q-67 0 -123 -44l-64 91q81 72 206 72q108 0 157.5 -44t49.5 -143v-160q0 -89 14 -155h-149q-7 21 -9 51q-50 -63 -134 -63zM229 95q44 0 77 35v82h-16q-116 0 -116 -71
q0 -22 15.5 -34t39.5 -12zM254 538q-46 0 -80 31.5t-34 77.5q0 47 34 78.5t80 31.5t80 -31.5t34 -78.5q0 -46 -34 -77.5t-80 -31.5zM254 598q20 0 32.5 14.5t12.5 34.5q0 21 -12.5 35t-32.5 14t-32.5 -14t-12.5 -35q0 -20 12.5 -34.5t32.5 -14.5z" />
    <glyph glyph-name="ae" unicode="&#xe6;" horiz-adv-x="803" 
d="M180 -12q-65 0 -107.5 37.5t-42.5 102.5q0 88 75 131.5t185 43.5h19v23q0 29 -17.5 43t-59.5 14q-62 0 -123 -44l-64 91q80 72 206 72q107 0 152 -51q65 51 147 51q107 0 163 -64t56 -183q0 -33 -2 -51h-303q15 -105 116 -105q60 0 125 31l47 -95q-84 -47 -186 -47
q-130 0 -202 82q-76 -82 -184 -82zM229 95q55 0 91 49q-12 31 -15 68h-15q-116 0 -116 -71q0 -22 15.5 -34t39.5 -12zM460 304h162q-2 91 -74 91q-73 0 -88 -91z" />
    <glyph glyph-name="ccedilla" unicode="&#xe7;" horiz-adv-x="464" 
d="M215 -233q-56 0 -88 16l19 65q22 -11 51 -11q47 0 47 33q0 42 -71 36l34 92q-84 21 -132 86t-48 160q0 121 73.5 189.5t193.5 68.5q93 0 150 -37l-46 -103q-42 26 -98 26q-53 0 -82.5 -37t-29.5 -102q0 -67 29.5 -106t85.5 -39q52 0 101 26l44 -100q-69 -42 -158 -42h-2
l-15 -40q33 -7 52.5 -29t19.5 -56q0 -42 -36 -69t-94 -27z" />
    <glyph glyph-name="egrave" unicode="&#xe8;" horiz-adv-x="528" 
d="M291 -12q-124 0 -194 69.5t-70 189.5q0 116 71.5 185.5t177.5 69.5q118 0 174 -77.5t43 -220.5h-302q12 -105 115 -105q60 0 125 31l47 -95q-84 -47 -187 -47zM187 304h161q-2 91 -74 91q-73 0 -87 -91zM224 541l-142 138h192l80 -138h-130z" />
    <glyph glyph-name="eacute" unicode="&#xe9;" horiz-adv-x="528" 
d="M200 541l80 138h192l-142 -138h-130zM291 -12q-124 0 -194 69.5t-70 189.5q0 116 71.5 185.5t177.5 69.5q118 0 174 -77.5t43 -220.5h-302q12 -105 115 -105q60 0 125 31l47 -95q-84 -47 -187 -47zM187 304h161q-2 91 -74 91q-73 0 -87 -91z" />
    <glyph glyph-name="ecircumflex" unicode="&#xea;" horiz-adv-x="528" 
d="M90 542l129 162h116l127 -162h-127l-59 60l-59 -60h-127zM291 -12q-124 0 -194 69.5t-70 189.5q0 116 71.5 185.5t177.5 69.5q118 0 174 -77.5t43 -220.5h-302q12 -105 115 -105q60 0 125 31l47 -95q-84 -47 -187 -47zM187 304h161q-2 91 -74 91q-73 0 -87 -91z" />
    <glyph glyph-name="edieresis" unicode="&#xeb;" horiz-adv-x="528" 
d="M167 543q-35 0 -57.5 22.5t-22.5 55.5q0 31 22.5 54t57.5 23t58 -23t23 -54q0 -33 -23 -55.5t-58 -22.5zM385 543q-35 0 -58 22.5t-23 55.5q0 31 23 54t58 23t57.5 -23t22.5 -54q0 -33 -22.5 -55.5t-57.5 -22.5zM291 -12q-124 0 -194 69.5t-70 189.5q0 116 71.5 185.5
t177.5 69.5q118 0 174 -77.5t43 -220.5h-302q12 -105 115 -105q60 0 125 31l47 -95q-84 -47 -187 -47zM187 304h161q-2 91 -74 91q-73 0 -87 -91z" />
    <glyph glyph-name="igrave" unicode="&#xec;" horiz-adv-x="290" 
d="M68 0v490h154v-490h-154zM93 541l-142 138h192l80 -138h-130z" />
    <glyph glyph-name="iacute" unicode="&#xed;" horiz-adv-x="290" 
d="M69 541l80 138h192l-142 -138h-130zM68 0v490h154v-490h-154z" />
    <glyph glyph-name="icircumflex" unicode="&#xee;" horiz-adv-x="290" 
d="M-41 542l129 162h116l127 -162h-127l-59 60l-59 -60h-127zM68 0v490h154v-490h-154z" />
    <glyph glyph-name="idieresis" unicode="&#xef;" horiz-adv-x="290" 
d="M36 543q-35 0 -57.5 22.5t-22.5 55.5q0 31 23 54t57 23q35 0 58 -23t23 -54q0 -33 -23 -55.5t-58 -22.5zM254 543q-35 0 -58 22.5t-23 55.5q0 31 23 54t58 23q34 0 57 -23t23 -54q0 -33 -22.5 -55.5t-57.5 -22.5zM68 0v490h154v-490h-154z" />
    <glyph glyph-name="eth" unicode="&#xf0;" 
d="M280 -12q-110 0 -181 66.5t-71 184.5q0 116 65.5 183t160.5 67q58 0 93 -27q-24 69 -77 105l-62 -57l-58 58l38 34q-54 14 -116 14l31 116q106 0 191 -31l68 62l57 -58l-47 -43q163 -110 163 -362q0 -143 -65 -227.5t-190 -84.5zM281 101q48 0 71 46t23 149q0 28 -1 39
q-30 42 -95 42q-45 0 -67.5 -36t-22.5 -100q0 -65 23.5 -102.5t68.5 -37.5z" />
    <glyph glyph-name="ntilde" unicode="&#xf1;" 
d="M59 0v490h149v-60q63 72 154 72q77 0 112.5 -44t35.5 -117v-341h-152v310q0 34 -13.5 50t-45.5 16q-48 0 -88 -53v-323h-152zM343 547q-34 0 -69 17t-53 17q-25 0 -55 -30l-68 58q17 32 48.5 56.5t70.5 24.5q35 0 69.5 -17t52.5 -17q29 0 57 31l68 -59q-18 -32 -50 -56.5
t-71 -24.5z" />
    <glyph glyph-name="ograve" unicode="&#xf2;" horiz-adv-x="558" 
d="M278 -12q-121 0 -186 75t-65 180q0 106 64.5 182.5t186.5 76.5t187 -74.5t65 -179.5t-65.5 -182.5t-186.5 -77.5zM281 101q48 0 68 36t20 106q0 148 -93 148q-48 0 -68 -37t-20 -106q0 -147 93 -147zM227 541l-142 138h192l80 -138h-130z" />
    <glyph glyph-name="oacute" unicode="&#xf3;" horiz-adv-x="558" 
d="M202 541l80 138h192l-142 -138h-130zM278 -12q-121 0 -186 75t-65 180q0 106 64.5 182.5t186.5 76.5t187 -74.5t65 -179.5t-65.5 -182.5t-186.5 -77.5zM281 101q48 0 68 36t20 106q0 148 -93 148q-48 0 -68 -37t-20 -106q0 -147 93 -147z" />
    <glyph glyph-name="ocircumflex" unicode="&#xf4;" horiz-adv-x="558" 
d="M92 542l129 162h116l127 -162h-127l-59 60l-59 -60h-127zM278 -12q-121 0 -186 75t-65 180q0 106 64.5 182.5t186.5 76.5t187 -74.5t65 -179.5t-65.5 -182.5t-186.5 -77.5zM281 101q48 0 68 36t20 106q0 148 -93 148q-48 0 -68 -37t-20 -106q0 -147 93 -147z" />
    <glyph glyph-name="otilde" unicode="&#xf5;" horiz-adv-x="558" 
d="M278 -12q-121 0 -186 75t-65 180q0 106 64.5 182.5t186.5 76.5t187 -74.5t65 -179.5t-65.5 -182.5t-186.5 -77.5zM281 101q48 0 68 36t20 106q0 148 -93 148q-48 0 -68 -37t-20 -106q0 -147 93 -147zM340 547q-34 0 -69 17t-53 17q-25 0 -55 -30l-68 58q17 32 48.5 56.5
t70.5 24.5q35 0 69.5 -17t52.5 -17q29 0 57 31l68 -59q-18 -32 -50 -56.5t-71 -24.5z" />
    <glyph glyph-name="odieresis" unicode="&#xf6;" horiz-adv-x="558" 
d="M169 543q-35 0 -57.5 22.5t-22.5 55.5q0 31 22.5 54t57.5 23t58 -23t23 -54q0 -33 -23 -55.5t-58 -22.5zM387 543q-35 0 -58 22.5t-23 55.5q0 31 23 54t58 23t57.5 -23t22.5 -54q0 -33 -22.5 -55.5t-57.5 -22.5zM278 -12q-121 0 -186 75t-65 180q0 106 64.5 182.5
t186.5 76.5t187 -74.5t65 -179.5t-65.5 -182.5t-186.5 -77.5zM281 101q48 0 68 36t20 106q0 148 -93 148q-48 0 -68 -37t-20 -106q0 -147 93 -147z" />
    <glyph glyph-name="divide" unicode="&#xf7;" horiz-adv-x="572" 
d="M283 -10q-32 0 -55.5 23t-23.5 55t23.5 55t55.5 23q33 0 55.5 -23t22.5 -55t-22.5 -55t-55.5 -23zM283 343q-32 0 -55.5 23t-23.5 55t23.5 55t55.5 23q33 0 55.5 -23t22.5 -55t-22.5 -55t-55.5 -23zM41 189v112h488v-112h-488z" />
    <glyph glyph-name="oslash" unicode="&#xf8;" horiz-adv-x="558" 
d="M116 -71l-84 55l56 82q-61 71 -61 177t64.5 182.5t186.5 76.5q53 0 99 -16l58 86l85 -56l-58 -86q68 -71 68 -182q0 -105 -65.5 -182.5t-186.5 -77.5q-60 0 -107 19zM281 98q93 0 93 145q0 37 -7 64l-134 -196q19 -13 48 -13zM183 248q0 -32 4 -53l128 190q-18 8 -39 8
q-93 0 -93 -145z" />
    <glyph glyph-name="ugrave" unicode="&#xf9;" 
d="M204 -12q-148 0 -148 160v342h152v-310q0 -34 13.5 -50t45.5 -16q45 0 88 52v324h152v-337q0 -89 14 -153h-150q-8 26 -10 64q-59 -76 -157 -76zM231 541l-142 138h192l80 -138h-130z" />
    <glyph glyph-name="uacute" unicode="&#xfa;" 
d="M206 541l80 138h192l-142 -138h-130zM204 -12q-148 0 -148 160v342h152v-310q0 -34 13.5 -50t45.5 -16q45 0 88 52v324h152v-337q0 -89 14 -153h-150q-8 26 -10 64q-59 -76 -157 -76z" />
    <glyph glyph-name="ucircumflex" unicode="&#xfb;" 
d="M96 542l129 162h116l127 -162h-127l-59 60l-59 -60h-127zM204 -12q-148 0 -148 160v342h152v-310q0 -34 13.5 -50t45.5 -16q45 0 88 52v324h152v-337q0 -89 14 -153h-150q-8 26 -10 64q-59 -76 -157 -76z" />
    <glyph glyph-name="udieresis" unicode="&#xfc;" 
d="M173 543q-35 0 -57.5 22.5t-22.5 55.5q0 31 22.5 54t57.5 23t58 -23t23 -54q0 -33 -23 -55.5t-58 -22.5zM391 543q-35 0 -58 22.5t-23 55.5q0 31 23 54t58 23t57.5 -23t22.5 -54q0 -33 -22.5 -55.5t-57.5 -22.5zM204 -12q-148 0 -148 160v342h152v-310q0 -34 13.5 -50
t45.5 -16q45 0 88 52v324h152v-337q0 -89 14 -153h-150q-8 26 -10 64q-59 -76 -157 -76z" />
    <glyph glyph-name="yacute" unicode="&#xfd;" horiz-adv-x="532" 
d="M85 -235q-48 0 -85 10l22 120q21 -6 51 -6q47 0 70 19t37 58l17 47l-183 477h161l101 -302h3l89 302h155l-200 -538q-37 -99 -88 -143t-150 -44zM196 541l80 138h192l-142 -138h-130z" />
    <glyph glyph-name="thorn" unicode="&#xfe;" horiz-adv-x="582" 
d="M59 -219v938h152v-276q53 59 131 59q94 0 146.5 -67t52.5 -190q0 -115 -61.5 -186t-158.5 -71q-70 0 -110 32v-239h-152zM286 104q45 0 69.5 36.5t24.5 105.5q0 136 -87 136q-47 0 -82 -44v-205q35 -29 75 -29z" />
    <glyph glyph-name="ydieresis" unicode="&#xff;" horiz-adv-x="532" 
d="M85 -235q-48 0 -85 10l22 120q21 -6 51 -6q47 0 70 19t37 58l17 47l-183 477h161l101 -302h3l89 302h155l-200 -538q-37 -99 -88 -143t-150 -44zM163 543q-35 0 -57.5 22.5t-22.5 55.5q0 31 22.5 54t57.5 23t58 -23t23 -54q0 -33 -23 -55.5t-58 -22.5zM381 543
q-35 0 -58 22.5t-23 55.5q0 31 23 54t58 23t57.5 -23t22.5 -54q0 -33 -22.5 -55.5t-57.5 -22.5z" />
    <glyph glyph-name="Amacron" unicode="&#x100;" horiz-adv-x="697" 
d="M258 240h166l-49 137q-6 17 -33 116h-2q-1 -4 -6 -22t-12.5 -44t-15.5 -50zM13 0l254 666h155l262 -666h-176l-39 112h-254l-39 -112h-163zM198 732v106h285v-106h-285z" />
    <glyph glyph-name="amacron" unicode="&#x101;" horiz-adv-x="512" 
d="M180 -12q-65 0 -107.5 37.5t-42.5 102.5q0 88 75 131.5t185 43.5h16v23q0 30 -16 43.5t-58 13.5q-67 0 -123 -44l-64 91q81 72 206 72q108 0 157.5 -44t49.5 -143v-160q0 -89 14 -155h-149q-7 21 -9 51q-50 -63 -134 -63zM229 95q44 0 77 35v82h-16q-116 0 -116 -71
q0 -22 15.5 -34t39.5 -12zM112 558v106h285v-106h-285z" />
    <glyph glyph-name="Abreve" unicode="&#x102;" horiz-adv-x="697" 
d="M258 240h166l-49 137q-6 17 -33 116h-2q-1 -4 -6 -22t-12.5 -44t-15.5 -50zM13 0l254 666h155l262 -666h-176l-39 112h-254l-39 -112h-163zM340 702q-70 0 -120 39t-57 115h123q5 -59 54 -59q48 0 54 59h122q-6 -76 -56 -115t-120 -39z" />
    <glyph glyph-name="abreve" unicode="&#x103;" horiz-adv-x="512" 
d="M180 -12q-65 0 -107.5 37.5t-42.5 102.5q0 88 75 131.5t185 43.5h16v23q0 30 -16 43.5t-58 13.5q-67 0 -123 -44l-64 91q81 72 206 72q108 0 157.5 -44t49.5 -143v-160q0 -89 14 -155h-149q-7 21 -9 51q-50 -63 -134 -63zM229 95q44 0 77 35v82h-16q-116 0 -116 -71
q0 -22 15.5 -34t39.5 -12zM254 528q-70 0 -120 39t-57 115h123q5 -59 54 -59q48 0 54 59h122q-6 -76 -56 -115t-120 -39z" />
    <glyph glyph-name="Aogonek" unicode="&#x104;" horiz-adv-x="697" 
d="M562 -233q-57 0 -92 26.5t-35 74.5q0 71 73 132l-39 112h-254l-39 -112h-163l254 666h155l262 -666l-24 -1q-52 -1 -87 -34.5t-35 -76.5q0 -44 48 -44q18 0 40 9l18 -68q-34 -18 -82 -18zM258 240h166l-49 137q-6 17 -33 116h-2q-1 -4 -6 -22t-12.5 -44t-15.5 -50z" />
    <glyph glyph-name="aogonek" unicode="&#x105;" horiz-adv-x="512" 
d="M377 -233q-57 0 -92 26.5t-35 74.5q0 71 73 132q-7 21 -9 51q-50 -63 -134 -63q-65 0 -107.5 37.5t-42.5 102.5q0 88 75 131.5t185 43.5h16v23q0 30 -16 43.5t-58 13.5q-67 0 -123 -44l-64 91q81 72 206 72q108 0 157.5 -44t49.5 -143v-160q0 -88 14 -156h-4
q-48 -3 -81.5 -36t-33.5 -75q0 -44 48 -44q18 0 40 9l18 -68q-34 -18 -82 -18zM229 95q44 0 77 35v82h-16q-116 0 -116 -71q0 -22 15.5 -34t39.5 -12z" />
    <glyph glyph-name="Cacute" unicode="&#x106;" horiz-adv-x="619" 
d="M300 715l80 138h192l-142 -138h-130zM387 -12q-166 0 -256.5 100t-90.5 246q0 93 38 169.5t119 125.5t193 49q122 0 204 -54l-71 -117q-62 38 -136 38q-83 0 -129.5 -58t-46.5 -149q0 -95 46.5 -155.5t132.5 -60.5q77 0 146 50l66 -113q-30 -27 -89 -49t-126 -22z" />
    <glyph glyph-name="cacute" unicode="&#x107;" horiz-adv-x="464" 
d="M203 541l80 138h192l-142 -138h-130zM290 -12q-121 0 -192 69t-71 187q0 121 73.5 189.5t193.5 68.5q93 0 150 -37l-46 -103q-42 26 -98 26q-53 0 -82.5 -37t-29.5 -102q0 -67 29.5 -106t85.5 -39q52 0 101 26l44 -100q-69 -42 -158 -42z" />
    <glyph glyph-name="Ccircumflex" unicode="&#x108;" horiz-adv-x="619" 
d="M190 716l129 162h116l127 -162h-127l-59 60l-59 -60h-127zM387 -12q-166 0 -256.5 100t-90.5 246q0 93 38 169.5t119 125.5t193 49q122 0 204 -54l-71 -117q-62 38 -136 38q-83 0 -129.5 -58t-46.5 -149q0 -95 46.5 -155.5t132.5 -60.5q77 0 146 50l66 -113
q-30 -27 -89 -49t-126 -22z" />
    <glyph glyph-name="ccircumflex" unicode="&#x109;" horiz-adv-x="464" 
d="M93 542l129 162h116l127 -162h-127l-59 60l-59 -60h-127zM290 -12q-121 0 -192 69t-71 187q0 121 73.5 189.5t193.5 68.5q93 0 150 -37l-46 -103q-42 26 -98 26q-53 0 -82.5 -37t-29.5 -102q0 -67 29.5 -106t85.5 -39q52 0 101 26l44 -100q-69 -42 -158 -42z" />
    <glyph glyph-name="Cdotaccent" unicode="&#x10a;" horiz-adv-x="619" 
d="M387 -12q-166 0 -256.5 100t-90.5 246q0 93 38 169.5t119 125.5t193 49q122 0 204 -54l-71 -117q-62 38 -136 38q-83 0 -129.5 -58t-46.5 -149q0 -95 46.5 -155.5t132.5 -60.5q77 0 146 50l66 -113q-30 -27 -89 -49t-126 -22zM376 726q-35 0 -58 22.5t-23 54.5t23 54.5
t58 22.5t58 -22.5t23 -54.5t-23 -54.5t-58 -22.5z" />
    <glyph glyph-name="cdotaccent" unicode="&#x10b;" horiz-adv-x="464" 
d="M290 -12q-121 0 -192 69t-71 187q0 121 73.5 189.5t193.5 68.5q93 0 150 -37l-46 -103q-42 26 -98 26q-53 0 -82.5 -37t-29.5 -102q0 -67 29.5 -106t85.5 -39q52 0 101 26l44 -100q-69 -42 -158 -42zM279 552q-35 0 -58 22.5t-23 54.5t23 54.5t58 22.5t58 -22.5t23 -54.5
t-23 -54.5t-58 -22.5z" />
    <glyph glyph-name="Ccaron" unicode="&#x10c;" horiz-adv-x="619" 
d="M317 715l-127 161h127l59 -59l59 59h127l-129 -161h-116zM387 -12q-166 0 -256.5 100t-90.5 246q0 93 38 169.5t119 125.5t193 49q122 0 204 -54l-71 -117q-62 38 -136 38q-83 0 -129.5 -58t-46.5 -149q0 -95 46.5 -155.5t132.5 -60.5q77 0 146 50l66 -113
q-30 -27 -89 -49t-126 -22z" />
    <glyph glyph-name="ccaron" unicode="&#x10d;" horiz-adv-x="464" 
d="M220 541l-127 161h127l59 -59l59 59h127l-129 -161h-116zM290 -12q-121 0 -192 69t-71 187q0 121 73.5 189.5t193.5 68.5q93 0 150 -37l-46 -103q-42 26 -98 26q-53 0 -82.5 -37t-29.5 -102q0 -67 29.5 -106t85.5 -39q52 0 101 26l44 -100q-69 -42 -158 -42z" />
    <glyph glyph-name="Dcaron" unicode="&#x10e;" horiz-adv-x="715" 
d="M277 715l-127 161h127l59 -59l59 59h127l-129 -161h-116zM78 0v666h217q189 0 285 -87t96 -237q0 -152 -98.5 -247t-288.5 -95h-211zM240 128h62q204 0 204 210q0 103 -51 151.5t-158 48.5h-57v-410z" />
    <glyph glyph-name="dcaron" unicode="&#x10f;" horiz-adv-x="634" 
d="M559 529l35 191h152l-83 -191h-104zM228 -13q-93 0 -146.5 67t-53.5 189q0 116 62 187.5t158 71.5q67 0 110 -33v251h152v-568q0 -88 15 -152h-149q-9 21 -11 52q-55 -65 -137 -65zM277 107q47 0 81 43v205q-31 29 -75 29q-45 0 -69.5 -36.5t-24.5 -105.5q0 -135 88 -135
z" />
    <glyph glyph-name="Dcroat" unicode="&#x110;" horiz-adv-x="715" 
d="M78 0v281h-62v112h62v273h217q189 0 285 -87t96 -237q0 -152 -98.5 -247t-288.5 -95h-211zM240 128h62q204 0 204 210q0 103 -51 151.5t-158 48.5h-57v-145h103v-112h-103v-153z" />
    <glyph glyph-name="dcroat" unicode="&#x111;" horiz-adv-x="567" 
d="M226 559v112h132v49h152v-49h42v-112h-42v-407q0 -88 15 -152h-149q-9 21 -11 52q-55 -65 -137 -65q-93 0 -146.5 67t-53.5 189q0 116 62 187.5t158 71.5q67 0 110 -33v90h-132zM277 107q47 0 81 43v205q-31 29 -75 29q-45 0 -69.5 -36.5t-24.5 -105.5q0 -135 88 -135z
" />
    <glyph glyph-name="Emacron" unicode="&#x112;" horiz-adv-x="539" 
d="M78 0v666h398v-132h-238v-129h210v-124h-210v-149h245v-132h-405zM133 732v106h285v-106h-285z" />
    <glyph glyph-name="emacron" unicode="&#x113;" horiz-adv-x="528" 
d="M291 -12q-124 0 -194 69.5t-70 189.5q0 116 71.5 185.5t177.5 69.5q118 0 174 -77.5t43 -220.5h-302q12 -105 115 -105q60 0 125 31l47 -95q-84 -47 -187 -47zM187 304h161q-2 91 -74 91q-73 0 -87 -91zM134 558v106h285v-106h-285z" />
    <glyph glyph-name="Ebreve" unicode="&#x114;" horiz-adv-x="539" 
d="M78 0v666h398v-132h-238v-129h210v-124h-210v-149h245v-132h-405zM275 702q-70 0 -120 39t-57 115h123q5 -59 54 -59q48 0 54 59h122q-6 -76 -56 -115t-120 -39z" />
    <glyph glyph-name="ebreve" unicode="&#x115;" horiz-adv-x="528" 
d="M291 -12q-124 0 -194 69.5t-70 189.5q0 116 71.5 185.5t177.5 69.5q118 0 174 -77.5t43 -220.5h-302q12 -105 115 -105q60 0 125 31l47 -95q-84 -47 -187 -47zM187 304h161q-2 91 -74 91q-73 0 -87 -91zM276 528q-70 0 -120 39t-57 115h123q5 -59 54 -59q48 0 54 59h122
q-6 -76 -56 -115t-120 -39z" />
    <glyph glyph-name="Edotaccent" unicode="&#x116;" horiz-adv-x="539" 
d="M78 0v666h398v-132h-238v-129h210v-124h-210v-149h245v-132h-405zM275 726q-35 0 -58 22.5t-23 54.5t23 54.5t58 22.5t58 -22.5t23 -54.5t-23 -54.5t-58 -22.5z" />
    <glyph glyph-name="edotaccent" unicode="&#x117;" horiz-adv-x="528" 
d="M291 -12q-124 0 -194 69.5t-70 189.5q0 116 71.5 185.5t177.5 69.5q118 0 174 -77.5t43 -220.5h-302q12 -105 115 -105q60 0 125 31l47 -95q-84 -47 -187 -47zM187 304h161q-2 91 -74 91q-73 0 -87 -91zM276 552q-35 0 -58 22.5t-23 54.5t23 54.5t58 22.5t58 -22.5
t23 -54.5t-23 -54.5t-58 -22.5z" />
    <glyph glyph-name="Eogonek" unicode="&#x118;" horiz-adv-x="539" 
d="M394 -233q-57 0 -92 26.5t-35 74.5q0 42 26 80t62 52h-277v666h398v-132h-238v-129h210v-124h-210v-149h245v-132h-1q-48 0 -80 -34.5t-32 -77.5q0 -44 48 -44q18 0 40 9l18 -68q-34 -18 -82 -18z" />
    <glyph glyph-name="eogonek" unicode="&#x119;" horiz-adv-x="528" 
d="M380 -233q-57 0 -92 26.5t-35 74.5q0 35 20 69.5t46 53.5q-12 -3 -28 -3q-124 0 -194 69.5t-70 189.5q0 116 71.5 185.5t177.5 69.5q118 0 174 -77.5t43 -220.5h-302q12 -105 115 -105q60 0 125 31l47 -95l-22 -12q-100 -58 -100 -135q0 -44 47 -44q20 0 40 9l19 -68
q-34 -18 -82 -18zM187 304h161q-2 91 -74 91q-73 0 -87 -91z" />
    <glyph glyph-name="Ecaron" unicode="&#x11a;" horiz-adv-x="539" 
d="M216 715l-127 161h127l59 -59l59 59h127l-129 -161h-116zM78 0v666h398v-132h-238v-129h210v-124h-210v-149h245v-132h-405z" />
    <glyph glyph-name="ecaron" unicode="&#x11b;" horiz-adv-x="528" 
d="M217 541l-127 161h127l59 -59l59 59h127l-129 -161h-116zM291 -12q-124 0 -194 69.5t-70 189.5q0 116 71.5 185.5t177.5 69.5q118 0 174 -77.5t43 -220.5h-302q12 -105 115 -105q60 0 125 31l47 -95q-84 -47 -187 -47zM187 304h161q-2 91 -74 91q-73 0 -87 -91z" />
    <glyph glyph-name="Gcircumflex" unicode="&#x11c;" horiz-adv-x="711" 
d="M200 716l129 162h116l127 -162h-127l-59 60l-59 -60h-127zM398 -12q-168 0 -263 101t-95 245q0 143 100.5 243.5t271.5 100.5q139 0 222 -59l-70 -120q-67 46 -155 46q-96 0 -147 -56t-51 -151q0 -98 46.5 -159t139.5 -61q66 0 102 21v115h-116v124h270v-328
q-104 -62 -255 -62z" />
    <glyph glyph-name="gcircumflex" unicode="&#x11d;" horiz-adv-x="547" 
d="M87 542l129 162h116l127 -162h-127l-59 60l-59 -60h-127zM244 -239q-221 0 -221 128q0 74 82 118q-43 27 -43 75q0 63 56 97q-86 47 -86 145q0 81 59.5 129.5t163.5 48.5q51 0 92 -12h183v-97h-65q16 -34 16 -69q0 -81 -56.5 -129t-160.5 -48q-27 0 -59 5
q-14 -12 -14 -25q0 -19 22 -25t86 -9q31 -2 44.5 -2.5t42.5 -4.5t43.5 -9.5t35.5 -17t31 -26.5t18 -38t8 -53q0 -80 -75.5 -130.5t-202.5 -50.5zM254 -141q55 0 86 18.5t31 45.5q0 19 -12 28.5t-26 11.5t-52 5q-16 1 -25 2q-33 2 -59 6q-29 -23 -29 -56q0 -61 86 -61z
M256 243q37 0 58 21t21 60t-21 60.5t-58 21.5t-57.5 -21.5t-20.5 -60.5t20.5 -60t57.5 -21z" />
    <glyph glyph-name="Gbreve" unicode="&#x11e;" horiz-adv-x="711" 
d="M398 -12q-168 0 -263 101t-95 245q0 143 100.5 243.5t271.5 100.5q139 0 222 -59l-70 -120q-67 46 -155 46q-96 0 -147 -56t-51 -151q0 -98 46.5 -159t139.5 -61q66 0 102 21v115h-116v124h270v-328q-104 -62 -255 -62zM386 702q-70 0 -120 39t-57 115h123q5 -59 54 -59
q48 0 54 59h122q-6 -76 -56 -115t-120 -39z" />
    <glyph glyph-name="gbreve" unicode="&#x11f;" horiz-adv-x="547" 
d="M244 -239q-221 0 -221 128q0 74 82 118q-43 27 -43 75q0 63 56 97q-86 47 -86 145q0 81 59.5 129.5t163.5 48.5q51 0 92 -12h183v-97h-65q16 -34 16 -69q0 -81 -56.5 -129t-160.5 -48q-27 0 -59 5q-14 -12 -14 -25q0 -19 22 -25t86 -9q31 -2 44.5 -2.5t42.5 -4.5
t43.5 -9.5t35.5 -17t31 -26.5t18 -38t8 -53q0 -80 -75.5 -130.5t-202.5 -50.5zM254 -141q55 0 86 18.5t31 45.5q0 19 -12 28.5t-26 11.5t-52 5q-16 1 -25 2q-33 2 -59 6q-29 -23 -29 -56q0 -61 86 -61zM256 243q37 0 58 21t21 60t-21 60.5t-58 21.5t-57.5 -21.5t-20.5 -60.5
t20.5 -60t57.5 -21zM273 530q-70 0 -120 39t-57 115h123q5 -59 54 -59q48 0 54 59h122q-6 -76 -56 -115t-120 -39z" />
    <glyph glyph-name="Gdotaccent" unicode="&#x120;" horiz-adv-x="711" 
d="M398 -12q-168 0 -263 101t-95 245q0 143 100.5 243.5t271.5 100.5q139 0 222 -59l-70 -120q-67 46 -155 46q-96 0 -147 -56t-51 -151q0 -98 46.5 -159t139.5 -61q66 0 102 21v115h-116v124h270v-328q-104 -62 -255 -62zM386 726q-35 0 -58 22.5t-23 54.5t23 54.5t58 22.5
t58 -22.5t23 -54.5t-23 -54.5t-58 -22.5z" />
    <glyph glyph-name="gdotaccent" unicode="&#x121;" horiz-adv-x="547" 
d="M244 -239q-221 0 -221 128q0 74 82 118q-43 27 -43 75q0 63 56 97q-86 47 -86 145q0 81 59.5 129.5t163.5 48.5q51 0 92 -12h183v-97h-65q16 -34 16 -69q0 -81 -56.5 -129t-160.5 -48q-27 0 -59 5q-14 -12 -14 -25q0 -19 22 -25t86 -9q31 -2 44.5 -2.5t42.5 -4.5
t43.5 -9.5t35.5 -17t31 -26.5t18 -38t8 -53q0 -80 -75.5 -130.5t-202.5 -50.5zM254 -141q55 0 86 18.5t31 45.5q0 19 -12 28.5t-26 11.5t-52 5q-16 1 -25 2q-33 2 -59 6q-29 -23 -29 -56q0 -61 86 -61zM256 243q37 0 58 21t21 60t-21 60.5t-58 21.5t-57.5 -21.5t-20.5 -60.5
t20.5 -60t57.5 -21zM273 552q-35 0 -58 22.5t-23 54.5t23 54.5t58 22.5t58 -22.5t23 -54.5t-23 -54.5t-58 -22.5z" />
    <glyph glyph-name="Gcommaaccent" unicode="&#x122;" horiz-adv-x="711" 
d="M338 -230q28 23 28 50q0 17 -21.5 38.5t-21.5 45.5t20.5 40.5t49.5 16.5q33 0 56.5 -20t23.5 -53q0 -66 -61 -118h-74zM398 -12q-168 0 -263 101t-95 245q0 143 100.5 243.5t271.5 100.5q139 0 222 -59l-70 -120q-67 46 -155 46q-96 0 -147 -56t-51 -151q0 -98 46.5 -159
t139.5 -61q66 0 102 21v115h-116v124h270v-328q-104 -62 -255 -62z" />
    <glyph glyph-name="gcommaaccent" unicode="&#x123;" horiz-adv-x="547" 
d="M324 733q-28 -23 -28 -50q0 -17 21.5 -38.5t21.5 -45.5t-20.5 -40.5t-49.5 -16.5q-33 0 -56.5 20t-23.5 53q0 66 61 118h74zM244 -239q-221 0 -221 128q0 74 82 118q-43 27 -43 75q0 63 56 97q-86 47 -86 145q0 81 59.5 129.5t163.5 48.5q51 0 92 -12h183v-97h-65
q16 -34 16 -69q0 -81 -56.5 -129t-160.5 -48q-27 0 -59 5q-14 -12 -14 -25q0 -19 22 -25t86 -9q31 -2 44.5 -2.5t42.5 -4.5t43.5 -9.5t35.5 -17t31 -26.5t18 -38t8 -53q0 -80 -75.5 -130.5t-202.5 -50.5zM254 -141q55 0 86 18.5t31 45.5q0 19 -12 28.5t-26 11.5t-52 5
q-16 1 -25 2q-33 2 -59 6q-29 -23 -29 -56q0 -61 86 -61zM256 243q37 0 58 21t21 60t-21 60.5t-58 21.5t-57.5 -21.5t-20.5 -60.5t20.5 -60t57.5 -21z" />
    <glyph glyph-name="Hcircumflex" unicode="&#x124;" horiz-adv-x="752" 
d="M189 716l129 162h116l127 -162h-127l-59 60l-59 -60h-127zM78 0v666h162v-255h273v255h160v-666h-160v279h-273v-279h-162z" />
    <glyph glyph-name="hcircumflex" unicode="&#x125;" horiz-adv-x="565" 
d="M97 772l129 162h116l127 -162h-127l-59 60l-59 -60h-127zM58 0v720h152v-286q65 68 151 68q77 0 112.5 -43.5t35.5 -117.5v-341h-152v310q0 34 -13.5 50t-45.5 16q-47 0 -88 -53v-323h-152z" />
    <glyph glyph-name="Hbar" unicode="&#x126;" horiz-adv-x="768" 
d="M744 567v-112h-62v-455h-161v251h-273v-251h-161v455h-63v112h63v99h161v-99h273v99h161v-99h62zM248 383h273v72h-273v-72z" />
    <glyph glyph-name="hbar" unicode="&#x127;" horiz-adv-x="573" 
d="M66 0v559h-43v112h43v49h152v-49h150v-112h-150v-137q63 68 151 68q147 0 147 -161v-329h-152v298q0 34 -13.5 50t-44.5 16q-47 0 -88 -53v-311h-152z" />
    <glyph glyph-name="Itilde" unicode="&#x128;" horiz-adv-x="338" 
d="M84 0v666h163v-666h-163zM228 721q-34 0 -69 17t-53 17q-25 0 -55 -30l-68 58q17 32 48.5 56.5t70.5 24.5q35 0 69.5 -17t52.5 -17q29 0 57 31l68 -59q-18 -32 -50 -56.5t-71 -24.5z" />
    <glyph glyph-name="itilde" unicode="&#x129;" horiz-adv-x="290" 
d="M68 0v490h154v-490h-154zM207 547q-34 0 -69 17t-53 17q-25 0 -55 -30l-68 58q17 32 48.5 56.5t70.5 24.5q35 0 69.5 -17t52.5 -17q29 0 57 31l68 -59q-18 -32 -50 -56.5t-71 -24.5z" />
    <glyph glyph-name="Imacron" unicode="&#x12a;" horiz-adv-x="338" 
d="M84 0v666h163v-666h-163zM24 732v106h285v-106h-285z" />
    <glyph glyph-name="imacron" unicode="&#x12b;" horiz-adv-x="290" 
d="M68 0v490h154v-490h-154zM3 558v106h285v-106h-285z" />
    <glyph glyph-name="Ibreve" unicode="&#x12c;" horiz-adv-x="338" 
d="M84 0v666h163v-666h-163zM166 702q-70 0 -120 39t-57 115h123q5 -59 54 -59q48 0 54 59h122q-6 -76 -56 -115t-120 -39z" />
    <glyph glyph-name="ibreve" unicode="&#x12d;" horiz-adv-x="290" 
d="M68 0v490h154v-490h-154zM146 528q-70 0 -120 39t-57 115h123q5 -59 54 -59q48 0 54 59h122q-6 -76 -56 -115t-120 -39z" />
    <glyph glyph-name="Iogonek" unicode="&#x12e;" horiz-adv-x="338" 
d="M168 -233q-57 0 -92 26.5t-35 74.5q0 41 25.5 78.5t59.5 53.5h-42v666h163v-666l-3 -1q-41 -2 -70.5 -36.5t-29.5 -74.5q0 -44 47 -44q20 0 40 9l19 -68q-34 -18 -82 -18z" />
    <glyph glyph-name="iogonek" unicode="&#x12f;" horiz-adv-x="290" 
d="M144 -233q-57 0 -92 26.5t-35 74.5q0 41 25.5 78.5t59.5 53.5h-34v490h154v-490l-2 -1q-40 -2 -70 -36t-30 -75q0 -44 48 -44q18 0 40 9l18 -68q-34 -18 -82 -18zM145 544q-39 0 -64.5 25.5t-25.5 61.5t25.5 61.5t64.5 25.5t64.5 -25.5t25.5 -61.5t-25.5 -61.5
t-64.5 -25.5z" />
    <glyph glyph-name="Idotaccent" unicode="&#x130;" horiz-adv-x="338" 
d="M84 0v666h163v-666h-163zM166 726q-35 0 -58 22.5t-23 54.5t23 54.5t58 22.5t58 -22.5t23 -54.5t-23 -54.5t-58 -22.5z" />
    <glyph glyph-name="dotlessi" unicode="&#x131;" horiz-adv-x="290" 
d="M68 0v490h154v-490h-154z" />
    <glyph glyph-name="Jcircumflex" unicode="&#x134;" horiz-adv-x="346" 
d="M1 716l129 162h116l127 -162h-127l-59 60l-59 -60h-127zM64 -209q-65 0 -111 19l25 130q23 -10 49 -10q43 0 60.5 21t17.5 72v643h163v-664q0 -102 -54.5 -156.5t-149.5 -54.5z" />
    <glyph glyph-name="jcircumflex" unicode="&#x135;" horiz-adv-x="287" 
d="M43 -234q-60 0 -99 13l26 117q25 -7 40 -7q33 0 45 22t12 79v500h154v-515q0 -209 -178 -209zM-42 542l129 162h116l127 -162h-127l-59 60l-59 -60h-127z" />
    <glyph glyph-name="Kcommaaccent" unicode="&#x136;" horiz-adv-x="650" 
d="M292 -230q28 23 28 50q0 17 -21.5 38.5t-21.5 45.5t20.5 40.5t49.5 16.5q33 0 56.5 -20t23.5 -53q0 -66 -61 -118h-74zM78 0v666h162v-279l212 279h177l-238 -307l247 -359h-189l-209 306v-306h-162z" />
    <glyph glyph-name="kcommaaccent" unicode="&#x137;" horiz-adv-x="533" 
d="M225 -230q28 23 28 50q0 17 -21.5 38.5t-21.5 45.5t20.5 40.5t49.5 16.5q33 0 56.5 -20t23.5 -53q0 -66 -61 -118h-74zM58 0v720h152v-419l147 189h165l-175 -220l177 -270h-175l-139 223v-223h-152z" />
    <glyph glyph-name="Lacute" unicode="&#x139;" horiz-adv-x="528" 
d="M87 715l80 138h192l-142 -138h-130zM81 0v666h163v-537h243v-129h-406z" />
    <glyph glyph-name="lacute" unicode="&#x13a;" horiz-adv-x="286" 
d="M67 771l80 138h192l-142 -138h-130zM67 0v720h152v-720h-152z" />
    <glyph glyph-name="Lcommaaccent" unicode="&#x13b;" horiz-adv-x="528" 
d="M223 -230q28 23 28 50q0 17 -21.5 38.5t-21.5 45.5t20.5 40.5t49.5 16.5q33 0 56.5 -20t23.5 -53q0 -66 -61 -118h-74zM81 0v666h163v-537h243v-129h-406z" />
    <glyph glyph-name="lcommaaccent" unicode="&#x13c;" horiz-adv-x="286" 
d="M83 -230q28 23 28 50q0 17 -21.5 38.5t-21.5 45.5t20.5 40.5t49.5 16.5q33 0 56.5 -20t23.5 -53q0 -66 -61 -118h-74zM67 0v720h152v-720h-152z" />
    <glyph glyph-name="Lcaron" unicode="&#x13d;" horiz-adv-x="528" 
d="M297 505l35 191h151l-82 -191h-104zM81 0v666h163v-537h243v-129h-406z" />
    <glyph glyph-name="lcaron" unicode="&#x13e;" horiz-adv-x="344" 
d="M269 529l34 191h152l-82 -191h-104zM67 0v720h152v-720h-152z" />
    <glyph glyph-name="Ldot" unicode="&#x13f;" horiz-adv-x="528" 
d="M81 0v666h163v-537h243v-129h-406zM383 346q-35 0 -58 22.5t-23 54.5t23 54.5t58 22.5t58 -22.5t23 -54.5t-23 -54.5t-58 -22.5z" />
    <glyph glyph-name="ldot" unicode="&#x140;" horiz-adv-x="405" 
d="M67 0v720h152v-720h-152zM345 204q-35 0 -58 22.5t-23 54.5t23 54.5t58 22.5t58 -22.5t23 -54.5t-23 -54.5t-58 -22.5z" />
    <glyph glyph-name="Lslash" unicode="&#x141;" horiz-adv-x="546" 
d="M92 0v219l-51 -37l-57 81l108 77v326h163v-213l93 67l58 -81l-151 -107v-203h243v-129h-406z" />
    <glyph glyph-name="lslash" unicode="&#x142;" horiz-adv-x="361" 
d="M92 0v237l-65 -43v113l65 42v371h153v-277l80 52v-113l-80 -52v-330h-153z" />
    <glyph glyph-name="Nacute" unicode="&#x143;" horiz-adv-x="752" 
d="M299 715l80 138h192l-142 -138h-130zM78 0v666h163l216 -310q15 -21 29 -43t22 -35.5t14.5 -25.5t7.5 -13h2q-4 28 -4 109v318h146v-666h-147l-237 336q-18 25 -33.5 48.5t-24 38t-10.5 17.5h-2q4 -28 4 -93v-347h-146z" />
    <glyph glyph-name="nacute" unicode="&#x144;" 
d="M205 541l80 138h192l-142 -138h-130zM59 0v490h149v-60q63 72 154 72q77 0 112.5 -44t35.5 -117v-341h-152v310q0 34 -13.5 50t-45.5 16q-48 0 -88 -53v-323h-152z" />
    <glyph glyph-name="Ncommaaccent" unicode="&#x145;" horiz-adv-x="752" 
d="M315 -230q28 23 28 50q0 17 -21.5 38.5t-21.5 45.5t20.5 40.5t49.5 16.5q33 0 56.5 -20t23.5 -53q0 -66 -61 -118h-74zM78 0v666h163l216 -310q15 -21 29 -43t22 -35.5t14.5 -25.5t7.5 -13h2q-4 28 -4 109v318h146v-666h-147l-237 336q-18 25 -33.5 48.5t-24 38
t-10.5 17.5h-2q4 -28 4 -93v-347h-146z" />
    <glyph glyph-name="ncommaaccent" unicode="&#x146;" 
d="M223 -230q28 23 28 50q0 17 -21.5 38.5t-21.5 45.5t20.5 40.5t49.5 16.5q33 0 56.5 -20t23.5 -53q0 -66 -61 -118h-74zM59 0v490h149v-60q63 72 154 72q77 0 112.5 -44t35.5 -117v-341h-152v310q0 34 -13.5 50t-45.5 16q-48 0 -88 -53v-323h-152z" />
    <glyph glyph-name="Ncaron" unicode="&#x147;" horiz-adv-x="752" 
d="M316 715l-127 161h127l59 -59l59 59h127l-129 -161h-116zM78 0v666h163l216 -310q15 -21 29 -43t22 -35.5t14.5 -25.5t7.5 -13h2q-4 28 -4 109v318h146v-666h-147l-237 336q-18 25 -33.5 48.5t-24 38t-10.5 17.5h-2q4 -28 4 -93v-347h-146z" />
    <glyph glyph-name="ncaron" unicode="&#x148;" 
d="M222 541l-127 161h127l59 -59l59 59h127l-129 -161h-116zM59 0v490h149v-60q63 72 154 72q77 0 112.5 -44t35.5 -117v-341h-152v310q0 34 -13.5 50t-45.5 16q-48 0 -88 -53v-323h-152z" />
    <glyph glyph-name="Omacron" unicode="&#x14c;" horiz-adv-x="778" 
d="M246 732v106h285v-106h-285zM393 -12q-164 0 -258.5 101t-94.5 243q0 92 38.5 169.5t119.5 127t191 49.5q164 0 256 -99.5t92 -241.5q0 -69 -22 -131t-63.5 -111t-108.5 -78t-150 -29zM389 117q90 0 134 60.5t44 154.5q0 95 -43 156t-131 61q-90 0 -136 -59.5t-46 -152.5
q0 -95 45 -157.5t133 -62.5z" />
    <glyph glyph-name="omacron" unicode="&#x14d;" horiz-adv-x="558" 
d="M136 558v106h285v-106h-285zM278 -12q-121 0 -186 75t-65 180q0 106 64.5 182.5t186.5 76.5t187 -74.5t65 -179.5t-65.5 -182.5t-186.5 -77.5zM281 101q48 0 68 36t20 106q0 148 -93 148q-48 0 -68 -37t-20 -106q0 -147 93 -147z" />
    <glyph glyph-name="Obreve" unicode="&#x14e;" horiz-adv-x="778" 
d="M393 -12q-164 0 -258.5 101t-94.5 243q0 92 38.5 169.5t119.5 127t191 49.5q164 0 256 -99.5t92 -241.5q0 -69 -22 -131t-63.5 -111t-108.5 -78t-150 -29zM389 117q90 0 134 60.5t44 154.5q0 95 -43 156t-131 61q-90 0 -136 -59.5t-46 -152.5q0 -95 45 -157.5t133 -62.5z
M389 702q-70 0 -120 39t-57 115h123q5 -59 54 -59q48 0 54 59h122q-6 -76 -56 -115t-120 -39z" />
    <glyph glyph-name="obreve" unicode="&#x14f;" horiz-adv-x="558" 
d="M278 -12q-121 0 -186 75t-65 180q0 106 64.5 182.5t186.5 76.5t187 -74.5t65 -179.5t-65.5 -182.5t-186.5 -77.5zM281 101q48 0 68 36t20 106q0 148 -93 148q-48 0 -68 -37t-20 -106q0 -147 93 -147zM279 528q-70 0 -120 39t-57 115h123q5 -59 54 -59q48 0 54 59h122
q-6 -76 -56 -115t-120 -39z" />
    <glyph glyph-name="Ohungarumlaut" unicode="&#x150;" horiz-adv-x="778" 
d="M214 715l91 138h171l-142 -138h-120zM428 715l92 138h170l-142 -138h-120zM393 -12q-164 0 -258.5 101t-94.5 243q0 92 38.5 169.5t119.5 127t191 49.5q164 0 256 -99.5t92 -241.5q0 -69 -22 -131t-63.5 -111t-108.5 -78t-150 -29zM389 117q90 0 134 60.5t44 154.5
q0 95 -43 156t-131 61q-90 0 -136 -59.5t-46 -152.5q0 -95 45 -157.5t133 -62.5z" />
    <glyph glyph-name="ohungarumlaut" unicode="&#x151;" horiz-adv-x="558" 
d="M104 541l91 138h171l-142 -138h-120zM318 541l92 138h170l-142 -138h-120zM278 -12q-121 0 -186 75t-65 180q0 106 64.5 182.5t186.5 76.5t187 -74.5t65 -179.5t-65.5 -182.5t-186.5 -77.5zM281 101q48 0 68 36t20 106q0 148 -93 148q-48 0 -68 -37t-20 -106
q0 -147 93 -147z" />
    <glyph glyph-name="OE" unicode="&#x152;" horiz-adv-x="932" 
d="M384 -12q-110 0 -192 49.5t-121 126t-39 168.5t38.5 169.5t119 127t190.5 49.5q49 0 102 -12h388v-132h-239v-129h210v-124h-210v-149h246v-132h-386q-51 -12 -107 -12zM380 117q55 0 94 18v395q-33 19 -90 19q-90 0 -136 -60t-46 -152q0 -95 45 -157.5t133 -62.5z" />
    <glyph glyph-name="oe" unicode="&#x153;" horiz-adv-x="870" 
d="M278 -12q-121 0 -186 75t-65 180q0 106 64.5 182.5t186.5 76.5q106 0 170 -67q69 67 166 67q118 0 174 -77.5t43 -220.5h-303q13 -105 116 -105q60 0 125 31l47 -95q-27 -15 -42.5 -22t-56 -16t-88.5 -9q-114 0 -182 68q-66 -68 -169 -68zM281 101q48 0 68 36t20 106
q0 148 -93 148q-48 0 -68 -37t-20 -106q0 -147 93 -147zM525 304h161q-4 91 -74 91q-73 0 -87 -91z" />
    <glyph glyph-name="Racute" unicode="&#x154;" horiz-adv-x="637" 
d="M234 715l80 138h192l-142 -138h-130zM78 0v666h236q122 0 188 -50.5t66 -145.5q0 -76 -41.5 -121t-103.5 -60v-2q35 -25 81 -99l119 -188h-176l-118 190q-31 48 -45.5 60.5t-35.5 12.5h-8v-263h-162zM240 375h70q99 0 99 85t-105 85h-64v-170z" />
    <glyph glyph-name="racute" unicode="&#x155;" horiz-adv-x="405" 
d="M145 541l80 138h192l-142 -138h-130zM59 0v490h152v-64q45 76 122 76q45 0 71 -15l-36 -130q-22 12 -54 12q-63 0 -103 -66v-303h-152z" />
    <glyph glyph-name="Rcommaaccent" unicode="&#x156;" horiz-adv-x="637" 
d="M284 -230q28 23 28 50q0 17 -21.5 38.5t-21.5 45.5t20.5 40.5t49.5 16.5q33 0 56.5 -20t23.5 -53q0 -66 -61 -118h-74zM78 0v666h236q122 0 188 -50.5t66 -145.5q0 -76 -41.5 -121t-103.5 -60v-2q35 -25 81 -99l119 -188h-176l-118 190q-31 48 -45.5 60.5t-35.5 12.5h-8
v-263h-162zM240 375h70q99 0 99 85t-105 85h-64v-170z" />
    <glyph glyph-name="rcommaaccent" unicode="&#x157;" horiz-adv-x="405" 
d="M77 -230q28 23 28 50q0 17 -21.5 38.5t-21.5 45.5t20.5 40.5t49.5 16.5q33 0 56.5 -20t23.5 -53q0 -66 -61 -118h-74zM59 0v490h152v-64q45 76 122 76q45 0 71 -15l-36 -130q-22 12 -54 12q-63 0 -103 -66v-303h-152z" />
    <glyph glyph-name="Rcaron" unicode="&#x158;" horiz-adv-x="637" 
d="M251 715l-127 161h127l59 -59l59 59h127l-129 -161h-116zM78 0v666h236q122 0 188 -50.5t66 -145.5q0 -76 -41.5 -121t-103.5 -60v-2q35 -25 81 -99l119 -188h-176l-118 190q-31 48 -45.5 60.5t-35.5 12.5h-8v-263h-162zM240 375h70q99 0 99 85t-105 85h-64v-170z" />
    <glyph glyph-name="rcaron" unicode="&#x159;" horiz-adv-x="405" 
d="M163 541l-127 161h127l59 -59l59 59h127l-129 -161h-116zM59 0v490h152v-64q45 76 122 76q45 0 71 -15l-36 -130q-22 12 -54 12q-63 0 -103 -66v-303h-152z" />
    <glyph glyph-name="Sacute" unicode="&#x15a;" horiz-adv-x="522" 
d="M184 715l80 138h192l-142 -138h-130zM238 -12q-130 0 -211 65l66 112q72 -48 140 -48q46 0 71 18.5t25 47.5q0 18 -13.5 33t-29.5 22.5t-50 22.5t-54 25q-68 33 -103.5 79.5t-35.5 122.5q0 85 63 137.5t159 52.5q123 0 201 -57l-63 -112q-66 40 -127 40q-80 0 -80 -60
q0 -11 5 -21t10.5 -16.5t20 -14.5t23.5 -12t30.5 -13.5t33.5 -14.5q81 -36 123 -79.5t42 -125.5q0 -95 -65.5 -149.5t-180.5 -54.5z" />
    <glyph glyph-name="sacute" unicode="&#x15b;" horiz-adv-x="424" 
d="M135 541l80 138h192l-142 -138h-130zM200 -12q-110 0 -179 46l49 105q62 -40 121 -40q74 0 74 36q0 13 -15.5 22t-52 22.5t-61.5 25.5q-52 25 -76.5 57.5t-24.5 84.5q0 71 52.5 113t138.5 42q93 0 161 -37l-50 -103q-53 29 -104 29q-63 0 -63 -36q0 -8 5 -14.5t16 -12
t21.5 -9t29 -10t31.5 -11.5q64 -26 96 -59t32 -90q0 -79 -53 -120t-148 -41z" />
    <glyph glyph-name="Scircumflex" unicode="&#x15c;" horiz-adv-x="522" 
d="M74 716l129 162h116l127 -162h-127l-59 60l-59 -60h-127zM238 -12q-130 0 -211 65l66 112q72 -48 140 -48q46 0 71 18.5t25 47.5q0 18 -13.5 33t-29.5 22.5t-50 22.5t-54 25q-68 33 -103.5 79.5t-35.5 122.5q0 85 63 137.5t159 52.5q123 0 201 -57l-63 -112
q-66 40 -127 40q-80 0 -80 -60q0 -11 5 -21t10.5 -16.5t20 -14.5t23.5 -12t30.5 -13.5t33.5 -14.5q81 -36 123 -79.5t42 -125.5q0 -95 -65.5 -149.5t-180.5 -54.5z" />
    <glyph glyph-name="scircumflex" unicode="&#x15d;" horiz-adv-x="424" 
d="M25 542l129 162h116l127 -162h-127l-59 60l-59 -60h-127zM200 -12q-110 0 -179 46l49 105q62 -40 121 -40q74 0 74 36q0 13 -15.5 22t-52 22.5t-61.5 25.5q-52 25 -76.5 57.5t-24.5 84.5q0 71 52.5 113t138.5 42q93 0 161 -37l-50 -103q-53 29 -104 29q-63 0 -63 -36
q0 -8 5 -14.5t16 -12t21.5 -9t29 -10t31.5 -11.5q64 -26 96 -59t32 -90q0 -79 -53 -120t-148 -41z" />
    <glyph glyph-name="Scedilla" unicode="&#x15e;" horiz-adv-x="522" 
d="M227 -233q-56 0 -88 16l19 65q22 -11 51 -11q47 0 47 33q0 42 -71 36l30 83q-117 6 -188 64l66 112q72 -48 140 -48q46 0 71 18.5t25 47.5q0 18 -13.5 33t-29.5 22.5t-50 22.5t-54 25q-68 33 -103.5 79.5t-35.5 122.5q0 85 63 137.5t159 52.5q123 0 201 -57l-63 -112
q-66 40 -127 40q-80 0 -80 -60q0 -11 5 -21t10.5 -16.5t20 -14.5t23.5 -12t30.5 -13.5t33.5 -14.5q81 -36 123 -79.5t42 -125.5q0 -81 -48 -133t-134 -66l-17 -45q33 -7 52.5 -29t19.5 -56q0 -42 -36 -69t-94 -27z" />
    <glyph glyph-name="scedilla" unicode="&#x15f;" horiz-adv-x="424" 
d="M185 -233q-56 0 -88 16l19 65q22 -11 51 -11q47 0 47 33q0 42 -71 36l30 83q-92 5 -152 45l49 105q62 -40 121 -40q74 0 74 36q0 13 -15.5 22t-52 22.5t-61.5 25.5q-52 25 -76.5 57.5t-24.5 84.5q0 71 52.5 113t138.5 42q93 0 161 -37l-50 -103q-53 29 -104 29
q-63 0 -63 -36q0 -8 5 -14.5t16 -12t21.5 -9t29 -10t31.5 -11.5q64 -26 96 -59t32 -90q0 -132 -141 -156l-17 -45q33 -7 52.5 -29t19.5 -56q0 -42 -36 -69t-94 -27z" />
    <glyph glyph-name="Scaron" unicode="&#x160;" horiz-adv-x="522" 
d="M201 715l-127 161h127l59 -59l59 59h127l-129 -161h-116zM238 -12q-130 0 -211 65l66 112q72 -48 140 -48q46 0 71 18.5t25 47.5q0 18 -13.5 33t-29.5 22.5t-50 22.5t-54 25q-68 33 -103.5 79.5t-35.5 122.5q0 85 63 137.5t159 52.5q123 0 201 -57l-63 -112
q-66 40 -127 40q-80 0 -80 -60q0 -11 5 -21t10.5 -16.5t20 -14.5t23.5 -12t30.5 -13.5t33.5 -14.5q81 -36 123 -79.5t42 -125.5q0 -95 -65.5 -149.5t-180.5 -54.5z" />
    <glyph glyph-name="scaron" unicode="&#x161;" horiz-adv-x="424" 
d="M152 541l-127 161h127l59 -59l59 59h127l-129 -161h-116zM200 -12q-110 0 -179 46l49 105q62 -40 121 -40q74 0 74 36q0 13 -15.5 22t-52 22.5t-61.5 25.5q-52 25 -76.5 57.5t-24.5 84.5q0 71 52.5 113t138.5 42q93 0 161 -37l-50 -103q-53 29 -104 29q-63 0 -63 -36
q0 -8 5 -14.5t16 -12t21.5 -9t29 -10t31.5 -11.5q64 -26 96 -59t32 -90q0 -79 -53 -120t-148 -41z" />
    <glyph glyph-name="Tcommaaccent" unicode="&#x162;" horiz-adv-x="550" 
d="M214 -230q28 23 28 50q0 17 -21.5 38.5t-21.5 45.5t20.5 40.5t49.5 16.5q33 0 56.5 -20t23.5 -53q0 -66 -61 -118h-74zM194 0v534h-181v132h525v-132h-182v-534h-162z" />
    <glyph glyph-name="tcommaaccent" unicode="&#x163;" horiz-adv-x="399" 
d="M177 -230q28 23 28 50q0 17 -21.5 38.5t-21.5 45.5t20.5 40.5t49.5 16.5q33 0 56.5 -20t23.5 -53q0 -66 -61 -118h-74zM260 -12q-90 0 -128 41t-38 119v230h-76v112h76v141h152v-141h112v-112h-112v-198q0 -36 10.5 -52t35.5 -16q32 0 64 16l33 -112q-51 -28 -129 -28z
" />
    <glyph glyph-name="Tcaron" unicode="&#x164;" horiz-adv-x="550" 
d="M215 715l-127 161h127l59 -59l59 59h127l-129 -161h-116zM194 0v534h-181v132h525v-132h-182v-534h-162z" />
    <glyph glyph-name="tcaron" unicode="&#x165;" horiz-adv-x="409" 
d="M296 542l35 178h151l-82 -178h-104zM260 -12q-90 0 -128 41t-38 119v230h-76v112h76v141h152v-141h112v-112h-112v-198q0 -36 10.5 -52t35.5 -16q32 0 64 16l33 -112q-51 -28 -129 -28z" />
    <glyph glyph-name="Tbar" unicode="&#x166;" horiz-adv-x="550" 
d="M39 277v112h155v145h-181v132h525v-132h-182v-145h156v-112h-156v-277h-162v277h-155z" />
    <glyph glyph-name="tbar" unicode="&#x167;" horiz-adv-x="399" 
d="M38 206v107h56v71h-76v106h76v141h152v-141h112v-106h-112v-71h92v-107h-92v-26q0 -36 10.5 -52t35.5 -16q32 0 64 16l33 -112q-51 -28 -129 -28q-90 0 -128 41t-38 119v58h-56z" />
    <glyph glyph-name="Utilde" unicode="&#x168;" horiz-adv-x="723" 
d="M368 -12q-293 0 -293 273v405h162v-393q0 -80 30.5 -117t103.5 -37q128 0 128 147v400h148v-389q0 -141 -70.5 -215t-208.5 -74zM423 721q-34 0 -69 17t-53 17q-25 0 -55 -30l-68 58q17 32 48.5 56.5t70.5 24.5q35 0 69.5 -17t52.5 -17q29 0 57 31l68 -59
q-18 -32 -50 -56.5t-71 -24.5z" />
    <glyph glyph-name="utilde" unicode="&#x169;" 
d="M204 -12q-148 0 -148 160v342h152v-310q0 -34 13.5 -50t45.5 -16q45 0 88 52v324h152v-337q0 -89 14 -153h-150q-8 26 -10 64q-59 -76 -157 -76zM344 547q-34 0 -69 17t-53 17q-25 0 -55 -30l-68 58q17 32 48.5 56.5t70.5 24.5q35 0 69.5 -17t52.5 -17q29 0 57 31l68 -59
q-18 -32 -50 -56.5t-71 -24.5z" />
    <glyph glyph-name="Umacron" unicode="&#x16a;" horiz-adv-x="723" 
d="M368 -12q-293 0 -293 273v405h162v-393q0 -80 30.5 -117t103.5 -37q128 0 128 147v400h148v-389q0 -141 -70.5 -215t-208.5 -74zM219 732v106h285v-106h-285z" />
    <glyph glyph-name="umacron" unicode="&#x16b;" 
d="M204 -12q-148 0 -148 160v342h152v-310q0 -34 13.5 -50t45.5 -16q45 0 88 52v324h152v-337q0 -89 14 -153h-150q-8 26 -10 64q-59 -76 -157 -76zM140 558v106h285v-106h-285z" />
    <glyph glyph-name="Ubreve" unicode="&#x16c;" horiz-adv-x="723" 
d="M368 -12q-293 0 -293 273v405h162v-393q0 -80 30.5 -117t103.5 -37q128 0 128 147v400h148v-389q0 -141 -70.5 -215t-208.5 -74zM361 702q-70 0 -120 39t-57 115h123q5 -59 54 -59q48 0 54 59h122q-6 -76 -56 -115t-120 -39z" />
    <glyph glyph-name="ubreve" unicode="&#x16d;" 
d="M204 -12q-148 0 -148 160v342h152v-310q0 -34 13.5 -50t45.5 -16q45 0 88 52v324h152v-337q0 -89 14 -153h-150q-8 26 -10 64q-59 -76 -157 -76zM283 528q-70 0 -120 39t-57 115h123q5 -59 54 -59q48 0 54 59h122q-6 -76 -56 -115t-120 -39z" />
    <glyph glyph-name="Uring" unicode="&#x16e;" horiz-adv-x="723" 
d="M361 712q-46 0 -80 31.5t-34 77.5q0 47 34 78.5t80 31.5t80 -31.5t34 -78.5q0 -46 -34 -77.5t-80 -31.5zM361 772q20 0 32.5 14.5t12.5 34.5q0 21 -12.5 35t-32.5 14t-32.5 -14t-12.5 -35q0 -20 12.5 -34.5t32.5 -14.5zM368 -12q-293 0 -293 273v405h162v-393
q0 -80 30.5 -117t103.5 -37q128 0 128 147v400h148v-389q0 -141 -70.5 -215t-208.5 -74z" />
    <glyph glyph-name="uring" unicode="&#x16f;" 
d="M282 538q-46 0 -80 31.5t-34 77.5q0 47 34 78.5t80 31.5t80 -31.5t34 -78.5q0 -46 -34 -77.5t-80 -31.5zM282 598q20 0 32.5 14.5t12.5 34.5q0 21 -12.5 35t-32.5 14t-32.5 -14t-12.5 -35q0 -20 12.5 -34.5t32.5 -14.5zM204 -12q-148 0 -148 160v342h152v-310
q0 -34 13.5 -50t45.5 -16q45 0 88 52v324h152v-337q0 -89 14 -153h-150q-8 26 -10 64q-59 -76 -157 -76z" />
    <glyph glyph-name="Uhungarumlaut" unicode="&#x170;" horiz-adv-x="723" 
d="M368 -12q-293 0 -293 273v405h162v-393q0 -80 30.5 -117t103.5 -37q128 0 128 147v400h148v-389q0 -141 -70.5 -215t-208.5 -74zM187 715l91 138h171l-142 -138h-120zM401 715l92 138h170l-142 -138h-120z" />
    <glyph glyph-name="uhungarumlaut" unicode="&#x171;" 
d="M204 -12q-148 0 -148 160v342h152v-310q0 -34 13.5 -50t45.5 -16q45 0 88 52v324h152v-337q0 -89 14 -153h-150q-8 26 -10 64q-59 -76 -157 -76zM108 541l91 138h171l-142 -138h-120zM322 541l92 138h170l-142 -138h-120z" />
    <glyph glyph-name="Uogonek" unicode="&#x172;" horiz-adv-x="723" 
d="M493 -233q-57 0 -92 26.5t-35 74.5q0 38 22 73.5t51 55.5q-32 -9 -71 -9q-293 0 -293 273v405h162v-393q0 -80 30.5 -117t103.5 -37q128 0 128 147v400h148v-389q0 -88 -26.5 -143.5t-95.5 -133.5q-56 -67 -56 -112q0 -44 48 -44q18 0 40 9l18 -68q-34 -18 -82 -18z" />
    <glyph glyph-name="uogonek" unicode="&#x173;" 
d="M425 -233q-57 0 -91.5 26.5t-34.5 74.5q0 72 72 132q-8 26 -10 64q-59 -76 -157 -76q-148 0 -148 160v342h152v-310q0 -34 13.5 -50t45.5 -16q45 0 88 52v324h152v-337q0 -88 14 -154h-5q-48 -3 -81.5 -36t-33.5 -75q0 -44 48 -44q20 0 40 9l18 -68q-34 -18 -82 -18z" />
    <glyph glyph-name="Wcircumflex" unicode="&#x174;" horiz-adv-x="926" 
d="M277 716l129 162h116l127 -162h-127l-59 60l-59 -60h-127zM194 0l-179 666h172l75 -317q24 -100 24 -124h2q0 18 27 130l79 311h158l77 -310q26 -112 26 -131h3q0 2 3 20.5t9 50t12 55.5l77 315h153l-181 -666h-149l-86 343q-26 102 -26 123h-2q0 -17 -29 -123l-96 -343
h-149z" />
    <glyph glyph-name="wcircumflex" unicode="&#x175;" horiz-adv-x="757" 
d="M191 542l129 162h116l127 -162h-127l-59 60l-59 -60h-127zM146 0l-137 490h163l65 -294h2l74 294h139l74 -296h2l68 296h151l-137 -490h-137l-95 311h-2l-93 -311h-137z" />
    <glyph glyph-name="Ycircumflex" unicode="&#x176;" horiz-adv-x="612" 
d="M229 0v251l-220 415h179l129 -265h1l128 265h157l-212 -415v-251h-162zM124 716l129 162h116l127 -162h-127l-59 60l-59 -60h-127z" />
    <glyph glyph-name="ycircumflex" unicode="&#x177;" horiz-adv-x="532" 
d="M85 -235q-48 0 -85 10l22 120q21 -6 51 -6q47 0 70 19t37 58l17 47l-183 477h161l101 -302h3l89 302h155l-200 -538q-37 -99 -88 -143t-150 -44zM86 542l129 162h116l127 -162h-127l-59 60l-59 -60h-127z" />
    <glyph glyph-name="Ydieresis" unicode="&#x178;" horiz-adv-x="612" 
d="M229 0v251l-220 415h179l129 -265h1l128 265h157l-212 -415v-251h-162zM201 717q-35 0 -57.5 22.5t-22.5 55.5q0 31 22.5 54t57.5 23t58 -23t23 -54q0 -33 -23 -55.5t-58 -22.5zM419 717q-35 0 -58 22.5t-23 55.5q0 31 23 54t58 23t57.5 -23t22.5 -54q0 -33 -22.5 -55.5
t-57.5 -22.5z" />
    <glyph glyph-name="Zacute" unicode="&#x179;" horiz-adv-x="574" 
d="M217 715l80 138h192l-142 -138h-130zM46 0v104l286 431h-275v131h471v-102l-288 -433h296v-131h-490z" />
    <glyph glyph-name="zacute" unicode="&#x17a;" horiz-adv-x="469" 
d="M158 541l80 138h192l-142 -138h-130zM38 0v81l202 295h-193v114h378v-86l-200 -290h201v-114h-388z" />
    <glyph glyph-name="Zdotaccent" unicode="&#x17b;" horiz-adv-x="574" 
d="M46 0v104l286 431h-275v131h471v-102l-288 -433h296v-131h-490zM293 726q-35 0 -58 22.5t-23 54.5t23 54.5t58 22.5t58 -22.5t23 -54.5t-23 -54.5t-58 -22.5z" />
    <glyph glyph-name="zdotaccent" unicode="&#x17c;" horiz-adv-x="469" 
d="M38 0v81l202 295h-193v114h378v-86l-200 -290h201v-114h-388zM235 552q-35 0 -58 22.5t-23 54.5t23 54.5t58 22.5t58 -22.5t23 -54.5t-23 -54.5t-58 -22.5z" />
    <glyph glyph-name="Zcaron" unicode="&#x17d;" horiz-adv-x="574" 
d="M234 715l-127 161h127l59 -59l59 59h127l-129 -161h-116zM46 0v104l286 431h-275v131h471v-102l-288 -433h296v-131h-490z" />
    <glyph glyph-name="zcaron" unicode="&#x17e;" horiz-adv-x="469" 
d="M176 541l-127 161h127l59 -59l59 59h127l-129 -161h-116zM38 0v81l202 295h-193v114h378v-86l-200 -290h201v-114h-388z" />
    <glyph glyph-name="florin" unicode="&#x192;" horiz-adv-x="487" 
d="M69 -188q-69 0 -113 21l38 108q23 -13 58 -13q39 0 58 20.5t24 66.5l34 309h-104l15 112h102l11 99q21 197 223 197q83 0 136 -33l-48 -99q-36 18 -79 18q-40 0 -60.5 -22t-25.5 -68l-10 -92h118l-19 -112h-111l-35 -312q-21 -200 -212 -200z" />
    <glyph glyph-name="Scommaaccent" unicode="&#x218;" horiz-adv-x="522" 
d="M194 -230q28 23 28 50q0 17 -21.5 38.5t-21.5 45.5t20.5 40.5t49.5 16.5q33 0 56.5 -20t23.5 -53q0 -66 -61 -118h-74zM238 -12q-130 0 -211 65l66 112q72 -48 140 -48q46 0 71 18.5t25 47.5q0 18 -13.5 33t-29.5 22.5t-50 22.5t-54 25q-68 33 -103.5 79.5t-35.5 122.5
q0 85 63 137.5t159 52.5q123 0 201 -57l-63 -112q-66 40 -127 40q-80 0 -80 -60q0 -11 5 -21t10.5 -16.5t20 -14.5t23.5 -12t30.5 -13.5t33.5 -14.5q81 -36 123 -79.5t42 -125.5q0 -95 -65.5 -149.5t-180.5 -54.5z" />
    <glyph glyph-name="scommaaccent" unicode="&#x219;" horiz-adv-x="424" 
d="M151 -230q28 23 28 50q0 17 -21.5 38.5t-21.5 45.5t20.5 40.5t49.5 16.5q33 0 56.5 -20t23.5 -53q0 -66 -61 -118h-74zM200 -12q-110 0 -179 46l49 105q62 -40 121 -40q74 0 74 36q0 13 -15.5 22t-52 22.5t-61.5 25.5q-52 25 -76.5 57.5t-24.5 84.5q0 71 52.5 113
t138.5 42q93 0 161 -37l-50 -103q-53 29 -104 29q-63 0 -63 -36q0 -8 5 -14.5t16 -12t21.5 -9t29 -10t31.5 -11.5q64 -26 96 -59t32 -90q0 -79 -53 -120t-148 -41z" />
    <glyph glyph-name="uni021A" unicode="&#x21a;" horiz-adv-x="550" 
d="M214 -230q28 23 28 50q0 17 -21.5 38.5t-21.5 45.5t20.5 40.5t49.5 16.5q33 0 56.5 -20t23.5 -53q0 -66 -61 -118h-74zM194 0v534h-181v132h525v-132h-182v-534h-162z" />
    <glyph glyph-name="uni021B" unicode="&#x21b;" horiz-adv-x="399" 
d="M177 -230q28 23 28 50q0 17 -21.5 38.5t-21.5 45.5t20.5 40.5t49.5 16.5q33 0 56.5 -20t23.5 -53q0 -66 -61 -118h-74zM260 -12q-90 0 -128 41t-38 119v230h-76v112h76v141h152v-141h112v-112h-112v-198q0 -36 10.5 -52t35.5 -16q32 0 64 16l33 -112q-51 -28 -129 -28z
" />
    <glyph glyph-name="dotlessj" unicode="&#x237;" horiz-adv-x="287" 
d="M43 -234q-60 0 -99 13l26 117q25 -7 40 -7q33 0 45 22t12 79v500h154v-515q0 -209 -178 -209z" />
    <glyph glyph-name="circumflex" unicode="&#x2c6;" horiz-adv-x="500" 
d="M64 542l129 162h116l127 -162h-127l-59 60l-59 -60h-127z" />
    <glyph glyph-name="caron" unicode="&#x2c7;" horiz-adv-x="500" 
d="M191 541l-127 161h127l59 -59l59 59h127l-129 -161h-116z" />
    <glyph glyph-name="breve" unicode="&#x2d8;" horiz-adv-x="500" 
d="M250 528q-70 0 -120 39t-57 115h123q5 -59 54 -59q48 0 54 59h122q-6 -76 -56 -115t-120 -39z" />
    <glyph glyph-name="dotaccent" unicode="&#x2d9;" horiz-adv-x="500" 
d="M250 552q-35 0 -58 22.5t-23 54.5t23 54.5t58 22.5t58 -22.5t23 -54.5t-23 -54.5t-58 -22.5z" />
    <glyph glyph-name="ring" unicode="&#x2da;" horiz-adv-x="500" 
d="M250 538q-46 0 -80 31.5t-34 77.5q0 47 34 78.5t80 31.5t80 -31.5t34 -78.5q0 -46 -34 -77.5t-80 -31.5zM250 598q20 0 32.5 14.5t12.5 34.5q0 21 -12.5 35t-32.5 14t-32.5 -14t-12.5 -35q0 -20 12.5 -34.5t32.5 -14.5z" />
    <glyph glyph-name="ogonek" unicode="&#x2db;" horiz-adv-x="500" 
d="M253 -233q-57 0 -91.5 26.5t-34.5 74.5q0 72 72 132h86q-28 -35 -42 -59.5t-14 -52.5q0 -44 48 -44q20 0 40 9l18 -68q-34 -18 -82 -18z" />
    <glyph glyph-name="tilde" unicode="&#x2dc;" horiz-adv-x="500" 
d="M312 547q-34 0 -69 17t-53 17q-25 0 -55 -30l-68 58q17 32 48.5 56.5t70.5 24.5q35 0 69.5 -17t52.5 -17q29 0 57 31l68 -59q-18 -32 -50 -56.5t-71 -24.5z" />
    <glyph glyph-name="hungarumlaut" unicode="&#x2dd;" horiz-adv-x="500" 
d="M15 541l91 138h171l-142 -138h-120zM229 541l92 138h170l-142 -138h-120z" />
    <glyph glyph-name="tonos" unicode="&#x384;" horiz-adv-x="500" 
d="M152 541l22 138h168l-64 -138h-126z" />
    <glyph glyph-name="dieresistonos" unicode="&#x385;" horiz-adv-x="500" 
d="M54 543q-35 0 -57.5 22.5t-22.5 55.5q0 31 23 54t57 23q35 0 58 -23t23 -54q0 -33 -23 -55.5t-58 -22.5zM446 543q-35 0 -58 22.5t-23 55.5q0 31 23 54t58 23q34 0 57 -23t23 -54q0 -33 -22.5 -55.5t-57.5 -22.5zM169 541l21 167h161l-64 -167h-118z" />
    <glyph glyph-name="Alphatonos" unicode="&#x386;" horiz-adv-x="719" 
d="M44 528l22 138h168l-64 -138h-126zM280 240h166l-49 137q-6 17 -33 116h-2q-1 -4 -6 -22t-12.5 -44t-15.5 -50zM35 0l254 666h155l262 -666h-176l-39 112h-254l-39 -112h-163z" />
    <glyph glyph-name="anoteleia" unicode="&#x387;" horiz-adv-x="270" 
d="M135 196q-41 0 -69 27t-28 67t28 67t69 27t69 -27t28 -67t-28 -67t-69 -27z" />
    <glyph glyph-name="Epsilontonos" unicode="&#x388;" horiz-adv-x="709" 
d="M23 528l22 138h168l-64 -138h-126zM247 0v666h398v-132h-238v-129h210v-124h-210v-149h245v-132h-405z" />
    <glyph glyph-name="Etatonos" unicode="&#x389;" horiz-adv-x="921" 
d="M23 528l22 138h168l-64 -138h-126zM247 0v666h162v-255h273v255h160v-666h-160v279h-273v-279h-162z" />
    <glyph glyph-name="Iotatonos" unicode="&#x38a;" horiz-adv-x="501" 
d="M23 528l22 138h168l-64 -138h-126zM247 0v666h163v-666h-163z" />
    <glyph glyph-name="Omicrontonos" unicode="&#x38c;" horiz-adv-x="884" 
d="M23 528l22 138h168l-64 -138h-126zM499 -12q-164 0 -258.5 101t-94.5 243q0 92 38.5 169.5t119.5 127t191 49.5q164 0 256 -99.5t92 -241.5q0 -69 -22 -131t-63.5 -111t-108.5 -78t-150 -29zM495 117q90 0 134 60.5t44 154.5q0 95 -43 156t-131 61q-90 0 -136 -59.5
t-46 -152.5q0 -95 45 -157.5t133 -62.5z" />
    <glyph glyph-name="Upsilontonos" unicode="&#x38e;" horiz-adv-x="848" 
d="M23 528l22 138h168l-64 -138h-126zM464 0v251l-220 415h179l129 -265h1l128 265h157l-212 -415v-251h-162z" />
    <glyph glyph-name="Omegatonos" unicode="&#x38f;" horiz-adv-x="881" 
d="M23 528l22 138h168l-64 -138h-126zM149 0v123h122q-43 31 -75 95t-32 145q0 139 96.5 227t235.5 88q140 0 236.5 -88t96.5 -227q0 -80 -32 -144t-75 -96h122v-123h-300v116q67 43 96.5 99.5t29.5 141.5q0 79 -49.5 135.5t-124.5 56.5t-124.5 -57t-49.5 -135
q0 -85 29.5 -141t97.5 -100v-116h-300z" />
    <glyph glyph-name="iotadieresistonos" unicode="&#x390;" horiz-adv-x="329" 
d="M-48 543q-35 0 -57.5 22.5t-22.5 55.5q0 31 23 54t57 23q35 0 58 -23t23 -54q0 -33 -23 -55.5t-58 -22.5zM344 543q-35 0 -58 22.5t-23 55.5q0 31 23 54t58 23q34 0 57 -23t23 -54q0 -33 -22.5 -55.5t-57.5 -22.5zM67 541l21 167h161l-64 -167h-118zM214 -12
q-82 0 -117 39.5t-35 110.5v352h151v-320q0 -31 8 -44.5t26 -13.5q23 0 39 11l32 -112q-42 -23 -104 -23z" />
    <glyph glyph-name="Alpha" unicode="&#x391;" horiz-adv-x="697" 
d="M258 240h166l-49 137q-6 17 -33 116h-2q-1 -4 -6 -22t-12.5 -44t-15.5 -50zM13 0l254 666h155l262 -666h-176l-39 112h-254l-39 -112h-163z" />
    <glyph glyph-name="Beta" unicode="&#x392;" horiz-adv-x="611" 
d="M78 0v666h238q49 0 89 -8.5t73.5 -26.5t52.5 -51.5t19 -79.5q0 -124 -118 -154v-2q63 -10 104 -51t41 -109q0 -184 -264 -184h-235zM237 122h68q109 0 109 79q0 82 -103 82h-74v-161zM237 396h57q51 0 74.5 18.5t23.5 57.5q0 72 -94 72h-61v-148z" />
    <glyph glyph-name="Gamma" unicode="&#x393;" horiz-adv-x="499" 
d="M78 0v666h408v-129h-245v-537h-163z" />
    <glyph glyph-name="Delta" unicode="&#x394;" horiz-adv-x="674" 
d="M28 0v79l229 587h153l237 -587v-79h-619zM206 132h250l-91 247q-8 22 -16 48t-13 44t-6 20h-2q-11 -49 -34 -112z" />
    <glyph glyph-name="Epsilon" unicode="&#x395;" horiz-adv-x="539" 
d="M78 0v666h398v-132h-238v-129h210v-124h-210v-149h245v-132h-405z" />
    <glyph glyph-name="Zeta" unicode="&#x396;" horiz-adv-x="574" 
d="M46 0v104l286 431h-275v131h471v-102l-288 -433h296v-131h-490z" />
    <glyph glyph-name="Eta" unicode="&#x397;" horiz-adv-x="752" 
d="M78 0v666h162v-255h273v255h160v-666h-160v279h-273v-279h-162z" />
    <glyph glyph-name="Theta" unicode="&#x398;" horiz-adv-x="778" 
d="M393 -12q-164 0 -258.5 101t-94.5 243q0 92 38.5 169.5t119.5 127t191 49.5q164 0 256 -99.5t92 -241.5q0 -69 -22 -131t-63.5 -111t-108.5 -78t-150 -29zM389 117q90 0 134 60.5t44 154.5q0 95 -43 156t-131 61q-90 0 -136 -59.5t-46 -152.5q0 -95 45 -157.5t133 -62.5z
M267 275v124h241v-124h-241z" />
    <glyph glyph-name="Iota" unicode="&#x399;" horiz-adv-x="338" 
d="M84 0v666h163v-666h-163z" />
    <glyph glyph-name="Kappa" unicode="&#x39a;" horiz-adv-x="650" 
d="M78 0v666h162v-279l212 279h177l-238 -307l247 -359h-189l-209 306v-306h-162z" />
    <glyph glyph-name="Lambda" unicode="&#x39b;" horiz-adv-x="683" 
d="M13 0l248 666h153l257 -666h-175l-130 379q-7 22 -14.5 47.5t-12 42.5t-5.5 20h-2q-7 -33 -32 -110l-125 -379h-162z" />
    <glyph glyph-name="Mu" unicode="&#x39c;" horiz-adv-x="891" 
d="M37 0l92 666h157l125 -397q8 -26 19 -67t12 -45h2q2 5 13 45.5t19 66.5l130 397h157l91 -666h-165l-37 314q-11 90 -11 98h-2q-20 -75 -27 -96l-98 -316h-159l-98 316q-7 24 -16 59t-10 37h-2q0 -29 -8 -99l-39 -313h-145z" />
    <glyph glyph-name="Nu" unicode="&#x39d;" horiz-adv-x="752" 
d="M78 0v666h163l216 -310q15 -21 29 -43t22 -35.5t14.5 -25.5t7.5 -13h2q-4 28 -4 109v318h146v-666h-147l-237 336q-18 25 -33.5 48.5t-24 38t-10.5 17.5h-2q4 -28 4 -93v-347h-146z" />
    <glyph glyph-name="Xi" unicode="&#x39e;" horiz-adv-x="630" 
d="M59 0v145h511v-145h-511zM95 271v144h440v-144h-440zM66 521v145h497v-145h-497z" />
    <glyph glyph-name="Omicron" unicode="&#x39f;" horiz-adv-x="778" 
d="M393 -12q-164 0 -258.5 101t-94.5 243q0 92 38.5 169.5t119.5 127t191 49.5q164 0 256 -99.5t92 -241.5q0 -69 -22 -131t-63.5 -111t-108.5 -78t-150 -29zM389 117q90 0 134 60.5t44 154.5q0 95 -43 156t-131 61q-90 0 -136 -59.5t-46 -152.5q0 -95 45 -157.5t133 -62.5z
" />
    <glyph glyph-name="Pi" unicode="&#x3a0;" horiz-adv-x="733" 
d="M78 0v666h577v-666h-161v534h-254v-534h-162z" />
    <glyph glyph-name="Rho" unicode="&#x3a1;" horiz-adv-x="606" 
d="M77 0v666h235q117 0 189 -54.5t72 -161.5q0 -109 -74.5 -166.5t-203.5 -57.5h-57v-226h-161zM238 347h58q60 0 88 24.5t28 76.5q0 97 -112 97h-62v-198z" />
    <glyph glyph-name="Sigma" unicode="&#x3a3;" horiz-adv-x="546" 
d="M35 0v97l178 248l-160 223v98h440v-131h-255l141 -192l-153 -212h279v-131h-470z" />
    <glyph glyph-name="Tau" unicode="&#x3a4;" horiz-adv-x="550" 
d="M194 0v534h-181v132h525v-132h-182v-534h-162z" />
    <glyph glyph-name="Upsilon" unicode="&#x3a5;" horiz-adv-x="612" 
d="M229 0v251l-220 415h179l129 -265h1l128 265h157l-212 -415v-251h-162z" />
    <glyph glyph-name="Phi" unicode="&#x3a6;" horiz-adv-x="826" 
d="M333 0v68q-139 4 -222.5 80t-83.5 192q0 113 84.5 191t221.5 81v54h162v-53q138 -4 221 -79.5t83 -191.5q0 -117 -82 -193.5t-222 -80.5v-68h-162zM484 183q72 1 113 45.5t41 111.5q0 69 -41.5 113t-112.5 45v-315zM343 183v315q-70 -1 -112.5 -44.5t-42.5 -111.5
t43.5 -113t111.5 -46z" />
    <glyph glyph-name="Chi" unicode="&#x3a7;" horiz-adv-x="632" 
d="M18 0l210 341l-202 325h184l114 -192l107 192h162l-191 -322l213 -344h-182l-128 214l-125 -214h-162z" />
    <glyph glyph-name="Psi" unicode="&#x3a8;" horiz-adv-x="800" 
d="M326 0v164q-123 15 -198.5 89.5t-75.5 202.5v210h161v-208q0 -81 35 -119t90 -41v368h138v-368q52 4 88 43t36 113v212h148v-209q0 -129 -71.5 -201t-188.5 -90v-166h-162z" />
    <glyph glyph-name="Omega" unicode="&#x3a9;" horiz-adv-x="771" 
d="M38 0v123h122q-43 31 -75 95t-32 145q0 139 96.5 227t235.5 88q140 0 236.5 -88t96.5 -227q0 -80 -32 -144t-75 -96h122v-123h-300v116q67 43 96.5 99.5t29.5 141.5q0 79 -49.5 135.5t-124.5 56.5t-124.5 -57t-49.5 -135q0 -85 29.5 -141t97.5 -100v-116h-300z" />
    <glyph glyph-name="Iotadieresis" unicode="&#x3aa;" horiz-adv-x="338" 
d="M57 717q-35 0 -57.5 22.5t-22.5 55.5q0 31 22.5 54t57.5 23t58 -23t23 -54q0 -33 -23 -55.5t-58 -22.5zM275 717q-35 0 -58 22.5t-23 55.5q0 31 23 54t58 23t57.5 -23t22.5 -54q0 -33 -22.5 -55.5t-57.5 -22.5zM84 0v666h163v-666h-163z" />
    <glyph glyph-name="Upsilondieresis" unicode="&#x3ab;" horiz-adv-x="612" 
d="M201 717q-35 0 -57.5 22.5t-22.5 55.5q0 31 22.5 54t57.5 23t58 -23t23 -54q0 -33 -23 -55.5t-58 -22.5zM419 717q-35 0 -58 22.5t-23 55.5q0 31 23 54t58 23t57.5 -23t22.5 -54q0 -33 -22.5 -55.5t-57.5 -22.5zM229 0v251l-220 415h179l129 -265h1l128 265h157
l-212 -415v-251h-162z" />
    <glyph glyph-name="alphatonos" unicode="&#x3ac;" horiz-adv-x="604" 
d="M219 541l22 138h168l-64 -138h-126zM258 -12q-112 0 -172 75t-60 180q0 106 60 182.5t171 76.5q98 0 147 -77h1q8 39 22 65h155q-30 -46 -58 -154l-24 -89l28 -93q29 -99 67 -154h-158q-21 31 -30 66h-1q-50 -78 -148 -78zM267 101q36 0 60 37t34 97q-9 67 -33.5 111.5
t-61.5 44.5q-79 0 -79 -143q0 -147 80 -147z" />
    <glyph glyph-name="epsilontonos" unicode="&#x3ad;" horiz-adv-x="474" 
d="M189 541l22 138h168l-64 -138h-126zM262 -12q-107 0 -174 38t-67 108q0 45 29.5 78t73.5 39v1q-39 9 -61 39t-22 73q0 61 65 99.5t169 38.5q109 0 181 -44l-48 -112q-63 39 -136 39q-33 0 -52 -11.5t-19 -32.5q0 -41 84 -41h64v-104h-68q-97 0 -97 -44q0 -45 81 -45
q80 0 146 40l51 -113q-85 -46 -200 -46z" />
    <glyph glyph-name="etatonos" unicode="&#x3ae;" 
d="M218 541l22 138h168l-64 -138h-126zM358 -218v528q0 34 -13.5 50t-45.5 16q-48 0 -88 -53v-323h-152v338q0 88 -15 152h152q10 -27 12 -60q61 72 154 72q77 0 112.5 -44t35.5 -117v-559h-152z" />
    <glyph glyph-name="iotatonos" unicode="&#x3af;" horiz-adv-x="329" 
d="M75 541l22 138h168l-64 -138h-126zM214 -12q-82 0 -117 39.5t-35 110.5v352h151v-320q0 -31 8 -44.5t26 -13.5q23 0 39 11l32 -112q-42 -23 -104 -23z" />
    <glyph glyph-name="upsilondieresistonos" unicode="&#x3b0;" horiz-adv-x="553" 
d="M89 543q-35 0 -57.5 22.5t-22.5 55.5q0 31 22.5 54t57.5 23t58 -23t23 -54q0 -33 -23 -55.5t-58 -22.5zM481 543q-35 0 -58 22.5t-23 55.5q0 31 23 54t58 23t57.5 -23t22.5 -54q0 -33 -22.5 -55.5t-57.5 -22.5zM204 541l21 167h161l-64 -167h-118zM276 -12
q-108 0 -165.5 54.5t-57.5 157.5v290h152v-283q0 -106 71 -106q46 0 64 52t18 147q0 109 -30 190h155q31 -86 31 -190q0 -155 -52 -233.5t-186 -78.5z" />
    <glyph glyph-name="alpha" unicode="&#x3b1;" horiz-adv-x="604" 
d="M258 -12q-112 0 -172 75t-60 180q0 106 60 182.5t171 76.5q98 0 147 -77h1q8 39 22 65h155q-30 -46 -58 -154l-24 -89l28 -93q29 -99 67 -154h-158q-21 31 -30 66h-1q-50 -78 -148 -78zM267 101q36 0 60 37t34 97q-9 67 -33.5 111.5t-61.5 44.5q-79 0 -79 -143
q0 -147 80 -147z" />
    <glyph glyph-name="beta" unicode="&#x3b2;" horiz-adv-x="581" 
d="M59 -218v715q0 119 70 177t176 58q97 0 158.5 -44.5t61.5 -117.5q0 -61 -40.5 -110.5t-88.5 -61.5v-2q60 -6 108 -57t48 -123q0 -104 -62 -164.5t-179 -60.5q-65 0 -100 28v-237h-152zM278 107q53 0 82 29.5t29 79.5t-35.5 79t-97.5 29v102q49 1 80.5 37t31.5 81
q0 30 -17.5 51t-49.5 21q-90 0 -90 -121v-366q29 -22 67 -22z" />
    <glyph glyph-name="gamma" unicode="&#x3b3;" horiz-adv-x="524" 
d="M181 -218v234l-172 474h163l89 -303h3q70 147 91 303h155q-23 -193 -177 -477v-231h-152z" />
    <glyph glyph-name="delta" unicode="&#x3b4;" horiz-adv-x="568" 
d="M283 -12q-121 0 -189.5 69.5t-68.5 171.5q0 84 50 149t117 99q-48 64 -48 117q0 61 52.5 99.5t133.5 38.5q92 0 149 -39l-53 -97q-34 23 -76 23q-45 0 -45 -36q0 -16 12 -34t26 -31t51 -46q12 -10 18 -16q64 -56 98 -109t34 -132q0 -95 -69 -161t-192 -66zM382 210
q0 34 -14.5 65t-30.5 49t-52 54l-3 3l-3 3l-4 4q-37 -20 -63 -63.5t-26 -90.5q0 -63 27 -98t73 -35q44 0 70 29.5t26 79.5z" />
    <glyph glyph-name="epsilon" unicode="&#x3b5;" horiz-adv-x="489" 
d="M270 -12q-107 0 -174 38t-67 108q0 45 29.5 78t73.5 39v1q-39 9 -61 39t-22 73q0 61 65 99.5t169 38.5q109 0 181 -44l-48 -112q-63 39 -136 39q-33 0 -52 -11.5t-19 -32.5q0 -41 84 -41h64v-104h-68q-97 0 -97 -44q0 -45 81 -45q80 0 146 40l51 -113q-85 -46 -200 -46z
" />
    <glyph glyph-name="zeta" unicode="&#x3b6;" horiz-adv-x="410" 
d="M299 -193l-89 75q17 10 31 27t14 32q0 26 -37 46l-39 21q-149 82 -149 211q0 120 151 309l59 78h-195v114h393v-86l-153 -193q-96 -120 -96 -195q0 -46 22.5 -74.5t70.5 -54.5l39 -22q82 -43 82 -114q0 -52 -30.5 -100t-73.5 -74z" />
    <glyph glyph-name="eta" unicode="&#x3b7;" 
d="M358 -218v528q0 34 -13.5 50t-45.5 16q-48 0 -88 -53v-323h-152v338q0 88 -15 152h152q10 -27 12 -60q61 72 154 72q77 0 112.5 -44t35.5 -117v-559h-152z" />
    <glyph glyph-name="theta" unicode="&#x3b8;" horiz-adv-x="563" 
d="M282 -12q-68 0 -118 32t-77 87t-39.5 117t-12.5 134q0 71 12 133.5t38.5 118.5t77 89t118.5 33t118 -31.5t77 -86.5t39.5 -117.5t12.5 -134.5q0 -71 -12 -133.5t-38.5 -118.5t-77 -89t-118.5 -33zM284 100q81 0 90 212h-185q5 -92 28.5 -152t66.5 -60zM279 620
q-77 0 -90 -196h183q-7 86 -30 141t-63 55z" />
    <glyph glyph-name="iota" unicode="&#x3b9;" horiz-adv-x="329" 
d="M214 -12q-82 0 -117 39.5t-35 110.5v352h151v-320q0 -31 8 -44.5t26 -13.5q23 0 39 11l32 -112q-42 -23 -104 -23z" />
    <glyph glyph-name="kappa" unicode="&#x3ba;" horiz-adv-x="583" 
d="M70 0v490h148v-169q0 -62 -12 -119h1q23 69 78 151t112 137h174q-95 -79 -186 -192l186 -298h-169l-109 181q-66 -88 -83 -181h-140z" />
    <glyph glyph-name="lambda" unicode="&#x3bb;" horiz-adv-x="549" 
d="M11 0l198 493l-21 58q-18 51 -49 51q-26 0 -45 -12l-27 112q42 23 96 23q64 0 103.5 -31t67.5 -112l204 -582h-157l-73 225q-23 76 -30 121h-1q-9 -53 -30 -121l-76 -225h-160z" />
    <glyph glyph-name="mu" unicode="&#x3bc;" horiz-adv-x="571" 
d="M57 -218v708h152v-312q0 -33 12.5 -48.5t42.5 -15.5q48 0 91 52v324h152v-338q0 -88 14 -152h-149q-9 21 -11 63q-55 -62 -117 -70q-23 -2 -39 2h-4q4 -18 4 -95v-118h-148z" />
    <glyph glyph-name="nu" unicode="&#x3bd;" horiz-adv-x="524" 
d="M188 0l-179 490h163l89 -303h3q70 147 91 303h155q-23 -195 -185 -490h-137z" />
    <glyph glyph-name="xi" unicode="&#x3be;" horiz-adv-x="421" 
d="M304 -193l-90 75q18 10 32 27.5t14 33.5q0 30 -38 48l-44 21q-38 18 -57.5 29.5t-44.5 33.5t-36 52.5t-11 72.5q0 67 36.5 115.5t95.5 58.5v2q-47 12 -74.5 49.5t-27.5 83.5q0 39 18 68t48 43v1q-30 -9 -64 -9h-59v108h416v-114h-98q-51 0 -78 -27.5t-27 -71.5
q0 -40 26.5 -64.5t74.5 -24.5h52v-113h-74q-53 0 -79.5 -24t-26.5 -62q0 -35 24 -57t77 -46l36 -17q83 -38 83 -118q0 -52 -30.5 -100t-73.5 -74z" />
    <glyph glyph-name="omicron" unicode="&#x3bf;" horiz-adv-x="558" 
d="M278 -12q-121 0 -186 75t-65 180q0 106 64.5 182.5t186.5 76.5t187 -74.5t65 -179.5t-65.5 -182.5t-186.5 -77.5zM281 101q48 0 68 36t20 106q0 148 -93 148q-48 0 -68 -37t-20 -106q0 -147 93 -147z" />
    <glyph glyph-name="pi" unicode="&#x3c0;" horiz-adv-x="662" 
d="M519 -12q-82 0 -117 39.5t-35 110.5v238h-107q0 -204 -25 -376h-153q30 185 30 376h-91v114h612v-114h-115v-206q0 -31 8 -44.5t26 -13.5q23 0 39 11l32 -112q-42 -23 -104 -23z" />
    <glyph glyph-name="rho" unicode="&#x3c1;" horiz-adv-x="564" 
d="M49 -218v475q0 113 59.5 179t180.5 66q112 0 179 -66.5t67 -187.5q0 -119 -61.5 -189.5t-168.5 -70.5q-64 0 -104 29v-235h-152zM272 104q46 0 74.5 36.5t28.5 107.5q0 67 -22.5 105t-65.5 38q-86 0 -86 -135v-126q28 -26 71 -26z" />
    <glyph glyph-name="sigma1" unicode="&#x3c2;" horiz-adv-x="462" 
d="M310 -193l-89 75q17 10 31 27t14 32q0 24 -37 46l-50 28q-37 20 -59 35.5t-46 42.5t-35.5 64.5t-11.5 87.5q0 121 73.5 189t193.5 68q93 0 150 -37l-46 -103q-42 26 -98 26q-53 0 -82.5 -37t-29.5 -101q0 -75 78 -117l66 -38q82 -46 82 -114q0 -52 -30.5 -100t-73.5 -74z
" />
    <glyph glyph-name="sigma" unicode="&#x3c3;" horiz-adv-x="581" 
d="M278 -12q-121 0 -186 74t-65 175q0 103 67 178t194 75h280v-112h-95v-1q57 -47 57 -135q0 -101 -65.5 -177.5t-186.5 -76.5zM281 101q47 0 67.5 34.5t20.5 101.5q0 142 -93 142q-88 0 -88 -137q0 -141 93 -141z" />
    <glyph glyph-name="tau" unicode="&#x3c4;" horiz-adv-x="451" 
d="M277 -12q-82 0 -117 39.5t-35 110.5v238h-116v114h426v-114h-159v-206q0 -31 8 -44.5t26 -13.5q22 0 38 11l33 -112q-42 -23 -104 -23z" />
    <glyph glyph-name="upsilon" unicode="&#x3c5;" horiz-adv-x="553" 
d="M276 -12q-108 0 -165.5 54.5t-57.5 157.5v290h152v-283q0 -106 71 -106q46 0 64 52t18 147q0 109 -30 190h155q31 -86 31 -190q0 -155 -52 -233.5t-186 -78.5z" />
    <glyph glyph-name="phi" unicode="&#x3c6;" horiz-adv-x="740" 
d="M300 -219v207q-128 2 -200.5 76.5t-72.5 178.5q0 105 73 180.5t200 78.5v218h137v-219q128 -2 202 -77t74 -178q0 -104 -74 -180t-202 -79v-206h-137zM437 97q55 1 86 38.5t31 105.5t-31 107.5t-86 40.5v-292zM300 100v292q-55 -1 -84.5 -39t-29.5 -105
q0 -68 29.5 -107.5t84.5 -40.5z" />
    <glyph glyph-name="chi" unicode="&#x3c7;" horiz-adv-x="511" 
d="M-8 -218l185 363l-173 345h161l99 -203h1l91 203h151l-174 -338l187 -370h-160l-113 228h-1l-103 -228h-151z" />
    <glyph glyph-name="psi" unicode="&#x3c8;" horiz-adv-x="747" 
d="M302 -219v207q-110 7 -179.5 63t-69.5 160v279h152v-269q0 -59 27.5 -88.5t75.5 -31.5v539h132v-539q49 2 81 57.5t32 141.5q0 104 -30 190h154q32 -84 32 -190q0 -299 -263 -311v-208h-144z" />
    <glyph glyph-name="omega" unicode="&#x3c9;" horiz-adv-x="788" 
d="M235 -12q-98 0 -148.5 60.5t-50.5 169.5q0 164 71 272h161q-76 -121 -76 -260q0 -123 57 -123q22 0 37.5 19.5t23 56t11 72.5t5.5 86h136q2 -50 5.5 -86t11 -72.5t23 -56t37.5 -19.5q57 0 57 123q0 139 -76 260h161q71 -108 71 -272q0 -109 -50.5 -169.5t-148.5 -60.5
q-114 0 -159 104h-1q-43 -104 -158 -104z" />
    <glyph glyph-name="iotadieresis" unicode="&#x3ca;" horiz-adv-x="329" 
d="M29 543q-35 0 -57.5 22.5t-22.5 55.5q0 31 22.5 54t57.5 23t58 -23t23 -54q0 -33 -23 -55.5t-58 -22.5zM247 543q-35 0 -58 22.5t-23 55.5q0 31 23 54t58 23t57.5 -23t22.5 -54q0 -33 -22.5 -55.5t-57.5 -22.5zM214 -12q-82 0 -117 39.5t-35 110.5v352h151v-320
q0 -31 8 -44.5t26 -13.5q23 0 39 11l32 -112q-42 -23 -104 -23z" />
    <glyph glyph-name="upsilondieresis" unicode="&#x3cb;" horiz-adv-x="553" 
d="M167 543q-35 0 -57.5 22.5t-22.5 55.5q0 31 22.5 54t57.5 23t58 -23t23 -54q0 -33 -23 -55.5t-58 -22.5zM385 543q-35 0 -58 22.5t-23 55.5q0 31 23 54t58 23t57.5 -23t22.5 -54q0 -33 -22.5 -55.5t-57.5 -22.5zM276 -12q-108 0 -165.5 54.5t-57.5 157.5v290h152v-283
q0 -106 71 -106q46 0 64 52t18 147q0 109 -30 190h155q31 -86 31 -190q0 -155 -52 -233.5t-186 -78.5z" />
    <glyph glyph-name="omicrontonos" unicode="&#x3cc;" horiz-adv-x="558" 
d="M216 541l22 138h168l-64 -138h-126zM278 -12q-121 0 -186 75t-65 180q0 106 64.5 182.5t186.5 76.5t187 -74.5t65 -179.5t-65.5 -182.5t-186.5 -77.5zM281 101q48 0 68 36t20 106q0 148 -93 148q-48 0 -68 -37t-20 -106q0 -147 93 -147z" />
    <glyph glyph-name="upsilontonos" unicode="&#x3cd;" horiz-adv-x="553" 
d="M213 541l22 138h168l-64 -138h-126zM276 -12q-108 0 -165.5 54.5t-57.5 157.5v290h152v-283q0 -106 71 -106q46 0 64 52t18 147q0 109 -30 190h155q31 -86 31 -190q0 -155 -52 -233.5t-186 -78.5z" />
    <glyph glyph-name="omegatonos" unicode="&#x3ce;" horiz-adv-x="781" 
d="M327 541l22 138h168l-64 -138h-126zM232 -12q-98 0 -148.5 60.5t-50.5 169.5q0 164 71 272h161q-76 -121 -76 -260q0 -123 57 -123q22 0 37.5 19.5t23 56t11 72.5t5.5 86h136q2 -50 5.5 -86t11 -72.5t23 -56t37.5 -19.5q57 0 57 123q0 139 -76 260h161q71 -108 71 -272
q0 -109 -50.5 -169.5t-148.5 -60.5q-114 0 -159 104h-1q-43 -104 -158 -104z" />
    <glyph glyph-name="afii10023" unicode="&#x401;" horiz-adv-x="539" 
d="M166 717q-35 0 -57.5 22.5t-22.5 55.5q0 31 23 54t57 23q35 0 58 -23t23 -54q0 -33 -23 -55.5t-58 -22.5zM384 717q-35 0 -58 22.5t-23 55.5q0 31 23 54t58 23q34 0 57 -23t23 -54q0 -33 -22.5 -55.5t-57.5 -22.5zM78 0v666h398v-132h-238v-129h210v-124h-210v-149h245
v-132h-405z" />
    <glyph glyph-name="afii10051" unicode="&#x402;" horiz-adv-x="733" 
d="M166 0v534h-153v132h524v-132h-212v-182q25 31 75 56t110 25q93 0 140.5 -74t47.5 -189q0 -166 -80 -272.5t-191 -106.5q-50 0 -82 17l32 127q14 -7 41 -7q50 0 84 64t34 163q0 69 -21.5 110.5t-66.5 41.5q-35 0 -69 -18t-54 -40v-249h-159z" />
    <glyph glyph-name="afii10052" unicode="&#x403;" horiz-adv-x="499" 
d="M183 715l80 138h192l-142 -138h-130zM78 0v666h408v-129h-245v-537h-163z" />
    <glyph glyph-name="afii10053" unicode="&#x404;" horiz-adv-x="619" 
d="M387 -12q-166 0 -256.5 99.5t-90.5 246.5q0 145 92 244.5t258 99.5q122 0 204 -54l-71 -117q-62 38 -136 38q-69 0 -113.5 -42t-56.5 -108h253v-124h-252q13 -67 57.5 -108t114.5 -41q77 0 146 50l66 -113q-30 -27 -89 -49t-126 -22z" />
    <glyph glyph-name="afii10054" unicode="&#x405;" horiz-adv-x="522" 
d="M238 -12q-130 0 -211 65l66 112q72 -48 140 -48q46 0 71 18.5t25 47.5q0 18 -13.5 33t-29.5 22.5t-50 22.5t-54 25q-68 33 -103.5 79.5t-35.5 122.5q0 85 63 137.5t159 52.5q123 0 201 -57l-63 -112q-66 40 -127 40q-80 0 -80 -60q0 -11 5 -21t10.5 -16.5t20 -14.5
t23.5 -12t30.5 -13.5t33.5 -14.5q81 -36 123 -79.5t42 -125.5q0 -95 -65.5 -149.5t-180.5 -54.5z" />
    <glyph glyph-name="afii10055" unicode="&#x406;" horiz-adv-x="332" 
d="M78 0v666h163v-666h-163z" />
    <glyph glyph-name="afii10056" unicode="&#x407;" horiz-adv-x="338" 
d="M84 0v666h163v-666h-163zM57 717q-35 0 -57.5 22.5t-22.5 55.5q0 31 22.5 54t57.5 23t58 -23t23 -54q0 -33 -23 -55.5t-58 -22.5zM275 717q-35 0 -58 22.5t-23 55.5q0 31 23 54t58 23t57.5 -23t22.5 -54q0 -33 -22.5 -55.5t-57.5 -22.5z" />
    <glyph glyph-name="afii10057" unicode="&#x408;" horiz-adv-x="346" 
d="M64 -209q-65 0 -111 19l25 130q23 -10 49 -10q43 0 60.5 21t17.5 72v643h163v-664q0 -102 -54.5 -156.5t-149.5 -54.5z" />
    <glyph glyph-name="afii10058" unicode="&#x409;" horiz-adv-x="995" 
d="M36 -10l-15 123q52 7 73.5 60t30.5 166l26 327h476v-226h79q117 0 189 -55t72 -161q0 -109 -74.5 -166.5t-203.5 -57.5h-223v534h-175l-16 -239q-11 -166 -68.5 -235.5t-170.5 -69.5zM627 121h64q60 0 87.5 24.5t27.5 76.5q0 96 -112 96h-67v-197z" />
    <glyph glyph-name="afii10059" unicode="&#x40a;" horiz-adv-x="1022" 
d="M78 0v666h162v-247h253v247h161v-247h79q117 0 189 -52t72 -153q0 -105 -74 -159.5t-204 -54.5h-223v287h-253v-287h-162zM654 121h63q116 0 116 91q0 86 -112 86h-67v-177z" />
    <glyph glyph-name="afii10060" unicode="&#x40b;" horiz-adv-x="746" 
d="M166 0v534h-153v132h524v-132h-212v-182q25 31 75.5 56t111.5 25q86 0 135.5 -51.5t49.5 -135.5v-246h-160v214q0 46 -24 69.5t-64 23.5q-35 0 -69.5 -18.5t-54.5 -39.5v-249h-159z" />
    <glyph glyph-name="afii10061" unicode="&#x40c;" horiz-adv-x="658" 
d="M259 715l80 138h192l-142 -138h-130zM78 0v666h162v-269h42l186 269h172l-225 -306q22 -21 64 -90q49 -87 70.5 -112.5t57.5 -25.5h10v-132h-68q-62 0 -98.5 28t-81.5 107q-7 12 -16 28t-14 25t-12.5 21.5t-12 19t-10.5 15t-10.5 12.5t-10.5 8t-12 5.5t-12 1.5h-19v-271
h-162z" />
    <glyph glyph-name="afii10062" unicode="&#x40e;" horiz-adv-x="609" 
d="M146 -3q-48 0 -76 10l22 119q16 -6 41 -6q34 0 55.5 20.5t39.5 59.5l9 18l-203 448h155l126 -289l127 289h155l-223 -490q-44 -97 -93 -138t-135 -41zM316 703q-70 0 -120 39t-57 115h123q5 -59 54 -59q48 0 54 59h122q-6 -76 -56 -115t-120 -39z" />
    <glyph glyph-name="afii10145" unicode="&#x40f;" horiz-adv-x="725" 
d="M313 -146l-8 146h-227v666h161v-534h247v534h161v-666h-227l-7 -146h-100z" />
    <glyph glyph-name="afii10017" unicode="&#x410;" horiz-adv-x="697" 
d="M258 240h166l-49 137q-6 17 -33 116h-2q-1 -4 -6 -22t-12.5 -44t-15.5 -50zM13 0l254 666h155l262 -666h-176l-39 112h-254l-39 -112h-163z" />
    <glyph glyph-name="afii10018" unicode="&#x411;" horiz-adv-x="619" 
d="M78 0v666h434v-132h-272v-115h79q117 0 189 -52t72 -153q0 -105 -74 -159.5t-204 -54.5h-224zM240 121h64q115 0 115 91q0 86 -112 86h-67v-177z" />
    <glyph glyph-name="afii10019" unicode="&#x412;" horiz-adv-x="611" 
d="M78 0v666h238q49 0 89 -8.5t73.5 -26.5t52.5 -51.5t19 -79.5q0 -124 -118 -154v-2q63 -10 104 -51t41 -109q0 -184 -264 -184h-235zM237 122h68q109 0 109 79q0 82 -103 82h-74v-161zM237 396h57q51 0 74.5 18.5t23.5 57.5q0 72 -94 72h-61v-148z" />
    <glyph glyph-name="afii10020" unicode="&#x413;" horiz-adv-x="499" 
d="M78 0v666h408v-129h-245v-537h-163z" />
    <glyph glyph-name="afii10021" unicode="&#x414;" horiz-adv-x="742" 
d="M46 -146l-26 278h57q34 46 60 207l54 327h441v-534h68l-18 -278h-100l-13 146h-414l-10 -146h-99zM229 132h242v402h-145l-37 -225q-22 -133 -60 -177z" />
    <glyph glyph-name="afii10022" unicode="&#x415;" horiz-adv-x="539" 
d="M78 0v666h398v-132h-238v-129h210v-124h-210v-149h245v-132h-405z" />
    <glyph glyph-name="afii10024" unicode="&#x416;" horiz-adv-x="999" 
d="M41 0l2 132h8q36 0 57.5 25.5t70.5 112.5q42 69 64 90l-225 306h172l187 -269h42v269h161v-269h42l187 269h172l-226 -306q24 -23 65 -90q49 -87 70.5 -112.5t57.5 -25.5h10l-2 -132h-66q-63 0 -99.5 28t-81.5 107q-7 12 -16 28t-14 25t-12.5 21.5t-12 19t-10.5 15
t-10.5 12.5t-10.5 8t-12 5.5t-12 1.5h-19v-271h-161v271h-20q-6 0 -12 -1.5t-12 -6t-10.5 -8.5t-10.5 -12.5t-10.5 -14.5t-12 -18.5t-12 -21t-14 -25.5t-15.5 -28q-45 -79 -81.5 -107t-99.5 -28h-68z" />
    <glyph glyph-name="afii10025" unicode="&#x417;" horiz-adv-x="538" 
d="M232 -12q-132 0 -215 57l70 117q59 -43 148 -43q105 0 105 81q0 40 -29.5 61.5t-80.5 21.5h-78v113h61q105 0 105 78q0 34 -22.5 53.5t-66.5 19.5q-77 0 -140 -47l-63 112q77 66 206 66q110 0 177.5 -45.5t67.5 -130.5q0 -127 -117 -156v-2q63 -10 103 -51.5t40 -110.5
q0 -95 -75.5 -144.5t-195.5 -49.5z" />
    <glyph glyph-name="afii10026" unicode="&#x418;" horiz-adv-x="753" 
d="M78 0v666h151v-320q0 -81 -4 -109h2q18 35 73 117l212 312h163v-666h-151v349q0 20 1 41.5t1.5 35.5t0.5 16h-2q-32 -53 -67 -104l-232 -338h-148z" />
    <glyph glyph-name="afii10027" unicode="&#x419;" horiz-adv-x="753" 
d="M78 0v666h151v-320q0 -81 -4 -109h2q18 35 73 117l212 312h163v-666h-151v349q0 20 1 41.5t1.5 35.5t0.5 16h-2q-32 -53 -67 -104l-232 -338h-148zM377 703q-70 0 -120 39t-57 115h123q5 -59 54 -59q48 0 54 59h122q-6 -76 -56 -115t-120 -39z" />
    <glyph glyph-name="afii10028" unicode="&#x41a;" horiz-adv-x="658" 
d="M78 0v666h162v-269h42l186 269h172l-225 -306q22 -21 64 -90q49 -87 70.5 -112.5t57.5 -25.5h10v-132h-68q-62 0 -98.5 28t-81.5 107q-7 12 -16 28t-14 25t-12.5 21.5t-12 19t-10.5 15t-10.5 12.5t-10.5 8t-12 5.5t-12 1.5h-19v-271h-162z" />
    <glyph glyph-name="afii10029" unicode="&#x41b;" horiz-adv-x="705" 
d="M36 -10l-15 123q52 7 73.5 60t30.5 166l26 327h476v-666h-161v534h-175l-16 -239q-11 -166 -68.5 -235.5t-170.5 -69.5z" />
    <glyph glyph-name="afii10030" unicode="&#x41c;" horiz-adv-x="891" 
d="M37 0l92 666h157l125 -397q8 -26 19 -67t12 -45h2q2 5 13 45.5t19 66.5l130 397h157l91 -666h-165l-37 314q-11 90 -11 98h-2q-20 -75 -27 -96l-98 -316h-159l-98 316q-7 24 -16 59t-10 37h-2q0 -29 -8 -99l-39 -313h-145z" />
    <glyph glyph-name="afii10031" unicode="&#x41d;" horiz-adv-x="752" 
d="M78 0v666h162v-255h273v255h160v-666h-160v279h-273v-279h-162z" />
    <glyph glyph-name="afii10032" unicode="&#x41e;" horiz-adv-x="778" 
d="M393 -12q-164 0 -258.5 101t-94.5 243q0 92 38.5 169.5t119.5 127t191 49.5q164 0 256 -99.5t92 -241.5q0 -69 -22 -131t-63.5 -111t-108.5 -78t-150 -29zM389 117q90 0 134 60.5t44 154.5q0 95 -43 156t-131 61q-90 0 -136 -59.5t-46 -152.5q0 -95 45 -157.5t133 -62.5z
" />
    <glyph glyph-name="afii10033" unicode="&#x41f;" horiz-adv-x="733" 
d="M78 0v666h577v-666h-161v534h-254v-534h-162z" />
    <glyph glyph-name="afii10034" unicode="&#x420;" horiz-adv-x="608" 
d="M78 0v666h235q117 0 189.5 -55t72.5 -161q0 -109 -74.5 -166.5t-204.5 -57.5h-56v-226h-162zM240 347h58q60 0 87.5 24.5t27.5 76.5q0 97 -111 97h-62v-198z" />
    <glyph glyph-name="afii10035" unicode="&#x421;" horiz-adv-x="619" 
d="M387 -12q-166 0 -256.5 100t-90.5 246q0 93 38 169.5t119 125.5t193 49q122 0 204 -54l-71 -117q-62 38 -136 38q-83 0 -129.5 -58t-46.5 -149q0 -95 46.5 -155.5t132.5 -60.5q77 0 146 50l66 -113q-30 -27 -89 -49t-126 -22z" />
    <glyph glyph-name="afii10036" unicode="&#x422;" horiz-adv-x="550" 
d="M194 0v534h-181v132h525v-132h-182v-534h-162z" />
    <glyph glyph-name="afii10037" unicode="&#x423;" horiz-adv-x="609" 
d="M146 -3q-48 0 -76 10l22 119q16 -6 41 -6q34 0 55.5 20.5t39.5 59.5l9 18l-203 448h155l126 -289l127 289h155l-223 -490q-44 -97 -93 -138t-135 -41z" />
    <glyph glyph-name="afii10038" unicode="&#x424;" horiz-adv-x="826" 
d="M333 0v68q-139 4 -222.5 80t-83.5 192q0 113 84.5 191t221.5 81v54h162v-53q138 -4 221 -79.5t83 -191.5q0 -117 -82 -193.5t-222 -80.5v-68h-162zM484 183q72 1 113 45.5t41 111.5q0 69 -41.5 113t-112.5 45v-315zM343 183v315q-70 -1 -112.5 -44.5t-42.5 -111.5
t43.5 -113t111.5 -46z" />
    <glyph glyph-name="afii10039" unicode="&#x425;" horiz-adv-x="632" 
d="M18 0l210 341l-202 325h184l114 -192l107 192h162l-191 -322l213 -344h-182l-128 214l-125 -214h-162z" />
    <glyph glyph-name="afii10040" unicode="&#x426;" horiz-adv-x="757" 
d="M598 -146l-13 146h-507v666h161v-534h247v534h161v-534h69l-19 -278h-99z" />
    <glyph glyph-name="afii10041" unicode="&#x427;" horiz-adv-x="666" 
d="M428 0v249q-25 -31 -77.5 -56t-116.5 -25q-90 0 -141.5 52.5t-51.5 137.5v308h161v-276q0 -46 25.5 -71t68.5 -25q38 0 75 18.5t57 39.5v314h160v-666h-160z" />
    <glyph glyph-name="afii10042" unicode="&#x428;" horiz-adv-x="1060" 
d="M78 0v666h161v-534h208v534h161v-534h207v534h162v-666h-899z" />
    <glyph glyph-name="afii10043" unicode="&#x429;" horiz-adv-x="1087" 
d="M928 -146l-13 146h-837v666h161v-534h208v534h161v-534h207v534h162v-534h68l-18 -278h-99z" />
    <glyph glyph-name="afii10044" unicode="&#x42a;" horiz-adv-x="681" 
d="M151 0v534h-138v132h299v-226h80q117 0 189 -55t72 -161q0 -109 -74.5 -166.5t-203.5 -57.5h-224zM312 121h64q60 0 87.5 24.5t27.5 76.5q0 96 -111 96h-68v-197z" />
    <glyph glyph-name="afii10045" unicode="&#x42b;" horiz-adv-x="917" 
d="M676 0v666h163v-666h-163zM78 0v666h162v-226h79q117 0 189 -55t72 -161q0 -109 -74.5 -166.5t-203.5 -57.5h-224zM240 121h64q60 0 87.5 24.5t27.5 76.5q0 96 -112 96h-67v-197z" />
    <glyph glyph-name="afii10046" unicode="&#x42c;" horiz-adv-x="608" 
d="M78 0v666h162v-226h79q117 0 189 -55t72 -161q0 -109 -74.5 -166.5t-203.5 -57.5h-224zM240 121h64q60 0 87.5 24.5t27.5 76.5q0 96 -112 96h-67v-197z" />
    <glyph glyph-name="afii10047" unicode="&#x42d;" horiz-adv-x="619" 
d="M226 -12q-131 0 -209 56l71 118q59 -41 141 -41q69 0 114.5 41.5t57.5 108.5h-254v124h253q-13 67 -56 108t-113 41q-76 0 -141 -47l-65 112q32 27 87 48t122 21q166 0 255 -99t89 -246q0 -145 -93 -245t-259 -100z" />
    <glyph glyph-name="afii10048" unicode="&#x42e;" horiz-adv-x="1115" 
d="M730 -12q-148 0 -239 83t-109 208h-142v-279h-162v666h162v-255h145q24 116 112.5 191.5t228.5 75.5q164 0 256 -99.5t92 -241.5q0 -69 -22 -131t-63.5 -111t-108.5 -78t-150 -29zM726 117q90 0 134 60.5t44 154.5q0 95 -43 156t-131 61q-90 0 -136 -59.5t-46 -152.5
q0 -95 45 -157.5t133 -62.5z" />
    <glyph glyph-name="afii10049" unicode="&#x42f;" horiz-adv-x="637" 
d="M39 0v132h9q31 0 52.5 22t57.5 83q30 46 54 55v2q-60 9 -101.5 56t-41.5 119q0 96 66 146.5t188 50.5h236v-666h-162v269h-9q-5 -2 -10 -4.5t-10.5 -7.5t-9.5 -9t-10.5 -12.5t-10 -14t-11 -18t-12 -19.5t-14 -23.5t-14.5 -25.5q-45 -79 -81.5 -107t-98.5 -28h-67z
M327 375h70v170h-64q-105 0 -105 -85t99 -85z" />
    <glyph glyph-name="afii10065" unicode="&#x430;" horiz-adv-x="512" 
d="M180 -12q-65 0 -107.5 37.5t-42.5 102.5q0 88 75 131.5t185 43.5h16v23q0 30 -16 43.5t-58 13.5q-67 0 -123 -44l-64 91q81 72 206 72q108 0 157.5 -44t49.5 -143v-160q0 -89 14 -155h-149q-7 21 -9 51q-50 -63 -134 -63zM229 95q44 0 77 35v82h-16q-116 0 -116 -71
q0 -22 15.5 -34t39.5 -12z" />
    <glyph glyph-name="afii10066" unicode="&#x431;" horiz-adv-x="560" 
d="M286 -12q-126 0 -186.5 87.5t-60.5 236.5q0 172 63.5 269t214.5 123l162 27l19 -123l-162 -25q-62 -10 -100 -43.5t-42 -91.5q50 41 120 41q94 0 156.5 -66.5t62.5 -181.5q0 -117 -70 -185t-177 -68zM288 101q41 0 62.5 36.5t21.5 101.5q0 144 -85 144q-52 0 -87 -43
q-2 -30 -2 -44q0 -195 90 -195z" />
    <glyph glyph-name="afii10067" unicode="&#x432;" horiz-adv-x="530" 
d="M67 0v490h228q187 0 187 -126q0 -91 -91 -112v-1q48 -7 79.5 -36t31.5 -80q0 -135 -209 -135h-226zM217 107h71q35 0 51 11t16 36q0 48 -62 48h-76v-95zM217 294h60q62 0 62 47q0 44 -60 44h-62v-91z" />
    <glyph glyph-name="afii10068" unicode="&#x433;" horiz-adv-x="409" 
d="M67 0v490h329v-119h-177v-371h-152z" />
    <glyph glyph-name="afii10069" unicode="&#x434;" horiz-adv-x="609" 
d="M40 -146l-26 265h38q34 27 49 131l34 240h383v-371h51l-18 -265h-95l-13 146h-299l-10 -146h-94zM198 119h173v252h-118l-19 -143q-12 -79 -36 -109z" />
    <glyph glyph-name="afii10070" unicode="&#x435;" horiz-adv-x="528" 
d="M291 -12q-124 0 -194 69.5t-70 189.5q0 116 71.5 185.5t177.5 69.5q107 0 163 -64t56 -183q0 -33 -2 -51h-302q12 -105 115 -105q60 0 125 31l47 -95q-84 -47 -187 -47zM187 304h161q-2 91 -74 91q-73 0 -87 -91z" />
    <glyph glyph-name="afii10072" unicode="&#x436;" horiz-adv-x="821" 
d="M31 0l1 109h7q17 0 32.5 17.5t46.5 73.5q30 52 53 71l-159 219h163l131 -195h28v195h153v-195h27l132 195h162l-159 -219q22 -18 54 -71q31 -56 46 -73.5t32 -17.5h8v-109h-68q-48 0 -73 19.5t-59 79.5q-33 59 -48.5 77t-38.5 18h-15v-194h-153v194h-16
q-22 0 -38.5 -18.5t-48.5 -76.5q-34 -60 -59 -79.5t-73 -19.5h-68z" />
    <glyph glyph-name="afii10073" unicode="&#x437;" horiz-adv-x="432" 
d="M20 37l50 96q48 -29 121 -29q67 0 67 50q0 24 -24 36t-59 12h-43l1 91h38q33 0 52 12.5t19 35.5q0 21 -16 34t-44 13q-63 0 -109 -27l-47 94q69 44 159 44q85 0 142.5 -33t57.5 -102q0 -91 -90 -112v-1q47 -7 78.5 -36t31.5 -80q0 -72 -58.5 -108t-153.5 -36
q-111 0 -173 46z" />
    <glyph glyph-name="afii10074" unicode="&#x438;" horiz-adv-x="608" 
d="M67 0v490h135v-200q0 -17 -1 -37.5t-2 -34.5l-1 -14h2q2 4 59 92l132 194h150v-490h-135v221q0 11 0.5 22.5t1 21t0.5 16.5v11l1 5h-1q-3 -3 -58 -84l-146 -213h-137z" />
    <glyph glyph-name="afii10075" unicode="&#x439;" horiz-adv-x="608" 
d="M67 0v490h135v-200q0 -17 -1 -37.5t-2 -34.5l-1 -14h2q2 4 59 92l132 194h150v-490h-135v221q0 11 0.5 22.5t1 21t0.5 16.5v11l1 5h-1q-3 -3 -58 -84l-146 -213h-137zM299 528q-70 0 -120 39t-57 115h123q5 -59 54 -59q48 0 54 59h122q-6 -76 -56 -115t-120 -39z" />
    <glyph glyph-name="afii10076" unicode="&#x43a;" horiz-adv-x="553" 
d="M67 0v490h152v-195h28l132 195h162l-159 -219q22 -18 54 -71q31 -56 46 -73.5t32 -17.5h8v-109h-68q-48 0 -73 19.5t-59 79.5q-33 59 -48.5 77t-38.5 18h-15l-1 -194h-152z" />
    <glyph glyph-name="afii10077" unicode="&#x43b;" horiz-adv-x="581" 
d="M36 -7l-19 111q34 5 53 39t26 107l25 240h393v-490h-152v371h-116l-12 -153q-10 -121 -59.5 -173t-138.5 -52z" />
    <glyph glyph-name="afii10078" unicode="&#x43c;" horiz-adv-x="710" 
d="M31 0l72 490h147l81 -269q20 -62 20 -78h2q0 19 21 78l87 269h148l69 -490h-154l-23 191l-7 75h-2q-9 -34 -19 -72l-56 -194h-144l-54 194l-18 72h-2q-2 -40 -6 -74l-27 -192h-135z" />
    <glyph glyph-name="afii10079" unicode="&#x43d;" horiz-adv-x="604" 
d="M67 0v490h152v-179h165v179h153v-490h-153v189h-165v-189h-152z" />
    <glyph glyph-name="afii10080" unicode="&#x43e;" horiz-adv-x="558" 
d="M278 -12q-121 0 -186 75t-65 180q0 106 64.5 182.5t186.5 76.5t187 -74.5t65 -179.5t-65.5 -182.5t-186.5 -77.5zM281 101q48 0 68 36t20 106q0 148 -93 148q-48 0 -68 -37t-20 -106q0 -147 93 -147z" />
    <glyph glyph-name="afii10081" unicode="&#x43f;" horiz-adv-x="596" 
d="M67 0v490h462v-490h-152v368h-158v-368h-152z" />
    <glyph glyph-name="afii10082" unicode="&#x440;" horiz-adv-x="577" 
d="M67 -219v709h149v-51q52 63 134 63q94 0 146.5 -67t52.5 -190q0 -115 -61.5 -186t-158.5 -71q-68 0 -110 32v-239h-152zM293 104q46 0 70.5 36.5t24.5 105.5q0 136 -87 136q-48 0 -82 -44v-205q33 -29 74 -29z" />
    <glyph glyph-name="afii10083" unicode="&#x441;" horiz-adv-x="464" 
d="M290 -12q-121 0 -192 69t-71 187q0 121 73.5 189.5t193.5 68.5q93 0 150 -37l-46 -103q-42 26 -98 26q-53 0 -82.5 -37t-29.5 -102q0 -67 29.5 -106t85.5 -39q52 0 101 26l44 -100q-69 -42 -158 -42z" />
    <glyph glyph-name="afii10084" unicode="&#x442;" horiz-adv-x="463" 
d="M154 0v369h-141v121h437v-121h-143v-369h-153z" />
    <glyph glyph-name="afii10085" unicode="&#x443;" horiz-adv-x="527" 
d="M80 -235q-48 0 -85 10l22 120q21 -6 51 -6q47 0 70 19t37 58l17 47l-183 477h161l101 -302h3l89 302h155l-200 -538q-37 -99 -88 -143t-150 -44z" />
    <glyph glyph-name="afii10086" unicode="&#x444;" horiz-adv-x="804" 
d="M478 -219h-152v232q-38 -25 -90 -25q-94 0 -151 70t-57 186t57 187t151 71q54 0 90 -26v244h152v-244q34 26 90 26q94 0 151 -70t57 -186t-57 -187t-151 -71q-55 0 -90 25v-232zM188 245q0 -66 21.5 -103.5t61.5 -37.5q33 0 64 29v224q-29 29 -64 29q-40 0 -61.5 -37
t-21.5 -104zM616 245q0 67 -21.5 104t-61.5 37q-36 0 -65 -29v-224q31 -29 65 -29q40 0 61.5 37t21.5 104z" />
    <glyph glyph-name="afii10087" unicode="&#x445;" horiz-adv-x="527" 
d="M14 0l167 252l-162 238h171q78 -118 79 -121l69 121h155l-151 -231l172 -259h-172l-89 142l-82 -142h-157z" />
    <glyph glyph-name="afii10088" unicode="&#x446;" horiz-adv-x="620" 
d="M468 -146l-14 146h-387v490h152v-368h156v368h152v-371h53l-18 -265h-94z" />
    <glyph glyph-name="afii10089" unicode="&#x447;" horiz-adv-x="573" 
d="M352 0v182q-61 -72 -154 -72q-77 0 -113 43.5t-36 117.5v219h152v-187q0 -35 14 -51t46 -16q50 0 91 53v201h154v-490h-154z" />
    <glyph glyph-name="afii10090" unicode="&#x448;" horiz-adv-x="882" 
d="M67 0v490h152v-368h146v368h152v-368h145v368h153v-490h-748z" />
    <glyph glyph-name="afii10091" unicode="&#x449;" horiz-adv-x="908" 
d="M755 -146l-14 146h-674v490h152v-368h146v368h152v-368h145v368h153v-371h53l-18 -265h-95z" />
    <glyph glyph-name="afii10092" unicode="&#x44a;" horiz-adv-x="571" 
d="M123 0v371h-110v119h261v-150h68q94 0 151.5 -42.5t57.5 -126.5q0 -85 -59.5 -128t-165.5 -43h-203zM274 107h51q77 0 77 63q0 60 -72 60h-56v-123z" />
    <glyph glyph-name="afii10093" unicode="&#x44b;" horiz-adv-x="796" 
d="M574 0v490h154v-490h-154zM67 0v490h152v-150h67q94 0 151.5 -42.5t57.5 -126.5q0 -85 -59.5 -128t-165.5 -43h-203zM219 107h50q77 0 77 63q0 60 -72 60h-55v-123z" />
    <glyph glyph-name="afii10094" unicode="&#x44c;" horiz-adv-x="515" 
d="M67 0v490h152v-150h67q94 0 151.5 -42.5t57.5 -126.5q0 -85 -59.5 -128t-165.5 -43h-203zM219 107h50q77 0 77 63q0 60 -72 60h-55v-123z" />
    <glyph glyph-name="afii10095" unicode="&#x44d;" horiz-adv-x="482" 
d="M177 -8q-102 0 -162 45l61 106q45 -30 101 -30q44 0 75.5 22.5t37.5 58.5h-176v100h177q-7 38 -37 61t-74 23q-52 0 -103 -31l-56 105q66 47 165 47q131 0 200 -72t69 -180q0 -109 -72.5 -182t-205.5 -73z" />
    <glyph glyph-name="afii10096" unicode="&#x44e;" horiz-adv-x="847" 
d="M568 -12q-105 0 -167.5 57t-78.5 144h-103v-189h-152v490h152v-179h106q20 83 81 137t161 54q122 0 187.5 -74.5t65.5 -179.5t-65.5 -182.5t-186.5 -77.5zM570 101q49 0 68.5 36t19.5 106q0 148 -93 148q-48 0 -67.5 -36.5t-19.5 -106.5q0 -147 92 -147z" />
    <glyph glyph-name="afii10097" unicode="&#x44f;" horiz-adv-x="548" 
d="M29 0v109h7q16 0 29 12t34 48q23 38 49 48v1q-35 10 -63 42t-28 78q0 74 54.5 113t155.5 39h214v-490h-152v177h-21q-22 0 -37 -15t-43 -65q-33 -59 -58.5 -78t-73.5 -19h-67zM270 276h59v104h-54q-67 0 -67 -52t62 -52z" />
    <glyph glyph-name="afii10071" unicode="&#x451;" horiz-adv-x="528" 
d="M159 543q-35 0 -57.5 22.5t-22.5 55.5q0 31 22.5 54t57.5 23t58 -23t23 -54q0 -33 -23 -55.5t-58 -22.5zM377 543q-35 0 -58 22.5t-23 55.5q0 31 23 54t58 23t57.5 -23t22.5 -54q0 -33 -22.5 -55.5t-57.5 -22.5zM291 -12q-124 0 -194 69.5t-70 189.5q0 116 71.5 185.5
t177.5 69.5q118 0 174 -77.5t43 -220.5h-302q12 -105 115 -105q60 0 125 31l47 -95q-84 -47 -187 -47zM187 304h161q-2 91 -74 91q-73 0 -87 -91z" />
    <glyph glyph-name="afii10099" unicode="&#x452;" horiz-adv-x="573" 
d="M360 -152l-65 87q89 76 89 292q0 134 -91 134q-45 0 -74 -34v-327h-152v559h-43v112h43v49h152v-49h150v-112h-150v-130q50 50 118 50q92 0 147.5 -63.5t55.5 -189.5t-46.5 -226.5t-133.5 -151.5z" />
    <glyph glyph-name="afii10100" unicode="&#x453;" horiz-adv-x="409" 
d="M158 541l80 138h192l-142 -138h-130zM67 0v490h329v-119h-177v-371h-152z" />
    <glyph glyph-name="afii10101" unicode="&#x454;" horiz-adv-x="482" 
d="M298 -8q-132 0 -201.5 72t-69.5 180q0 109 72 182t205 73q100 0 159 -45l-60 -105q-44 29 -97 29q-45 0 -76.5 -22.5t-37.5 -58.5h174v-101h-175q8 -38 38 -61t73 -23q56 0 107 35l57 -107q-65 -48 -168 -48z" />
    <glyph glyph-name="afii10102" unicode="&#x455;" horiz-adv-x="424" 
d="M200 -12q-110 0 -179 46l49 105q62 -40 121 -40q74 0 74 36q0 13 -15.5 22t-52 22.5t-61.5 25.5q-52 25 -76.5 57.5t-24.5 84.5q0 71 52.5 113t138.5 42q93 0 161 -37l-50 -103q-53 29 -104 29q-63 0 -63 -36q0 -8 5 -14.5t16 -12t21.5 -9t29 -10t31.5 -11.5
q64 -26 96 -59t32 -90q0 -79 -53 -120t-148 -41z" />
    <glyph glyph-name="afii10103" unicode="&#x456;" horiz-adv-x="290" 
d="M145 544q-39 0 -64.5 25.5t-25.5 61.5t25.5 61.5t64.5 25.5t64.5 -25.5t25.5 -61.5t-25.5 -61.5t-64.5 -25.5zM68 0v490h154v-490h-154z" />
    <glyph glyph-name="afii10104" unicode="&#x457;" horiz-adv-x="290" 
d="M36 543q-35 0 -57.5 22.5t-22.5 55.5q0 31 23 54t57 23q35 0 58 -23t23 -54q0 -33 -23 -55.5t-58 -22.5zM254 543q-35 0 -58 22.5t-23 55.5q0 31 23 54t58 23q34 0 57 -23t23 -54q0 -33 -22.5 -55.5t-57.5 -22.5zM68 0v490h154v-490h-154z" />
    <glyph glyph-name="afii10105" unicode="&#x458;" horiz-adv-x="287" 
d="M43 -234q-60 0 -99 13l26 117q25 -7 40 -7q33 0 45 22t12 79v500h154v-515q0 -209 -178 -209zM143 544q-39 0 -64.5 25.5t-25.5 61.5t25.5 61.5t64.5 25.5t65 -25.5t26 -61.5t-26 -61.5t-65 -25.5z" />
    <glyph glyph-name="afii10106" unicode="&#x459;" horiz-adv-x="819" 
d="M36 -7l-19 111q34 5 53 39t26 107l25 240h401v-150h68q94 0 151.5 -42.5t57.5 -126.5q0 -85 -59.5 -128t-165.5 -43h-203v371h-126l-12 -153q-9 -121 -58.5 -173t-138.5 -52zM522 107h51q77 0 77 63q0 60 -72 60h-56v-123z" />
    <glyph glyph-name="afii10107" unicode="&#x45a;" horiz-adv-x="844" 
d="M67 0v490h152v-162h175v162h152v-162h69q96 0 152.5 -40t56.5 -123q0 -165 -225 -165h-205v209h-175v-209h-152zM546 107h52q77 0 77 57q0 30 -17.5 42t-54.5 12h-57v-111z" />
    <glyph glyph-name="afii10108" unicode="&#x45b;" horiz-adv-x="573" 
d="M66 0v559h-43v112h43v49h152v-49h150v-112h-150v-137q63 68 151 68q147 0 147 -161v-329h-152v298q0 34 -13.5 50t-44.5 16q-47 0 -88 -53v-311h-152z" />
    <glyph glyph-name="afii10109" unicode="&#x45c;" horiz-adv-x="553" 
d="M199 541l80 138h192l-142 -138h-130zM67 0v490h152v-195h28l132 195h162l-159 -219q22 -18 54 -71q31 -56 46 -73.5t32 -17.5h8v-109h-68q-48 0 -73 19.5t-59 79.5q-33 59 -48.5 77t-38.5 18h-15l-1 -194h-152z" />
    <glyph glyph-name="afii10110" unicode="&#x45e;" horiz-adv-x="527" 
d="M80 -235q-48 0 -85 10l22 120q21 -6 51 -6q47 0 70 19t37 58l17 47l-183 477h161l101 -302h3l89 302h155l-200 -538q-37 -99 -88 -143t-150 -44zM272 528q-70 0 -120 39t-57 115h123q5 -59 54 -59q48 0 54 59h122q-6 -76 -56 -115t-120 -39z" />
    <glyph glyph-name="afii10193" unicode="&#x45f;" horiz-adv-x="596" 
d="M251 -146l-9 146h-175v490h152v-368h158v368h152v-490h-176l-8 -146h-94z" />
    <glyph glyph-name="afii10050" unicode="&#x490;" horiz-adv-x="499" 
d="M78 0v666h283l11 149h99l24 -278h-254v-537h-163z" />
    <glyph glyph-name="afii10098" unicode="&#x491;" horiz-adv-x="409" 
d="M67 0v490h216l9 146h95l27 -265h-195v-371h-152z" />
    <glyph glyph-name="Wgrave" unicode="&#x1e80;" horiz-adv-x="926" 
d="M194 0l-179 666h172l75 -317q24 -100 24 -124h2q0 18 27 130l79 311h158l77 -310q26 -112 26 -131h3q0 2 3 20.5t9 50t12 55.5l77 315h153l-181 -666h-149l-86 343q-26 102 -26 123h-2q0 -17 -29 -123l-96 -343h-149zM410 715l-142 138h192l80 -138h-130z" />
    <glyph glyph-name="wgrave" unicode="&#x1e81;" horiz-adv-x="757" 
d="M146 0l-137 490h163l65 -294h2l74 294h139l74 -296h2l68 296h151l-137 -490h-137l-95 311h-2l-93 -311h-137zM324 541l-142 138h192l80 -138h-130z" />
    <glyph glyph-name="Wacute" unicode="&#x1e82;" horiz-adv-x="926" 
d="M387 715l80 138h192l-142 -138h-130zM194 0l-179 666h172l75 -317q24 -100 24 -124h2q0 18 27 130l79 311h158l77 -310q26 -112 26 -131h3q0 2 3 20.5t9 50t12 55.5l77 315h153l-181 -666h-149l-86 343q-26 102 -26 123h-2q0 -17 -29 -123l-96 -343h-149z" />
    <glyph glyph-name="wacute" unicode="&#x1e83;" horiz-adv-x="757" 
d="M301 541l80 138h192l-142 -138h-130zM146 0l-137 490h163l65 -294h2l74 294h139l74 -296h2l68 296h151l-137 -490h-137l-95 311h-2l-93 -311h-137z" />
    <glyph glyph-name="Wdieresis" unicode="&#x1e84;" horiz-adv-x="926" 
d="M354 717q-35 0 -57.5 22.5t-22.5 55.5q0 31 23 54t57 23q35 0 58 -23t23 -54q0 -33 -23 -55.5t-58 -22.5zM572 717q-35 0 -58 22.5t-23 55.5q0 31 23 54t58 23q34 0 57 -23t23 -54q0 -33 -22.5 -55.5t-57.5 -22.5zM194 0l-179 666h172l75 -317q24 -100 24 -124h2
q0 18 27 130l79 311h158l77 -310q26 -112 26 -131h3q0 2 3 20.5t9 50t12 55.5l77 315h153l-181 -666h-149l-86 343q-26 102 -26 123h-2q0 -17 -29 -123l-96 -343h-149z" />
    <glyph glyph-name="wdieresis" unicode="&#x1e85;" horiz-adv-x="757" 
d="M268 543q-35 0 -57.5 22.5t-22.5 55.5q0 31 23 54t57 23q35 0 58 -23t23 -54q0 -33 -23 -55.5t-58 -22.5zM486 543q-35 0 -58 22.5t-23 55.5q0 31 23 54t58 23q34 0 57 -23t23 -54q0 -33 -22.5 -55.5t-57.5 -22.5zM146 0l-137 490h163l65 -294h2l74 294h139l74 -296h2
l68 296h151l-137 -490h-137l-95 311h-2l-93 -311h-137z" />
    <glyph glyph-name="Ygrave" unicode="&#x1ef2;" horiz-adv-x="612" 
d="M229 0v251l-220 415h179l129 -265h1l128 265h157l-212 -415v-251h-162zM258 715l-142 138h192l80 -138h-130z" />
    <glyph glyph-name="ygrave" unicode="&#x1ef3;" horiz-adv-x="532" 
d="M85 -235q-48 0 -85 10l22 120q21 -6 51 -6q47 0 70 19t37 58l17 47l-183 477h161l101 -302h3l89 302h155l-200 -538q-37 -99 -88 -143t-150 -44zM220 541l-142 138h192l80 -138h-130z" />
    <glyph glyph-name="endash" unicode="&#x2013;" horiz-adv-x="558" 
d="M46 208v116h466v-116h-466z" />
    <glyph glyph-name="emdash" unicode="&#x2014;" horiz-adv-x="882" 
d="M46 208v116h790v-116h-790z" />
    <glyph glyph-name="afii00208" unicode="&#x2015;" horiz-adv-x="882" 
d="M46 208v116h790v-116h-790z" />
    <glyph glyph-name="quoteleft" unicode="&#x2018;" horiz-adv-x="233" 
d="M125 374q-41 0 -70.5 29t-29.5 78q0 47 22.5 97.5t51.5 87.5h92q-37 -52 -37 -94q0 -23 14 -39.5t28 -35t14 -44.5q0 -35 -24.5 -57t-60.5 -22z" />
    <glyph glyph-name="quoteright" unicode="&#x2019;" horiz-adv-x="233" 
d="M42 386q37 56 37 95q0 26 -28 55.5t-28 62.5q0 35 24.5 57t60.5 22q41 0 70 -29t29 -78q0 -47 -22.5 -97.5t-51.5 -87.5h-91z" />
    <glyph glyph-name="quotesinglbase" unicode="&#x201a;" horiz-adv-x="269" 
d="M60 -127q37 52 37 94q0 27 -28 57t-28 62q0 35 24.5 57t60.5 22q42 0 71 -29.5t29 -77.5q0 -47 -22.5 -97.5t-51.5 -87.5h-92z" />
    <glyph glyph-name="quotedblleft" unicode="&#x201c;" horiz-adv-x="458" 
d="M122 374q-41 0 -70 29t-29 78q0 47 22.5 97.5t51.5 87.5h91q-37 -56 -37 -94q0 -27 28.5 -56.5t28.5 -62.5q0 -35 -24.5 -57t-61.5 -22zM350 374q-41 0 -70 29t-29 78q0 47 22.5 97.5t51.5 87.5h91q-37 -56 -37 -94q0 -23 14 -39.5t28 -35t14 -44.5q0 -35 -24.5 -57
t-60.5 -22z" />
    <glyph glyph-name="quotedblright" unicode="&#x201d;" horiz-adv-x="458" 
d="M42 386q37 56 37 95q0 26 -28 55.5t-28 62.5q0 35 24.5 57t60.5 22q41 0 70 -29t29 -78q0 -47 -22.5 -97.5t-51.5 -87.5h-91zM270 386q37 56 37 95q0 26 -28.5 55.5t-28.5 62.5q0 35 24.5 57t61.5 22q41 0 70 -29t29 -78q0 -47 -22.5 -97.5t-51.5 -87.5h-91z" />
    <glyph glyph-name="quotedblbase" unicode="&#x201e;" horiz-adv-x="461" 
d="M42 -127q37 56 37 94q0 27 -28 57t-28 62q0 35 24.5 57t60.5 22q41 0 70 -29t29 -78q0 -47 -22.5 -97.5t-51.5 -87.5h-91zM270 -127q37 56 37 94q0 26 -28.5 56.5t-28.5 62.5q0 35 24.5 57t61.5 22q41 0 70 -29t29 -78q0 -47 -22.5 -97.5t-51.5 -87.5h-91z" />
    <glyph glyph-name="dagger" unicode="&#x2020;" horiz-adv-x="563" 
d="M233 -170l-39 416l20 122l-68 -10h-110v132h110l68 -10l-14 103v137h163v-137l-14 -103l68 10h110v-132h-110l-68 10l19 -122l-38 -416h-97z" />
    <glyph glyph-name="daggerdbl" unicode="&#x2021;" horiz-adv-x="578" 
d="M200 -169v112l14 103l-68 -10h-110v132h110l68 -10l-19 105l19 105l-68 -10h-110v132h110l68 -10l-14 103v137h163v-137l-14 -103l68 10h110v-132h-110l-68 10l18 -105l-18 -105l68 10h110v-132h-110l-68 10l14 -103v-112h-163z" />
    <glyph glyph-name="bullet" unicode="&#x2022;" horiz-adv-x="463" 
d="M231 95q-80 0 -136.5 56.5t-56.5 135.5q0 80 56.5 137t136.5 57q81 0 137.5 -57t56.5 -137t-56.5 -136t-137.5 -56z" />
    <glyph glyph-name="ellipsis" unicode="&#x2026;" horiz-adv-x="804" 
d="M152 -10q-41 0 -69 27t-28 67q0 39 28 66t69 27t69 -27t28 -66q0 -40 -28 -67t-69 -27zM402 -10q-41 0 -69 27t-28 67q0 39 28 66t69 27t69 -27t28 -66q0 -40 -28 -67t-69 -27zM652 -10q-41 0 -69 27t-28 67q0 39 28 66t69 27q40 0 68.5 -27t28.5 -66t-28.5 -66.5
t-68.5 -27.5z" />
    <glyph glyph-name="perthousand" unicode="&#x2030;" horiz-adv-x="1299" 
d="M200 179q-85 0 -132 45.5t-47 114.5q0 68 48 115.5t133 47.5q86 0 132.5 -44.5t46.5 -113.5t-48 -117t-133 -48zM202 271q50 0 50 68q0 71 -51 71q-50 0 -50 -66q0 -73 51 -73zM707 -12q-86 0 -132.5 45.5t-46.5 114.5q0 68 48 115.5t133 47.5t132 -45t47 -114
q0 -68 -48 -116t-133 -48zM709 80q49 0 49 68q0 71 -50 71q-51 0 -51 -67q0 -31 12.5 -51.5t39.5 -20.5zM1097 -12q-86 0 -132.5 45.5t-46.5 114.5q0 68 48 115.5t133 47.5t132 -45t47 -114q0 -68 -48 -116t-133 -48zM1099 80q49 0 49 68q0 71 -50 71q-52 0 -52 -67
q0 -30 13 -51t40 -21zM245 0l294 490h126l-294 -490h-126z" />
    <glyph glyph-name="guilsinglleft" unicode="&#x2039;" horiz-adv-x="328" 
d="M144 52l-116 193l116 194h160l-115 -194l115 -193h-160z" />
    <glyph glyph-name="guilsinglright" unicode="&#x203a;" horiz-adv-x="328" 
d="M24 52l115 194l-115 193h159l117 -193l-117 -194h-159z" />
    <glyph glyph-name="fraction" unicode="&#x2044;" horiz-adv-x="149" 
d="M-190 0l406 666h120l-406 -666h-120z" />
    <glyph glyph-name="uni2070" unicode="&#x2070;" horiz-adv-x="388" 
d="M193 324q-82 0 -124.5 49t-42.5 125q0 77 42 126t125 49t126 -49.5t43 -125.5t-43 -125t-126 -49zM193 413q45 0 45 85t-45 85q-43 0 -43 -85t43 -85z" />
    <glyph glyph-name="uni2074" unicode="&#x2074;" horiz-adv-x="376" 
d="M187 330v59h-169v69l175 209h110v-195h52v-83h-52v-59h-116zM124 469q13 3 42 3h25v78h-1z" />
    <glyph glyph-name="uni2075" unicode="&#x2075;" horiz-adv-x="318" 
d="M109 324q-51 0 -85 10l17 87q27 -10 65 -10q57 0 57 31q0 33 -68 33q-33 0 -53 -4l12 196h220v-87h-118l-3 -33q57 -3 94.5 -27t37.5 -73q0 -59 -48 -91t-128 -32z" />
    <glyph glyph-name="uni2076" unicode="&#x2076;" horiz-adv-x="357" 
d="M181 324q-74 0 -112 42.5t-38 114.5q0 85 65 138.5t174 53.5l26 -77q-54 -2 -97 -21t-57 -52q31 18 72 18q47 0 79.5 -25.5t32.5 -75.5q0 -55 -42 -85.5t-103 -30.5zM180 403q16 0 26.5 8.5t10.5 22.5q0 16 -11.5 25t-28.5 9q-27 0 -39 -9v-8q0 -24 12.5 -36t29.5 -12z
" />
    <glyph glyph-name="uni2077" unicode="&#x2077;" horiz-adv-x="329" 
d="M162 314l-105 36l103 223h-140v94h278v-53z" />
    <glyph glyph-name="uni2078" unicode="&#x2078;" horiz-adv-x="348" 
d="M174 324q-63 0 -105 24t-42 67q0 46 68 81q-58 39 -58 81q0 44 41 70t97 26q58 0 98 -25t40 -67q0 -36 -61 -73q69 -36 69 -86q0 -47 -43 -72.5t-104 -25.5zM172 394q18 0 29.5 7.5t11.5 18.5q0 9 -9.5 16t-32.5 19q-3 1 -4 2q-38 -21 -38 -37q0 -12 12.5 -19t30.5 -7z
M179 543q30 20 30 35q0 10 -9.5 17t-23.5 7t-23.5 -7t-9.5 -17q0 -5 2.5 -9.5t9 -9.5t10 -7.5t14.5 -8.5z" />
    <glyph glyph-name="uni2079" unicode="&#x2079;" horiz-adv-x="356" 
d="M81 323l-26 76q53 2 96 21.5t58 52.5q-34 -17 -73 -17q-48 0 -80.5 25.5t-32.5 75.5q0 54 42 85t103 31q74 0 113 -43t39 -115q0 -85 -65 -138.5t-174 -53.5zM172 528q26 0 40 9v8q0 23 -12.5 36t-29.5 13q-16 0 -26.5 -9t-10.5 -23q0 -16 11.5 -25t27.5 -9z" />
    <glyph glyph-name="uni207A" unicode="&#x207a;" horiz-adv-x="328" 
d="M116 383v71h-79v85h79v72h95v-72h81v-85h-81v-71h-95z" />
    <glyph glyph-name="uni207B" unicode="&#x207b;" horiz-adv-x="303" 
d="M48 454v83h207v-83h-207z" />
    <glyph glyph-name="uni207D" unicode="&#x207d;" horiz-adv-x="247" 
d="M136 274q-100 85 -100 222q0 74 29.5 130.5t70.5 88.5h112q-38 -29 -66 -89t-28 -129q0 -71 27.5 -130t66.5 -93h-112z" />
    <glyph glyph-name="uni207E" unicode="&#x207e;" horiz-adv-x="247" 
d="M-1 274q39 32 66.5 90.5t27.5 130.5q0 70 -27.5 129.5t-66.5 90.5h112q42 -33 71 -89t29 -130q0 -139 -100 -222h-112z" />
    <glyph glyph-name="uni2080" unicode="&#x2080;" horiz-adv-x="388" 
d="M193 -206q-82 0 -124.5 49t-42.5 126q0 76 42 125t125 49t126 -49.5t43 -124.5q0 -77 -43 -126t-126 -49zM193 -117q45 0 45 86q0 84 -45 84q-43 0 -43 -84q0 -86 43 -86z" />
    <glyph glyph-name="uni2081" unicode="&#x2081;" horiz-adv-x="295" 
d="M107 -200v239l-73 -18l-24 89l127 26h86v-336h-116z" />
    <glyph glyph-name="uni2082" unicode="&#x2082;" horiz-adv-x="346" 
d="M22 -200v60l26 19.5t25.5 20t22.5 18t22 18.5t18 17.5t16.5 18t11 16.5t8 17.5t2.5 16.5q0 32 -36 32q-37 0 -73 -31l-54 72q55 48 143 48q69 0 106.5 -30t37.5 -78q0 -41 -29 -74.5t-83 -74.5q18 2 50 2h75v-88h-289z" />
    <glyph glyph-name="uni2083" unicode="&#x2083;" horiz-adv-x="327" 
d="M109 -206q-61 0 -90 11l21 85q31 -11 65 -11q60 0 60 26q0 29 -86 31v66q78 2 78 34q0 22 -32 22t-63 -18l-40 71q50 32 130 32q57 0 91 -21t34 -58q0 -56 -73 -77v-1q33 -5 59.5 -24.5t26.5 -56.5q0 -51 -47.5 -81t-133.5 -30z" />
    <glyph glyph-name="uni2084" unicode="&#x2084;" horiz-adv-x="376" 
d="M187 -200v59h-169v69l175 209h110v-195h52v-83h-52v-59h-116zM124 -60q18 2 42 2h25v78h-1z" />
    <glyph glyph-name="uni2085" unicode="&#x2085;" horiz-adv-x="318" 
d="M109 -206q-54 0 -85 11l17 86q32 -10 65 -10q57 0 57 31q0 34 -68 34q-33 0 -53 -4l12 195h220v-86h-118l-3 -34q57 -3 94.5 -27t37.5 -73q0 -59 -48.5 -91t-127.5 -32z" />
    <glyph glyph-name="uni2086" unicode="&#x2086;" horiz-adv-x="357" 
d="M181 -206q-73 0 -111.5 42.5t-38.5 114.5q0 85 65 138.5t174 53.5l26 -76q-54 -2 -97 -21t-57 -52q32 17 72 17q47 0 79.5 -25.5t32.5 -75.5q0 -55 -42 -85.5t-103 -30.5zM180 -127q16 0 26.5 9t10.5 23q0 16 -11.5 25t-28.5 9q-25 0 -39 -9v-9q0 -23 12.5 -35.5
t29.5 -12.5z" />
    <glyph glyph-name="uni2087" unicode="&#x2087;" horiz-adv-x="329" 
d="M162 -215l-105 35l103 223h-140v94h278v-53z" />
    <glyph glyph-name="uni2088" unicode="&#x2088;" horiz-adv-x="348" 
d="M174 -206q-63 0 -105 24t-42 68q0 45 68 81q-58 37 -58 81t41 69.5t97 25.5q57 0 97.5 -24.5t40.5 -66.5q0 -38 -61 -73q69 -38 69 -87q0 -47 -43 -72.5t-104 -25.5zM172 -135q18 0 29.5 7t11.5 18q0 9 -9.5 16t-32.5 19q-3 1 -4 2q-38 -21 -38 -37q0 -11 12.5 -18
t30.5 -7zM179 14q30 20 30 34q0 10 -9.5 17t-23.5 7t-23.5 -7t-9.5 -17q0 -2 0.5 -4.5t2 -4.5t2.5 -4t3.5 -4t4.5 -3t5.5 -3.5t5.5 -3.5t6 -3.5t6 -3.5z" />
    <glyph glyph-name="uni2089" unicode="&#x2089;" horiz-adv-x="356" 
d="M81 -207l-26 77q53 2 96 21.5t58 51.5q-34 -17 -73 -17q-47 0 -80 26t-33 75q0 55 42 85.5t103 30.5q74 0 113 -42.5t39 -114.5q0 -86 -64.5 -139.5t-174.5 -53.5zM172 -1q27 0 40 8v9q0 23 -12.5 35.5t-29.5 12.5q-16 0 -26.5 -9t-10.5 -23q0 -15 11.5 -24t27.5 -9z" />
    <glyph glyph-name="Euro" unicode="&#x20ac;" horiz-adv-x="588" 
d="M32 355v104h70q27 102 100.5 160.5t189.5 58.5q114 0 183 -44l-64 -118q-51 30 -115 30q-90 0 -126 -87h151v-104h-170v-48h170v-103h-149q34 -83 123 -83q65 0 125 40l60 -113q-80 -60 -191 -60q-106 0 -182 53t-105 163h-70v103h56q-1 9 -1 27v21h-55z" />
    <glyph glyph-name="afii61352" unicode="&#x2116;" horiz-adv-x="1176" 
d="M78 0v666h163l216 -310q9 -13 74 -117h2q-4 28 -4 109v318h146v-666h-148l-236 336q-30 41 -68 104h-2q0 -2 0.5 -16t1.5 -35.5t1 -41.5v-347h-146zM948 316q-95 0 -146.5 50t-51.5 127q0 74 53.5 126.5t146.5 52.5t145 -49.5t52 -126.5q0 -75 -53 -127.5t-146 -52.5z
M950 417q55 0 55 76q0 33 -14 55.5t-43 22.5q-57 0 -57 -75q0 -33 14.5 -56t44.5 -23z" />
    <glyph glyph-name="uni2117" unicode="&#x2117;" horiz-adv-x="827" 
d="M413 -14q-154 0 -263 109.5t-109 263.5t109 263.5t263 109.5q155 0 264 -109t109 -264t-109 -264t-264 -109zM413 71q124 0 203 79t79 209q0 129 -79 208.5t-203 79.5t-203 -79.5t-79 -208.5q0 -130 79 -209t203 -79zM277 157v406h153q78 0 118.5 -38t40.5 -97
q0 -61 -41.5 -98.5t-128.5 -37.5h-40v-135h-102zM379 366h41q68 0 68 59q0 60 -67 60h-42v-119z" />
    <glyph glyph-name="trademark" unicode="&#x2122;" horiz-adv-x="747" 
d="M315 368l42 298h91l48 -137q17 -46 17 -60h2l2 7q2 6 4 13.5t5.5 18.5t7.5 21l47 137h93l41 -298h-95l-12 118q-4 31 -4 48h-2q0 -16 -14 -57l-37 -109h-81l-35 109q-3 11 -7 25.5t-6.5 22.5t-2.5 9h-2q0 -13 -4 -49l-14 -117h-84zM118 368v223h-88v75h267v-75h-87v-223
h-92z" />
    <glyph glyph-name="uni2126" unicode="&#x2126;" horiz-adv-x="739" 
d="M38 0v122h109q-44 32 -76.5 96.5t-32.5 144.5q0 140 96.5 227.5t234.5 87.5t234.5 -87.5t96.5 -227.5q0 -80 -32.5 -144.5t-76.5 -96.5h108v-122h-282v116q67 44 96.5 100t29.5 141q0 78 -49.5 135t-124.5 57t-124.5 -57t-49.5 -135q0 -85 29.5 -141t96.5 -100v-116h-283
z" />
    <glyph glyph-name="partialdiff" unicode="&#x2202;" horiz-adv-x="658" 
d="M276 -11q-100 0 -168 65t-68 154q0 107 70 169.5t171 62.5q88 0 153 -28q-10 52 -37.5 87t-68.5 51.5t-82.5 22.5t-95.5 6l37 142q7 0 21 0.5t20 0.5q180 0 281.5 -92.5t101.5 -267.5q0 -162 -90.5 -267.5t-244.5 -105.5zM294 122q51 0 89.5 40.5t51.5 112.5
q-22 16 -58.5 28t-71.5 12q-45 0 -70 -30.5t-25 -76.5q0 -36 24.5 -61t59.5 -25z" />
    <glyph glyph-name="uni2206" unicode="&#x2206;" horiz-adv-x="867" 
d="M55 0l301 701h148l301 -701h-750zM271 144h318l-159 363z" />
    <glyph glyph-name="product" unicode="&#x220f;" horiz-adv-x="916" 
d="M168 -224v786h-109v138h775v-138h-109v-786h-152v786h-253v-786h-152z" />
    <glyph glyph-name="summation" unicode="&#x2211;" horiz-adv-x="673" 
d="M53 -146v98l271 389l-255 340v98h547v-131h-369l233 -303l-251 -359h402v-132h-578z" />
    <glyph glyph-name="minus" unicode="&#x2212;" horiz-adv-x="550" 
d="M86 221v114h369v-114h-369z" />
    <glyph glyph-name="uni2219" unicode="&#x2219;" horiz-adv-x="270" 
d="M135 196q-41 0 -69 27t-28 67t28 67t69 27t69 -27t28 -67t-28 -67t-69 -27z" />
    <glyph glyph-name="radical" unicode="&#x221a;" horiz-adv-x="585" 
d="M201 0l-187 490h162l96 -285h2l159 515h154l-244 -720h-142z" />
    <glyph glyph-name="infinity" unicode="&#x221e;" horiz-adv-x="970" 
d="M254 69q-87 0 -147.5 51t-60.5 133q0 81 63 135.5t148 54.5q96 0 227 -102q137 102 228 102q86 0 145.5 -51t59.5 -132q0 -83 -62.5 -136.5t-149.5 -53.5q-96 0 -226 102q-134 -103 -225 -103zM257 198q42 0 117 57q-79 59 -118 59q-27 0 -50.5 -15.5t-23.5 -40.5
q0 -27 22.5 -43.5t52.5 -16.5zM710 198q27 0 49.5 17t22.5 41q0 27 -23 42.5t-53 15.5q-40 0 -115 -56q78 -60 119 -60z" />
    <glyph glyph-name="uni2224" unicode="&#x2224;" horiz-adv-x="270" 
d="M135 196q-41 0 -69 27t-28 67t28 67t69 27t69 -27t28 -67t-28 -67t-69 -27z" />
    <glyph glyph-name="logicaland" unicode="&#x2227;" horiz-adv-x="270" 
d="M135 196q-41 0 -69 27t-28 67t28 67t69 27t69 -27t28 -67t-28 -67t-69 -27z" />
    <glyph glyph-name="integral" unicode="&#x222b;" horiz-adv-x="366" 
d="M35 -234q-65 0 -126 45l54 125q48 -24 84 -24q60 0 60 107v574q0 96 60 161.5t164 65.5q66 0 127 -46l-55 -124q-48 24 -84 24q-30 0 -45.5 -28.5t-15.5 -78.5v-575q0 -97 -59 -161.5t-164 -64.5z" />
    <glyph glyph-name="approxequal" unicode="&#x2248;" horiz-adv-x="646" 
d="M123 78l-63 108q30 38 74.5 61t95.5 23t110 -29t86 -29q61 0 112 64l57 -110q-28 -38 -75 -60t-101 -22q-50 0 -109 29t-86 29q-29 0 -51.5 -14t-49.5 -50zM109 304l-62 107q29 38 74 61.5t96 23.5t110 -29t86 -29q60 0 112 63l57 -110q-28 -38 -75.5 -60t-100.5 -22
q-51 0 -110 29t-85 29q-28 0 -51 -14t-51 -49z" />
    <glyph glyph-name="notequal" unicode="&#x2260;" horiz-adv-x="679" 
d="M229 -43l-99 54l66 109h-135v111h203l32 53h-235v111h303l86 140l99 -55l-54 -85h122v-111h-191l-31 -53h222v-111h-291z" />
    <glyph glyph-name="lessequal" unicode="&#x2264;" horiz-adv-x="539" 
d="M520 0l-459 200v105l459 200v-140l-302 -112l302 -112v-141zM61 -166v116h459v-116h-459z" />
    <glyph glyph-name="greaterequal" unicode="&#x2265;" horiz-adv-x="580" 
d="M61 0v141l302 112l-302 112v140l459 -200v-105zM61 -166v116h459v-116h-459z" />
    <glyph glyph-name="dotmath" unicode="&#x22c5;" horiz-adv-x="270" 
d="M135 196q-41 0 -69 27t-28 67t28 67t69 27t69 -27t28 -67t-28 -67t-69 -27z" />
    <glyph glyph-name="lozenge" unicode="&#x25ca;" horiz-adv-x="735" 
d="M308 -1l-255 326l253 351h137l256 -330l-252 -347h-139zM380 143l138 197l-144 187l-139 -198z" />
    <glyph glyph-name="numbersign.case" horiz-adv-x="567" 
d="M89 0l26 176h-101l18 112h100l14 93h-99l18 112h98l27 173h102l-27 -173h92l26 173h102l-26 -173h94l-19 -112h-92l-14 -93h93l-18 -112h-92l-26 -176h-102l26 176h-92l-26 -176h-102zM231 284h97l15 101h-97z" />
    <glyph glyph-name="dollar.case" horiz-adv-x="522" 
d="M322 -118h-121v108q-108 10 -174 63l65 111q72 -48 141 -48q46 0 72.5 18.5t26.5 48.5q0 19 -14 34t-30 23t-51 22.5t-55 24.5q-69 34 -104 79.5t-35 121.5q0 70 43.5 118.5t114.5 64.5v113h121v-110q84 -10 144 -53l-62 -111q-66 40 -128 40q-39 0 -61 -15.5t-22 -45.5
q0 -14 5 -24.5t20.5 -20.5t25 -15t37 -17t38.5 -17q40 -18 64 -32.5t50.5 -38t38.5 -56.5t12 -76q0 -75 -42.5 -126t-119.5 -69v-115z" />
    <glyph glyph-name="percent.case" horiz-adv-x="882" 
d="M208 327q-89 0 -138.5 50t-49.5 125q0 72 50.5 123.5t138.5 51.5q89 0 138.5 -48.5t49.5 -122.5q0 -75 -50.5 -127t-138.5 -52zM209 420q59 0 59 82q0 35 -14.5 59t-45.5 24q-59 0 -59 -79q0 -36 14.5 -61t45.5 -25zM673 -11q-89 0 -138.5 50t-49.5 125q0 73 50 124.5
t139 51.5t138 -49t49 -123q0 -75 -50 -127t-138 -52zM674 82q59 0 59 82q0 35 -15 59t-45 24q-60 0 -60 -79q0 -36 15 -61t46 -25zM180 0l398 666h122l-398 -666h-122z" />
    <glyph glyph-name="parenleft.case" horiz-adv-x="359" 
d="M215 -113q-178 190 -178 449q0 143 54 256t124 181h144q-62 -70 -110 -179.5t-48 -254.5q0 -261 158 -452h-144z" />
    <glyph glyph-name="parenright.case" horiz-adv-x="360" 
d="M0 -113q160 190 160 444q0 253 -160 442h146q71 -72 124.5 -183t53.5 -255q0 -79 -17.5 -152.5t-46 -129.5t-56 -95t-58.5 -71h-146z" />
    <glyph glyph-name="hyphen.case" horiz-adv-x="336" 
d="M50 284v122h237v-122h-237z" />
    <glyph glyph-name="slash.case" horiz-adv-x="465" 
d="M0 -161l318 881h147l-318 -881h-147z" />
    <glyph glyph-name="less.case" horiz-adv-x="421" 
d="M296 4l-261 242l259 247l81 -84l-168 -160l171 -157z" />
    <glyph glyph-name="equal.case" horiz-adv-x="513" 
d="M49 105v114h414v-114h-414zM49 300v114h414v-114h-414z" />
    <glyph glyph-name="greater.case" horiz-adv-x="421" 
d="M127 4l-82 84l168 160l-171 158l83 87l261 -242z" />
    <glyph glyph-name="bracketleft.case" horiz-adv-x="353" 
d="M61 -110v881h265v-112h-120v-656h120v-113h-265z" />
    <glyph glyph-name="bracketright.case" horiz-adv-x="353" 
d="M26 -110v113h121v656h-121v112h266v-881h-266z" />
    <glyph glyph-name="braceleft.case" horiz-adv-x="421" 
d="M263 -110q-49 0 -86 34.5t-37 95.5v161q0 95 -115 98v115q60 1 87.5 25t27.5 73v151q0 63 36.5 95.5t88.5 32.5h129v-112h-60q-28 0 -38.5 -16t-10.5 -49v-136q0 -93 -88 -119v-2q88 -29 88 -126v-144q0 -37 9 -50.5t39 -13.5h61v-113h-131z" />
    <glyph glyph-name="braceright.case" horiz-adv-x="421" 
d="M26 -110v113h61q28 0 38.5 16t10.5 49v146q0 93 88 119v2q-88 29 -88 126v134q0 36 -9 50t-39 14h-62v112h132q49 0 86 -34t37 -95v-150q0 -95 115 -98v-115q-60 -1 -87.5 -25t-27.5 -73v-162q0 -63 -36.5 -96t-88.5 -33h-130z" />
    <glyph glyph-name="exclamdown.case" horiz-adv-x="305" 
d="M157 497q-41 0 -67.5 26t-26.5 63t26.5 63.5t67.5 26.5q40 0 66.5 -26.5t26.5 -63.5t-26.5 -63t-66.5 -26zM68 0l28 432h121l28 -432h-177z" />
    <glyph glyph-name="guillemotleft.case" horiz-adv-x="559" 
d="M144 149l-116 193l116 194h155l-115 -194l115 -193h-155zM380 149l-116 193l116 194h155l-115 -194l115 -193h-155z" />
    <glyph glyph-name="uni00AD.case" horiz-adv-x="336" 
d="M50 284v122h237v-122h-237z" />
    <glyph glyph-name="guillemotright.case" horiz-adv-x="559" 
d="M24 149l115 194l-115 193h154l116 -193l-116 -194h-154zM260 149l115 194l-115 193h155l116 -193l-116 -194h-155z" />
    <glyph glyph-name="questiondown.case" horiz-adv-x="414" 
d="M239 -12q-105 0 -159 48t-54 125q0 88 84 149q8 6 29 20.5t28 20.5t14.5 19t7.5 29v35h130v-51q0 -44 -16 -70t-51 -49q-33 -22 -47 -41t-14 -48q0 -63 78 -63q39 0 87 24l52 -111q-67 -37 -169 -37zM253 497q-40 0 -66.5 26t-26.5 63t26.5 63.5t66.5 26.5
q41 0 67.5 -26.5t26.5 -63.5t-26.5 -63t-67.5 -26z" />
    <glyph glyph-name="endash.case" horiz-adv-x="558" 
d="M46 285v116h466v-116h-466z" />
    <glyph glyph-name="emdash.case" horiz-adv-x="882" 
d="M46 285v116h790v-116h-790z" />
    <glyph glyph-name="perthousand.case" horiz-adv-x="1297" 
d="M208 327q-89 0 -138.5 50t-49.5 125q0 72 50.5 123.5t138.5 51.5q89 0 138.5 -48.5t49.5 -122.5q0 -75 -50.5 -127t-138.5 -52zM209 420q59 0 59 82q0 35 -14.5 59t-45.5 24q-59 0 -59 -79q0 -36 14.5 -61t45.5 -25zM673 -11q-89 0 -138.5 50t-49.5 125q0 73 50 124.5
t139 51.5t138 -49t49 -123q0 -75 -50 -127t-138 -52zM674 82q59 0 59 82q0 35 -15 59t-45 24q-60 0 -60 -79q0 -36 15 -61t46 -25zM1088 -11q-89 0 -138.5 50t-49.5 125q0 73 50 124.5t139 51.5t138 -49t49 -123q0 -75 -50 -127t-138 -52zM1089 82q59 0 59 82q0 35 -15 59
t-45 24q-60 0 -60 -79q0 -36 15 -61t46 -25zM180 0l398 666h122l-398 -666h-122z" />
    <glyph glyph-name="guilsinglleft.case" horiz-adv-x="328" 
d="M144 149l-116 193l116 194h160l-115 -194l115 -193h-160z" />
    <glyph glyph-name="guilsinglright.case" horiz-adv-x="328" 
d="M24 149l115 194l-115 193h159l117 -193l-117 -194h-159z" />
    <glyph glyph-name="zero.dnom" horiz-adv-x="388" 
d="M193 -6q-82 0 -124.5 49t-42.5 126q0 76 42 125t125 49t126 -49.5t43 -124.5q0 -77 -43 -126t-126 -49zM193 83q45 0 45 86q0 84 -45 84q-43 0 -43 -84q0 -86 43 -86z" />
    <glyph glyph-name="one.dnom" horiz-adv-x="295" 
d="M107 0v239l-73 -18l-24 89l127 26h86v-336h-116z" />
    <glyph glyph-name="two.dnom" horiz-adv-x="346" 
d="M22 0v60l26 19.5t25.5 20t22.5 18t22 18.5t18 17.5t16.5 18t11 16.5t8 17.5t2.5 16.5q0 32 -36 32q-37 0 -73 -31l-54 72q55 48 143 48q69 0 106.5 -30t37.5 -78q0 -41 -29 -74.5t-83 -74.5q18 2 50 2h75v-88h-289z" />
    <glyph glyph-name="three.dnom" horiz-adv-x="327" 
d="M109 -6q-61 0 -90 11l21 85q31 -11 65 -11q60 0 60 26q0 29 -86 31v66q78 2 78 34q0 22 -32 22t-63 -18l-40 71q50 32 130 32q57 0 91 -21t34 -58q0 -56 -73 -77v-1q33 -5 59.5 -24.5t26.5 -56.5q0 -51 -47.5 -81t-133.5 -30z" />
    <glyph glyph-name="four.dnom" horiz-adv-x="376" 
d="M187 0v59h-169v69l175 209h110v-195h52v-83h-52v-59h-116zM124 140q18 2 42 2h25v78h-1z" />
    <glyph glyph-name="five.dnom" horiz-adv-x="318" 
d="M109 -6q-54 0 -85 11l17 86q32 -10 65 -10q57 0 57 31q0 34 -68 34q-33 0 -53 -4l12 195h220v-86h-118l-3 -34q57 -3 94.5 -27t37.5 -73q0 -59 -48.5 -91t-127.5 -32z" />
    <glyph glyph-name="six.dnom" horiz-adv-x="357" 
d="M181 -6q-73 0 -111.5 42.5t-38.5 114.5q0 85 65 138.5t174 53.5l26 -76q-54 -2 -97 -21t-57 -52q32 17 72 17q47 0 79.5 -25.5t32.5 -75.5q0 -55 -42 -85.5t-103 -30.5zM180 73q16 0 26.5 9t10.5 23q0 16 -11.5 25t-28.5 9q-25 0 -39 -9v-9q0 -23 12.5 -35.5t29.5 -12.5z
" />
    <glyph glyph-name="seven.dnom" horiz-adv-x="329" 
d="M162 -15l-105 35l103 223h-140v94h278v-53z" />
    <glyph glyph-name="eight.dnom" horiz-adv-x="348" 
d="M174 -6q-63 0 -105 24t-42 68q0 45 68 81q-58 37 -58 81t41 69.5t97 25.5q57 0 97.5 -24.5t40.5 -66.5q0 -38 -61 -73q69 -38 69 -87q0 -47 -43 -72.5t-104 -25.5zM172 65q18 0 29.5 7t11.5 18q0 9 -9.5 16t-32.5 19q-3 1 -4 2q-38 -21 -38 -37q0 -11 12.5 -18t30.5 -7z
M179 214q30 20 30 34q0 10 -9.5 17t-23.5 7t-23.5 -7t-9.5 -17q0 -2 0.5 -4.5t2 -4.5t2.5 -4t3.5 -4t4.5 -3t5.5 -3.5t5.5 -3.5t6 -3.5t6 -3.5z" />
    <glyph glyph-name="nine.dnom" horiz-adv-x="356" 
d="M81 -7l-26 77q53 2 96 21.5t58 51.5q-34 -17 -73 -17q-47 0 -80 26t-33 75q0 55 42 85.5t103 30.5q74 0 113 -42.5t39 -114.5q0 -86 -64.5 -139.5t-174.5 -53.5zM172 199q27 0 40 8v9q0 23 -12.5 35.5t-29.5 12.5q-16 0 -26.5 -9t-10.5 -23q0 -15 11.5 -24t27.5 -9z" />
    <glyph glyph-name="zero.lf" horiz-adv-x="619" 
d="M309 -12q-58 0 -104.5 19t-78 51.5t-53 77t-31 94t-9.5 103.5q0 69 15 129t46.5 109.5t86 78t127.5 28.5q72 0 127 -28.5t87 -78t48 -109.5t16 -129q0 -68 -16 -128.5t-48 -110t-86.5 -78t-126.5 -28.5zM308 108q60 0 87 56t27 169q0 112 -27 168.5t-86 56.5
q-60 0 -86.5 -56t-26.5 -169t26.5 -169t85.5 -56z" />
    <glyph glyph-name="one.lf" horiz-adv-x="400" 
d="M166 0v534l-127 -37l-32 119l194 50h116v-666h-151z" />
    <glyph glyph-name="two.lf" horiz-adv-x="523" 
d="M21 0v81q52 46 82 73.5t73.5 73.5t67.5 80.5t42.5 77t18.5 79.5q0 46 -23.5 68.5t-61.5 22.5q-73 0 -135 -62l-72 95q95 89 229 89q111 0 169 -54t58 -141q0 -93 -61.5 -179.5t-174.5 -186.5l5 1q5 0 13 0.5t17 1t19.5 1t18.5 0.5h178v-121h-463z" />
    <glyph glyph-name="three.lf" horiz-adv-x="495" 
d="M145 -12q-75 0 -120 15l25 119q42 -13 90 -13q69 0 107.5 23.5t38.5 68.5q0 50 -42.5 71t-131.5 22v104q74 1 115.5 27t41.5 68q0 64 -80 64q-57 0 -109 -39l-64 98q85 62 206 62q98 0 151.5 -42t53.5 -112q0 -60 -39 -99.5t-97 -55.5v-2q64 -8 111.5 -50.5t47.5 -114.5
q0 -100 -82.5 -157t-222.5 -57z" />
    <glyph glyph-name="four.lf" horiz-adv-x="608" 
d="M330 0v134h-307v99l318 433h140v-416h98v-116h-98v-134h-151zM173 247q21 3 73 3h86v219h-2z" />
    <glyph glyph-name="five.lf" horiz-adv-x="479" 
d="M127 -12q-67 0 -106 12l22 121q44 -12 83 -12q67 0 108 26.5t41 79.5q0 102 -153 102q-45 0 -71 -6l21 355h345v-121h-208l-7 -113q110 -4 172.5 -57t62.5 -151q0 -113 -84 -174.5t-226 -61.5z" />
    <glyph glyph-name="six.lf" horiz-adv-x="572" 
d="M294 -12q-87 0 -147 42t-86 107t-26 147q0 178 115.5 286t311.5 108l33 -123q-143 0 -215 -55q-60 -45 -77 -120q50 37 125 37q91 0 152 -56t61 -152q0 -101 -70.5 -161t-176.5 -60zM296 102q39 0 61 27.5t22 71.5q0 51 -23 77t-64 26q-58 0 -98 -35v-5q0 -81 28 -121.5
t74 -40.5z" />
    <glyph glyph-name="seven.lf" horiz-adv-x="490" 
d="M199 -27l-135 46l215 521h-260v126h433v-79z" />
    <glyph glyph-name="eight.lf" horiz-adv-x="541" 
d="M271 -12q-114 0 -178 48t-64 132q0 103 126 172q-106 60 -106 157q0 80 63.5 130.5t159.5 50.5q102 0 162.5 -44.5t60.5 -126.5q0 -87 -115 -152q131 -66 131 -181q0 -88 -66 -137t-174 -49zM269 99q41 0 62.5 20.5t21.5 53.5q0 32 -24 56t-71 50q-74 -48 -74 -106
q0 -34 22 -54t63 -20zM276 412q65 43 65 89q0 31 -17.5 49t-49.5 18q-33 0 -51.5 -18t-18.5 -45q0 -52 72 -93z" />
    <glyph glyph-name="nine.lf" horiz-adv-x="570" 
d="M112 -18l-32 123q60 0 120 16.5t95 46.5q56 46 71 119q-50 -38 -125 -38q-91 0 -152 56t-61 152q0 101 70.5 161t174.5 60q68 0 119 -23.5t81 -65t45 -93.5t15 -114q0 -184 -110 -292t-311 -108zM278 362q57 0 97 35v5q0 78 -28 120t-73 42q-39 0 -61.5 -27.5
t-22.5 -71.5q0 -51 23.5 -77t64.5 -26z" />
    <glyph glyph-name="exclam.sc" horiz-adv-x="277" 
d="M139 -9q-38 0 -62.5 24t-24.5 58q0 33 25 57t62 24t61.5 -24t24.5 -57q0 -34 -24.5 -58t-61.5 -24zM81 196l-25 330h165l-23 -330h-117z" />
    <glyph glyph-name="ampersand.sc" horiz-adv-x="584" 
d="M228 -9q-97 0 -148.5 40t-51.5 108q0 53 28 89t85 65q-49 60 -49 111q0 60 49 96t127 36q79 0 123 -34.5t44 -87.5q0 -73 -112 -136l71 -79q19 34 29 80l117 -21q-15 -81 -69 -147l100 -111h-168l-28 31q-70 -40 -147 -40zM262 343q49 30 49 62q0 18 -12 28.5t-31 10.5
q-18 0 -29.5 -10.5t-11.5 -28.5q0 -25 35 -62zM243 94q32 0 62 16l-95 104q-36 -27 -36 -63q0 -27 19 -42t50 -15z" />
    <glyph glyph-name="question.sc" horiz-adv-x="364" 
d="M90 197v27q0 63 53 98q44 31 44 59q0 40 -58 40q-39 0 -71 -18l-48 100q62 33 153 33q89 0 134.5 -38.5t45.5 -99.5t-61 -109q-8 -6 -25 -17.5t-24.5 -17.5t-14.5 -18t-7 -26v-13h-121zM151 -9q-38 0 -62.5 24t-24.5 58q0 33 25 57t62 24t61 -24t24 -57q0 -34 -24 -58
t-61 -24z" />
    <glyph glyph-name="a.sc" horiz-adv-x="603" 
d="M229 190h129l-34 95q-30 83 -30 94h-2q0 -11 -29 -94zM13 0l212 526h145l219 -526h-163l-30 82h-203l-29 -82h-151z" />
    <glyph glyph-name="b.sc" horiz-adv-x="527" 
d="M66 0v526h209q199 0 199 -134q0 -97 -98 -120v-2q52 -6 86 -38t34 -87q0 -145 -223 -145h-207zM215 108h53q42 0 61 12.5t19 42.5q0 57 -75 57h-58v-112zM215 314h42q73 0 73 55q0 52 -70 52h-45v-107z" />
    <glyph glyph-name="c.sc" horiz-adv-x="526" 
d="M324 -9q-140 0 -214 78t-74 194t76.5 194.5t217.5 78.5q105 0 168 -45l-63 -109q-48 30 -105 30q-62 0 -97 -39t-35 -105q0 -71 34 -112t98 -41q65 0 116 37l57 -109q-72 -52 -179 -52z" />
    <glyph glyph-name="d.sc" horiz-adv-x="611" 
d="M66 0v526h193q157 0 236.5 -68.5t79.5 -187.5q0 -120 -82 -195t-239 -75h-188zM218 119h48q149 0 149 147q0 74 -37 108t-117 34h-43v-289z" />
    <glyph glyph-name="e.sc" horiz-adv-x="478" 
d="M66 0v526h355v-117h-206v-88h184v-107h-184v-96h212v-118h-361z" />
    <glyph glyph-name="f.sc" horiz-adv-x="454" 
d="M66 0v526h346v-119h-194v-103h174v-112h-174v-192h-152z" />
    <glyph glyph-name="g.sc" horiz-adv-x="600" 
d="M338 -9q-143 0 -222.5 78.5t-79.5 193.5q0 114 85 193.5t231 79.5q111 0 184 -45l-63 -112q-55 32 -124 32q-74 0 -113 -37.5t-39 -108.5q0 -73 36 -114t107 -41q40 0 67 11v76h-87v106h232v-264q-86 -48 -214 -48z" />
    <glyph glyph-name="h.sc" horiz-adv-x="638" 
d="M66 0v526h152v-194h203v194h151v-526h-151v209h-203v-209h-152z" />
    <glyph glyph-name="i.sc" horiz-adv-x="294" 
d="M71 0v526h152v-526h-152z" />
    <glyph glyph-name="j.sc" horiz-adv-x="311" 
d="M64 -178q-56 0 -103 17l23 117q27 -9 44 -9q34 0 48.5 15t14.5 52v512h154v-528q0 -86 -49 -131t-132 -45z" />
    <glyph glyph-name="k.sc" horiz-adv-x="563" 
d="M66 0v526h152v-220l168 220h162l-185 -242l187 -284h-167l-165 249v-249h-152z" />
    <glyph glyph-name="l.sc" horiz-adv-x="460" 
d="M69 0v526h152v-407h207v-119h-359z" />
    <glyph glyph-name="m.sc" horiz-adv-x="759" 
d="M36 0l76 526h148l93 -298q22 -70 22 -85h2q0 15 24 85l99 298h148l74 -526h-154l-27 222q-8 70 -8 80h-2q0 -4 -20 -77l-69 -225h-145l-67 225q-20 68 -20 77h-2q0 -29 -7 -79l-31 -223h-134z" />
    <glyph glyph-name="n.sc" horiz-adv-x="633" 
d="M66 0v526h152l154 -213q17 -24 32.5 -48t22.5 -36t7 -13h2l-1 14q-1 15 -2 37t-1 40v219h135v-526h-137l-170 235q-16 22 -60 88h-2v-5q1 -4 1.5 -12t0.5 -18t0.5 -22.5t0.5 -23.5v-242h-135z" />
    <glyph glyph-name="o.sc" horiz-adv-x="658" 
d="M331 -9q-139 0 -217 78.5t-78 193.5q0 112 78 192.5t215 80.5q139 0 216.5 -78t77.5 -193q0 -116 -76 -195t-216 -79zM329 111q68 0 100.5 42.5t32.5 109.5q0 68 -32 110.5t-99 42.5t-100 -42t-33 -109t33 -110.5t98 -43.5z" />
    <glyph glyph-name="p.sc" horiz-adv-x="526" 
d="M64 0v526h211q101 0 161.5 -44.5t60.5 -133.5q0 -90 -62.5 -135.5t-174.5 -45.5h-44v-167h-152zM216 276h43q89 0 89 72q0 68 -85 68h-47v-140z" />
    <glyph glyph-name="q.sc" horiz-adv-x="658" 
d="M501 -151q-75 0 -133.5 32.5t-121.5 120.5q-99 21 -154.5 93.5t-55.5 167.5q0 112 78 192.5t215 80.5q139 0 216.5 -78t77.5 -193q0 -94 -51.5 -166t-149.5 -97q35 -45 85 -45q39 0 65 21l46 -97q-47 -32 -117 -32zM329 109q69 0 101.5 42.5t32.5 111.5q0 68 -32.5 110.5
t-99.5 42.5t-100.5 -42.5t-33.5 -108.5q0 -68 33 -112t99 -44z" />
    <glyph glyph-name="r.sc" horiz-adv-x="548" 
d="M66 0v526h207q106 0 163.5 -40.5t57.5 -119.5q0 -61 -33 -95.5t-82 -47.5v-1q37 -24 72 -85l85 -137h-161l-92 150q-19 29 -30.5 37.5t-27.5 8.5h-7v-196h-152zM218 296h52q73 0 73 60t-79 60h-46v-120z" />
    <glyph glyph-name="s.sc" horiz-adv-x="448" 
d="M204 -9q-110 0 -178 47l57 106q56 -36 112 -36q73 0 73 37q0 10 -5 18t-17.5 14.5t-24.5 11.5t-34 13.5t-39 16.5q-56 26 -84 62t-28 96q0 75 55 117t137 42q101 0 169 -42l-54 -105q-49 30 -105 30q-59 0 -59 -36q0 -9 3.5 -16t14.5 -13.5t19.5 -10t30.5 -12t35 -13.5
q62 -26 97 -63t35 -96q0 -80 -55 -124t-155 -44z" />
    <glyph glyph-name="t.sc" horiz-adv-x="490" 
d="M168 0v405h-153v121h460v-121h-154v-405h-153z" />
    <glyph glyph-name="u.sc" horiz-adv-x="612" 
d="M312 -9q-250 0 -250 230v305h152v-294q0 -66 22.5 -93t78.5 -27q51 0 73 27.5t22 88.5v298h140v-289q0 -120 -61 -183t-177 -63z" />
    <glyph glyph-name="v.sc" horiz-adv-x="587" 
d="M225 0l-213 526h166l99 -280l26 -85h2q11 44 24 85l95 280h150l-205 -526h-144z" />
    <glyph glyph-name="w.sc" horiz-adv-x="786" 
d="M163 0l-149 526h161l55 -220q22 -86 22 -100h2q0 9 23 107l53 213h144l52 -213q22 -94 22 -107h2q0 16 24 102l56 218h142l-150 -526h-140l-62 248l-22 98h-2q-10 -55 -23 -98l-70 -248h-140z" />
    <glyph glyph-name="x.sc" horiz-adv-x="549" 
d="M17 0l175 269l-166 257h171l87 -142l78 142h151l-159 -255l175 -271h-168l-100 160l-93 -160h-151z" />
    <glyph glyph-name="y.sc" horiz-adv-x="525" 
d="M189 0v198l-181 328h168l96 -196h2l94 196h149l-174 -328v-198h-154z" />
    <glyph glyph-name="z.sc" horiz-adv-x="492" 
d="M41 0v95l225 312h-218v119h402v-95l-226 -312h233v-119h-416z" />
    <glyph glyph-name="exclamdown.sc" horiz-adv-x="277" 
d="M138 372q-37 0 -61 24t-24 57q0 34 24 58t61 24q38 0 63 -24t25 -58q0 -33 -25 -57t-63 -24zM56 0l24 330h117l24 -330h-165z" />
    <glyph glyph-name="mu.sc" horiz-adv-x="759" 
d="M36 0l76 526h148l93 -298q22 -70 22 -85h2q0 15 24 85l99 298h148l74 -526h-154l-27 222q-8 70 -8 80h-2q0 -4 -20 -77l-69 -225h-145l-67 225q-20 68 -20 77h-2q0 -29 -7 -79l-31 -223h-134z" />
    <glyph glyph-name="questiondown.sc" horiz-adv-x="364" 
d="M201 -10q-89 0 -134.5 38.5t-45.5 99.5q0 62 61 110q8 6 25 17t24.5 17t14.5 18t7 27v13h121v-28q0 -61 -53 -98q-44 -29 -44 -58q0 -41 57 -41q42 0 72 19l48 -100q-60 -34 -153 -34zM213 373q-37 0 -61 23.5t-24 56.5q0 34 24 58.5t61 24.5q38 0 62.5 -24.5t24.5 -58.5
q0 -33 -24.5 -56.5t-62.5 -23.5z" />
    <glyph glyph-name="germandbls.sc" horiz-adv-x="893" 
d="M204 -9q-110 0 -178 47l57 106q56 -36 112 -36q73 0 73 37q0 11 -5 18.5t-17.5 14.5t-24.5 11.5t-34 13t-39 16.5q-56 26 -84 62t-28 96q0 75 55 117t137 42q101 0 169 -42l-54 -105q-49 30 -105 30q-59 0 -59 -36q0 -9 3.5 -16t14.5 -13.5t19.5 -10t30.5 -12t35 -13.5
q62 -26 97 -63t35 -96q0 -80 -55 -124t-155 -44zM649 -9q-113 0 -178 47l57 106q56 -36 112 -36q73 0 73 37q0 11 -5 18.5t-17.5 14.5t-24.5 11.5t-34 13t-39 16.5q-56 26 -84 62t-28 96q0 75 54.5 117t137.5 42q101 0 169 -42l-54 -105q-49 30 -105 30q-59 0 -59 -36
q0 -9 3.5 -16t14.5 -13.5t19.5 -10t30.5 -12t35 -13.5q62 -26 97 -63t35 -96q0 -80 -55 -124t-155 -44z" />
    <glyph glyph-name="agrave.sc" horiz-adv-x="603" 
d="M229 190h129l-34 95q-30 83 -30 94h-2q0 -11 -29 -94zM13 0l212 526h145l219 -526h-163l-30 82h-203l-29 -82h-151zM248 572l-142 138h192l80 -138h-130z" />
    <glyph glyph-name="aacute.sc" horiz-adv-x="603" 
d="M224 572l80 138h192l-142 -138h-130zM229 190h129l-34 95q-30 83 -30 94h-2q0 -11 -29 -94zM13 0l212 526h145l219 -526h-163l-30 82h-203l-29 -82h-151z" />
    <glyph glyph-name="acircumflex.sc" horiz-adv-x="603" 
d="M114 573l129 162h116l127 -162h-127l-59 60l-59 -60h-127zM229 190h129l-34 95q-30 83 -30 94h-2q0 -11 -29 -94zM13 0l212 526h145l219 -526h-163l-30 82h-203l-29 -82h-151z" />
    <glyph glyph-name="atilde.sc" horiz-adv-x="603" 
d="M229 190h129l-34 95q-30 83 -30 94h-2q0 -11 -29 -94zM13 0l212 526h145l219 -526h-163l-30 82h-203l-29 -82h-151zM362 578q-34 0 -69 17t-53 17q-25 0 -55 -30l-68 58q17 32 48.5 56.5t70.5 24.5q35 0 69.5 -17t52.5 -17q29 0 57 31l68 -59q-18 -32 -50 -56.5
t-71 -24.5z" />
    <glyph glyph-name="adieresis.sc" horiz-adv-x="603" 
d="M191 574q-35 0 -57.5 22.5t-22.5 55.5q0 32 22.5 54.5t57.5 22.5t58 -23t23 -54q0 -33 -23 -55.5t-58 -22.5zM409 574q-35 0 -58 22.5t-23 55.5q0 31 23 54t58 23t57.5 -22.5t22.5 -54.5q0 -33 -22.5 -55.5t-57.5 -22.5zM229 190h129l-34 95q-30 83 -30 94h-2
q0 -11 -29 -94zM13 0l212 526h145l219 -526h-163l-30 82h-203l-29 -82h-151z" />
    <glyph glyph-name="aring.sc" horiz-adv-x="603" 
d="M300 569q-46 0 -80 31.5t-34 77.5q0 47 34 78.5t80 31.5t80 -31.5t34 -78.5q0 -46 -34 -77.5t-80 -31.5zM300 629q20 0 32.5 14.5t12.5 34.5q0 21 -12.5 35t-32.5 14t-32.5 -14t-12.5 -35q0 -20 12.5 -34.5t32.5 -14.5zM229 190h129l-34 95q-30 83 -30 94h-2
q0 -11 -29 -94zM13 0l212 526h145l219 -526h-163l-30 82h-203l-29 -82h-151z" />
    <glyph glyph-name="ae.sc" horiz-adv-x="744" 
d="M-20 0l313 526h402v-119h-200v-86h178v-107h-178v-95h206v-119h-354v84h-156l-47 -84h-164zM250 193h97v176z" />
    <glyph glyph-name="ccedilla.sc" horiz-adv-x="526" 
d="M268 -233q-56 0 -88 16l19 65q22 -11 51 -11q47 0 47 33q0 42 -71 36l33 90q-109 18 -166 92t-57 175q0 116 76.5 194.5t217.5 78.5q105 0 168 -45l-63 -109q-48 30 -105 30q-62 0 -97 -39t-35 -105q0 -71 34 -112t98 -41q65 0 116 37l57 -109q-65 -47 -161 -51l-16 -44
q33 -7 52.5 -29t19.5 -56q0 -42 -36 -69t-94 -27z" />
    <glyph glyph-name="egrave.sc" horiz-adv-x="478" 
d="M192 572l-142 138h192l80 -138h-130zM66 0v526h355v-117h-206v-88h184v-107h-184v-96h212v-118h-361z" />
    <glyph glyph-name="eacute.sc" horiz-adv-x="478" 
d="M168 572l80 138h192l-142 -138h-130zM66 0v526h355v-117h-206v-88h184v-107h-184v-96h212v-118h-361z" />
    <glyph glyph-name="ecircumflex.sc" horiz-adv-x="478" 
d="M59 573l129 162h116l127 -162h-127l-59 60l-59 -60h-127zM66 0v526h355v-117h-206v-88h184v-107h-184v-96h212v-118h-361z" />
    <glyph glyph-name="edieresis.sc" horiz-adv-x="478" 
d="M136 574q-35 0 -57.5 22.5t-22.5 55.5q0 32 23 54.5t57 22.5q35 0 58 -23t23 -54q0 -33 -23 -55.5t-58 -22.5zM354 574q-35 0 -58 22.5t-23 55.5q0 31 23 54t58 23q34 0 57 -22.5t23 -54.5q0 -33 -22.5 -55.5t-57.5 -22.5zM66 0v526h355v-117h-206v-88h184v-107h-184v-96
h212v-118h-361z" />
    <glyph glyph-name="igrave.sc" horiz-adv-x="294" 
d="M71 0v526h152v-526h-152zM94 572l-142 138h192l80 -138h-130z" />
    <glyph glyph-name="iacute.sc" horiz-adv-x="294" 
d="M71 572l80 138h192l-142 -138h-130zM71 0v526h152v-526h-152z" />
    <glyph glyph-name="icircumflex.sc" horiz-adv-x="294" 
d="M-39 573l129 162h116l127 -162h-127l-59 60l-59 -60h-127zM71 0v526h152v-526h-152z" />
    <glyph glyph-name="idieresis.sc" horiz-adv-x="294" 
d="M38 574q-35 0 -57.5 22.5t-22.5 55.5q0 32 23 54.5t57 22.5q35 0 58 -23t23 -54q0 -33 -23 -55.5t-58 -22.5zM256 574q-35 0 -58 22.5t-23 55.5q0 31 23 54t58 23q34 0 57 -22.5t23 -54.5q0 -33 -22.5 -55.5t-57.5 -22.5zM71 0v526h152v-526h-152z" />
    <glyph glyph-name="eth.sc" horiz-adv-x="611" 
d="M66 0v207h-51v106h51v213h193q157 0 236.5 -68.5t79.5 -187.5q0 -120 -82 -195t-239 -75h-188zM218 119h48q149 0 149 147q0 74 -37 108t-117 34h-43v-95h96v-106h-96v-88z" />
    <glyph glyph-name="ntilde.sc" horiz-adv-x="633" 
d="M66 0v526h152l154 -213q17 -24 32.5 -48t22.5 -36t7 -13h2l-1 14q-1 15 -2 37t-1 40v219h135v-526h-137l-170 235q-16 22 -60 88h-2v-5q1 -4 1.5 -12t0.5 -18t0.5 -22.5t0.5 -23.5v-242h-135zM378 578q-34 0 -69 17t-53 17q-25 0 -55 -30l-68 58q17 32 48.5 56.5
t70.5 24.5q35 0 69.5 -17t52.5 -17q29 0 57 31l68 -59q-18 -32 -50 -56.5t-71 -24.5z" />
    <glyph glyph-name="ograve.sc" horiz-adv-x="658" 
d="M331 -9q-139 0 -217 78.5t-78 193.5q0 112 78 192.5t215 80.5q139 0 216.5 -78t77.5 -193q0 -116 -76 -195t-216 -79zM329 111q68 0 100.5 42.5t32.5 109.5q0 68 -32 110.5t-99 42.5t-100 -42t-33 -109t33 -110.5t98 -43.5zM276 572l-142 138h192l80 -138h-130z" />
    <glyph glyph-name="oacute.sc" horiz-adv-x="658" 
d="M253 572l80 138h192l-142 -138h-130zM331 -9q-139 0 -217 78.5t-78 193.5q0 112 78 192.5t215 80.5q139 0 216.5 -78t77.5 -193q0 -116 -76 -195t-216 -79zM329 111q68 0 100.5 42.5t32.5 109.5q0 68 -32 110.5t-99 42.5t-100 -42t-33 -109t33 -110.5t98 -43.5z" />
    <glyph glyph-name="ocircumflex.sc" horiz-adv-x="658" 
d="M143 573l129 162h116l127 -162h-127l-59 60l-59 -60h-127zM331 -9q-139 0 -217 78.5t-78 193.5q0 112 78 192.5t215 80.5q139 0 216.5 -78t77.5 -193q0 -116 -76 -195t-216 -79zM329 111q68 0 100.5 42.5t32.5 109.5q0 68 -32 110.5t-99 42.5t-100 -42t-33 -109
t33 -110.5t98 -43.5z" />
    <glyph glyph-name="otilde.sc" horiz-adv-x="658" 
d="M331 -9q-139 0 -217 78.5t-78 193.5q0 112 78 192.5t215 80.5q139 0 216.5 -78t77.5 -193q0 -116 -76 -195t-216 -79zM329 111q68 0 100.5 42.5t32.5 109.5q0 68 -32 110.5t-99 42.5t-100 -42t-33 -109t33 -110.5t98 -43.5zM391 578q-34 0 -69 17t-53 17q-25 0 -55 -30
l-68 58q17 32 48.5 56.5t70.5 24.5q35 0 69.5 -17t52.5 -17q29 0 57 31l68 -59q-18 -32 -50 -56.5t-71 -24.5z" />
    <glyph glyph-name="odieresis.sc" horiz-adv-x="658" 
d="M220 574q-35 0 -57.5 22.5t-22.5 55.5q0 32 23 54.5t57 22.5q35 0 58 -23t23 -54q0 -33 -23 -55.5t-58 -22.5zM438 574q-35 0 -58 22.5t-23 55.5q0 31 23 54t58 23q34 0 57 -22.5t23 -54.5q0 -33 -22.5 -55.5t-57.5 -22.5zM331 -9q-139 0 -217 78.5t-78 193.5
q0 112 78 192.5t215 80.5q139 0 216.5 -78t77.5 -193q0 -116 -76 -195t-216 -79zM329 111q68 0 100.5 42.5t32.5 109.5q0 68 -32 110.5t-99 42.5t-100 -42t-33 -109t33 -110.5t98 -43.5z" />
    <glyph glyph-name="oslash.sc" horiz-adv-x="658" 
d="M149 -64l-93 63l56 72q-76 75 -76 192q0 112 78 192.5t215 80.5q68 0 126 -22l55 72l92 -64l-53 -68q74 -76 74 -189q0 -116 -76 -195t-216 -79q-67 0 -127 21zM329 111q68 0 100.5 42.5t32.5 109.5q0 40 -12 73l-169 -218q20 -7 48 -7zM198 265q0 -40 12 -73l168 217
q-24 7 -47 7q-67 0 -100 -42t-33 -109z" />
    <glyph glyph-name="ugrave.sc" horiz-adv-x="612" 
d="M254 572l-142 138h192l80 -138h-130zM312 -9q-250 0 -250 230v305h152v-294q0 -66 22.5 -93t78.5 -27q51 0 73 27.5t22 88.5v298h140v-289q0 -120 -61 -183t-177 -63z" />
    <glyph glyph-name="uacute.sc" horiz-adv-x="612" 
d="M230 572l80 138h192l-142 -138h-130zM312 -9q-250 0 -250 230v305h152v-294q0 -66 22.5 -93t78.5 -27q51 0 73 27.5t22 88.5v298h140v-289q0 -120 -61 -183t-177 -63z" />
    <glyph glyph-name="ucircumflex.sc" horiz-adv-x="612" 
d="M120 573l129 162h116l127 -162h-127l-59 60l-59 -60h-127zM312 -9q-250 0 -250 230v305h152v-294q0 -66 22.5 -93t78.5 -27q51 0 73 27.5t22 88.5v298h140v-289q0 -120 -61 -183t-177 -63z" />
    <glyph glyph-name="udieresis.sc" horiz-adv-x="612" 
d="M197 574q-35 0 -57.5 22.5t-22.5 55.5q0 32 22.5 54.5t57.5 22.5t58 -23t23 -54q0 -33 -23 -55.5t-58 -22.5zM415 574q-35 0 -58 22.5t-23 55.5q0 31 23 54t58 23t57.5 -22.5t22.5 -54.5q0 -33 -22.5 -55.5t-57.5 -22.5zM312 -9q-250 0 -250 230v305h152v-294
q0 -66 22.5 -93t78.5 -27q51 0 73 27.5t22 88.5v298h140v-289q0 -120 -61 -183t-177 -63z" />
    <glyph glyph-name="yacute.sc" horiz-adv-x="525" 
d="M190 572l80 138h192l-142 -138h-130zM189 0v198l-181 328h168l96 -196h2l94 196h149l-174 -328v-198h-154z" />
    <glyph glyph-name="thorn.sc" horiz-adv-x="528" 
d="M64 0v526h152v-74h62q101 0 161.5 -44.5t60.5 -132.5q0 -91 -62.5 -136.5t-174.5 -45.5h-47v-93h-152zM216 202h46q89 0 89 72q0 68 -85 68h-50v-140z" />
    <glyph glyph-name="ydieresis.sc" horiz-adv-x="525" 
d="M157 574q-35 0 -57.5 22.5t-22.5 55.5q0 32 22.5 54.5t57.5 22.5t58 -23t23 -54q0 -33 -23 -55.5t-58 -22.5zM375 574q-35 0 -58 22.5t-23 55.5q0 31 23 54t58 23t57.5 -22.5t22.5 -54.5q0 -33 -22.5 -55.5t-57.5 -22.5zM189 0v198l-181 328h168l96 -196h2l94 196h149
l-174 -328v-198h-154z" />
    <glyph glyph-name="amacron.sc" horiz-adv-x="603" 
d="M229 190h129l-34 95q-30 83 -30 94h-2q0 -11 -29 -94zM13 0l212 526h145l219 -526h-163l-30 82h-203l-29 -82h-151zM158 589v106h285v-106h-285z" />
    <glyph glyph-name="abreve.sc" horiz-adv-x="603" 
d="M229 190h129l-34 95q-30 83 -30 94h-2q0 -11 -29 -94zM13 0l212 526h145l219 -526h-163l-30 82h-203l-29 -82h-151zM301 559q-70 0 -120 39t-57 115h123q5 -59 54 -59q48 0 54 59h122q-6 -76 -56 -115t-120 -39z" />
    <glyph glyph-name="aogonek.sc" horiz-adv-x="603" 
d="M480 -233q-57 0 -92 26.5t-35 74.5q0 71 73 132l-30 82h-203l-29 -82h-151l212 526h145l219 -526h-13q-51 -1 -85.5 -35t-34.5 -77q0 -44 48 -44q18 0 40 9l18 -68q-34 -18 -82 -18zM229 190h129l-34 95q-30 83 -30 94h-2q0 -11 -29 -94z" />
    <glyph glyph-name="cacute.sc" horiz-adv-x="526" 
d="M234 572l80 138h192l-142 -138h-130zM324 -9q-140 0 -214 78t-74 194t76.5 194.5t217.5 78.5q105 0 168 -45l-63 -109q-48 30 -105 30q-62 0 -97 -39t-35 -105q0 -71 34 -112t98 -41q65 0 116 37l57 -109q-72 -52 -179 -52z" />
    <glyph glyph-name="ccircumflex.sc" horiz-adv-x="526" 
d="M124 573l129 162h116l127 -162h-127l-59 60l-59 -60h-127zM324 -9q-140 0 -214 78t-74 194t76.5 194.5t217.5 78.5q105 0 168 -45l-63 -109q-48 30 -105 30q-62 0 -97 -39t-35 -105q0 -71 34 -112t98 -41q65 0 116 37l57 -109q-72 -52 -179 -52z" />
    <glyph glyph-name="cdotaccent.sc" horiz-adv-x="526" 
d="M324 -9q-140 0 -214 78t-74 194t76.5 194.5t217.5 78.5q105 0 168 -45l-63 -109q-48 30 -105 30q-62 0 -97 -39t-35 -105q0 -71 34 -112t98 -41q65 0 116 37l57 -109q-72 -52 -179 -52zM310 583q-35 0 -58 22.5t-23 54.5t23 54.5t58 22.5t58 -22.5t23 -54.5t-23 -54.5
t-58 -22.5z" />
    <glyph glyph-name="ccaron.sc" horiz-adv-x="526" 
d="M251 572l-127 161h127l59 -59l59 59h127l-129 -161h-116zM324 -9q-140 0 -214 78t-74 194t76.5 194.5t217.5 78.5q105 0 168 -45l-63 -109q-48 30 -105 30q-62 0 -97 -39t-35 -105q0 -71 34 -112t98 -41q65 0 116 37l57 -109q-72 -52 -179 -52z" />
    <glyph glyph-name="dcaron.sc" horiz-adv-x="611" 
d="M232 572l-127 161h127l59 -59l59 59h127l-129 -161h-116zM66 0v526h193q157 0 236.5 -68.5t79.5 -187.5q0 -120 -82 -195t-239 -75h-188zM218 119h48q149 0 149 147q0 74 -37 108t-117 34h-43v-289z" />
    <glyph glyph-name="dcroat.sc" horiz-adv-x="611" 
d="M66 0v207h-51v106h51v213h193q157 0 236.5 -68.5t79.5 -187.5q0 -120 -82 -195t-239 -75h-188zM218 119h48q149 0 149 147q0 74 -37 108t-117 34h-43v-95h96v-106h-96v-88z" />
    <glyph glyph-name="emacron.sc" horiz-adv-x="478" 
d="M103 589v106h285v-106h-285zM66 0v526h355v-117h-206v-88h184v-107h-184v-96h212v-118h-361z" />
    <glyph glyph-name="ebreve.sc" horiz-adv-x="478" 
d="M245 559q-70 0 -120 39t-57 115h123q5 -59 54 -59q48 0 54 59h122q-6 -76 -56 -115t-120 -39zM66 0v526h355v-117h-206v-88h184v-107h-184v-96h212v-118h-361z" />
    <glyph glyph-name="edotaccent.sc" horiz-adv-x="478" 
d="M245 583q-35 0 -58 22.5t-23 54.5t23 54.5t58 22.5t58 -22.5t23 -54.5t-23 -54.5t-58 -22.5zM66 0v526h355v-117h-206v-88h184v-107h-184v-96h212v-118h-361z" />
    <glyph glyph-name="eogonek.sc" horiz-adv-x="478" 
d="M337 -233q-57 0 -92 26.5t-35 74.5q0 42 26.5 80t61.5 52h-232v526h355v-117h-206v-88h184v-107h-184v-96h212v-118h-1q-48 0 -80.5 -34.5t-32.5 -77.5q0 -44 48 -44q18 0 40 9l18 -68q-34 -18 -82 -18z" />
    <glyph glyph-name="ecaron.sc" horiz-adv-x="478" 
d="M186 572l-127 161h127l59 -59l59 59h127l-129 -161h-116zM66 0v526h355v-117h-206v-88h184v-107h-184v-96h212v-118h-361z" />
    <glyph glyph-name="gcircumflex.sc" horiz-adv-x="600" 
d="M138 573l129 162h116l127 -162h-127l-59 60l-59 -60h-127zM338 -9q-143 0 -222.5 78.5t-79.5 193.5q0 114 85 193.5t231 79.5q111 0 184 -45l-63 -112q-55 32 -124 32q-74 0 -113 -37.5t-39 -108.5q0 -73 36 -114t107 -41q40 0 67 11v76h-87v106h232v-264
q-86 -48 -214 -48z" />
    <glyph glyph-name="gbreve.sc" horiz-adv-x="600" 
d="M338 -9q-143 0 -222.5 78.5t-79.5 193.5q0 114 85 193.5t231 79.5q111 0 184 -45l-63 -112q-55 32 -124 32q-74 0 -113 -37.5t-39 -108.5q0 -73 36 -114t107 -41q40 0 67 11v76h-87v106h232v-264q-86 -48 -214 -48zM324 559q-70 0 -120 39t-57 115h123q5 -59 54 -59
q48 0 54 59h122q-6 -76 -56 -115t-120 -39z" />
    <glyph glyph-name="gdotaccent.sc" horiz-adv-x="600" 
d="M338 -9q-143 0 -222.5 78.5t-79.5 193.5q0 114 85 193.5t231 79.5q111 0 184 -45l-63 -112q-55 32 -124 32q-74 0 -113 -37.5t-39 -108.5q0 -73 36 -114t107 -41q40 0 67 11v76h-87v106h232v-264q-86 -48 -214 -48zM324 583q-35 0 -58 22.5t-23 54.5t23 54.5t58 22.5
t58 -22.5t23 -54.5t-23 -54.5t-58 -22.5z" />
    <glyph glyph-name="gcommaaccent.sc" horiz-adv-x="600" 
d="M260 -230q28 23 28 50q0 17 -21.5 38.5t-21.5 45.5t20.5 40.5t49.5 16.5q33 0 56.5 -20t23.5 -53q0 -66 -61 -118h-74zM338 -9q-143 0 -222.5 78.5t-79.5 193.5q0 114 85 193.5t231 79.5q111 0 184 -45l-63 -112q-55 32 -124 32q-74 0 -113 -37.5t-39 -108.5
q0 -73 36 -114t107 -41q40 0 67 11v76h-87v106h232v-264q-86 -48 -214 -48z" />
    <glyph glyph-name="hcircumflex.sc" horiz-adv-x="638" 
d="M132 573l129 162h116l127 -162h-127l-59 60l-59 -60h-127zM66 0v526h152v-194h203v194h151v-526h-151v209h-203v-209h-152z" />
    <glyph glyph-name="hbar.sc" horiz-adv-x="653" 
d="M23 349v106h51v71h152v-71h202v71h152v-71h50v-106h-50v-349h-152v172h-202v-172h-152v349h-51zM226 295h202v54h-202v-54z" />
    <glyph glyph-name="itilde.sc" horiz-adv-x="294" 
d="M71 0v526h152v-526h-152zM209 578q-34 0 -69 17t-53 17q-25 0 -55 -30l-68 58q17 32 48.5 56.5t70.5 24.5q35 0 69.5 -17t52.5 -17q29 0 57 31l68 -59q-18 -32 -50 -56.5t-71 -24.5z" />
    <glyph glyph-name="imacron.sc" horiz-adv-x="294" 
d="M71 0v526h152v-526h-152zM5 589v106h285v-106h-285z" />
    <glyph glyph-name="ibreve.sc" horiz-adv-x="294" 
d="M71 0v526h152v-526h-152zM147 559q-70 0 -120 39t-57 115h123q5 -59 54 -59q48 0 54 59h122q-6 -76 -56 -115t-120 -39z" />
    <glyph glyph-name="iogonek.sc" horiz-adv-x="294" 
d="M145 -233q-57 0 -92 26.5t-35 74.5q0 41 25.5 78.5t59.5 53.5h-32v526h152v-526h-2q-40 0 -70 -35.5t-30 -76.5q0 -44 48 -44q18 0 40 9l18 -68q-34 -18 -82 -18z" />
    <glyph glyph-name="dotlessi.sc" horiz-adv-x="294" 
d="M71 0v526h152v-526h-152z" />
    <glyph glyph-name="ij.sc" horiz-adv-x="605" 
d="M71 0v526h152v-526h-152zM357 -178q-56 0 -103 17l23 117q27 -9 44 -9q34 0 48.5 15t14.5 52v512h154v-528q0 -86 -49 -131t-132 -45z" />
    <glyph glyph-name="jcircumflex.sc" horiz-adv-x="311" 
d="M-19 573l129 162h116l127 -162h-127l-59 60l-59 -60h-127zM64 -178q-56 0 -103 17l23 117q27 -9 44 -9q34 0 48.5 15t14.5 52v512h154v-528q0 -86 -49 -131t-132 -45z" />
    <glyph glyph-name="kcommaaccent.sc" horiz-adv-x="563" 
d="M229 -230q28 23 28 50q0 17 -21.5 38.5t-21.5 45.5t20.5 40.5t49.5 16.5q33 0 56.5 -20t23.5 -53q0 -66 -61 -118h-74zM66 0v526h152v-220l168 220h162l-185 -242l187 -284h-167l-165 249v-249h-152z" />
    <glyph glyph-name="lacute.sc" horiz-adv-x="460" 
d="M69 0v526h152v-407h207v-119h-359zM70 572l80 138h192l-142 -138h-130z" />
    <glyph glyph-name="lcommaaccent.sc" horiz-adv-x="460" 
d="M178 -230q28 23 28 50q0 17 -21.5 38.5t-21.5 45.5t20.5 40.5t49.5 16.5q33 0 56.5 -20t23.5 -53q0 -66 -61 -118h-74zM69 0v526h152v-407h207v-119h-359z" />
    <glyph glyph-name="lcaron.sc" horiz-adv-x="472" 
d="M274 365l35 191h151l-82 -191h-104zM69 0v526h152v-407h207v-119h-359z" />
    <glyph glyph-name="ldot.sc" horiz-adv-x="460" 
d="M69 0v526h152v-407h207v-119h-359zM349 257q-35 0 -58 22.5t-23 54.5t23 54.5t58 22.5t58 -22.5t23 -54.5t-23 -54.5t-58 -22.5z" />
    <glyph glyph-name="lslash.sc" horiz-adv-x="471" 
d="M80 0v160l-40 -26l-51 81l91 60v251h152v-153l80 54l52 -81l-132 -88v-139h207v-119h-359z" />
    <glyph glyph-name="nacute.sc" horiz-adv-x="633" 
d="M240 572l80 138h192l-142 -138h-130zM66 0v526h152l154 -213q17 -24 32.5 -48t22.5 -36t7 -13h2l-1 14q-1 15 -2 37t-1 40v219h135v-526h-137l-170 235q-16 22 -60 88h-2v-5q1 -4 1.5 -12t0.5 -18t0.5 -22.5t0.5 -23.5v-242h-135z" />
    <glyph glyph-name="ncommaaccent.sc" horiz-adv-x="633" 
d="M255 -230q28 23 28 50q0 17 -21.5 38.5t-21.5 45.5t20.5 40.5t49.5 16.5q33 0 56.5 -20t23.5 -53q0 -66 -61 -118h-74zM66 0v526h152l154 -213q17 -24 32.5 -48t22.5 -36t7 -13h2l-1 14q-1 15 -2 37t-1 40v219h135v-526h-137l-170 235q-16 22 -60 88h-2v-5q1 -4 1.5 -12
t0.5 -18t0.5 -22.5t0.5 -23.5v-242h-135z" />
    <glyph glyph-name="ncaron.sc" horiz-adv-x="633" 
d="M257 572l-127 161h127l59 -59l59 59h127l-129 -161h-116zM66 0v526h152l154 -213q17 -24 32.5 -48t22.5 -36t7 -13h2l-1 14q-1 15 -2 37t-1 40v219h135v-526h-137l-170 235q-16 22 -60 88h-2v-5q1 -4 1.5 -12t0.5 -18t0.5 -22.5t0.5 -23.5v-242h-135z" />
    <glyph glyph-name="omacron.sc" horiz-adv-x="658" 
d="M331 -9q-139 0 -217 78.5t-78 193.5q0 112 78 192.5t215 80.5q139 0 216.5 -78t77.5 -193q0 -116 -76 -195t-216 -79zM329 111q68 0 100.5 42.5t32.5 109.5q0 68 -32 110.5t-99 42.5t-100 -42t-33 -109t33 -110.5t98 -43.5zM187 589v106h285v-106h-285z" />
    <glyph glyph-name="obreve.sc" horiz-adv-x="658" 
d="M331 -9q-139 0 -217 78.5t-78 193.5q0 112 78 192.5t215 80.5q139 0 216.5 -78t77.5 -193q0 -116 -76 -195t-216 -79zM329 111q68 0 100.5 42.5t32.5 109.5q0 68 -32 110.5t-99 42.5t-100 -42t-33 -109t33 -110.5t98 -43.5zM329 559q-70 0 -120 39t-57 115h123
q5 -59 54 -59q48 0 54 59h122q-6 -76 -56 -115t-120 -39z" />
    <glyph glyph-name="ohungarumlaut.sc" horiz-adv-x="658" 
d="M331 -9q-139 0 -217 78.5t-78 193.5q0 112 78 192.5t215 80.5q139 0 216.5 -78t77.5 -193q0 -116 -76 -195t-216 -79zM329 111q68 0 100.5 42.5t32.5 109.5q0 68 -32 110.5t-99 42.5t-100 -42t-33 -109t33 -110.5t98 -43.5zM145 572l91 138h171l-142 -138h-120zM359 572
l92 138h170l-142 -138h-120z" />
    <glyph glyph-name="oe.sc" horiz-adv-x="808" 
d="M332 -9q-140 0 -218.5 78.5t-78.5 193.5q0 112 78 192.5t216 80.5q48 0 90 -10h333v-119h-200v-86h177v-107h-177v-95h206v-119h-341q-41 -9 -85 -9zM330 111q44 0 76 16v271q-29 18 -74 18q-68 0 -101.5 -42.5t-33.5 -108.5q0 -67 33.5 -110.5t99.5 -43.5z" />
    <glyph glyph-name="racute.sc" horiz-adv-x="548" 
d="M196 572l80 138h192l-142 -138h-130zM66 0v526h207q106 0 163.5 -40.5t57.5 -119.5q0 -61 -33 -95.5t-82 -47.5v-1q37 -24 72 -85l85 -137h-161l-92 150q-19 29 -30.5 37.5t-27.5 8.5h-7v-196h-152zM218 296h52q73 0 73 60t-79 60h-46v-120z" />
    <glyph glyph-name="rcommaaccent.sc" horiz-adv-x="548" 
d="M226 -230q28 23 28 50q0 17 -21.5 38.5t-21.5 45.5t20.5 40.5t49.5 16.5q33 0 56.5 -20t23.5 -53q0 -66 -61 -118h-74zM66 0v526h207q106 0 163.5 -40.5t57.5 -119.5q0 -61 -33 -95.5t-82 -47.5v-1q37 -24 72 -85l85 -137h-161l-92 150q-19 29 -30.5 37.5t-27.5 8.5h-7
v-196h-152zM218 296h52q73 0 73 60t-79 60h-46v-120z" />
    <glyph glyph-name="rcaron.sc" horiz-adv-x="548" 
d="M213 572l-127 161h127l59 -59l59 59h127l-129 -161h-116zM66 0v526h207q106 0 163.5 -40.5t57.5 -119.5q0 -61 -33 -95.5t-82 -47.5v-1q37 -24 72 -85l85 -137h-161l-92 150q-19 29 -30.5 37.5t-27.5 8.5h-7v-196h-152zM218 296h52q73 0 73 60t-79 60h-46v-120z" />
    <glyph glyph-name="sacute.sc" horiz-adv-x="448" 
d="M151 572l80 138h192l-142 -138h-130zM204 -9q-110 0 -178 47l57 106q56 -36 112 -36q73 0 73 37q0 10 -5 18t-17.5 14.5t-24.5 11.5t-34 13.5t-39 16.5q-56 26 -84 62t-28 96q0 75 55 117t137 42q101 0 169 -42l-54 -105q-49 30 -105 30q-59 0 -59 -36q0 -9 3.5 -16
t14.5 -13.5t19.5 -10t30.5 -12t35 -13.5q62 -26 97 -63t35 -96q0 -80 -55 -124t-155 -44z" />
    <glyph glyph-name="scircumflex.sc" horiz-adv-x="448" 
d="M42 573l129 162h116l127 -162h-127l-59 60l-59 -60h-127zM204 -9q-110 0 -178 47l57 106q56 -36 112 -36q73 0 73 37q0 10 -5 18t-17.5 14.5t-24.5 11.5t-34 13.5t-39 16.5q-56 26 -84 62t-28 96q0 75 55 117t137 42q101 0 169 -42l-54 -105q-49 30 -105 30
q-59 0 -59 -36q0 -9 3.5 -16t14.5 -13.5t19.5 -10t30.5 -12t35 -13.5q62 -26 97 -63t35 -96q0 -80 -55 -124t-155 -44z" />
    <glyph glyph-name="scedilla.sc" horiz-adv-x="448" 
d="M189 -233q-56 0 -88 16l19 65q22 -11 51 -11q47 0 47 33q0 42 -71 36l31 86q-98 6 -152 46l57 106q56 -36 112 -36q73 0 73 37q0 10 -5 18t-17.5 14.5t-24.5 11.5t-34 13.5t-39 16.5q-56 26 -84 62t-28 96q0 75 55 117t137 42q101 0 169 -42l-54 -105q-49 30 -105 30
q-59 0 -59 -36q0 -9 3.5 -16t14.5 -13.5t19.5 -10t30.5 -12t35 -13.5q62 -26 97 -63t35 -96q0 -67 -38.5 -109t-110.5 -54l-18 -48q33 -7 52.5 -29t19.5 -56q0 -42 -36 -69t-94 -27z" />
    <glyph glyph-name="scaron.sc" horiz-adv-x="448" 
d="M169 572l-127 161h127l59 -59l59 59h127l-129 -161h-116zM204 -9q-110 0 -178 47l57 106q56 -36 112 -36q73 0 73 37q0 10 -5 18t-17.5 14.5t-24.5 11.5t-34 13.5t-39 16.5q-56 26 -84 62t-28 96q0 75 55 117t137 42q101 0 169 -42l-54 -105q-49 30 -105 30
q-59 0 -59 -36q0 -9 3.5 -16t14.5 -13.5t19.5 -10t30.5 -12t35 -13.5q62 -26 97 -63t35 -96q0 -80 -55 -124t-155 -44z" />
    <glyph glyph-name="tcommaaccent.sc" horiz-adv-x="490" 
d="M185 -230q28 23 28 50q0 17 -21.5 38.5t-21.5 45.5t20.5 40.5t49.5 16.5q33 0 56.5 -20t23.5 -53q0 -66 -61 -118h-74zM168 0v405h-153v121h460v-121h-154v-405h-153z" />
    <glyph glyph-name="tcaron.sc" horiz-adv-x="490" 
d="M185 573l-127 161h127l59 -59l59 59h127l-129 -161h-116zM168 0v405h-153v121h460v-121h-154v-405h-153z" />
    <glyph glyph-name="tbar.sc" horiz-adv-x="490" 
d="M41 193v107h127v105h-153v121h460v-121h-154v-105h127v-107h-127v-193h-153v193h-127z" />
    <glyph glyph-name="utilde.sc" horiz-adv-x="612" 
d="M368 578q-34 0 -69 17t-53 17q-25 0 -55 -30l-68 58q17 32 48.5 56.5t70.5 24.5q35 0 69.5 -17t52.5 -17q29 0 57 31l68 -59q-18 -32 -50 -56.5t-71 -24.5zM312 -9q-250 0 -250 230v305h152v-294q0 -66 22.5 -93t78.5 -27q51 0 73 27.5t22 88.5v298h140v-289
q0 -120 -61 -183t-177 -63z" />
    <glyph glyph-name="umacron.sc" horiz-adv-x="612" 
d="M164 589v106h285v-106h-285zM312 -9q-250 0 -250 230v305h152v-294q0 -66 22.5 -93t78.5 -27q51 0 73 27.5t22 88.5v298h140v-289q0 -120 -61 -183t-177 -63z" />
    <glyph glyph-name="ubreve.sc" horiz-adv-x="612" 
d="M306 559q-70 0 -120 39t-57 115h123q5 -59 54 -59q48 0 54 59h122q-6 -76 -56 -115t-120 -39zM312 -9q-250 0 -250 230v305h152v-294q0 -66 22.5 -93t78.5 -27q51 0 73 27.5t22 88.5v298h140v-289q0 -120 -61 -183t-177 -63z" />
    <glyph glyph-name="uring.sc" horiz-adv-x="612" 
d="M306 569q-46 0 -80 31.5t-34 77.5q0 47 34 78.5t80 31.5t80 -31.5t34 -78.5q0 -46 -34 -77.5t-80 -31.5zM306 629q20 0 32.5 14.5t12.5 34.5q0 21 -12.5 35t-32.5 14t-32.5 -14t-12.5 -35q0 -20 12.5 -34.5t32.5 -14.5zM312 -9q-250 0 -250 230v305h152v-294
q0 -66 22.5 -93t78.5 -27q51 0 73 27.5t22 88.5v298h140v-289q0 -120 -61 -183t-177 -63z" />
    <glyph glyph-name="uhungarumlaut.sc" horiz-adv-x="612" 
d="M122 572l91 138h171l-142 -138h-120zM336 572l92 138h170l-142 -138h-120zM312 -9q-250 0 -250 230v305h152v-294q0 -66 22.5 -93t78.5 -27q51 0 73 27.5t22 88.5v298h140v-289q0 -120 -61 -183t-177 -63z" />
    <glyph glyph-name="uogonek.sc" horiz-adv-x="612" 
d="M413 -233q-57 0 -92 26.5t-35 74.5q0 37 21 71t50 57q-23 -5 -45 -5q-250 0 -250 230v305h152v-294q0 -66 22.5 -93t78.5 -27q51 0 73 27.5t22 88.5v298h140v-289q0 -42 -6.5 -74t-24.5 -63t-30 -47t-44 -53q-56 -67 -56 -112q0 -44 48 -44q18 0 40 9l18 -68
q-34 -18 -82 -18z" />
    <glyph glyph-name="wcircumflex.sc" horiz-adv-x="786" 
d="M206 573l129 162h116l127 -162h-127l-59 60l-59 -60h-127zM163 0l-149 526h161l55 -220q22 -86 22 -100h2q0 9 23 107l53 213h144l52 -213q22 -94 22 -107h2q0 16 24 102l56 218h142l-150 -526h-140l-62 248l-22 98h-2q-10 -55 -23 -98l-70 -248h-140z" />
    <glyph glyph-name="ycircumflex.sc" horiz-adv-x="525" 
d="M80 573l129 162h116l127 -162h-127l-59 60l-59 -60h-127zM189 0v198l-181 328h168l96 -196h2l94 196h149l-174 -328v-198h-154z" />
    <glyph glyph-name="zacute.sc" horiz-adv-x="492" 
d="M172 572l80 138h192l-142 -138h-130zM41 0v95l225 312h-218v119h402v-95l-226 -312h233v-119h-416z" />
    <glyph glyph-name="zdotaccent.sc" horiz-adv-x="492" 
d="M249 583q-35 0 -58 22.5t-23 54.5t23 54.5t58 22.5t58 -22.5t23 -54.5t-23 -54.5t-58 -22.5zM41 0v95l225 312h-218v119h402v-95l-226 -312h233v-119h-416z" />
    <glyph glyph-name="zcaron.sc" horiz-adv-x="492" 
d="M190 572l-127 161h127l59 -59l59 59h127l-129 -161h-116zM41 0v95l225 312h-218v119h402v-95l-226 -312h233v-119h-416z" />
    <glyph glyph-name="scommaaccent.sc" horiz-adv-x="448" 
d="M149 -230q28 23 28 50q0 17 -21.5 38.5t-21.5 45.5t20.5 40.5t49.5 16.5q33 0 56.5 -20t23.5 -53q0 -66 -61 -118h-74zM204 -9q-110 0 -178 47l57 106q56 -36 112 -36q73 0 73 37q0 10 -5 18t-17.5 14.5t-24.5 11.5t-34 13.5t-39 16.5q-56 26 -84 62t-28 96q0 75 55 117
t137 42q101 0 169 -42l-54 -105q-49 30 -105 30q-59 0 -59 -36q0 -9 3.5 -16t14.5 -13.5t19.5 -10t30.5 -12t35 -13.5q62 -26 97 -63t35 -96q0 -80 -55 -124t-155 -44z" />
    <glyph glyph-name="uni021B.sc" horiz-adv-x="490" 
d="M185 -230q28 23 28 50q0 17 -21.5 38.5t-21.5 45.5t20.5 40.5t49.5 16.5q33 0 56.5 -20t23.5 -53q0 -66 -61 -118h-74zM168 0v405h-153v121h460v-121h-154v-405h-153z" />
    <glyph glyph-name="Alphatonos.sc" horiz-adv-x="697" 
d="M258 240h166l-49 137q-6 17 -33 116h-2q-1 -4 -6 -22t-12.5 -44t-15.5 -50zM13 0l254 666h155l262 -666h-176l-39 112h-254l-39 -112h-163z" />
    <glyph glyph-name="Epsilontonos.sc" horiz-adv-x="539" 
d="M78 0v666h398v-132h-238v-129h210v-124h-210v-149h245v-132h-405z" />
    <glyph glyph-name="Etatonos.sc" horiz-adv-x="752" 
d="M78 0v666h162v-255h273v255h160v-666h-160v279h-273v-279h-162z" />
    <glyph glyph-name="Iotatonos.sc" horiz-adv-x="338" 
d="M84 0v666h163v-666h-163z" />
    <glyph glyph-name="Omicrontonos.sc" horiz-adv-x="778" 
d="M393 -12q-164 0 -258.5 101t-94.5 243q0 92 38.5 169.5t119.5 127t191 49.5q164 0 256 -99.5t92 -241.5q0 -69 -22 -131t-63.5 -111t-108.5 -78t-150 -29zM389 117q90 0 134 60.5t44 154.5q0 95 -43 156t-131 61q-90 0 -136 -59.5t-46 -152.5q0 -95 45 -157.5t133 -62.5z
" />
    <glyph glyph-name="Upsilontonos.sc" horiz-adv-x="612" 
d="M229 0v251l-220 415h179l129 -265h1l128 265h157l-212 -415v-251h-162z" />
    <glyph glyph-name="Omegatonos.sc" horiz-adv-x="771" 
d="M38 0v123h122q-43 31 -75 95t-32 145q0 139 96.5 227t235.5 88q140 0 236.5 -88t96.5 -227q0 -80 -32 -144t-75 -96h122v-123h-300v116q67 43 96.5 99.5t29.5 141.5q0 79 -49.5 135.5t-124.5 56.5t-124.5 -57t-49.5 -135q0 -85 29.5 -141t97.5 -100v-116h-300z" />
    <glyph glyph-name="iotadieresistonos.sc" horiz-adv-x="294" 
d="M71 0v526h152v-526h-152zM39 574q-35 0 -57.5 22.5t-22.5 55.5q0 32 22.5 54.5t57.5 22.5t58 -23t23 -54q0 -33 -23 -55.5t-58 -22.5zM257 574q-35 0 -58 22.5t-23 55.5q0 31 23 54t58 23t57.5 -22.5t22.5 -54.5q0 -33 -22.5 -55.5t-57.5 -22.5z" />
    <glyph glyph-name="alphatonos.sc" horiz-adv-x="603" 
d="M229 190h129l-34 95q-30 83 -30 94h-2q0 -11 -29 -94zM13 0l212 526h145l219 -526h-163l-30 82h-203l-29 -82h-151z" />
    <glyph glyph-name="epsilontonos.sc" horiz-adv-x="478" 
d="M66 0v526h355v-117h-206v-88h184v-107h-184v-96h212v-118h-361z" />
    <glyph glyph-name="etatonos.sc" horiz-adv-x="638" 
d="M66 0v526h152v-194h203v194h151v-526h-151v209h-203v-209h-152z" />
    <glyph glyph-name="iotatonos.sc" horiz-adv-x="294" 
d="M71 0v526h152v-526h-152z" />
    <glyph glyph-name="upsilondieresistonos.sc" horiz-adv-x="525" 
d="M189 0v198l-181 328h168l96 -196h2l94 196h149l-174 -328v-198h-154zM164 574q-35 0 -57.5 22.5t-22.5 55.5q0 32 23 54.5t57 22.5q35 0 58 -23t23 -54q0 -33 -23 -55.5t-58 -22.5zM382 574q-35 0 -58 22.5t-23 55.5q0 31 23 54t58 23q34 0 57 -22.5t23 -54.5
q0 -33 -22.5 -55.5t-57.5 -22.5z" />
    <glyph glyph-name="alpha.sc" horiz-adv-x="603" 
d="M229 190h129l-34 95q-30 83 -30 94h-2q0 -11 -29 -94zM13 0l212 526h145l219 -526h-163l-30 82h-203l-29 -82h-151z" />
    <glyph glyph-name="beta.sc" horiz-adv-x="527" 
d="M66 0v526h209q199 0 199 -134q0 -97 -98 -120v-2q52 -6 86 -38t34 -87q0 -145 -223 -145h-207zM215 108h53q42 0 61 12.5t19 42.5q0 57 -75 57h-58v-112zM215 314h42q73 0 73 55q0 52 -70 52h-45v-107z" />
    <glyph glyph-name="gamma.sc" horiz-adv-x="428" 
d="M66 0v526h346v-121h-194v-405h-152z" />
    <glyph glyph-name="delta.sc" horiz-adv-x="579" 
d="M187 118h193l-67 167q-8 20 -15.5 43.5t-11 36.5t-3.5 14h-2q0 -17 -29 -94zM34 0v93l179 433h146l185 -433v-93h-510z" />
    <glyph glyph-name="epsilon.sc" horiz-adv-x="478" 
d="M66 0v526h355v-117h-206v-88h184v-107h-184v-96h212v-118h-361z" />
    <glyph glyph-name="zeta.sc" horiz-adv-x="492" 
d="M41 0v95l225 312h-218v119h402v-95l-226 -312h233v-119h-416z" />
    <glyph glyph-name="eta.sc" horiz-adv-x="638" 
d="M66 0v526h152v-194h203v194h151v-526h-151v209h-203v-209h-152z" />
    <glyph glyph-name="theta.sc" horiz-adv-x="658" 
d="M331 -9q-139 0 -217 78.5t-78 193.5q0 112 78 192.5t215 80.5q139 0 216.5 -78t77.5 -193q0 -116 -76 -195t-216 -79zM329 111q68 0 100.5 42.5t32.5 109.5q0 68 -32 110.5t-99 42.5t-100 -42t-33 -109t33 -110.5t98 -43.5zM249 211v108h161v-108h-161z" />
    <glyph glyph-name="iota.sc" horiz-adv-x="294" 
d="M71 0v526h152v-526h-152z" />
    <glyph glyph-name="kappa.sc" horiz-adv-x="563" 
d="M66 0v526h152v-220l168 220h162l-185 -242l187 -284h-167l-165 249v-249h-152z" />
    <glyph glyph-name="lambda.sc" horiz-adv-x="603" 
d="M14 0l211 526h145l218 -526h-162l-102 285q-30 86 -30 94h-2q0 -12 -29 -94l-99 -285h-150z" />
    <glyph glyph-name="nu.sc" horiz-adv-x="633" 
d="M66 0v526h152l154 -213q17 -24 32.5 -48t22.5 -36t7 -13h2l-1 14q-1 15 -2 37t-1 40v219h135v-526h-137l-170 235q-16 22 -60 88h-2v-5q1 -4 1.5 -12t0.5 -18t0.5 -22.5t0.5 -23.5v-242h-135z" />
    <glyph glyph-name="xi.sc" horiz-adv-x="520" 
d="M47 0v122h427v-122h-427zM74 210v115h372v-115h-372zM52 404v122h416v-122h-416z" />
    <glyph glyph-name="omicron.sc" horiz-adv-x="658" 
d="M331 -9q-139 0 -217 78.5t-78 193.5q0 112 78 192.5t215 80.5q139 0 216.5 -78t77.5 -193q0 -116 -76 -195t-216 -79zM329 111q68 0 100.5 42.5t32.5 109.5q0 68 -32 110.5t-99 42.5t-100 -42t-33 -109t33 -110.5t98 -43.5z" />
    <glyph glyph-name="pi.sc" horiz-adv-x="631" 
d="M66 0v526h499v-526h-152v405h-195v-405h-152z" />
    <glyph glyph-name="rho.sc" horiz-adv-x="526" 
d="M64 0v526h211q101 0 161.5 -44.5t60.5 -133.5q0 -90 -62.5 -135.5t-174.5 -45.5h-44v-167h-152zM216 276h43q89 0 89 72q0 68 -85 68h-47v-140z" />
    <glyph glyph-name="sigma1.sc" horiz-adv-x="479" 
d="M39 0v97l131 174l-120 157v98h374v-119h-211l110 -138l-114 -150h235v-119h-405z" />
    <glyph glyph-name="sigma.sc" horiz-adv-x="479" 
d="M39 0v97l131 174l-120 157v98h374v-119h-211l110 -138l-114 -150h235v-119h-405z" />
    <glyph glyph-name="tau.sc" horiz-adv-x="490" 
d="M168 0v405h-153v121h460v-121h-154v-405h-153z" />
    <glyph glyph-name="upsilon.sc" horiz-adv-x="525" 
d="M189 0v198l-181 328h168l96 -196h2l94 196h149l-174 -328v-198h-154z" />
    <glyph glyph-name="phi.sc" horiz-adv-x="731" 
d="M289 0v40q-118 4 -187.5 67t-69.5 156q0 91 70 156t187 68v39h152v-39q119 -3 188.5 -65.5t69.5 -156.5q0 -91 -70 -156t-188 -69v-40h-152zM432 145q55 2 85 34t30 83q0 53 -30.5 86t-84.5 35v-238zM299 145v237q-56 -1 -86 -33t-30 -84q0 -53 31 -86t85 -34z" />
    <glyph glyph-name="chi.sc" horiz-adv-x="549" 
d="M17 0l175 269l-166 257h171l87 -142l78 142h151l-159 -255l175 -271h-168l-100 160l-93 -160h-151z" />
    <glyph glyph-name="psi.sc" horiz-adv-x="706" 
d="M283 0v119q-111 18 -177 85.5t-66 178.5v143h152v-132q0 -64 27 -104.5t74 -51.5v288h132v-291q46 11 73 52.5t27 102.5v136h141v-127q0 -115 -63 -187.5t-168 -91.5v-120h-152z" />
    <glyph glyph-name="omega.sc" horiz-adv-x="689" 
d="M35 0v119h104q-32 20 -58.5 68t-26.5 105q0 106 86 175t205 69t205 -69t86 -175q0 -57 -26.5 -105t-59.5 -68h104v-119h-269v110q88 57 88 171q0 57 -37 96t-91 39q-55 0 -92 -39.5t-37 -95.5q0 -113 89 -171v-110h-270z" />
    <glyph glyph-name="iotadieresis.sc" horiz-adv-x="294" 
d="M38 574q-35 0 -57.5 22.5t-22.5 55.5q0 32 23 54.5t57 22.5q35 0 58 -23t23 -54q0 -33 -23 -55.5t-58 -22.5zM256 574q-35 0 -58 22.5t-23 55.5q0 31 23 54t58 23q34 0 57 -22.5t23 -54.5q0 -33 -22.5 -55.5t-57.5 -22.5zM71 0v526h152v-526h-152z" />
    <glyph glyph-name="upsilondieresis.sc" horiz-adv-x="525" 
d="M157 574q-35 0 -57.5 22.5t-22.5 55.5q0 32 22.5 54.5t57.5 22.5t58 -23t23 -54q0 -33 -23 -55.5t-58 -22.5zM375 574q-35 0 -58 22.5t-23 55.5q0 31 23 54t58 23t57.5 -22.5t22.5 -54.5q0 -33 -22.5 -55.5t-57.5 -22.5zM189 0v198l-181 328h168l96 -196h2l94 196h149
l-174 -328v-198h-154z" />
    <glyph glyph-name="omicrontonos.sc" horiz-adv-x="658" 
d="M331 -9q-139 0 -217 78.5t-78 193.5q0 112 78 192.5t215 80.5q139 0 216.5 -78t77.5 -193q0 -116 -76 -195t-216 -79zM329 111q68 0 100.5 42.5t32.5 109.5q0 68 -32 110.5t-99 42.5t-100 -42t-33 -109t33 -110.5t98 -43.5z" />
    <glyph glyph-name="upsilontonos.sc" horiz-adv-x="525" 
d="M189 0v198l-181 328h168l96 -196h2l94 196h149l-174 -328v-198h-154z" />
    <glyph glyph-name="omegatonos.sc" horiz-adv-x="689" 
d="M35 0v119h104q-32 20 -58.5 68t-26.5 105q0 106 86 175t205 69t205 -69t86 -175q0 -57 -26.5 -105t-59.5 -68h104v-119h-269v110q88 57 88 171q0 57 -37 96t-91 39q-55 0 -92 -39.5t-37 -95.5q0 -113 89 -171v-110h-270z" />
    <glyph glyph-name="afii10065.sc" horiz-adv-x="603" 
d="M229 190h129l-34 95q-30 83 -30 94h-2q0 -11 -29 -94zM13 0l212 526h145l219 -526h-163l-30 82h-203l-29 -82h-151z" />
    <glyph glyph-name="afii10066.sc" horiz-adv-x="529" 
d="M66 0v526h389v-119h-237v-70h59q101 0 161.5 -41t60.5 -126q0 -86 -62.5 -128t-175.5 -42h-195zM218 108h42q90 0 90 61q0 31 -21 44t-64 13h-47v-118z" />
    <glyph glyph-name="afii10067.sc" horiz-adv-x="527" 
d="M66 0v526h209q199 0 199 -134q0 -97 -98 -120v-2q52 -6 86 -38t34 -87q0 -145 -223 -145h-207zM215 108h53q42 0 61 12.5t19 42.5q0 57 -75 57h-58v-112zM215 314h42q73 0 73 55q0 52 -70 52h-45v-107z" />
    <glyph glyph-name="afii10068.sc" horiz-adv-x="428" 
d="M66 0v526h346v-121h-194v-405h-152z" />
    <glyph glyph-name="afii10069.sc" horiz-adv-x="612" 
d="M39 -146l-26 264h40q32 29 47 130l41 278h387v-408h51l-19 -264h-94l-14 146h-309l-10 -146h-94zM197 118h184v288h-120l-28 -180q-12 -78 -36 -108z" />
    <glyph glyph-name="afii10070.sc" horiz-adv-x="478" 
d="M66 0v526h355v-117h-206v-88h184v-107h-184v-96h212v-118h-361z" />
    </font>
</defs>
</svg>
