<?xml version="1.0" standalone="no"?>
<!DOCTYPE svg PUBLIC "-//W3C//DTD SVG 1.1//EN" "http://www.w3.org/Graphics/SVG/1.1/DTD/svg11.dtd" >
<svg xmlns="http://www.w3.org/2000/svg" xmlns:xlink="http://www.w3.org/1999/xlink" version="1.1">
<metadata>
Created by FontForge 20170731 at Thu Apr  6 12:27:52 2006
 By Aleksey,,,
2005 Mike Abbink, Paul van der Laan published by FSI Fonts und Software GmbH
</metadata>
<defs>
<font id="KievitPro-Book" horiz-adv-x="531" >
  <font-face 
    font-family="KievitPro-Book"
    font-weight="500"
    font-stretch="normal"
    units-per-em="1000"
    panose-1="2 0 5 3 4 0 0 2 0 4"
    ascent="760"
    descent="-240"
    x-height="481"
    cap-height="666"
    bbox="-190 -250 1207 933"
    underline-thickness="20"
    underline-position="-193"
    unicode-range="U+000D-FB04"
  />
<missing-glyph horiz-adv-x="535" 
d="M79 0v666h377v-666h-377zM148 69h239v528h-239v-528z" />
    <glyph glyph-name="IJ" unicode="IJ" horiz-adv-x="583" 
d="M99 0v666h91v-666h-91zM330 -193q-35 0 -65 11l14 77q19 -8 41 -8q40 0 59 28t19 87v664h91v-678q0 -87 -40.5 -134t-118.5 -47z" />
    <glyph glyph-name="ij" unicode="ij" horiz-adv-x="502" 
d="M128 566q-25 0 -42 17.5t-17 41.5q0 25 17 42t42 17t42 -17t17 -42q0 -24 -17 -41.5t-42 -17.5zM85 0v481h86v-481h-86zM278 -231q-35 0 -59 8l15 70q15 -6 34 -6q37 0 52.5 28t15.5 86v526h85v-539q0 -173 -143 -173zM378 566q-25 0 -42.5 17.5t-17.5 41.5q0 25 17.5 42
t42.5 17t42 -17t17 -42q0 -24 -17 -41.5t-42 -17.5z" />
    <glyph glyph-name="uniFB00" unicode="ff" horiz-adv-x="600" 
d="M102 0v415h-83v66h83v59q0 84 50 134.5t139 50.5q82 0 133 -38q47 45 126 45q61 0 88 -15l-22 -70q-24 12 -64 12q-95 0 -95 -117v-61h121v-66h-121v-415h-85v415h-186v-415h-84zM186 481h186v67q0 42 12 75q-40 29 -92 29q-106 0 -106 -131v-40z" />
    <glyph glyph-name="fi" unicode="fi" horiz-adv-x="547" 
d="M98 0v415h-79v66h79v65q0 84 51.5 135t142.5 51q86 0 159 -45l-39 -66q-58 38 -120 38q-109 0 -109 -121v-57h280v-481h-85v415h-195v-415h-85z" />
    <glyph glyph-name="fl" unicode="fl" horiz-adv-x="555" 
d="M98 0v415h-79v66h79v68q0 87 52.5 135t143.5 48q101 0 178 -25v-707h-85v647q-36 12 -98 12q-106 0 -106 -120v-58h111v-66h-111v-415h-85z" />
    <glyph glyph-name="uniFB03" unicode="ffi" horiz-adv-x="815" 
d="M102 0v415h-83v66h83v59q0 84 50 134.5t139 50.5q81 0 137 -40q52 47 137 47q88 0 159 -45l-39 -66q-56 38 -119 38q-109 0 -109 -121v-57h274v-481h-85v415h-189v-415h-85v415h-186v-415h-84zM186 481h186v65q0 43 14 75q-39 31 -94 31q-106 0 -106 -131v-40z" />
    <glyph glyph-name="uniFB04" unicode="ffl" horiz-adv-x="829" 
d="M102 0v415h-83v66h83v59q0 84 50 134.5t139 50.5q80 0 135 -39q54 46 142 46q102 0 177 -25v-707h-85v647q-34 12 -97 12q-106 0 -106 -120v-58h119v-66h-119v-415h-85v415h-186v-415h-84zM186 481h186v68q0 41 12 73q-35 30 -92 30q-106 0 -106 -131v-40z" />
    <glyph glyph-name=".notdef" horiz-adv-x="535" 
d="M79 0v666h377v-666h-377zM148 69h239v528h-239v-528z" />
    <glyph glyph-name=".null" horiz-adv-x="0" 
 />
    <glyph glyph-name=".null" horiz-adv-x="0" 
 />
    <glyph glyph-name="nonmarkingreturn" horiz-adv-x="333" 
 />
    <glyph glyph-name="CR" unicode="&#xd;" horiz-adv-x="219" 
 />
    <glyph glyph-name="space" unicode=" " horiz-adv-x="219" 
 />
    <glyph glyph-name="exclam" unicode="!" horiz-adv-x="281" 
d="M140 -8q-26 0 -44.5 18t-18.5 44q0 25 18.5 43t44.5 18q25 0 43.5 -18t18.5 -43q0 -26 -18 -44t-44 -18zM106 204l-18 462h103l-17 -462h-68z" />
    <glyph glyph-name="quotedbl" unicode="&#x22;" horiz-adv-x="338" 
d="M66 440l-24 226h99l-11 -226h-64zM209 440l-12 226h100l-24 -226h-64z" />
    <glyph glyph-name="numbersign" unicode="#" horiz-adv-x="500" 
d="M98 102l21 141h-96l11 66h96l16 106h-96l11 66h94l20 129h65l-20 -129h97l20 129h65l-19 -129h94l-11 -66h-93l-16 -106h94l-11 -66h-93l-20 -141h-66l21 141h-97l-21 -141h-66zM195 308h97l17 107h-99z" />
    <glyph glyph-name="dollar" unicode="$" horiz-adv-x="411" 
d="M174 -123v111q-81 8 -136 48l35 64q59 -43 128 -43q50 0 77 17t27 47q0 15 -7 26.5t-23 21.5t-29.5 16.5t-39.5 17t-40 16.5q-55 24 -86 55.5t-31 84.5q0 50 33.5 85.5t91.5 45.5v104h79v-103q71 -8 118 -44l-37 -61q-50 37 -118 37q-86 0 -86 -60q0 -20 16.5 -36.5
t32.5 -24t53 -22.5q8 -3 12 -5q33 -14 53 -24t44 -27.5t35.5 -40t11.5 -51.5q0 -57 -35 -94t-100 -47v-114h-79z" />
    <glyph glyph-name="percent" unicode="%" horiz-adv-x="770" 
d="M179 208q-72 0 -109.5 42.5t-37.5 99.5q0 56 38.5 99.5t110.5 43.5q71 0 108.5 -42t37.5 -99q0 -56 -38.5 -100t-109.5 -44zM181 262q38 0 56 24.5t18 63.5t-19.5 64t-56.5 25q-38 0 -57 -24t-19 -63q0 -38 20 -64t58 -26zM590 -12q-71 0 -108.5 43t-37.5 99t38.5 99.5
t109.5 43.5q72 0 109 -42t37 -99t-38 -100.5t-110 -43.5zM592 42q38 0 56.5 24.5t18.5 63.5t-19.5 64t-57.5 25q-37 0 -56 -24t-19 -63q0 -38 20 -64t57 -26zM207 0l289 482h72l-288 -482h-73z" />
    <glyph glyph-name="ampersand" unicode="&#x26;" horiz-adv-x="633" 
d="M262 -12q-104 0 -164.5 52t-60.5 131q0 62 32.5 104.5t105.5 83.5q-42 48 -61.5 85t-19.5 79q0 70 50.5 112.5t130.5 42.5q74 0 121 -40t47 -102q0 -54 -35 -96t-113 -87l164 -176q38 62 53 145l78 -14q-18 -107 -79 -188l111 -120h-110l-57 61q-86 -73 -193 -73z
M252 399q57 33 82.5 64.5t25.5 69.5q0 33 -23.5 55.5t-62.5 22.5q-41 0 -65.5 -23.5t-24.5 -61.5q0 -52 68 -127zM266 61q78 0 139 53l-184 196q-94 -55 -94 -135q0 -50 36.5 -82t102.5 -32z" />
    <glyph glyph-name="quotesingle" unicode="'" horiz-adv-x="192" 
d="M63 440l-19 226h103l-18 -226h-66z" />
    <glyph glyph-name="parenleft" unicode="(" horiz-adv-x="316" 
d="M233 -175q-85 92 -133 208.5t-48 246.5q0 127 50 243t131 197h81q-72 -73 -122.5 -186.5t-50.5 -251.5q0 -260 173 -457h-81z" />
    <glyph glyph-name="parenright" unicode=")" horiz-adv-x="317" 
d="M3 -175q73 75 123 187.5t50 251.5q0 260 -173 456h82q84 -91 132 -208t48 -246t-49 -244t-131 -197h-82z" />
    <glyph glyph-name="asterisk" unicode="*" horiz-adv-x="462" 
d="M150 319l-54 39l85 112l-135 41l22 62l131 -47l-5 140h73l-4 -140l131 47l22 -62l-135 -41l85 -112l-54 -39l-81 118z" />
    <glyph glyph-name="plus" unicode="+" horiz-adv-x="571" 
d="M249 21v209h-207v70h207v199h78v-199h202v-70h-202v-209h-78z" />
    <glyph glyph-name="comma" unicode="," horiz-adv-x="233" 
d="M58 -137q41 57 41 104q0 19 -23.5 44.5t-23.5 51.5q0 25 17.5 42t43.5 17q30 0 50.5 -23t20.5 -62q0 -89 -69 -174h-57z" />
    <glyph glyph-name="hyphen" unicode="-" horiz-adv-x="313" 
d="M53 250v72h207v-72h-207z" />
    <glyph glyph-name="period" unicode="." horiz-adv-x="233" 
d="M116 -9q-28 0 -47 19t-19 47q0 27 19 46t47 19t47.5 -19t19.5 -46q0 -28 -19.5 -47t-47.5 -19z" />
    <glyph glyph-name="slash" unicode="/" horiz-adv-x="411" 
d="M58 -18l249 690h82l-250 -690h-81z" />
    <glyph glyph-name="zero" unicode="0" horiz-adv-x="573" 
d="M285 -12q-62 0 -111 23t-77.5 60t-43.5 80.5t-15 88.5t15 88.5t44.5 81t78.5 60.5t111 23q119 0 183.5 -76t64.5 -175q0 -45 -15.5 -89t-45 -81.5t-79 -60.5t-110.5 -23zM287 59q75 0 116 50.5t41 130.5q0 79 -42 130.5t-117 51.5q-76 0 -116 -50t-40 -130t41 -131.5
t117 -51.5z" />
    <glyph glyph-name="one" unicode="1" horiz-adv-x="332" 
d="M161 0v404l-112 -37l-18 69l146 45h68v-481h-84z" />
    <glyph glyph-name="two" unicode="2" horiz-adv-x="486" 
d="M26 0v34q7 6 48 39t63 51.5t59.5 53.5t58.5 60t37.5 54.5t16.5 52.5q0 35 -23 55.5t-68 20.5q-71 0 -124 -56l-46 54q32 34 81 54.5t97 20.5q76 0 124.5 -35.5t48.5 -102.5q0 -18 -5 -36t-16 -37.5t-21.5 -35.5t-29.5 -36t-31 -33t-35 -33t-32.5 -28t-33 -27.5
t-27.5 -22.5q4 4 57 4h221v-71h-420z" />
    <glyph glyph-name="three" unicode="3" horiz-adv-x="434" 
d="M134 -188q-61 0 -88 5l13 70q23 -5 64 -5q76 0 128.5 36t52.5 98q0 131 -188 131v63q60 1 114 38.5t54 93.5q0 37 -24 58t-68 21q-60 0 -115 -50l-43 55q65 67 166 67q81 0 127 -41t46 -101q0 -56 -41.5 -101t-91.5 -58v-1q63 -9 109 -54.5t46 -112.5q0 -97 -75.5 -154.5
t-185.5 -57.5z" />
    <glyph glyph-name="four" unicode="4" horiz-adv-x="568" 
d="M340 -177v177h-311v55l324 426h71v-411h110v-70h-110v-177h-84zM123 70h217v283h-2z" />
    <glyph glyph-name="five" unicode="5" horiz-adv-x="427" 
d="M109 -188q-37 0 -67 7l15 70q24 -6 58 -6q76 0 129.5 41t53.5 113q0 144 -172 144q-32 0 -59 -3l20 303h290v-67h-213l-10 -165q115 0 174.5 -58.5t59.5 -148.5q0 -99 -74.5 -164.5t-204.5 -65.5z" />
    <glyph glyph-name="six" unicode="6" horiz-adv-x="516" 
d="M266 -12q-58 0 -102.5 24.5t-70 66t-38.5 90.5t-13 102q0 183 105.5 295t289.5 112l18 -70q-159 0 -241 -85q-64 -67 -76 -175q56 49 141 49q91 0 144.5 -54t53.5 -144q0 -89 -58 -150t-153 -61zM270 59q55 0 86.5 39t31.5 92q0 66 -31 102t-92 36q-73 0 -132 -47l-1 -22
q-3 -91 32.5 -145.5t105.5 -54.5z" />
    <glyph glyph-name="seven" unicode="7" horiz-adv-x="452" 
d="M121 -199l-72 36l268 571h-300v74h395v-56z" />
    <glyph glyph-name="eight" unicode="8" horiz-adv-x="516" 
d="M257 -12q-99 0 -152.5 51t-53.5 124q0 108 137 185q-118 71 -118 164q0 72 55 119t131 47q90 0 141 -45.5t51 -115.5q0 -88 -127 -161q142 -80 142 -188q0 -82 -57.5 -131t-148.5 -49zM259 59q55 0 85.5 31.5t30.5 78.5q0 75 -129 144q-108 -69 -108 -145q0 -48 33 -78.5
t88 -30.5zM261 392q101 61 101 120q0 41 -27 68.5t-74 27.5q-46 0 -75 -26.5t-29 -68.5q0 -61 104 -121z" />
    <glyph glyph-name="nine" unicode="9" horiz-adv-x="518" 
d="M67 -186l-17 69q161 0 250 86q66 62 78 164q-65 -48 -141 -48q-89 0 -143 56t-54 145q0 87 61.5 147t153.5 60q59 0 103 -25t68.5 -67.5t36 -90.5t11.5 -101q0 -181 -107.5 -288t-299.5 -107zM251 155q81 0 132 44l1 22q4 89 -31 145.5t-102 56.5q-50 0 -85.5 -37.5
t-35.5 -97.5t31 -96.5t90 -36.5z" />
    <glyph glyph-name="colon" unicode=":" horiz-adv-x="237" 
d="M118 -9q-28 0 -47 19.5t-19 47.5q0 27 19 46t47 19t47 -19t19 -46q0 -28 -19 -47.5t-47 -19.5zM118 357q-28 0 -47 19.5t-19 46.5q0 28 19 47t47 19t47 -19t19 -47q0 -27 -19 -46.5t-47 -19.5z" />
    <glyph glyph-name="semicolon" unicode=";" horiz-adv-x="237" 
d="M61 -137q41 58 41 104q0 19 -23.5 44.5t-23.5 51.5q0 25 17.5 42t43.5 17q30 0 50.5 -23t20.5 -62q0 -88 -69 -174h-57zM118 357q-28 0 -47 19.5t-19 46.5q0 28 19 47t47 19t47 -19t19 -47q0 -27 -19 -46.5t-47 -19.5z" />
    <glyph glyph-name="less" unicode="&#x3c;" horiz-adv-x="367" 
d="M278 26l-251 220l251 224l47 -48l-195 -173l195 -171z" />
    <glyph glyph-name="equal" unicode="=" horiz-adv-x="463" 
d="M36 146v71h391v-71h-391zM36 314v71h391v-71h-391z" />
    <glyph glyph-name="greater" unicode="&#x3e;" horiz-adv-x="367" 
d="M89 26l-47 48l195 173l-195 171l47 52l251 -220z" />
    <glyph glyph-name="question" unicode="?" horiz-adv-x="407" 
d="M106 199v61q0 42 15.5 68.5t57.5 52.5q32 19 47.5 31t29 35.5t13.5 54.5q0 103 -116 103q-39 0 -83 -21l-31 65q55 29 123 29q95 0 146.5 -47t51.5 -123q0 -47 -22 -84.5t-43.5 -54.5t-54.5 -36q-31 -19 -42.5 -36t-11.5 -46v-52h-80zM148 -8q-26 0 -44.5 18t-18.5 44
q0 25 18.5 43t44.5 18q25 0 43.5 -18t18.5 -43q0 -26 -18 -44t-44 -18z" />
    <glyph glyph-name="at" unicode="@" horiz-adv-x="774" 
d="M375 -92q-153 0 -243.5 94.5t-90.5 237.5q0 98 46.5 185.5t132 142t188.5 54.5q78 0 142.5 -27.5t104.5 -72t62 -97.5t22 -106q0 -99 -51 -168t-129 -69q-50 0 -77 29.5t-28 77.5h-3q-20 -48 -56.5 -77t-80.5 -29t-70 34.5t-26 81.5q0 68 23 127t73 99t117 40
q40 0 123 -22l-26 -145q-13 -71 -13 -89q0 -28 14 -46.5t36 -18.5q48 0 79.5 49t31.5 119q0 109 -76.5 179t-191.5 70q-116 0 -205 -93.5t-89 -224.5q0 -122 72.5 -198t199.5 -76q82 0 148 29l25 -56q-84 -34 -184 -34zM336 150q35 0 65 39t46.5 86.5t26.5 101.5l4 22
q-22 9 -53 9q-56 0 -91.5 -59t-35.5 -138q0 -24 9.5 -42.5t28.5 -18.5z" />
    <glyph glyph-name="A" unicode="A" horiz-adv-x="637" 
d="M195 232h240l-79 215q-12 33 -25 71.5t-15 43.5h-2q-16 -53 -39 -115zM20 0l255 666h87l257 -666h-98l-58 157h-296l-57 -157h-90z" />
    <glyph glyph-name="B" unicode="B" horiz-adv-x="578" 
d="M93 0v666h185q100 0 160.5 -40t60.5 -126q0 -117 -119 -148v-2q64 -11 106 -54t42 -109q0 -187 -253 -187h-182zM183 73h90q83 0 122 27t39 87q0 124 -155 124h-96v-238zM183 382h86q72 0 105 26.5t33 83.5q0 101 -136 101h-88v-211z" />
    <glyph glyph-name="C" unicode="C" horiz-adv-x="616" 
d="M379 -12q-151 0 -239.5 102t-88.5 245q0 91 38 168.5t114.5 126t177.5 48.5q111 0 189 -51l-44 -67q-63 43 -147 43q-110 0 -171.5 -77t-61.5 -189q0 -115 61 -194t174 -79q95 0 161 56l40 -64q-29 -27 -83.5 -47.5t-119.5 -20.5z" />
    <glyph glyph-name="D" unicode="D" horiz-adv-x="684" 
d="M93 0v666h165q190 0 284 -87.5t94 -237.5q0 -153 -96 -247t-287 -94h-160zM184 74h77q138 0 209 67t71 198t-69.5 192t-215.5 61h-72v-518z" />
    <glyph glyph-name="E" unicode="E" horiz-adv-x="508" 
d="M93 0v666h351v-76h-261v-201h229v-75h-229v-238h268v-76h-358z" />
    <glyph glyph-name="F" unicode="F" horiz-adv-x="494" 
d="M93 0v666h356v-76h-265v-204h231v-74h-231v-312h-91z" />
    <glyph glyph-name="G" unicode="G" horiz-adv-x="708" 
d="M386 -12q-103 0 -181 50t-116 128t-38 169q0 143 92.5 243t248.5 100q131 0 211 -62l-45 -67q-69 54 -169 54q-119 0 -181 -76.5t-62 -189.5q0 -115 62 -194t180 -79q104 0 155 38v176h-139v74h229v-296q-85 -68 -247 -68z" />
    <glyph glyph-name="H" unicode="H" horiz-adv-x="729" 
d="M93 0v666h91v-278h361v278h91v-666h-91v312h-361v-312h-91z" />
    <glyph glyph-name="I" unicode="I" horiz-adv-x="290" 
d="M99 0v666h91v-666h-91z" />
    <glyph glyph-name="J" unicode="J" horiz-adv-x="292" 
d="M40 -193q-35 0 -65 11l14 77q19 -8 41 -8q40 0 59 28t19 87v664h91v-678q0 -87 -40.5 -134t-118.5 -47z" />
    <glyph glyph-name="K" unicode="K" horiz-adv-x="581" 
d="M93 0v666h90v-317l262 317h104l-264 -313l281 -353h-111l-272 344v-344h-90z" />
    <glyph glyph-name="L" unicode="L" horiz-adv-x="481" 
d="M94 0v666h90v-591h260v-75h-350z" />
    <glyph glyph-name="M" unicode="M" horiz-adv-x="858" 
d="M51 0l92 666h85l159 -445q23 -65 41 -121h2q12 44 40 121l160 445h86l90 -666h-91l-55 418q-7 56 -11 94h-2q-12 -45 -29 -93l-149 -419h-88l-152 419q-16 46 -31 93h-2q-2 -28 -10 -96l-51 -416h-84z" />
    <glyph glyph-name="N" unicode="N" horiz-adv-x="717" 
d="M92 0v666h89l300 -430q36 -52 63 -101h2q-4 48 -4 93v438h83v-666h-83l-315 454q-15 21 -54 89h-2q4 -48 4 -76v-467h-83z" />
    <glyph glyph-name="O" unicode="O" horiz-adv-x="763" 
d="M383 -12q-151 0 -241.5 100.5t-90.5 243.5q0 144 89.5 245t240.5 101t241 -100.5t90 -243.5t-89.5 -244.5t-239.5 -101.5zM381 63q111 0 173 77t62 192t-61.5 193t-171.5 78q-111 0 -174 -77.5t-63 -191.5q0 -115 62 -193t173 -78z" />
    <glyph glyph-name="P" unicode="P" horiz-adv-x="552" 
d="M93 0v666h177q106 0 172 -50.5t66 -145.5q0 -99 -66 -153t-184 -54h-74v-263h-91zM184 337h75q82 0 119.5 32.5t37.5 98.5q0 124 -154 124h-78v-255z" />
    <glyph glyph-name="Q" unicode="Q" horiz-adv-x="763" 
d="M621 -165q-72 0 -132.5 34.5t-128.5 120.5q-141 7 -225 106t-84 236q0 144 89.5 245t240.5 101t241 -100.5t90 -243.5q0 -122 -67 -217t-183 -120q37 -48 72.5 -69t88.5 -21q45 0 81 28l32 -65q-43 -35 -115 -35zM381 63q111 0 173 77t62 192t-61.5 193t-171.5 78
q-111 0 -174 -77.5t-63 -191.5q0 -115 62 -193t173 -78z" />
    <glyph glyph-name="R" unicode="R" horiz-adv-x="580" 
d="M93 0v666h190q107 0 166 -47t59 -133q0 -80 -50 -124.5t-130 -50.5v-2q22 -16 71 -85l158 -224h-104l-132 189q-54 77 -74 94.5t-53 17.5h-10v-301h-91zM184 372h95q138 0 138 111q0 109 -144 109h-89v-220z" />
    <glyph glyph-name="S" unicode="S" horiz-adv-x="502" 
d="M234 -12q-68 0 -117.5 21.5t-75.5 46.5l44 64q61 -57 151 -57q57 0 93.5 31t36.5 75q0 25 -9.5 45t-34 38t-40 27t-52.5 27q-5 3 -8.5 4.5t-7.5 3.5q-75 36 -114 77.5t-39 113.5q0 79 57.5 126t140.5 47q110 0 179 -54l-42 -66q-58 45 -136 45q-49 0 -80 -25.5t-31 -68.5
t29.5 -68.5t91.5 -54.5q27 -13 39 -19t36 -19.5t36 -23.5t29 -27.5t25 -34.5t14.5 -40.5t6.5 -50.5q0 -81 -61.5 -132t-160.5 -51z" />
    <glyph glyph-name="T" unicode="T" horiz-adv-x="505" 
d="M207 0v590h-188v76h467v-76h-188v-590h-91z" />
    <glyph glyph-name="U" unicode="U" horiz-adv-x="695" 
d="M351 -12q-134 0 -198.5 69t-64.5 194v415h90v-405q0 -100 42.5 -148t132.5 -48q84 0 127 49t43 134v418h84v-409q0 -128 -64 -198.5t-192 -70.5z" />
    <glyph glyph-name="V" unicode="V" horiz-adv-x="626" 
d="M273 0l-256 666h97l165 -447q15 -38 39 -116h2q3 8 15.5 47.5t22.5 68.5l161 447h90l-248 -666h-88z" />
    <glyph glyph-name="W" unicode="W" horiz-adv-x="883" 
d="M202 0l-182 666h98l107 -426q5 -22 11 -50t9.5 -47t3.5 -20h2q0 1 2 9t4.5 20t6 26.5t8 31.5t8.5 31l121 425h91l119 -422q4 -15 8.5 -32t7.5 -31.5t6 -26.5t4.5 -20t1.5 -9h2l3 19q3 19 8.5 47t11.5 52l109 423h89l-183 -666h-83l-122 434q-4 15 -8.5 33t-8 33.5t-6 29
t-4.5 22t-2 9.5h-2q-30 -121 -32 -127l-127 -434h-82z" />
    <glyph glyph-name="X" unicode="X" horiz-adv-x="575" 
d="M24 0l211 344l-200 322h103l154 -248l145 248h94l-195 -321l215 -345h-103l-169 272l-161 -272h-94z" />
    <glyph glyph-name="Y" unicode="Y" horiz-adv-x="563" 
d="M239 0v252l-222 414h100l171 -329h1l171 329h87l-217 -414v-252h-91z" />
    <glyph glyph-name="Z" unicode="Z" horiz-adv-x="563" 
d="M46 0v62l352 530h-336v74h444v-59l-357 -533h368v-74h-471z" />
    <glyph glyph-name="bracketleft" unicode="[" horiz-adv-x="313" 
d="M77 -161v881h211v-65h-129v-751h129v-65h-211z" />
    <glyph glyph-name="backslash" unicode="\" horiz-adv-x="411" 
d="M324 -161l-318 881h81l318 -881h-81z" />
    <glyph glyph-name="bracketright" unicode="]" horiz-adv-x="313" 
d="M25 -161v65h129v751h-129v65h211v-881h-211z" />
    <glyph glyph-name="asciicircum" unicode="^" horiz-adv-x="584" 
d="M58 288l204 378h59l204 -378h-77l-156 289l-156 -289h-78z" />
    <glyph glyph-name="underscore" unicode="_" horiz-adv-x="402" 
d="M-1 -164v69h404v-69h-404z" />
    <glyph glyph-name="grave" unicode="`" horiz-adv-x="500" 
d="M281 540l-136 128h121l90 -128h-75z" />
    <glyph glyph-name="a" unicode="a" horiz-adv-x="478" 
d="M181 -12q-61 0 -100 36t-39 95q0 60 41 99t95.5 53t120.5 14h20v42q0 49 -22 71.5t-71 22.5q-65 0 -125 -51l-42 57q71 66 174 66q170 0 170 -163v-214q0 -66 12 -116h-84q-5 17 -8 57q-24 -31 -61.5 -50t-80.5 -19zM198 58q72 0 121 64v104h-20q-169 0 -169 -104
q0 -32 21 -48t47 -16z" />
    <glyph glyph-name="b" unicode="b" horiz-adv-x="526" 
d="M242 -12q-104 0 -166 37v695h85v-277q47 50 119 50q97 0 152 -67.5t55 -182.5q0 -112 -69.5 -183.5t-175.5 -71.5zM243 59q73 0 113.5 52.5t40.5 129.5q0 80 -33 129.5t-102 49.5q-28 0 -56.5 -13.5t-44.5 -31.5v-302q31 -14 82 -14z" />
    <glyph glyph-name="c" unicode="c" horiz-adv-x="444" 
d="M263 -12q-105 0 -165 73t-60 180q0 119 65 185.5t163 66.5q88 0 147 -46l-36 -62q-53 38 -111 38q-68 0 -103 -49.5t-35 -130.5q0 -80 35.5 -132t104.5 -52q67 0 115 38l32 -62q-59 -47 -152 -47z" />
    <glyph glyph-name="d" unicode="d" horiz-adv-x="530" 
d="M237 -12q-90 0 -144.5 67t-54.5 185q0 113 60.5 183t152.5 70q75 0 121 -40v267h84v-614q0 -50 13 -106h-85q-7 24 -9 55q-54 -67 -138 -67zM257 62q68 0 115 63v256q-46 41 -109 41q-64 0 -99 -49.5t-35 -131.5q0 -179 128 -179z" />
    <glyph glyph-name="e" unicode="e" horiz-adv-x="496" 
d="M271 -12q-112 0 -172.5 71.5t-60.5 184.5q0 108 62.5 178.5t158.5 70.5q91 0 142 -59t51 -161q0 -11 -2 -37h-321q2 -79 37.5 -128.5t108.5 -49.5q59 0 131 41l33 -62q-75 -49 -168 -49zM132 301h235q-2 54 -28.5 88.5t-81.5 34.5q-53 0 -84.5 -33t-40.5 -90z" />
    <glyph glyph-name="f" unicode="f" horiz-adv-x="326" 
d="M98 0v415h-79v66h79v67q0 85 47 134.5t131 49.5q61 0 88 -15l-22 -70q-24 12 -63 12q-47 0 -71.5 -30t-24.5 -87v-61h121v-66h-121v-415h-85z" />
    <glyph glyph-name="g" unicode="g" horiz-adv-x="511" 
d="M240 -237q-90 0 -143.5 33t-53.5 100q0 77 82 123q-43 21 -43 71q0 48 50 79q-85 47 -85 148q0 78 53.5 127t143.5 49q42 0 77 -12h160v-63h-72q32 -43 32 -101q0 -77 -53.5 -126.5t-142.5 -49.5q-27 0 -54 6q-29 -15 -29 -38q0 -34 74 -37q8 0 32 -1.5t34 -2t32.5 -3
t33.5 -5.5t29.5 -8.5t28.5 -12.5t22.5 -18t18.5 -24.5t10.5 -31.5t4.5 -40q0 -73 -70 -117.5t-172 -44.5zM244 -173q69 0 110.5 25.5t41.5 67.5q0 24 -8 39t-29.5 22.5t-32 9t-42.5 3.5q-7 1 -10 1q-74 5 -88 7q-60 -38 -60 -95q0 -35 29.5 -57.5t88.5 -22.5zM244 206
q52 0 81.5 30.5t29.5 80.5t-29.5 80.5t-81.5 30.5t-81.5 -30.5t-29.5 -80.5t29.5 -80.5t81.5 -30.5z" />
    <glyph glyph-name="h" unicode="h" horiz-adv-x="533" 
d="M76 0v720h85v-306q61 79 155 79q73 0 107.5 -41.5t34.5 -109.5v-342h-85v325q0 94 -81 94q-31 0 -62.5 -19.5t-45 -34.5t-23.5 -29v-336h-85z" />
    <glyph glyph-name="i" unicode="i" horiz-adv-x="256" 
d="M128 566q-25 0 -42 17.5t-17 41.5q0 25 17 42t42 17t42 -17t17 -42q0 -24 -17 -41.5t-42 -17.5zM85 0v481h86v-481h-86z" />
    <glyph glyph-name="j" unicode="j" horiz-adv-x="246" 
d="M23 -231q-35 0 -59 8l15 70q15 -6 34 -6q37 0 52.5 28t15.5 86v526h85v-539q0 -173 -143 -173zM123 566q-25 0 -42.5 17.5t-17.5 41.5q0 25 17.5 42t42.5 17t42 -17t17 -42q0 -24 -17 -41.5t-42 -17.5z" />
    <glyph glyph-name="k" unicode="k" horiz-adv-x="478" 
d="M76 0v720h85v-451l194 212h99l-196 -213l204 -268h-102l-199 267v-267h-85z" />
    <glyph glyph-name="l" unicode="l" horiz-adv-x="248" 
d="M81 0v720h85v-720h-85z" />
    <glyph glyph-name="m" unicode="m" horiz-adv-x="799" 
d="M79 0v481h84v-66q17 21 30 33.5t46.5 28.5t70.5 16q95 0 123 -80q72 80 155 80q70 0 103 -41t33 -110v-342h-85v325q0 94 -75 94q-63 0 -120 -72v-347h-85v325q0 94 -73 94q-64 0 -123 -82v-337h-84z" />
    <glyph glyph-name="n" unicode="n" horiz-adv-x="535" 
d="M79 0v481h84v-67q64 79 156 79q73 0 107.5 -41.5t34.5 -109.5v-342h-85v325q0 94 -81 94q-70 0 -132 -83v-336h-84z" />
    <glyph glyph-name="o" unicode="o" horiz-adv-x="532" 
d="M264 -12q-77 0 -130 40t-74.5 95t-21.5 117q0 45 12.5 88t37.5 81t70 61t104 23q58 0 104.5 -22.5t73 -60t40.5 -80.5t14 -88t-13.5 -88t-39.5 -81t-72 -61.5t-105 -23.5zM266 58q68 0 103 51t35 131q0 79 -37.5 131t-105.5 52t-100.5 -49.5t-32.5 -131.5
q0 -81 34.5 -132.5t103.5 -51.5z" />
    <glyph glyph-name="p" unicode="p" horiz-adv-x="535" 
d="M79 -219v700h84v-51q53 63 138 63q90 0 143 -66.5t53 -184.5q0 -113 -60 -183.5t-154 -70.5q-74 0 -120 41v-248h-84zM272 59q64 0 99 49.5t35 131.5t-31.5 131t-93.5 49q-69 0 -118 -64v-255q46 -42 109 -42z" />
    <glyph glyph-name="q" unicode="q" horiz-adv-x="528" 
d="M365 -217v255q-48 -50 -119 -50q-96 0 -151.5 68t-55.5 182q0 112 70 183.5t175 71.5q94 0 166 -36v-674h-85zM264 62q34 0 63 16.5t38 28.5v300q-45 15 -82 15q-73 0 -113.5 -52.5t-40.5 -129.5q0 -80 32.5 -129t102.5 -49z" />
    <glyph glyph-name="r" unicode="r" horiz-adv-x="354" 
d="M79 0v481h84v-73q52 85 127 85q31 0 54 -10l-21 -79q-16 8 -44 8q-69 0 -116 -93v-319h-84z" />
    <glyph glyph-name="s" unicode="s" horiz-adv-x="410" 
d="M194 -13q-90 0 -156 46l35 63q54 -39 119 -39q44 0 69 17t25 47q0 15 -6 26.5t-23.5 23t-32 18.5t-47.5 22q-64 28 -96 60t-32 87q0 59 43 97t115 38q86 0 145 -44l-38 -61q-46 35 -106 35q-38 0 -58 -16t-20 -45t22 -45.5t72 -36.5q35 -15 56.5 -26.5t44.5 -29t34 -40.5
t11 -52q0 -67 -47.5 -106t-128.5 -39z" />
    <glyph glyph-name="t" unicode="t" horiz-adv-x="356" 
d="M229 -12q-126 0 -126 132v295h-79v66h79v138h84v-138h120v-66h-120v-284q0 -37 12.5 -54t42.5 -17q35 0 65 20l27 -63q-44 -29 -105 -29z" />
    <glyph glyph-name="u" unicode="u" horiz-adv-x="534" 
d="M216 -12q-73 0 -108 41.5t-35 110.5v341h85v-325q0 -46 18.5 -69.5t63.5 -23.5q31 0 62 19.5t44.5 34.5t23.5 29v335h85v-372q0 -67 10 -109h-85q-6 24 -8 70q-61 -82 -156 -82z" />
    <glyph glyph-name="v" unicode="v" horiz-adv-x="471" 
d="M197 0l-182 481h92l130 -371h2l128 371h87l-177 -481h-80z" />
    <glyph glyph-name="w" unicode="w" horiz-adv-x="707" 
d="M158 0l-142 481h92l97 -352h2l107 352h81l107 -353h2l98 353h85l-143 -481h-76l-115 364h-2l-117 -364h-76z" />
    <glyph glyph-name="x" unicode="x" horiz-adv-x="472" 
d="M21 0l166 251l-157 230h96q105 -156 111 -164l103 164h88l-150 -225l174 -256h-96l-129 191l-118 -191h-88z" />
    <glyph glyph-name="y" unicode="y" horiz-adv-x="478" 
d="M61 -232q-27 0 -52 5l12 70q21 -3 39 -3q48 0 74 25t45 79l22 60l-181 477h94l131 -370h3l126 370h89l-203 -543q-31 -83 -73.5 -126.5t-125.5 -43.5z" />
    <glyph glyph-name="z" unicode="z" horiz-adv-x="430" 
d="M41 0v51l238 363h-224v67h327v-54l-238 -360h242v-67h-345z" />
    <glyph glyph-name="braceleft" unicode="{" horiz-adv-x="367" 
d="M249 -161q-45 0 -77.5 28.5t-32.5 82.5v195q0 49 -29.5 78t-81.5 30v64q52 2 81.5 30t29.5 78v185q0 54 32.5 82t77.5 28h93v-65h-65q-32 0 -44 -19t-12 -58v-169q0 -95 -98 -121v-2q98 -29 98 -128v-180q0 -39 11.5 -56.5t43.5 -17.5h66v-65h-93z" />
    <glyph glyph-name="bar" unicode="|" horiz-adv-x="284" 
d="M107 -250v1000h71v-1000h-71z" />
    <glyph glyph-name="braceright" unicode="}" horiz-adv-x="367" 
d="M25 -161v65h65q32 0 44 19t12 58v180q0 95 98 121v2q-98 29 -98 128v169q0 40 -11 57t-44 17h-66v65h93q45 0 77.5 -28.5t32.5 -82.5v-184q0 -49 29.5 -78t82.5 -30v-64q-52 -2 -82 -30t-30 -78v-196q0 -54 -32 -82t-77 -28h-94z" />
    <glyph glyph-name="asciitilde" unicode="~" horiz-adv-x="587" 
d="M396 175q-57 0 -119 34t-96 34q-45 0 -89 -40l-40 52q66 61 135 61q45 0 107 -33.5t108 -33.5q47 0 95 41l39 -51q-64 -64 -140 -64z" />
    <glyph glyph-name="uni00A0" unicode="&#xa0;" horiz-adv-x="219" 
 />
    <glyph glyph-name="exclamdown" unicode="&#xa1;" horiz-adv-x="280" 
d="M141 371q-26 0 -44.5 17.5t-18.5 42.5q0 26 18.5 44t44.5 18t44 -18t18 -44q0 -25 -18 -42.5t-44 -17.5zM89 -181l18 462h67l18 -462h-103z" />
    <glyph glyph-name="cent" unicode="&#xa2;" horiz-adv-x="444" 
d="M211 -123v116q-83 17 -128 86t-45 162q0 100 48 164.5t125 81.5v107h79v-102q74 -6 123 -45l-36 -62q-53 38 -111 38q-68 0 -103 -49.5t-35 -130.5q0 -80 35.5 -132t104.5 -52q67 0 115 38l32 -62q-51 -39 -125 -46v-112h-79z" />
    <glyph glyph-name="sterling" unicode="&#xa3;" horiz-adv-x="477" 
d="M61 292v66h87q-12 82 -12 134q0 85 47.5 135.5t140.5 50.5q69 0 124 -35l-37 -63q-41 26 -95 26q-91 0 -91 -118q0 -38 12 -130h149v-66h-142q2 -32 2 -43q0 -63 -22.5 -109.5t-50.5 -68.5h253v-71h-370v56q53 28 79 82t26 108q0 22 -3 46h-97z" />
    <glyph glyph-name="currency" unicode="&#xa4;" horiz-adv-x="558" 
d="M112 -11l-60 45l79 99q-45 52 -45 126q0 76 49 128l-80 101l59 45l78 -104q43 19 88 19q44 0 81 -15l77 100l60 -45l-76 -95q54 -53 54 -134q0 -80 -51 -132l72 -93l-60 -45l-71 97q-37 -17 -86 -17q-54 0 -93 21zM280 137q53 0 85 35t32 87t-32 87t-85 35
q-51 0 -83.5 -35.5t-32.5 -86.5q0 -52 32 -87t84 -35z" />
    <glyph glyph-name="yen" unicode="&#xa5;" horiz-adv-x="532" 
d="M226 0v93h-161v66h161v68h-161v66h138l-201 373h101l170 -329h2l170 329h88l-197 -373h140v-66h-161v-68h161v-66h-161v-93h-89z" />
    <glyph glyph-name="brokenbar" unicode="&#xa6;" horiz-adv-x="190" 
d="M58 -250v378h71v-378h-71zM58 382v368h71v-368h-71z" />
    <glyph glyph-name="section" unicode="&#xa7;" horiz-adv-x="467" 
d="M202 -152q-71 0 -119 33l34 64q41 -25 83 -25q40 0 61.5 22.5t21.5 57.5q0 28 -23 61t-55.5 66t-64.5 68t-55 78t-23 85q0 80 70 126q-32 45 -32 94q0 71 48 112.5t111 41.5q74 0 121 -36l-37 -62l-7 4q-6 5 -8 6.5t-8.5 5t-11.5 5t-12.5 3.5t-15.5 3t-18 1
q-38 0 -58.5 -23.5t-20.5 -55.5q0 -29 22.5 -62.5t55 -67t65 -68.5t55 -78t22.5 -85q0 -67 -68 -127q31 -47 31 -91q0 -77 -48 -116.5t-116 -39.5zM290 151q31 29 31 70q0 18 -10 40.5t-29.5 48t-35.5 43.5t-40.5 43.5t-31.5 33.5q-29 -21 -29 -71q0 -21 18.5 -53t36.5 -54
t51 -58t39 -43z" />
    <glyph glyph-name="dieresis" unicode="&#xa8;" horiz-adv-x="500" 
d="M154 539q-24 0 -40.5 16.5t-16.5 40.5q0 23 16.5 40t40.5 17t41 -17t17 -40q0 -24 -17 -40.5t-41 -16.5zM345 539q-23 0 -40 16.5t-17 40.5q0 23 17 40t40 17q25 0 41.5 -16.5t16.5 -40.5t-16.5 -40.5t-41.5 -16.5z" />
    <glyph glyph-name="copyright" unicode="&#xa9;" horiz-adv-x="859" 
d="M437 129q-98 0 -162.5 67t-64.5 163q0 97 65.5 163.5t161.5 66.5q79 0 143 -50l-41 -54q-47 38 -102 38q-70 0 -109 -49t-39 -113q0 -70 44 -118.5t109 -48.5q59 0 113 44l34 -55q-64 -54 -152 -54zM429 -14q-154 0 -263 109.5t-109 263.5t109 263.5t263 109.5
q155 0 264 -109t109 -264t-109 -264t-264 -109zM429 43q135 0 223.5 89t88.5 227t-88.5 227t-223.5 89q-134 0 -222.5 -89.5t-88.5 -226.5q0 -138 88.5 -227t222.5 -89z" />
    <glyph glyph-name="ordfeminine" unicode="&#xaa;" horiz-adv-x="364" 
d="M138 314q-45 0 -75.5 27.5t-30.5 69.5q0 50 38 81q48 39 159 39v25q0 32 -14.5 48t-48.5 16q-41 0 -87 -35l-35 46q53 47 127 47q127 0 127 -119v-150q0 -48 9 -86h-70q-3 15 -5 34q-41 -43 -94 -43zM150 371q45 0 79 40v71q-86 0 -113 -29q-14 -15 -14 -39
q0 -20 13.5 -31.5t34.5 -11.5z" />
    <glyph glyph-name="guillemotleft" unicode="&#xab;" horiz-adv-x="488" 
d="M173 55l-131 190l131 191h88l-129 -191l129 -190h-88zM360 55l-131 190l131 191h88l-129 -191l129 -190h-88z" />
    <glyph glyph-name="logicalnot" unicode="&#xac;" horiz-adv-x="595" 
d="M470 32v201h-430v71h506v-272h-76z" />
    <glyph glyph-name="uni00AD" unicode="&#xad;" horiz-adv-x="313" 
d="M53 250v72h207v-72h-207z" />
    <glyph glyph-name="registered" unicode="&#xae;" horiz-adv-x="859" 
d="M293 140v445h147q67 0 104 -36t37 -90q0 -49 -30.5 -78.5t-84.5 -37.5q23 -18 52 -59l99 -144h-84l-103 154q-17 25 -30 34t-37 9v-197h-70zM429 -14q-154 0 -263 109.5t-109 263.5t109 263.5t263 109.5q155 0 264 -109t109 -264t-109 -264t-264 -109zM429 43
q135 0 223.5 89t88.5 227t-88.5 227t-223.5 89q-134 0 -222.5 -89.5t-88.5 -226.5q0 -138 88.5 -227t222.5 -89zM363 390h45q45 0 71.5 13.5t26.5 54.5q0 68 -80 68h-63v-136z" />
    <glyph glyph-name="macron" unicode="&#xaf;" horiz-adv-x="500" 
d="M113 572v67h273v-67h-273z" />
    <glyph glyph-name="degree" unicode="&#xb0;" horiz-adv-x="346" 
d="M173 414q-55 0 -94 38.5t-39 93.5q0 54 39 93t94 39t94 -39t39 -93q0 -55 -39 -93.5t-94 -38.5zM173 470q31 0 52 22t21 54t-21 54t-52 22t-52 -22t-21 -54t21 -54t52 -22z" />
    <glyph glyph-name="plusminus" unicode="&#xb1;" horiz-adv-x="574" 
d="M249 21v209h-207v70h207v199h78v-199h203v-70h-203v-209h-78zM69 -122v71h438v-71h-438z" />
    <glyph glyph-name="twosuperior" unicode="&#xb2;" horiz-adv-x="337" 
d="M32 336v38q38 30 58 47t49.5 46t43.5 54t14 48q0 47 -53 47q-42 0 -78 -32l-37 44q51 44 126 44q59 0 88 -25.5t29 -69.5q0 -47 -36 -91.5t-99 -95.5q2 2 42 2h111v-56h-258z" />
    <glyph glyph-name="threesuperior" unicode="&#xb3;" horiz-adv-x="309" 
d="M97 330q-47 0 -72 10l14 54q25 -9 55 -9q42 0 66.5 13t24.5 37q0 48 -108 50v47q43 1 70 14.5t27 36.5q0 34 -52 34q-38 0 -69 -26l-29 44q17 14 49 25.5t65 11.5q54 0 81.5 -20t27.5 -56q0 -31 -19.5 -50.5t-50.5 -26.5v-1q35 -3 58.5 -24.5t23.5 -57.5
q0 -51 -42.5 -78.5t-119.5 -27.5z" />
    <glyph glyph-name="acute" unicode="&#xb4;" horiz-adv-x="500" 
d="M148 540l90 128h122l-136 -128h-76z" />
    <glyph glyph-name="uni00B5" unicode="&#xb5;" horiz-adv-x="551" 
d="M75 -207v688h85v-332q0 -40 14.5 -63t55.5 -23q75 0 142 82v336h85v-377q0 -66 8 -104h-85q-5 25 -7 68q-72 -78 -152 -79q-39 0 -63 15h-2q3 -32 3 -109v-102h-84z" />
    <glyph glyph-name="paragraph" unicode="&#xb6;" horiz-adv-x="648" 
d="M257 -177v447q-84 0 -140.5 54.5t-56.5 142.5t56.5 143.5t140.5 55.5h332v-71h-79v-772h-77v772h-99v-772h-77z" />
    <glyph glyph-name="periodcentered" unicode="&#xb7;" horiz-adv-x="227" 
d="M114 225q-28 0 -47.5 19t-19.5 47t19.5 46.5t47.5 18.5t47 -18.5t19 -46.5t-19 -47t-47 -19z" />
    <glyph glyph-name="cedilla" unicode="&#xb8;" horiz-adv-x="499" 
d="M227 -221q-41 0 -70 12l13 46q22 -11 53 -11q50 0 50 38q0 44 -71 40l36 97h56l-25 -65q31 -5 51 -24t20 -48q0 -39 -32.5 -62t-80.5 -23z" />
    <glyph glyph-name="onesuperior" unicode="&#xb9;" horiz-adv-x="262" 
d="M105 336v270l-72 -20l-16 55l106 25h52v-330h-70z" />
    <glyph glyph-name="ordmasculine" unicode="&#xba;" horiz-adv-x="396" 
d="M197 314q-81 0 -122.5 53.5t-41.5 128.5t41 129t121 54q81 0 124.5 -54t43.5 -127q0 -75 -42.5 -129.5t-123.5 -54.5zM198 371q89 0 89 125q0 57 -23.5 91t-69.5 34q-85 0 -85 -123q0 -127 89 -127z" />
    <glyph glyph-name="guillemotright" unicode="&#xbb;" horiz-adv-x="488" 
d="M40 55l130 190l-130 191h88l131 -191l-131 -190h-88zM227 55l129 190l-129 191h87l132 -191l-132 -190h-87z" />
    <glyph glyph-name="onequarter" unicode="&#xbc;" horiz-adv-x="666" 
d="M105 336v270l-72 -20l-16 55l106 25h52v-330h-70zM72 0l415 666h70l-415 -666h-70zM527 0v68h-174v46l178 216h66v-208h54v-54h-54v-68h-70zM429 120q18 2 44 2h56v121h-1z" />
    <glyph glyph-name="onehalf" unicode="&#xbd;" horiz-adv-x="704" 
d="M105 336v270l-72 -20l-16 55l106 25h52v-330h-70zM72 0l415 666h70l-415 -666h-70zM400 0v38q40 32 58 47.5t48.5 45.5t44 54.5t13.5 47.5q0 47 -53 47q-42 0 -78 -32l-37 44q53 44 126 44q59 0 88.5 -25.5t29.5 -69.5q0 -47 -36.5 -91t-99.5 -95h3q3 0 7.5 0.5t9.5 0.5
h11h11h111v-56h-257z" />
    <glyph glyph-name="threequarters" unicode="&#xbe;" horiz-adv-x="714" 
d="M97 330q-47 0 -72 10l14 54q25 -9 55 -9q42 0 66.5 13t24.5 37q0 48 -108 50v47q43 1 70 14.5t27 36.5q0 34 -52 34q-38 0 -69 -26l-29 44q17 14 49 25.5t65 11.5q54 0 81.5 -20t27.5 -56q0 -31 -19.5 -50.5t-50.5 -26.5v-1q35 -3 58.5 -24.5t23.5 -57.5
q0 -51 -42.5 -78.5t-119.5 -27.5zM119 0l416 666h69l-415 -666h-70zM575 0v68h-174v46l177 216h66v-208h55v-54h-55v-68h-69zM476 120q18 2 45 2h55v121h-1z" />
    <glyph glyph-name="questiondown" unicode="&#xbf;" horiz-adv-x="402" 
d="M245 -193q-96 0 -147.5 47.5t-51.5 123.5q0 35 11 64.5t32.5 50.5t37 33t39.5 26q32 19 43.5 36t11.5 46v52h79v-61q0 -42 -15.5 -69t-57.5 -52q-32 -19 -47.5 -31t-29 -35.5t-13.5 -54.5q0 -103 117 -103q40 0 82 21l31 -65q-56 -29 -122 -29zM259 371q-26 0 -44 17.5
t-18 42.5q0 26 18 44t44 18t44 -18t18 -44q0 -25 -18 -42.5t-44 -17.5z" />
    <glyph glyph-name="Agrave" unicode="&#xc0;" horiz-adv-x="637" 
d="M195 232h240l-79 215q-12 33 -25 71.5t-15 43.5h-2q-16 -53 -39 -115zM20 0l255 666h87l257 -666h-98l-58 157h-296l-57 -157h-90zM283 719l-136 128h121l90 -128h-75z" />
    <glyph glyph-name="Aacute" unicode="&#xc1;" horiz-adv-x="637" 
d="M195 232h240l-79 215q-12 33 -25 71.5t-15 43.5h-2q-16 -53 -39 -115zM20 0l255 666h87l257 -666h-98l-58 157h-296l-57 -157h-90zM274 719l90 128h122l-136 -128h-76z" />
    <glyph glyph-name="Acircumflex" unicode="&#xc2;" horiz-adv-x="637" 
d="M195 232h240l-79 215q-12 33 -25 71.5t-15 43.5h-2q-16 -53 -39 -115zM20 0l255 666h87l257 -666h-98l-58 157h-296l-57 -157h-90zM161 720l123 154h64l122 -154h-78l-78 81l-76 -81h-77z" />
    <glyph glyph-name="Atilde" unicode="&#xc3;" horiz-adv-x="637" 
d="M195 232h240l-79 215q-12 33 -25 71.5t-15 43.5h-2q-16 -53 -39 -115zM20 0l255 666h87l257 -666h-98l-58 157h-296l-57 -157h-90zM366 723q-26 0 -58 19t-50 19q-7 0 -13.5 -2t-12.5 -6.5t-9.5 -8t-8.5 -9t-6 -6.5l-44 40q44 63 98 63q28 0 59.5 -19t48.5 -19
q27 0 52 31l44 -41q-46 -61 -100 -61z" />
    <glyph glyph-name="Adieresis" unicode="&#xc4;" horiz-adv-x="637" 
d="M195 232h240l-79 215q-12 33 -25 71.5t-15 43.5h-2q-16 -53 -39 -115zM20 0l255 666h87l257 -666h-98l-58 157h-296l-57 -157h-90zM219 718q-24 0 -40.5 16.5t-16.5 40.5q0 23 16.5 40t40.5 17t41 -17t17 -40q0 -24 -17 -40.5t-41 -16.5zM410 718q-23 0 -40 16.5
t-17 40.5q0 23 17 40t40 17q24 0 41 -17t17 -40q0 -24 -16.5 -40.5t-41.5 -16.5z" />
    <glyph glyph-name="Aring" unicode="&#xc5;" horiz-adv-x="637" 
d="M195 232h240l-79 215q-12 33 -25 71.5t-15 43.5h-2q-16 -53 -39 -115zM20 0l255 666h87l257 -666h-98l-58 157h-296l-57 -157h-90zM315 703q-39 0 -68.5 28.5t-29.5 68.5t29.5 68.5t68.5 28.5t68.5 -28.5t29.5 -68.5t-29.5 -68.5t-68.5 -28.5zM315 746q22 0 35.5 16
t13.5 38q0 23 -13 38.5t-36 15.5t-36 -15.5t-13 -38.5q0 -22 13.5 -38t35.5 -16z" />
    <glyph glyph-name="AE" unicode="&#xc6;" horiz-adv-x="824" 
d="M-17 0l382 666h394v-76h-260v-201h228v-75h-228v-238h267v-76h-357v174h-230l-97 -174h-99zM220 248h189v338z" />
    <glyph glyph-name="Ccedilla" unicode="&#xc7;" horiz-adv-x="616" 
d="M314 -221q-41 0 -70 12l13 46q22 -11 53 -11q50 0 50 38q0 44 -71 40l33 89q-126 19 -198.5 116.5t-72.5 225.5q0 91 38 168.5t114.5 126t177.5 48.5q111 0 189 -51l-44 -67q-63 43 -147 43q-110 0 -171.5 -77t-61.5 -189q0 -115 61 -194t174 -79q95 0 161 56l40 -64
q-29 -27 -83.5 -47.5t-119.5 -20.5h-3l-20 -52q31 -5 51 -24t20 -48q0 -39 -32.5 -62t-80.5 -23z" />
    <glyph glyph-name="Egrave" unicode="&#xc8;" horiz-adv-x="508" 
d="M93 0v666h351v-76h-261v-201h229v-75h-229v-238h268v-76h-358zM242 719l-136 128h121l90 -128h-75z" />
    <glyph glyph-name="Eacute" unicode="&#xc9;" horiz-adv-x="508" 
d="M232 719l90 128h122l-136 -128h-76zM93 0v666h351v-76h-261v-201h229v-75h-229v-238h268v-76h-358z" />
    <glyph glyph-name="Ecircumflex" unicode="&#xca;" horiz-adv-x="508" 
d="M119 720l123 154h64l122 -154h-78l-78 81l-76 -81h-77zM93 0v666h351v-76h-261v-201h229v-75h-229v-238h268v-76h-358z" />
    <glyph glyph-name="Edieresis" unicode="&#xcb;" horiz-adv-x="508" 
d="M177 718q-24 0 -40.5 16.5t-16.5 40.5q0 23 16.5 40t40.5 17t41 -17t17 -40q0 -24 -17 -40.5t-41 -16.5zM368 718q-23 0 -40 16.5t-17 40.5q0 23 17 40t40 17q24 0 41 -17t17 -40q0 -24 -16.5 -40.5t-41.5 -16.5zM93 0v666h351v-76h-261v-201h229v-75h-229v-238h268v-76
h-358z" />
    <glyph glyph-name="Igrave" unicode="&#xcc;" horiz-adv-x="290" 
d="M99 0v666h91v-666h-91zM113 719l-136 128h121l90 -128h-75z" />
    <glyph glyph-name="Iacute" unicode="&#xcd;" horiz-adv-x="290" 
d="M99 0v666h91v-666h-91zM105 719l90 128h122l-136 -128h-76z" />
    <glyph glyph-name="Icircumflex" unicode="&#xce;" horiz-adv-x="290" 
d="M99 0v666h91v-666h-91zM-9 720l123 154h64l122 -154h-78l-78 81l-76 -81h-77z" />
    <glyph glyph-name="Idieresis" unicode="&#xcf;" horiz-adv-x="290" 
d="M99 0v666h91v-666h-91zM49 718q-24 0 -40.5 16.5t-16.5 40.5q0 23 16.5 40t40.5 17t41 -17t17 -40q0 -24 -17 -40.5t-41 -16.5zM240 718q-23 0 -40 16.5t-17 40.5q0 23 17 40t40 17q24 0 41 -17t17 -40q0 -24 -16.5 -40.5t-41.5 -16.5z" />
    <glyph glyph-name="Eth" unicode="&#xd0;" horiz-adv-x="666" 
d="M93 0v309h-69v66h69v291h165q190 0 284 -87.5t94 -237.5q0 -153 -96 -247t-287 -94h-160zM184 74h77q138 0 209 67t71 198t-69.5 192t-215.5 61h-72v-217h110v-66h-110v-235z" />
    <glyph glyph-name="Ntilde" unicode="&#xd1;" horiz-adv-x="717" 
d="M92 0v666h89l300 -430q36 -52 63 -101h2q-4 48 -4 93v438h83v-666h-83l-315 454q-15 21 -54 89h-2q4 -48 4 -76v-467h-83zM409 723q-26 0 -58 19t-50 19q-7 0 -13.5 -2t-12.5 -6.5t-9.5 -8t-8.5 -9t-6 -6.5l-44 40q44 63 98 63q28 0 59.5 -19t48.5 -19q27 0 52 31l44 -41
q-46 -61 -100 -61z" />
    <glyph glyph-name="Ograve" unicode="&#xd2;" horiz-adv-x="763" 
d="M383 -12q-151 0 -241.5 100.5t-90.5 243.5q0 144 89.5 245t240.5 101t241 -100.5t90 -243.5t-89.5 -244.5t-239.5 -101.5zM381 63q111 0 173 77t62 192t-61.5 193t-171.5 78q-111 0 -174 -77.5t-63 -191.5q0 -115 62 -193t173 -78zM349 719l-136 128h121l90 -128h-75z
" />
    <glyph glyph-name="Oacute" unicode="&#xd3;" horiz-adv-x="763" 
d="M340 719l90 128h122l-136 -128h-76zM383 -12q-151 0 -241.5 100.5t-90.5 243.5q0 144 89.5 245t240.5 101t241 -100.5t90 -243.5t-89.5 -244.5t-239.5 -101.5zM381 63q111 0 173 77t62 192t-61.5 193t-171.5 78q-111 0 -174 -77.5t-63 -191.5q0 -115 62 -193t173 -78z
" />
    <glyph glyph-name="Ocircumflex" unicode="&#xd4;" horiz-adv-x="763" 
d="M227 720l123 154h64l122 -154h-78l-78 81l-76 -81h-77zM383 -12q-151 0 -241.5 100.5t-90.5 243.5q0 144 89.5 245t240.5 101t241 -100.5t90 -243.5t-89.5 -244.5t-239.5 -101.5zM381 63q111 0 173 77t62 192t-61.5 193t-171.5 78q-111 0 -174 -77.5t-63 -191.5
q0 -115 62 -193t173 -78z" />
    <glyph glyph-name="Otilde" unicode="&#xd5;" horiz-adv-x="763" 
d="M383 -12q-151 0 -241.5 100.5t-90.5 243.5q0 144 89.5 245t240.5 101t241 -100.5t90 -243.5t-89.5 -244.5t-239.5 -101.5zM381 63q111 0 173 77t62 192t-61.5 193t-171.5 78q-111 0 -174 -77.5t-63 -191.5q0 -115 62 -193t173 -78zM432 723q-26 0 -58 19t-50 19
q-7 0 -13.5 -2t-12.5 -6.5t-9.5 -8t-8.5 -9t-6 -6.5l-44 40q44 63 98 63q28 0 59.5 -19t48.5 -19q27 0 52 31l44 -41q-46 -61 -100 -61z" />
    <glyph glyph-name="Odieresis" unicode="&#xd6;" horiz-adv-x="763" 
d="M285 718q-24 0 -40.5 16.5t-16.5 40.5q0 23 16.5 40t40.5 17t41 -17t17 -40q0 -24 -17 -40.5t-41 -16.5zM476 718q-23 0 -40 16.5t-17 40.5q0 23 17 40t40 17q24 0 41 -17t17 -40q0 -24 -16.5 -40.5t-41.5 -16.5zM383 -12q-151 0 -241.5 100.5t-90.5 243.5
q0 144 89.5 245t240.5 101t241 -100.5t90 -243.5t-89.5 -244.5t-239.5 -101.5zM381 63q111 0 173 77t62 192t-61.5 193t-171.5 78q-111 0 -174 -77.5t-63 -191.5q0 -115 62 -193t173 -78z" />
    <glyph glyph-name="multiply" unicode="&#xd7;" horiz-adv-x="511" 
d="M385 80l-134 134l-127 -127l-52 51l128 127l-128 128l54 54l128 -127l127 127l52 -51l-127 -127l134 -135z" />
    <glyph glyph-name="Oslash" unicode="&#xd8;" horiz-adv-x="763" 
d="M161 -67l-51 37l61 90q-57 48 -88.5 119.5t-31.5 152.5q0 144 89.5 245t240.5 101q100 0 178 -48l63 93l52 -38l-65 -95q103 -100 103 -256q0 -143 -89.5 -244.5t-239.5 -101.5q-87 0 -159 37zM146 334q0 -132 75 -207l294 435q-55 41 -132 41q-111 0 -174 -77.5
t-63 -191.5zM381 63q111 0 173 77t62 192t-58 188l-291 -429q50 -28 114 -28z" />
    <glyph glyph-name="Ugrave" unicode="&#xd9;" horiz-adv-x="695" 
d="M351 -12q-134 0 -198.5 69t-64.5 194v415h90v-405q0 -100 42.5 -148t132.5 -48q84 0 127 49t43 134v418h84v-409q0 -128 -64 -198.5t-192 -70.5zM315 719l-136 128h121l90 -128h-75z" />
    <glyph glyph-name="Uacute" unicode="&#xda;" horiz-adv-x="695" 
d="M306 719l90 128h122l-136 -128h-76zM351 -12q-134 0 -198.5 69t-64.5 194v415h90v-405q0 -100 42.5 -148t132.5 -48q84 0 127 49t43 134v418h84v-409q0 -128 -64 -198.5t-192 -70.5z" />
    <glyph glyph-name="Ucircumflex" unicode="&#xdb;" horiz-adv-x="695" 
d="M193 720l123 154h64l122 -154h-78l-78 81l-76 -81h-77zM351 -12q-134 0 -198.5 69t-64.5 194v415h90v-405q0 -100 42.5 -148t132.5 -48q84 0 127 49t43 134v418h84v-409q0 -128 -64 -198.5t-192 -70.5z" />
    <glyph glyph-name="Udieresis" unicode="&#xdc;" horiz-adv-x="695" 
d="M251 718q-24 0 -40.5 16.5t-16.5 40.5q0 23 16.5 40t40.5 17t41 -17t17 -40q0 -24 -17 -40.5t-41 -16.5zM442 718q-23 0 -40 16.5t-17 40.5q0 23 17 40t40 17q24 0 41 -17t17 -40q0 -24 -16.5 -40.5t-41.5 -16.5zM351 -12q-134 0 -198.5 69t-64.5 194v415h90v-405
q0 -100 42.5 -148t132.5 -48q84 0 127 49t43 134v418h84v-409q0 -128 -64 -198.5t-192 -70.5z" />
    <glyph glyph-name="Yacute" unicode="&#xdd;" horiz-adv-x="563" 
d="M239 0v252l-222 414h100l171 -329h1l171 329h87l-217 -414v-252h-91zM241 719l90 128h122l-136 -128h-76z" />
    <glyph glyph-name="Thorn" unicode="&#xde;" horiz-adv-x="543" 
d="M93 0v666h91v-114h86q106 0 172 -50t66 -145q0 -100 -66 -154t-184 -54h-74v-149h-91zM184 223h75q157 0 157 131q0 124 -154 124h-78v-255z" />
    <glyph glyph-name="germandbls" unicode="&#xdf;" horiz-adv-x="553" 
d="M346 -12q-75 0 -126 34l33 66q49 -30 92 -30q40 0 63.5 17t23.5 50q0 44 -86 93l-4.5 3t-4 2.5t-4.5 2.5q-30 17 -47.5 29.5t-32.5 36t-15 52.5q0 20 4.5 36t18 31.5t19.5 21.5t28.5 22.5t24.5 18.5q26 21 38.5 41t12.5 51q0 93 -99 93q-54 0 -86 -41.5t-32 -123.5v-494
h-85v496q0 116 57.5 176t147.5 60q88 0 135 -45.5t47 -114.5q0 -50 -22.5 -81.5t-61.5 -60.5q-3 -2 -11 -8t-11 -8t-9.5 -7t-9 -7t-7.5 -6.5t-7 -7.5t-5 -7t-4 -8l-2 -8t-1 -9q0 -12 3 -20t16.5 -18.5t22.5 -15.5t38 -22q28 -16 43.5 -26.5t35.5 -28.5t29.5 -41t9.5 -51
q0 -66 -44.5 -104.5t-125.5 -38.5z" />
    <glyph glyph-name="agrave" unicode="&#xe0;" horiz-adv-x="478" 
d="M181 -12q-61 0 -100 36t-39 95q0 60 41 99t95.5 53t120.5 14h20v42q0 49 -22 71.5t-71 22.5q-65 0 -125 -51l-42 57q71 66 174 66q170 0 170 -163v-214q0 -66 12 -116h-84q-5 17 -8 57q-24 -31 -61.5 -50t-80.5 -19zM198 58q72 0 121 64v104h-20q-169 0 -169 -104
q0 -32 21 -48t47 -16zM202 540l-136 128h121l90 -128h-75z" />
    <glyph glyph-name="aacute" unicode="&#xe1;" horiz-adv-x="478" 
d="M181 -12q-61 0 -100 36t-39 95q0 60 41 99t95.5 53t120.5 14h20v42q0 49 -22 71.5t-71 22.5q-65 0 -125 -51l-42 57q71 66 174 66q170 0 170 -163v-214q0 -66 12 -116h-84q-5 17 -8 57q-24 -31 -61.5 -50t-80.5 -19zM198 58q72 0 121 64v104h-20q-169 0 -169 -104
q0 -32 21 -48t47 -16zM193 540l90 128h122l-136 -128h-76z" />
    <glyph glyph-name="acircumflex" unicode="&#xe2;" horiz-adv-x="478" 
d="M181 -12q-61 0 -100 36t-39 95q0 60 41 99t95.5 53t120.5 14h20v42q0 49 -22 71.5t-71 22.5q-65 0 -125 -51l-42 57q71 66 174 66q170 0 170 -163v-214q0 -66 12 -116h-84q-5 17 -8 57q-24 -31 -61.5 -50t-80.5 -19zM198 58q72 0 121 64v104h-20q-169 0 -169 -104
q0 -32 21 -48t47 -16zM80 541l123 154h64l122 -154h-78l-78 81l-76 -81h-77z" />
    <glyph glyph-name="atilde" unicode="&#xe3;" horiz-adv-x="478" 
d="M181 -12q-61 0 -100 36t-39 95q0 60 41 99t95.5 53t120.5 14h20v42q0 49 -22 71.5t-71 22.5q-65 0 -125 -51l-42 57q71 66 174 66q170 0 170 -163v-214q0 -66 12 -116h-84q-5 17 -8 57q-24 -31 -61.5 -50t-80.5 -19zM198 58q72 0 121 64v104h-20q-169 0 -169 -104
q0 -32 21 -48t47 -16zM285 544q-26 0 -58 19t-50 19q-15 0 -30.5 -12.5t-19.5 -19.5l-44 40q44 63 98 63q28 0 59.5 -19t48.5 -19q27 0 52 31l44 -41q-46 -61 -100 -61z" />
    <glyph glyph-name="adieresis" unicode="&#xe4;" horiz-adv-x="478" 
d="M181 -12q-61 0 -100 36t-39 95q0 60 41 99t95.5 53t120.5 14h20v42q0 49 -22 71.5t-71 22.5q-65 0 -125 -51l-42 57q71 66 174 66q170 0 170 -163v-214q0 -66 12 -116h-84q-5 17 -8 57q-24 -31 -61.5 -50t-80.5 -19zM198 58q72 0 121 64v104h-20q-169 0 -169 -104
q0 -32 21 -48t47 -16zM138 539q-24 0 -40.5 16.5t-16.5 40.5q0 23 16.5 40t40.5 17t41 -17t17 -40q0 -24 -17 -40.5t-41 -16.5zM329 539q-23 0 -40 16.5t-17 40.5q0 23 17 40t40 17q25 0 41.5 -16.5t16.5 -40.5t-16.5 -40.5t-41.5 -16.5z" />
    <glyph glyph-name="aring" unicode="&#xe5;" horiz-adv-x="478" 
d="M181 -12q-61 0 -100 36t-39 95q0 60 41 99t95.5 53t120.5 14h20v42q0 49 -22 71.5t-71 22.5q-65 0 -125 -51l-42 57q71 66 174 66q170 0 170 -163v-214q0 -66 12 -116h-84q-5 17 -8 57q-24 -31 -61.5 -50t-80.5 -19zM198 58q72 0 121 64v104h-20q-169 0 -169 -104
q0 -32 21 -48t47 -16zM234 544q-39 0 -68.5 28.5t-29.5 68.5t29.5 68.5t68.5 28.5t68.5 -28.5t29.5 -68.5t-29.5 -68.5t-68.5 -28.5zM234 587q22 0 35.5 16t13.5 38q0 23 -13 38.5t-36 15.5t-36 -15.5t-13 -38.5q0 -22 13.5 -38t35.5 -16z" />
    <glyph glyph-name="ae" unicode="&#xe6;" horiz-adv-x="775" 
d="M181 -12q-61 0 -100 36t-39 95q0 60 41 99t95.5 53t120.5 14h21v42q0 46 -21 70t-73 24q-12 0 -24 -2t-21 -4t-19.5 -6.5t-16.5 -7.5t-14.5 -9t-11.5 -8t-11 -8l-7 -6l-42 57q75 66 174 66q110 0 147 -73q63 73 158 73q92 0 143 -60t51 -162q0 -11 -2 -35h-322
q2 -79 37.5 -128.5t108.5 -49.5q12 0 24 1.5t21.5 3t20 5.5t17 6t16 7t12.5 6.5t11 6.5t9 5l33 -62q-75 -49 -168 -49q-122 0 -186 94q-77 -94 -183 -94zM198 58q86 0 137 79q-14 46 -17 89h-19q-169 0 -169 -104q0 -32 21 -48t47 -16zM411 301h235q-2 54 -28.5 88.5
t-81.5 34.5q-53 0 -84.5 -33t-40.5 -90z" />
    <glyph glyph-name="ccedilla" unicode="&#xe7;" horiz-adv-x="444" 
d="M202 -221q-41 0 -70 12l13 46q22 -11 53 -11q50 0 50 38q0 44 -71 40l33 90q-81 17 -126.5 85.5t-45.5 161.5q0 119 65 185.5t163 66.5q88 0 147 -46l-36 -62q-53 38 -111 38q-68 0 -103 -49.5t-35 -130.5q0 -80 35.5 -132t104.5 -52q67 0 115 38l32 -62
q-59 -47 -151 -47l-20 -52q31 -5 51 -24t20 -48q0 -39 -32.5 -62t-80.5 -23z" />
    <glyph glyph-name="egrave" unicode="&#xe8;" horiz-adv-x="496" 
d="M271 -12q-112 0 -172.5 71.5t-60.5 184.5q0 108 62.5 178.5t158.5 70.5q91 0 142 -59t51 -161q0 -11 -2 -37h-321q2 -79 37.5 -128.5t108.5 -49.5q59 0 131 41l33 -62q-75 -49 -168 -49zM132 301h235q-2 54 -28.5 88.5t-81.5 34.5q-53 0 -84.5 -33t-40.5 -90zM226 540
l-136 128h121l90 -128h-75z" />
    <glyph glyph-name="eacute" unicode="&#xe9;" horiz-adv-x="496" 
d="M216 540l90 128h122l-136 -128h-76zM271 -12q-112 0 -172.5 71.5t-60.5 184.5q0 108 62.5 178.5t158.5 70.5q91 0 142 -59t51 -161q0 -11 -2 -37h-321q2 -79 37.5 -128.5t108.5 -49.5q59 0 131 41l33 -62q-75 -49 -168 -49zM132 301h235q-2 54 -28.5 88.5t-81.5 34.5
q-53 0 -84.5 -33t-40.5 -90z" />
    <glyph glyph-name="ecircumflex" unicode="&#xea;" horiz-adv-x="496" 
d="M103 541l123 154h64l122 -154h-78l-78 81l-76 -81h-77zM271 -12q-112 0 -172.5 71.5t-60.5 184.5q0 108 62.5 178.5t158.5 70.5q91 0 142 -59t51 -161q0 -11 -2 -37h-321q2 -79 37.5 -128.5t108.5 -49.5q59 0 131 41l33 -62q-75 -49 -168 -49zM132 301h235
q-2 54 -28.5 88.5t-81.5 34.5q-53 0 -84.5 -33t-40.5 -90z" />
    <glyph glyph-name="edieresis" unicode="&#xeb;" horiz-adv-x="496" 
d="M161 539q-24 0 -40.5 16.5t-16.5 40.5q0 23 16.5 40t40.5 17t41 -17t17 -40q0 -24 -17 -40.5t-41 -16.5zM352 539q-23 0 -40 16.5t-17 40.5q0 23 17 40t40 17q24 0 41 -16.5t17 -40.5t-16.5 -40.5t-41.5 -16.5zM271 -12q-112 0 -172.5 71.5t-60.5 184.5q0 108 62.5 178.5
t158.5 70.5q91 0 142 -59t51 -161q0 -11 -2 -37h-321q2 -79 37.5 -128.5t108.5 -49.5q59 0 131 41l33 -62q-75 -49 -168 -49zM132 301h235q-2 54 -28.5 88.5t-81.5 34.5q-53 0 -84.5 -33t-40.5 -90z" />
    <glyph glyph-name="igrave" unicode="&#xec;" horiz-adv-x="256" 
d="M85 0v481h86v-481h-86zM96 540l-136 128h121l90 -128h-75z" />
    <glyph glyph-name="iacute" unicode="&#xed;" horiz-adv-x="256" 
d="M88 540l90 128h122l-136 -128h-76zM85 0v481h86v-481h-86z" />
    <glyph glyph-name="icircumflex" unicode="&#xee;" horiz-adv-x="256" 
d="M-26 541l123 154h64l122 -154h-78l-78 81l-76 -81h-77zM85 0v481h86v-481h-86z" />
    <glyph glyph-name="idieresis" unicode="&#xef;" horiz-adv-x="256" 
d="M32 539q-24 0 -40.5 16.5t-16.5 40.5q0 23 16.5 40t40.5 17t41 -17t17 -40q0 -24 -17 -40.5t-41 -16.5zM223 539q-23 0 -40 16.5t-17 40.5q0 23 17 40t40 17q25 0 41.5 -16.5t16.5 -40.5t-16.5 -40.5t-41.5 -16.5zM85 0v481h86v-481h-86z" />
    <glyph glyph-name="eth" unicode="&#xf0;" horiz-adv-x="542" 
d="M264 -12q-96 0 -161 69t-65 182q0 115 62 181t157 66q93 0 143 -63q-25 120 -107 181l-77 -66l-40 46l60 51q-63 28 -150 28l17 69q112 0 196 -41l71 61l41 -46l-57 -49q148 -113 148 -357q0 -135 -61 -223.5t-177 -88.5zM267 58q69 0 107.5 62t38.5 185q0 1 -0.5 10
t-0.5 10q-52 90 -156 90q-60 0 -93.5 -47t-33.5 -127q0 -86 37.5 -134.5t100.5 -48.5z" />
    <glyph glyph-name="ntilde" unicode="&#xf1;" horiz-adv-x="535" 
d="M79 0v481h84v-67q64 79 156 79q73 0 107.5 -41.5t34.5 -109.5v-342h-85v325q0 94 -81 94q-70 0 -132 -83v-336h-84zM311 544q-26 0 -58 19t-50 19q-7 0 -13.5 -2t-12.5 -6.5t-9.5 -8t-8.5 -9t-6 -6.5l-44 40q44 63 98 63q28 0 59.5 -19t48.5 -19q27 0 52 31l44 -41
q-46 -61 -100 -61z" />
    <glyph glyph-name="ograve" unicode="&#xf2;" horiz-adv-x="532" 
d="M264 -12q-77 0 -130 40t-74.5 95t-21.5 117q0 45 12.5 88t37.5 81t70 61t104 23q58 0 104.5 -22.5t73 -60t40.5 -80.5t14 -88t-13.5 -88t-39.5 -81t-72 -61.5t-105 -23.5zM266 58q68 0 103 51t35 131q0 79 -37.5 131t-105.5 52t-100.5 -49.5t-32.5 -131.5
q0 -81 34.5 -132.5t103.5 -51.5zM235 540l-136 128h121l90 -128h-75z" />
    <glyph glyph-name="oacute" unicode="&#xf3;" horiz-adv-x="532" 
d="M225 540l90 128h122l-136 -128h-76zM264 -12q-77 0 -130 40t-74.5 95t-21.5 117q0 45 12.5 88t37.5 81t70 61t104 23q58 0 104.5 -22.5t73 -60t40.5 -80.5t14 -88t-13.5 -88t-39.5 -81t-72 -61.5t-105 -23.5zM266 58q68 0 103 51t35 131q0 79 -37.5 131t-105.5 52
t-100.5 -49.5t-32.5 -131.5q0 -81 34.5 -132.5t103.5 -51.5z" />
    <glyph glyph-name="ocircumflex" unicode="&#xf4;" horiz-adv-x="532" 
d="M112 541l123 154h64l122 -154h-78l-78 81l-76 -81h-77zM264 -12q-77 0 -130 40t-74.5 95t-21.5 117q0 45 12.5 88t37.5 81t70 61t104 23q58 0 104.5 -22.5t73 -60t40.5 -80.5t14 -88t-13.5 -88t-39.5 -81t-72 -61.5t-105 -23.5zM266 58q68 0 103 51t35 131
q0 79 -37.5 131t-105.5 52t-100.5 -49.5t-32.5 -131.5q0 -81 34.5 -132.5t103.5 -51.5z" />
    <glyph glyph-name="otilde" unicode="&#xf5;" horiz-adv-x="532" 
d="M264 -12q-77 0 -130 40t-74.5 95t-21.5 117q0 45 12.5 88t37.5 81t70 61t104 23q58 0 104.5 -22.5t73 -60t40.5 -80.5t14 -88t-13.5 -88t-39.5 -81t-72 -61.5t-105 -23.5zM266 58q68 0 103 51t35 131q0 79 -37.5 131t-105.5 52t-100.5 -49.5t-32.5 -131.5
q0 -81 34.5 -132.5t103.5 -51.5zM317 544q-26 0 -58 19t-50 19q-15 0 -30.5 -12.5t-19.5 -19.5l-44 40q44 63 98 63q28 0 59.5 -19t48.5 -19q27 0 52 31l44 -41q-46 -61 -100 -61z" />
    <glyph glyph-name="odieresis" unicode="&#xf6;" horiz-adv-x="532" 
d="M170 539q-24 0 -40.5 16.5t-16.5 40.5q0 23 16.5 40t40.5 17t41 -17t17 -40q0 -24 -17 -40.5t-41 -16.5zM361 539q-23 0 -40 16.5t-17 40.5q0 23 17 40t40 17q25 0 41.5 -16.5t16.5 -40.5t-16.5 -40.5t-41.5 -16.5zM264 -12q-77 0 -130 40t-74.5 95t-21.5 117
q0 45 12.5 88t37.5 81t70 61t104 23q58 0 104.5 -22.5t73 -60t40.5 -80.5t14 -88t-13.5 -88t-39.5 -81t-72 -61.5t-105 -23.5zM266 58q68 0 103 51t35 131q0 79 -37.5 131t-105.5 52t-100.5 -49.5t-32.5 -131.5q0 -81 34.5 -132.5t103.5 -51.5z" />
    <glyph glyph-name="divide" unicode="&#xf7;" horiz-adv-x="572" 
d="M284 13q-25 0 -42.5 17t-17.5 41t17.5 40.5t42.5 16.5q24 0 41 -16.5t17 -40.5t-17 -41t-41 -17zM284 352q-25 0 -42.5 17.5t-17.5 41.5q0 23 17.5 40t42.5 17q24 0 41 -17t17 -40q0 -24 -17 -41.5t-41 -17.5zM37 207v68h498v-68h-498z" />
    <glyph glyph-name="oslash" unicode="&#xf8;" horiz-adv-x="532" 
d="M92 -57l-46 31l55 82q-63 72 -63 184q0 45 12.5 88t37.5 81t70 61t104 23q63 0 112 -27l58 88l48 -33l-60 -89q74 -73 74 -190q0 -45 -13.5 -88t-39.5 -81t-72 -61.5t-105 -23.5q-69 0 -120 32zM266 55q68 0 104 52.5t36 132.5q0 76 -32 125l-190 -283q33 -27 82 -27z
M126 242q0 -70 24 -116l184 279q-32 20 -73 20q-68 0 -101.5 -51t-33.5 -132z" />
    <glyph glyph-name="ugrave" unicode="&#xf9;" horiz-adv-x="534" 
d="M216 -12q-73 0 -108 41.5t-35 110.5v341h85v-325q0 -46 18.5 -69.5t63.5 -23.5q31 0 62 19.5t44.5 34.5t23.5 29v335h85v-372q0 -67 10 -109h-85q-6 24 -8 70q-61 -82 -156 -82zM236 540l-136 128h121l90 -128h-75z" />
    <glyph glyph-name="uacute" unicode="&#xfa;" horiz-adv-x="534" 
d="M227 540l90 128h122l-136 -128h-76zM216 -12q-73 0 -108 41.5t-35 110.5v341h85v-325q0 -46 18.5 -69.5t63.5 -23.5q31 0 62 19.5t44.5 34.5t23.5 29v335h85v-372q0 -67 10 -109h-85q-6 24 -8 70q-61 -82 -156 -82z" />
    <glyph glyph-name="ucircumflex" unicode="&#xfb;" horiz-adv-x="534" 
d="M113 541l123 154h64l122 -154h-78l-78 81l-76 -81h-77zM216 -12q-73 0 -108 41.5t-35 110.5v341h85v-325q0 -46 18.5 -69.5t63.5 -23.5q31 0 62 19.5t44.5 34.5t23.5 29v335h85v-372q0 -67 10 -109h-85q-6 24 -8 70q-61 -82 -156 -82z" />
    <glyph glyph-name="udieresis" unicode="&#xfc;" horiz-adv-x="534" 
d="M171 539q-24 0 -40.5 16.5t-16.5 40.5q0 23 16.5 40t40.5 17t41 -17t17 -40q0 -24 -17 -40.5t-41 -16.5zM362 539q-23 0 -40 16.5t-17 40.5q0 23 17 40t40 17q24 0 41 -16.5t17 -40.5t-16.5 -40.5t-41.5 -16.5zM216 -12q-73 0 -108 41.5t-35 110.5v341h85v-325
q0 -46 18.5 -69.5t63.5 -23.5q31 0 62 19.5t44.5 34.5t23.5 29v335h85v-372q0 -67 10 -109h-85q-6 24 -8 70q-61 -82 -156 -82z" />
    <glyph glyph-name="yacute" unicode="&#xfd;" horiz-adv-x="478" 
d="M61 -232q-27 0 -52 5l12 70q21 -3 39 -3q48 0 74 25t45 79l22 60l-181 477h94l131 -370h3l126 370h89l-203 -543q-31 -83 -73.5 -126.5t-125.5 -43.5zM201 540l90 128h122l-136 -128h-76z" />
    <glyph glyph-name="thorn" unicode="&#xfe;" horiz-adv-x="538" 
d="M79 -219v939h84v-290q53 63 138 63q90 0 143 -66.5t53 -184.5q0 -113 -60 -183.5t-154 -70.5q-74 0 -120 41v-248h-84zM272 59q64 0 99 49.5t35 131.5t-31.5 131t-93.5 49q-32 0 -64.5 -17.5t-53.5 -46.5v-255q45 -42 109 -42z" />
    <glyph glyph-name="ydieresis" unicode="&#xff;" horiz-adv-x="478" 
d="M61 -232q-27 0 -52 5l12 70q21 -3 39 -3q48 0 74 25t45 79l22 60l-181 477h94l131 -370h3l126 370h89l-203 -543q-31 -83 -73.5 -126.5t-125.5 -43.5zM147 539q-24 0 -40.5 16.5t-16.5 40.5q0 23 16.5 40t40.5 17t41 -17t17 -40q0 -24 -17 -40.5t-41 -16.5zM338 539
q-23 0 -40 16.5t-17 40.5q0 23 17 40t40 17q24 0 41 -16.5t17 -40.5t-16.5 -40.5t-41.5 -16.5z" />
    <glyph glyph-name="Amacron" unicode="&#x100;" horiz-adv-x="637" 
d="M195 232h240l-79 215q-12 33 -25 71.5t-15 43.5h-2q-16 -53 -39 -115zM20 0l255 666h87l257 -666h-98l-58 157h-296l-57 -157h-90zM179 751v67h273v-67h-273z" />
    <glyph glyph-name="amacron" unicode="&#x101;" horiz-adv-x="478" 
d="M181 -12q-61 0 -100 36t-39 95q0 60 41 99t95.5 53t120.5 14h20v42q0 49 -22 71.5t-71 22.5q-65 0 -125 -51l-42 57q71 66 174 66q170 0 170 -163v-214q0 -66 12 -116h-84q-5 17 -8 57q-24 -31 -61.5 -50t-80.5 -19zM198 58q72 0 121 64v104h-20q-169 0 -169 -104
q0 -32 21 -48t47 -16zM98 572v67h273v-67h-273z" />
    <glyph glyph-name="Abreve" unicode="&#x102;" horiz-adv-x="637" 
d="M195 232h240l-79 215q-12 33 -25 71.5t-15 43.5h-2q-16 -53 -39 -115zM20 0l255 666h87l257 -666h-98l-58 157h-296l-57 -157h-90zM316 714q-59 0 -101 36t-48 108h74q3 -37 22.5 -59t52.5 -22q32 0 51.5 22t22.5 59h74q-6 -72 -48 -108t-100 -36z" />
    <glyph glyph-name="abreve" unicode="&#x103;" horiz-adv-x="478" 
d="M181 -12q-61 0 -100 36t-39 95q0 60 41 99t95.5 53t120.5 14h20v42q0 49 -22 71.5t-71 22.5q-65 0 -125 -51l-42 57q71 66 174 66q170 0 170 -163v-214q0 -66 12 -116h-84q-5 17 -8 57q-24 -31 -61.5 -50t-80.5 -19zM198 58q72 0 121 64v104h-20q-169 0 -169 -104
q0 -32 21 -48t47 -16zM235 535q-59 0 -101 36t-48 108h74q3 -37 22.5 -59t52.5 -22q32 0 51.5 22t22.5 59h74q-6 -72 -48 -108t-100 -36z" />
    <glyph glyph-name="Aogonek" unicode="&#x104;" horiz-adv-x="637" 
d="M558 -221q-48 0 -75.5 26t-27.5 67q0 65 66 128l-58 157h-296l-57 -157h-90l255 666h87l257 -666l-11 -2q-35 -6 -59.5 -42t-24.5 -73q0 -48 49 -48q22 0 43 8l12 -47q-32 -17 -70 -17zM195 232h240l-79 215q-12 33 -25 71.5t-15 43.5h-2q-16 -53 -39 -115z" />
    <glyph glyph-name="aogonek" unicode="&#x105;" horiz-adv-x="478" 
d="M368 -221q-48 0 -75.5 26t-27.5 67q0 65 66 128q-5 17 -8 57q-24 -31 -61.5 -50t-80.5 -19q-61 0 -100 36t-39 95q0 60 41 99t95.5 53t120.5 14h20v42q0 49 -22 71.5t-71 22.5q-65 0 -125 -51l-42 57q71 66 174 66q170 0 170 -163v-214q0 -63 12 -119l-6 -1
q-31 -9 -53.5 -43.5t-22.5 -69.5q0 -48 50 -48q22 0 43 8l12 -47q-32 -17 -70 -17zM198 58q72 0 121 64v104h-20q-169 0 -169 -104q0 -32 21 -48t47 -16z" />
    <glyph glyph-name="Cacute" unicode="&#x106;" horiz-adv-x="616" 
d="M335 719l90 128h122l-136 -128h-76zM379 -12q-151 0 -239.5 102t-88.5 245q0 91 38 168.5t114.5 126t177.5 48.5q111 0 189 -51l-44 -67q-63 43 -147 43q-110 0 -171.5 -77t-61.5 -189q0 -115 61 -194t174 -79q95 0 161 56l40 -64q-29 -27 -83.5 -47.5t-119.5 -20.5z" />
    <glyph glyph-name="cacute" unicode="&#x107;" horiz-adv-x="444" 
d="M222 540l90 128h122l-136 -128h-76zM263 -12q-105 0 -165 73t-60 180q0 119 65 185.5t163 66.5q88 0 147 -46l-36 -62q-53 38 -111 38q-68 0 -103 -49.5t-35 -130.5q0 -80 35.5 -132t104.5 -52q67 0 115 38l32 -62q-59 -47 -152 -47z" />
    <glyph glyph-name="Ccircumflex" unicode="&#x108;" horiz-adv-x="616" 
d="M222 720l123 154h64l122 -154h-78l-78 81l-76 -81h-77zM379 -12q-151 0 -239.5 102t-88.5 245q0 91 38 168.5t114.5 126t177.5 48.5q111 0 189 -51l-44 -67q-63 43 -147 43q-110 0 -171.5 -77t-61.5 -189q0 -115 61 -194t174 -79q95 0 161 56l40 -64q-29 -27 -83.5 -47.5
t-119.5 -20.5z" />
    <glyph glyph-name="ccircumflex" unicode="&#x109;" horiz-adv-x="444" 
d="M108 541l123 154h64l122 -154h-78l-78 81l-76 -81h-77zM263 -12q-105 0 -165 73t-60 180q0 119 65 185.5t163 66.5q88 0 147 -46l-36 -62q-53 38 -111 38q-68 0 -103 -49.5t-35 -130.5q0 -80 35.5 -132t104.5 -52q67 0 115 38l32 -62q-59 -47 -152 -47z" />
    <glyph glyph-name="Cdotaccent" unicode="&#x10a;" horiz-adv-x="616" 
d="M379 -12q-151 0 -239.5 102t-88.5 245q0 91 38 168.5t114.5 126t177.5 48.5q111 0 189 -51l-44 -67q-63 43 -147 43q-110 0 -171.5 -77t-61.5 -189q0 -115 61 -194t174 -79q95 0 161 56l40 -64q-29 -27 -83.5 -47.5t-119.5 -20.5zM376 746q-25 0 -41.5 17t-16.5 41
t16.5 40.5t41.5 16.5t41.5 -16.5t16.5 -40.5t-16.5 -41t-41.5 -17z" />
    <glyph glyph-name="cdotaccent" unicode="&#x10b;" horiz-adv-x="444" 
d="M263 -12q-105 0 -165 73t-60 180q0 119 65 185.5t163 66.5q88 0 147 -46l-36 -62q-53 38 -111 38q-68 0 -103 -49.5t-35 -130.5q0 -80 35.5 -132t104.5 -52q67 0 115 38l32 -62q-59 -47 -152 -47zM262 567q-25 0 -41.5 17t-16.5 41t16.5 40.5t41.5 16.5t41.5 -16.5
t16.5 -40.5t-16.5 -41t-41.5 -17z" />
    <glyph glyph-name="Ccaron" unicode="&#x10c;" horiz-adv-x="616" 
d="M343 718l-121 155h77l78 -82l76 82h78l-124 -155h-64zM379 -12q-151 0 -239.5 102t-88.5 245q0 91 38 168.5t114.5 126t177.5 48.5q111 0 189 -51l-44 -67q-63 43 -147 43q-110 0 -171.5 -77t-61.5 -189q0 -115 61 -194t174 -79q95 0 161 56l40 -64q-29 -27 -83.5 -47.5
t-119.5 -20.5z" />
    <glyph glyph-name="ccaron" unicode="&#x10d;" horiz-adv-x="444" 
d="M229 539l-121 155h77l78 -82l76 82h78l-124 -155h-64zM263 -12q-105 0 -165 73t-60 180q0 119 65 185.5t163 66.5q88 0 147 -46l-36 -62q-53 38 -111 38q-68 0 -103 -49.5t-35 -130.5q0 -80 35.5 -132t104.5 -52q67 0 115 38l32 -62q-59 -47 -152 -47z" />
    <glyph glyph-name="Dcaron" unicode="&#x10e;" horiz-adv-x="684" 
d="M291 718l-121 155h77l78 -82l76 82h78l-124 -155h-64zM93 0v666h165q190 0 284 -87.5t94 -237.5q0 -153 -96 -247t-287 -94h-160zM184 74h77q138 0 209 67t71 198t-69.5 192t-215.5 61h-72v-518z" />
    <glyph glyph-name="dcaron" unicode="&#x10f;" horiz-adv-x="555" 
d="M505 550l40 170h100l-77 -170h-63zM237 -12q-90 0 -144.5 67t-54.5 185q0 113 60.5 183t152.5 70q75 0 121 -40v267h84v-614q0 -50 13 -106h-85q-7 24 -9 55q-54 -67 -138 -67zM257 62q68 0 115 63v256q-46 41 -109 41q-64 0 -99 -49.5t-35 -131.5q0 -179 128 -179z" />
    <glyph glyph-name="Dcroat" unicode="&#x110;" horiz-adv-x="666" 
d="M93 0v309h-69v66h69v291h165q190 0 284 -87.5t94 -237.5q0 -153 -96 -247t-287 -94h-160zM184 74h77q138 0 209 67t71 198t-69.5 192t-215.5 61h-72v-217h110v-66h-110v-235z" />
    <glyph glyph-name="dcroat" unicode="&#x111;" horiz-adv-x="530" 
d="M232 573v67h140v80h84v-80h45v-67h-45v-467q0 -50 13 -106h-85q-7 24 -9 55q-54 -67 -138 -67q-90 0 -144.5 67t-54.5 185q0 113 60.5 183t152.5 70q75 0 121 -40v120h-140zM257 62q68 0 115 63v256q-46 41 -109 41q-64 0 -99 -49.5t-35 -131.5q0 -179 128 -179z" />
    <glyph glyph-name="Emacron" unicode="&#x112;" horiz-adv-x="508" 
d="M93 0v666h351v-76h-261v-201h229v-75h-229v-238h268v-76h-358zM137 751v67h273v-67h-273z" />
    <glyph glyph-name="emacron" unicode="&#x113;" horiz-adv-x="496" 
d="M271 -12q-112 0 -172.5 71.5t-60.5 184.5q0 108 62.5 178.5t158.5 70.5q91 0 142 -59t51 -161q0 -11 -2 -37h-321q2 -79 37.5 -128.5t108.5 -49.5q59 0 131 41l33 -62q-75 -49 -168 -49zM132 301h235q-2 54 -28.5 88.5t-81.5 34.5q-53 0 -84.5 -33t-40.5 -90zM121 572v67
h273v-67h-273z" />
    <glyph glyph-name="Ebreve" unicode="&#x114;" horiz-adv-x="508" 
d="M93 0v666h351v-76h-261v-201h229v-75h-229v-238h268v-76h-358zM274 714q-59 0 -101 36t-48 108h74q3 -37 22.5 -59t52.5 -22q32 0 51.5 22t22.5 59h74q-6 -72 -48 -108t-100 -36z" />
    <glyph glyph-name="ebreve" unicode="&#x115;" horiz-adv-x="496" 
d="M271 -12q-112 0 -172.5 71.5t-60.5 184.5q0 108 62.5 178.5t158.5 70.5q91 0 142 -59t51 -161q0 -11 -2 -37h-321q2 -79 37.5 -128.5t108.5 -49.5q59 0 131 41l33 -62q-75 -49 -168 -49zM132 301h235q-2 54 -28.5 88.5t-81.5 34.5q-53 0 -84.5 -33t-40.5 -90zM258 535
q-59 0 -101 36t-48 108h74q3 -37 22.5 -59t52.5 -22q32 0 51.5 22t22.5 59h74q-6 -72 -48 -108t-100 -36z" />
    <glyph glyph-name="Edotaccent" unicode="&#x116;" horiz-adv-x="508" 
d="M93 0v666h351v-76h-261v-201h229v-75h-229v-238h268v-76h-358zM273 746q-25 0 -41.5 17t-16.5 41t16.5 40.5t41.5 16.5t41.5 -16.5t16.5 -40.5t-16.5 -41t-41.5 -17z" />
    <glyph glyph-name="edotaccent" unicode="&#x117;" horiz-adv-x="496" 
d="M271 -12q-112 0 -172.5 71.5t-60.5 184.5q0 108 62.5 178.5t158.5 70.5q91 0 142 -59t51 -161q0 -11 -2 -37h-321q2 -79 37.5 -128.5t108.5 -49.5q59 0 131 41l33 -62q-75 -49 -168 -49zM132 301h235q-2 54 -28.5 88.5t-81.5 34.5q-53 0 -84.5 -33t-40.5 -90zM257 567
q-25 0 -41.5 17t-16.5 41t16.5 40.5t41.5 16.5t41.5 -16.5t16.5 -40.5t-16.5 -41t-41.5 -17z" />
    <glyph glyph-name="Eogonek" unicode="&#x118;" horiz-adv-x="508" 
d="M374 -221q-48 0 -75 26t-27 67q0 40 23.5 76.5t54.5 51.5h-257v666h351v-76h-261v-201h229v-75h-229v-238h268v-76h-2q-49 0 -79 -35t-30 -83q0 -47 50 -47q23 0 42 8l13 -47q-32 -17 -71 -17z" />
    <glyph glyph-name="eogonek" unicode="&#x119;" horiz-adv-x="496" 
d="M362 -221q-48 0 -75 26t-27 67q0 34 18.5 67.5t43.5 54.5q-22 -6 -51 -6q-112 0 -172.5 71.5t-60.5 184.5q0 108 62.5 178.5t158.5 70.5q99 0 150.5 -69.5t40.5 -187.5h-321q2 -79 37.5 -128.5t108.5 -49.5q59 0 131 41l33 -62l-24 -15q-36 -22 -61.5 -59.5t-25.5 -80.5
q0 -47 50 -47q21 0 42 8l12 -47q-32 -17 -70 -17zM132 301h235q-2 54 -28.5 88.5t-81.5 34.5q-53 0 -84.5 -33t-40.5 -90z" />
    <glyph glyph-name="Ecaron" unicode="&#x11a;" horiz-adv-x="508" 
d="M240 718l-121 155h77l78 -82l76 82h78l-124 -155h-64zM93 0v666h351v-76h-261v-201h229v-75h-229v-238h268v-76h-358z" />
    <glyph glyph-name="ecaron" unicode="&#x11b;" horiz-adv-x="496" 
d="M224 539l-121 155h77l78 -82l76 82h78l-124 -155h-64zM271 -12q-112 0 -172.5 71.5t-60.5 184.5q0 108 62.5 178.5t158.5 70.5q91 0 142 -59t51 -161q0 -11 -2 -37h-321q2 -79 37.5 -128.5t108.5 -49.5q59 0 131 41l33 -62q-75 -49 -168 -49zM132 301h235
q-2 54 -28.5 88.5t-81.5 34.5q-53 0 -84.5 -33t-40.5 -90z" />
    <glyph glyph-name="Gcircumflex" unicode="&#x11c;" horiz-adv-x="708" 
d="M226 720l123 154h64l122 -154h-78l-78 81l-76 -81h-77zM386 -12q-103 0 -181 50t-116 128t-38 169q0 143 92.5 243t248.5 100q131 0 211 -62l-45 -67q-69 54 -169 54q-119 0 -181 -76.5t-62 -189.5q0 -115 62 -194t180 -79q104 0 155 38v176h-139v74h229v-296
q-85 -68 -247 -68z" />
    <glyph glyph-name="gcircumflex" unicode="&#x11d;" horiz-adv-x="511" 
d="M97 541l123 154h64l122 -154h-78l-78 81l-76 -81h-77zM240 -237q-90 0 -143.5 33t-53.5 100q0 77 82 123q-43 21 -43 71q0 48 50 79q-85 47 -85 148q0 78 53.5 127t143.5 49q42 0 77 -12h160v-63h-72q32 -43 32 -101q0 -77 -53.5 -126.5t-142.5 -49.5q-27 0 -54 6
q-29 -15 -29 -38q0 -34 74 -37q8 0 32 -1.5t34 -2t32.5 -3t33.5 -5.5t29.5 -8.5t28.5 -12.5t22.5 -18t18.5 -24.5t10.5 -31.5t4.5 -40q0 -73 -70 -117.5t-172 -44.5zM244 -173q69 0 110.5 25.5t41.5 67.5q0 24 -8 39t-29.5 22.5t-32 9t-42.5 3.5q-7 1 -10 1q-74 5 -88 7
q-60 -38 -60 -95q0 -35 29.5 -57.5t88.5 -22.5zM244 206q52 0 81.5 30.5t29.5 80.5t-29.5 80.5t-81.5 30.5t-81.5 -30.5t-29.5 -80.5t29.5 -80.5t81.5 -30.5z" />
    <glyph glyph-name="Gbreve" unicode="&#x11e;" horiz-adv-x="708" 
d="M386 -12q-103 0 -181 50t-116 128t-38 169q0 143 92.5 243t248.5 100q131 0 211 -62l-45 -67q-69 54 -169 54q-119 0 -181 -76.5t-62 -189.5q0 -115 62 -194t180 -79q104 0 155 38v176h-139v74h229v-296q-85 -68 -247 -68zM381 714q-59 0 -101 36t-48 108h74
q3 -37 22.5 -59t52.5 -22q32 0 51.5 22t22.5 59h74q-6 -72 -48 -108t-100 -36z" />
    <glyph glyph-name="gbreve" unicode="&#x11f;" horiz-adv-x="511" 
d="M240 -237q-90 0 -143.5 33t-53.5 100q0 77 82 123q-43 21 -43 71q0 48 50 79q-85 47 -85 148q0 78 53.5 127t143.5 49q42 0 77 -12h160v-63h-72q32 -43 32 -101q0 -77 -53.5 -126.5t-142.5 -49.5q-27 0 -54 6q-29 -15 -29 -38q0 -34 74 -37q8 0 32 -1.5t34 -2t32.5 -3
t33.5 -5.5t29.5 -8.5t28.5 -12.5t22.5 -18t18.5 -24.5t10.5 -31.5t4.5 -40q0 -73 -70 -117.5t-172 -44.5zM244 -173q69 0 110.5 25.5t41.5 67.5q0 24 -8 39t-29.5 22.5t-32 9t-42.5 3.5q-7 1 -10 1q-74 5 -88 7q-60 -38 -60 -95q0 -35 29.5 -57.5t88.5 -22.5zM244 206
q52 0 81.5 30.5t29.5 80.5t-29.5 80.5t-81.5 30.5t-81.5 -30.5t-29.5 -80.5t29.5 -80.5t81.5 -30.5zM252 544q-59 0 -101 36t-48 108h74q3 -37 22.5 -59t52.5 -22q32 0 51.5 22t22.5 59h74q-6 -72 -48 -108t-100 -36z" />
    <glyph glyph-name="Gdotaccent" unicode="&#x120;" horiz-adv-x="708" 
d="M386 -12q-103 0 -181 50t-116 128t-38 169q0 143 92.5 243t248.5 100q131 0 211 -62l-45 -67q-69 54 -169 54q-119 0 -181 -76.5t-62 -189.5q0 -115 62 -194t180 -79q104 0 155 38v176h-139v74h229v-296q-85 -68 -247 -68zM380 746q-25 0 -41.5 17t-16.5 41t16.5 40.5
t41.5 16.5t41.5 -16.5t16.5 -40.5t-16.5 -41t-41.5 -17z" />
    <glyph glyph-name="gdotaccent" unicode="&#x121;" horiz-adv-x="511" 
d="M240 -237q-90 0 -143.5 33t-53.5 100q0 77 82 123q-43 21 -43 71q0 48 50 79q-85 47 -85 148q0 78 53.5 127t143.5 49q42 0 77 -12h160v-63h-72q32 -43 32 -101q0 -77 -53.5 -126.5t-142.5 -49.5q-27 0 -54 6q-29 -15 -29 -38q0 -34 74 -37q8 0 32 -1.5t34 -2t32.5 -3
t33.5 -5.5t29.5 -8.5t28.5 -12.5t22.5 -18t18.5 -24.5t10.5 -31.5t4.5 -40q0 -73 -70 -117.5t-172 -44.5zM244 -173q69 0 110.5 25.5t41.5 67.5q0 24 -8 39t-29.5 22.5t-32 9t-42.5 3.5q-7 1 -10 1q-74 5 -88 7q-60 -38 -60 -95q0 -35 29.5 -57.5t88.5 -22.5zM244 206
q52 0 81.5 30.5t29.5 80.5t-29.5 80.5t-81.5 30.5t-81.5 -30.5t-29.5 -80.5t29.5 -80.5t81.5 -30.5zM251 567q-25 0 -41.5 17t-16.5 41t16.5 40.5t41.5 16.5t41.5 -16.5t16.5 -40.5t-16.5 -41t-41.5 -17z" />
    <glyph glyph-name="Gcommaaccent" unicode="&#x122;" horiz-adv-x="708" 
d="M341 -221q29 33 29 60q0 15 -16 34t-16 37t13 30t33 12q23 0 39 -16.5t16 -43.5q0 -53 -51 -113h-47zM386 -12q-103 0 -181 50t-116 128t-38 169q0 143 92.5 243t248.5 100q131 0 211 -62l-45 -67q-69 54 -169 54q-119 0 -181 -76.5t-62 -189.5q0 -115 62 -194t180 -79
q104 0 155 38v176h-139v74h229v-296q-85 -68 -247 -68z" />
    <glyph glyph-name="gcommaaccent" unicode="&#x123;" horiz-adv-x="511" 
d="M292 712q-29 -33 -29 -60q0 -15 16 -34t16 -37t-13 -30t-33 -12q-23 0 -39 16.5t-16 43.5q0 53 51 113h47zM240 -237q-90 0 -143.5 33t-53.5 100q0 77 82 123q-43 21 -43 71q0 48 50 79q-85 47 -85 148q0 78 53.5 127t143.5 49q42 0 77 -12h160v-63h-72q32 -43 32 -101
q0 -77 -53.5 -126.5t-142.5 -49.5q-27 0 -54 6q-29 -15 -29 -38q0 -34 74 -37q8 0 32 -1.5t34 -2t32.5 -3t33.5 -5.5t29.5 -8.5t28.5 -12.5t22.5 -18t18.5 -24.5t10.5 -31.5t4.5 -40q0 -73 -70 -117.5t-172 -44.5zM244 -173q69 0 110.5 25.5t41.5 67.5q0 24 -8 39
t-29.5 22.5t-32 9t-42.5 3.5q-7 1 -10 1q-74 5 -88 7q-60 -38 -60 -95q0 -35 29.5 -57.5t88.5 -22.5zM244 206q52 0 81.5 30.5t29.5 80.5t-29.5 80.5t-81.5 30.5t-81.5 -30.5t-29.5 -80.5t29.5 -80.5t81.5 -30.5z" />
    <glyph glyph-name="Hcircumflex" unicode="&#x124;" horiz-adv-x="729" 
d="M209 720l123 154h64l122 -154h-78l-78 81l-76 -81h-77zM93 0v666h91v-278h361v278h91v-666h-91v312h-361v-312h-91z" />
    <glyph glyph-name="hcircumflex" unicode="&#x125;" horiz-adv-x="533" 
d="M112 779l123 154h64l122 -154h-78l-78 81l-76 -81h-77zM76 0v720h85v-306q61 79 155 79q73 0 107.5 -41.5t34.5 -109.5v-342h-85v325q0 94 -81 94q-31 0 -62.5 -19.5t-45 -34.5t-23.5 -29v-336h-85z" />
    <glyph glyph-name="Hbar" unicode="&#x126;" horiz-adv-x="748" 
d="M713 549v-66h-68v-483h-90v308h-361v-308h-91v483h-69v66h69v117h91v-117h361v117h90v-117h68zM194 384h361v99h-361v-99z" />
    <glyph glyph-name="hbar" unicode="&#x127;" horiz-adv-x="534" 
d="M77 0v573h-43v67h43v80h85v-80h161v-67h-161v-160q61 79 155 79q72 0 107 -42t35 -110v-340h-85v323q0 94 -81 94q-31 0 -62.5 -19.5t-45 -34.5t-23.5 -29v-334h-85z" />
    <glyph glyph-name="Itilde" unicode="&#x128;" horiz-adv-x="290" 
d="M99 0v666h91v-666h-91zM196 723q-26 0 -58 19t-50 19q-7 0 -13.5 -2t-12.5 -6.5t-9.5 -8t-8.5 -9t-6 -6.5l-44 40q44 63 98 63q28 0 59.5 -19t48.5 -19q27 0 52 31l44 -41q-46 -61 -100 -61z" />
    <glyph glyph-name="itilde" unicode="&#x129;" horiz-adv-x="256" 
d="M85 0v481h86v-481h-86zM179 544q-26 0 -58 19t-50 19q-7 0 -13.5 -2t-12.5 -6.5t-9.5 -8t-8.5 -9t-6 -6.5l-44 40q44 63 98 63q28 0 59.5 -19t48.5 -19q27 0 52 31l44 -41q-46 -61 -100 -61z" />
    <glyph glyph-name="Imacron" unicode="&#x12a;" horiz-adv-x="290" 
d="M99 0v666h91v-666h-91zM9 751v67h273v-67h-273z" />
    <glyph glyph-name="imacron" unicode="&#x12b;" horiz-adv-x="256" 
d="M85 0v481h86v-481h-86zM-8 572v67h273v-67h-273z" />
    <glyph glyph-name="Ibreve" unicode="&#x12c;" horiz-adv-x="290" 
d="M99 0v666h91v-666h-91zM146 714q-59 0 -101 36t-48 108h74q3 -37 22.5 -59t52.5 -22q32 0 51.5 22t22.5 59h74q-6 -72 -48 -108t-100 -36z" />
    <glyph glyph-name="ibreve" unicode="&#x12d;" horiz-adv-x="256" 
d="M85 0v481h86v-481h-86zM129 535q-59 0 -101 36t-48 108h74q3 -37 22.5 -59t52.5 -22q32 0 51.5 22t22.5 59h74q-6 -72 -48 -108t-100 -36z" />
    <glyph glyph-name="Iogonek" unicode="&#x12e;" horiz-adv-x="290" 
d="M141 -221q-48 0 -75.5 26t-27.5 67q0 68 68 128h-7v666h91v-666l-6 -2q-31 -8 -54.5 -42t-23.5 -73q0 -48 50 -48q22 0 43 8l12 -47q-32 -17 -70 -17z" />
    <glyph glyph-name="iogonek" unicode="&#x12f;" horiz-adv-x="256" 
d="M125 -221q-48 0 -75 26t-27 67q0 37 21 71t47 57h-6v481h86v-481l-5 -2q-26 -8 -50.5 -42t-24.5 -73q0 -48 50 -48q23 0 42 8l12 -47q-32 -17 -70 -17zM128 566q-25 0 -42 17.5t-17 41.5q0 25 17 42t42 17t42 -17t17 -42q0 -24 -17 -41.5t-42 -17.5z" />
    <glyph glyph-name="Idotaccent" unicode="&#x130;" horiz-adv-x="290" 
d="M99 0v666h91v-666h-91zM145 746q-25 0 -41.5 17t-16.5 41t16.5 40.5t41.5 16.5t41.5 -16.5t16.5 -40.5t-16.5 -41t-41.5 -17z" />
    <glyph glyph-name="dotlessi" unicode="&#x131;" horiz-adv-x="256" 
d="M85 0v481h86v-481h-86z" />
    <glyph glyph-name="Jcircumflex" unicode="&#x134;" horiz-adv-x="292" 
d="M0 720l123 154h64l122 -154h-78l-78 81l-76 -81h-77zM40 -193q-35 0 -65 11l14 77q19 -8 41 -8q40 0 59 28t19 87v664h91v-678q0 -87 -40.5 -134t-118.5 -47z" />
    <glyph glyph-name="jcircumflex" unicode="&#x135;" horiz-adv-x="246" 
d="M23 -231q-35 0 -59 8l15 70q15 -6 34 -6q37 0 52.5 28t15.5 86v526h85v-539q0 -173 -143 -173zM-29 541l123 154h64l122 -154h-78l-78 81l-76 -81h-77z" />
    <glyph glyph-name="Kcommaaccent" unicode="&#x136;" horiz-adv-x="581" 
d="M263 -221q29 33 29 60q0 15 -16 34t-16 37t13 30t33 12q23 0 39 -16.5t16 -43.5q0 -53 -51 -113h-47zM93 0v666h90v-317l262 317h104l-264 -313l281 -353h-111l-272 344v-344h-90z" />
    <glyph glyph-name="kcommaaccent" unicode="&#x137;" horiz-adv-x="478" 
d="M203 -221q29 33 29 60q0 15 -16 34t-16 37t13 30t33 12q23 0 39 -16.5t16 -43.5q0 -53 -51 -113h-47zM76 0v720h85v-451l194 212h99l-196 -213l204 -268h-102l-199 267v-267h-85z" />
    <glyph glyph-name="Lacute" unicode="&#x139;" horiz-adv-x="481" 
d="M100 719l90 128h122l-136 -128h-76zM94 0v666h90v-591h260v-75h-350z" />
    <glyph glyph-name="lacute" unicode="&#x13a;" horiz-adv-x="248" 
d="M83 778l90 128h122l-136 -128h-76zM81 0v720h85v-720h-85z" />
    <glyph glyph-name="Lcommaaccent" unicode="&#x13b;" horiz-adv-x="481" 
d="M220 -221q29 33 29 60q0 15 -16 34t-16 37t13 30t33 12q23 0 39 -16.5t16 -43.5q0 -53 -51 -113h-47zM94 0v666h90v-591h260v-75h-350z" />
    <glyph glyph-name="lcommaaccent" unicode="&#x13c;" horiz-adv-x="248" 
d="M76 -221q29 33 29 60q0 15 -16 34t-16 37t13 30t33 12q23 0 39 -16.5t16 -43.5q0 -53 -51 -113h-47zM81 0v720h85v-720h-85z" />
    <glyph glyph-name="Lcaron" unicode="&#x13d;" horiz-adv-x="481" 
d="M242 526l41 170h100l-78 -170h-63zM94 0v666h90v-591h260v-75h-350z" />
    <glyph glyph-name="lcaron" unicode="&#x13e;" horiz-adv-x="265" 
d="M214 550l41 170h100l-77 -170h-64zM81 0v720h85v-720h-85z" />
    <glyph glyph-name="Ldot" unicode="&#x13f;" horiz-adv-x="481" 
d="M94 0v666h90v-591h260v-75h-350zM316 342q-25 0 -41.5 17t-16.5 41t16.5 40.5t41.5 16.5t41.5 -16.5t16.5 -40.5t-16.5 -41t-41.5 -17z" />
    <glyph glyph-name="ldot" unicode="&#x140;" horiz-adv-x="339" 
d="M81 0v720h85v-720h-85zM292 216q-25 0 -41.5 17t-16.5 41t16.5 40.5t41.5 16.5t41.5 -16.5t16.5 -40.5t-16.5 -41t-41.5 -17z" />
    <glyph glyph-name="Lslash" unicode="&#x141;" horiz-adv-x="489" 
d="M95 0v271l-69 -54l-36 48l105 83v318h91v-250l104 82l38 -49l-142 -109v-265h259v-75h-350z" />
    <glyph glyph-name="lslash" unicode="&#x142;" horiz-adv-x="284" 
d="M91 0v272l-67 -52v74l67 52v374h85v-308l81 63v-75l-81 -64v-336h-85z" />
    <glyph glyph-name="Nacute" unicode="&#x143;" horiz-adv-x="717" 
d="M317 719l90 128h122l-136 -128h-76zM92 0v666h89l300 -430q36 -52 63 -101h2q-4 48 -4 93v438h83v-666h-83l-315 454q-15 21 -54 89h-2q4 -48 4 -76v-467h-83z" />
    <glyph glyph-name="nacute" unicode="&#x144;" horiz-adv-x="535" 
d="M220 540l90 128h122l-136 -128h-76zM79 0v481h84v-67q64 79 156 79q73 0 107.5 -41.5t34.5 -109.5v-342h-85v325q0 94 -81 94q-70 0 -132 -83v-336h-84z" />
    <glyph glyph-name="Ncommaaccent" unicode="&#x145;" horiz-adv-x="717" 
d="M310 -221q29 33 29 60q0 15 -16 34t-16 37t13 30t33 12q23 0 39 -16.5t16 -43.5q0 -53 -51 -113h-47zM92 0v666h89l300 -430q36 -52 63 -101h2q-4 48 -4 93v438h83v-666h-83l-315 454q-15 21 -54 89h-2q4 -48 4 -76v-467h-83z" />
    <glyph glyph-name="ncommaaccent" unicode="&#x146;" horiz-adv-x="535" 
d="M221 -221q29 33 29 60q0 15 -16 34t-16 37t13 30t33 12q23 0 39 -16.5t16 -43.5q0 -53 -51 -113h-47zM79 0v481h84v-67q64 79 156 79q73 0 107.5 -41.5t34.5 -109.5v-342h-85v325q0 94 -81 94q-70 0 -132 -83v-336h-84z" />
    <glyph glyph-name="Ncaron" unicode="&#x147;" horiz-adv-x="717" 
d="M325 718l-121 155h77l78 -82l76 82h78l-124 -155h-64zM92 0v666h89l300 -430q36 -52 63 -101h2q-4 48 -4 93v438h83v-666h-83l-315 454q-15 21 -54 89h-2q4 -48 4 -76v-467h-83z" />
    <glyph glyph-name="ncaron" unicode="&#x148;" horiz-adv-x="535" 
d="M227 539l-121 155h77l78 -82l76 82h78l-124 -155h-64zM79 0v481h84v-67q64 79 156 79q73 0 107.5 -41.5t34.5 -109.5v-342h-85v325q0 94 -81 94q-70 0 -132 -83v-336h-84z" />
    <glyph glyph-name="Omacron" unicode="&#x14c;" horiz-adv-x="763" 
d="M245 751v67h273v-67h-273zM383 -12q-151 0 -241.5 100.5t-90.5 243.5q0 144 89.5 245t240.5 101t241 -100.5t90 -243.5t-89.5 -244.5t-239.5 -101.5zM381 63q111 0 173 77t62 192t-61.5 193t-171.5 78q-111 0 -174 -77.5t-63 -191.5q0 -115 62 -193t173 -78z" />
    <glyph glyph-name="omacron" unicode="&#x14d;" horiz-adv-x="532" 
d="M130 572v67h273v-67h-273zM264 -12q-77 0 -130 40t-74.5 95t-21.5 117q0 45 12.5 88t37.5 81t70 61t104 23q58 0 104.5 -22.5t73 -60t40.5 -80.5t14 -88t-13.5 -88t-39.5 -81t-72 -61.5t-105 -23.5zM266 58q68 0 103 51t35 131q0 79 -37.5 131t-105.5 52t-100.5 -49.5
t-32.5 -131.5q0 -81 34.5 -132.5t103.5 -51.5z" />
    <glyph glyph-name="Obreve" unicode="&#x14e;" horiz-adv-x="763" 
d="M383 -12q-151 0 -241.5 100.5t-90.5 243.5q0 144 89.5 245t240.5 101t241 -100.5t90 -243.5t-89.5 -244.5t-239.5 -101.5zM381 63q111 0 173 77t62 192t-61.5 193t-171.5 78q-111 0 -174 -77.5t-63 -191.5q0 -115 62 -193t173 -78zM382 714q-59 0 -101 36t-48 108h74
q3 -37 22.5 -59t52.5 -22q32 0 51.5 22t22.5 59h74q-6 -72 -48 -108t-100 -36z" />
    <glyph glyph-name="obreve" unicode="&#x14f;" horiz-adv-x="532" 
d="M264 -12q-77 0 -130 40t-74.5 95t-21.5 117q0 45 12.5 88t37.5 81t70 61t104 23q58 0 104.5 -22.5t73 -60t40.5 -80.5t14 -88t-13.5 -88t-39.5 -81t-72 -61.5t-105 -23.5zM266 58q68 0 103 51t35 131q0 79 -37.5 131t-105.5 52t-100.5 -49.5t-32.5 -131.5
q0 -81 34.5 -132.5t103.5 -51.5zM267 535q-59 0 -101 36t-48 108h74q3 -37 22.5 -59t52.5 -22q32 0 51.5 22t22.5 59h74q-6 -72 -48 -108t-100 -36z" />
    <glyph glyph-name="Ohungarumlaut" unicode="&#x150;" horiz-adv-x="763" 
d="M240 719l93 128h115l-135 -128h-73zM412 719l93 128h114l-134 -128h-73zM383 -12q-151 0 -241.5 100.5t-90.5 243.5q0 144 89.5 245t240.5 101t241 -100.5t90 -243.5t-89.5 -244.5t-239.5 -101.5zM381 63q111 0 173 77t62 192t-61.5 193t-171.5 78q-111 0 -174 -77.5
t-63 -191.5q0 -115 62 -193t173 -78z" />
    <glyph glyph-name="ohungarumlaut" unicode="&#x151;" horiz-adv-x="532" 
d="M125 540l93 128h115l-135 -128h-73zM297 540l93 128h114l-134 -128h-73zM264 -12q-77 0 -130 40t-74.5 95t-21.5 117q0 45 12.5 88t37.5 81t70 61t104 23q58 0 104.5 -22.5t73 -60t40.5 -80.5t14 -88t-13.5 -88t-39.5 -81t-72 -61.5t-105 -23.5zM266 58q68 0 103 51
t35 131q0 79 -37.5 131t-105.5 52t-100.5 -49.5t-32.5 -131.5q0 -81 34.5 -132.5t103.5 -51.5z" />
    <glyph glyph-name="OE" unicode="&#x152;" horiz-adv-x="892" 
d="M381 -12q-150 0 -240.5 100.5t-90.5 243.5q0 144 89.5 245t239.5 101q53 0 100 -12h348v-76h-260v-201h229v-75h-229v-238h267v-76h-354q-43 -12 -99 -12zM379 63q55 0 98 17v505q-44 18 -96 18q-111 0 -173.5 -77.5t-62.5 -191.5q0 -115 61.5 -193t172.5 -78z" />
    <glyph glyph-name="oe" unicode="&#x153;" horiz-adv-x="861" 
d="M264 -12q-77 0 -130 40t-74.5 95t-21.5 117q0 45 12.5 88t37.5 81t70 61t104 23q126 0 185 -100q59 100 176 100q92 0 143 -60t51 -162q0 -11 -2 -35h-322q2 -79 37.5 -128.5t108.5 -49.5q14 0 27 1.5t25 4.5t21 6t19.5 8t15.5 7.5t13.5 7.5t10.5 6l32 -62
q-72 -49 -168 -49q-63 0 -111.5 27t-75.5 73q-63 -100 -184 -100zM266 58q68 0 103 51t35 131q0 79 -37.5 131t-105.5 52t-100.5 -49.5t-32.5 -131.5q0 -81 34.5 -132.5t103.5 -51.5zM496 301h235q-2 54 -28.5 88.5t-81.5 34.5q-52 0 -83.5 -33t-41.5 -90z" />
    <glyph glyph-name="Racute" unicode="&#x154;" horiz-adv-x="580" 
d="M244 719l90 128h122l-136 -128h-76zM93 0v666h190q107 0 166 -47t59 -133q0 -80 -50 -124.5t-130 -50.5v-2q22 -16 71 -85l158 -224h-104l-132 189q-54 77 -74 94.5t-53 17.5h-10v-301h-91zM184 372h95q138 0 138 111q0 109 -144 109h-89v-220z" />
    <glyph glyph-name="racute" unicode="&#x155;" horiz-adv-x="354" 
d="M160 540l90 128h122l-136 -128h-76zM79 0v481h84v-73q52 85 127 85q31 0 54 -10l-21 -79q-16 8 -44 8q-69 0 -116 -93v-319h-84z" />
    <glyph glyph-name="Rcommaaccent" unicode="&#x156;" horiz-adv-x="580" 
d="M259 -221q29 33 29 60q0 15 -16 34t-16 37t13 30t33 12q23 0 39 -16.5t16 -43.5q0 -53 -51 -113h-47zM93 0v666h190q107 0 166 -47t59 -133q0 -80 -50 -124.5t-130 -50.5v-2q22 -16 71 -85l158 -224h-104l-132 189q-54 77 -74 94.5t-53 17.5h-10v-301h-91zM184 372h95
q138 0 138 111q0 109 -144 109h-89v-220z" />
    <glyph glyph-name="rcommaaccent" unicode="&#x157;" horiz-adv-x="354" 
d="M79 -221q29 33 29 60q0 15 -16 34t-16 37t13 30t33 12q23 0 39 -16.5t16 -43.5q0 -53 -51 -113h-47zM79 0v481h84v-73q52 85 127 85q31 0 54 -10l-21 -79q-16 8 -44 8q-69 0 -116 -93v-319h-84z" />
    <glyph glyph-name="Rcaron" unicode="&#x158;" horiz-adv-x="580" 
d="M252 718l-121 155h77l78 -82l76 82h78l-124 -155h-64zM93 0v666h190q107 0 166 -47t59 -133q0 -80 -50 -124.5t-130 -50.5v-2q22 -16 71 -85l158 -224h-104l-132 189q-54 77 -74 94.5t-53 17.5h-10v-301h-91zM184 372h95q138 0 138 111q0 109 -144 109h-89v-220z" />
    <glyph glyph-name="rcaron" unicode="&#x159;" horiz-adv-x="354" 
d="M168 539l-121 155h77l78 -82l76 82h78l-124 -155h-64zM79 0v481h84v-73q52 85 127 85q31 0 54 -10l-21 -79q-16 8 -44 8q-69 0 -116 -93v-319h-84z" />
    <glyph glyph-name="Sacute" unicode="&#x15a;" horiz-adv-x="502" 
d="M208 719l90 128h122l-136 -128h-76zM234 -12q-68 0 -117.5 21.5t-75.5 46.5l44 64q61 -57 151 -57q57 0 93.5 31t36.5 75q0 25 -9.5 45t-34 38t-40 27t-52.5 27q-5 3 -8.5 4.5t-7.5 3.5q-75 36 -114 77.5t-39 113.5q0 79 57.5 126t140.5 47q110 0 179 -54l-42 -66
q-58 45 -136 45q-49 0 -80 -25.5t-31 -68.5t29.5 -68.5t91.5 -54.5q27 -13 39 -19t36 -19.5t36 -23.5t29 -27.5t25 -34.5t14.5 -40.5t6.5 -50.5q0 -81 -61.5 -132t-160.5 -51z" />
    <glyph glyph-name="sacute" unicode="&#x15b;" horiz-adv-x="410" 
d="M162 540l90 128h122l-136 -128h-76zM194 -13q-90 0 -156 46l35 63q54 -39 119 -39q44 0 69 17t25 47q0 15 -6 26.5t-23.5 23t-32 18.5t-47.5 22q-64 28 -96 60t-32 87q0 59 43 97t115 38q86 0 145 -44l-38 -61q-46 35 -106 35q-38 0 -58 -16t-20 -45t22 -45.5t72 -36.5
q35 -15 56.5 -26.5t44.5 -29t34 -40.5t11 -52q0 -67 -47.5 -106t-128.5 -39z" />
    <glyph glyph-name="Scircumflex" unicode="&#x15c;" horiz-adv-x="502" 
d="M95 720l123 154h64l122 -154h-78l-78 81l-76 -81h-77zM234 -12q-68 0 -117.5 21.5t-75.5 46.5l44 64q61 -57 151 -57q57 0 93.5 31t36.5 75q0 25 -9.5 45t-34 38t-40 27t-52.5 27q-5 3 -8.5 4.5t-7.5 3.5q-75 36 -114 77.5t-39 113.5q0 79 57.5 126t140.5 47
q110 0 179 -54l-42 -66q-58 45 -136 45q-49 0 -80 -25.5t-31 -68.5t29.5 -68.5t91.5 -54.5q27 -13 39 -19t36 -19.5t36 -23.5t29 -27.5t25 -34.5t14.5 -40.5t6.5 -50.5q0 -81 -61.5 -132t-160.5 -51z" />
    <glyph glyph-name="scircumflex" unicode="&#x15d;" horiz-adv-x="410" 
d="M50 541l123 154h64l122 -154h-78l-78 81l-76 -81h-77zM194 -13q-90 0 -156 46l35 63q54 -39 119 -39q44 0 69 17t25 47q0 15 -6 26.5t-23.5 23t-32 18.5t-47.5 22q-64 28 -96 60t-32 87q0 59 43 97t115 38q86 0 145 -44l-38 -61q-46 35 -106 35q-38 0 -58 -16t-20 -45
t22 -45.5t72 -36.5q35 -15 56.5 -26.5t44.5 -29t34 -40.5t11 -52q0 -67 -47.5 -106t-128.5 -39z" />
    <glyph glyph-name="Scedilla" unicode="&#x15e;" horiz-adv-x="502" 
d="M201 -221q-41 0 -70 12l13 46q22 -11 53 -11q50 0 50 38q0 44 -71 40l31 85q-105 8 -166 67l44 64q61 -57 151 -57q57 0 93.5 31t36.5 75q0 25 -9.5 45t-34 38t-40 27t-52.5 27q-5 3 -8.5 4.5t-7.5 3.5q-75 36 -114 77.5t-39 113.5q0 79 57.5 126t140.5 47q110 0 179 -54
l-42 -66q-58 45 -136 45q-49 0 -80 -25.5t-31 -68.5t29.5 -68.5t91.5 -54.5q27 -13 39 -19t36 -19.5t36 -23.5t29 -27.5t25 -34.5t14.5 -40.5t6.5 -50.5q0 -75 -52.5 -124.5t-140.5 -57.5l-20 -53q31 -5 51 -24t20 -48q0 -39 -32.5 -62t-80.5 -23z" />
    <glyph glyph-name="scedilla" unicode="&#x15f;" horiz-adv-x="410" 
d="M165 -221q-41 0 -70 12l13 46q22 -11 53 -11q50 0 50 38q0 44 -71 40l31 84q-78 5 -133 45l35 63q54 -39 119 -39q44 0 69 17t25 47q0 15 -6 26.5t-23.5 23t-32 18.5t-47.5 22q-64 28 -96 60t-32 87q0 59 43 97t115 38q86 0 145 -44l-38 -61q-46 35 -106 35
q-38 0 -58 -16t-20 -45t22 -45.5t72 -36.5q35 -15 56.5 -26.5t44.5 -29t34 -40.5t11 -52q0 -60 -38 -97.5t-105 -45.5l-20 -53q31 -5 51 -24t20 -48q0 -39 -32.5 -62t-80.5 -23z" />
    <glyph glyph-name="Scaron" unicode="&#x160;" horiz-adv-x="502" 
d="M216 718l-121 155h77l78 -82l76 82h78l-124 -155h-64zM234 -12q-68 0 -117.5 21.5t-75.5 46.5l44 64q61 -57 151 -57q57 0 93.5 31t36.5 75q0 25 -9.5 45t-34 38t-40 27t-52.5 27q-5 3 -8.5 4.5t-7.5 3.5q-75 36 -114 77.5t-39 113.5q0 79 57.5 126t140.5 47
q110 0 179 -54l-42 -66q-58 45 -136 45q-49 0 -80 -25.5t-31 -68.5t29.5 -68.5t91.5 -54.5q27 -13 39 -19t36 -19.5t36 -23.5t29 -27.5t25 -34.5t14.5 -40.5t6.5 -50.5q0 -81 -61.5 -132t-160.5 -51z" />
    <glyph glyph-name="scaron" unicode="&#x161;" horiz-adv-x="410" 
d="M171 539l-121 155h77l78 -82l76 82h78l-124 -155h-64zM194 -13q-90 0 -156 46l35 63q54 -39 119 -39q44 0 69 17t25 47q0 15 -6 26.5t-23.5 23t-32 18.5t-47.5 22q-64 28 -96 60t-32 87q0 59 43 97t115 38q86 0 145 -44l-38 -61q-46 35 -106 35q-38 0 -58 -16t-20 -45
t22 -45.5t72 -36.5q35 -15 56.5 -26.5t44.5 -29t34 -40.5t11 -52q0 -67 -47.5 -106t-128.5 -39z" />
    <glyph glyph-name="Tcommaaccent" unicode="&#x162;" horiz-adv-x="505" 
d="M204 -221q29 33 29 60q0 15 -16 34t-16 37t13 30t33 12q23 0 39 -16.5t16 -43.5q0 -53 -51 -113h-47zM207 0v590h-188v76h467v-76h-188v-590h-91z" />
    <glyph glyph-name="tcommaaccent" unicode="&#x163;" horiz-adv-x="356" 
d="M175 -221q29 33 29 60q0 15 -16 34t-16 37t13 30t33 12q23 0 39 -16.5t16 -43.5q0 -53 -51 -113h-47zM229 -12q-126 0 -126 132v295h-79v66h79v138h84v-138h120v-66h-120v-284q0 -37 12.5 -54t42.5 -17q35 0 65 20l27 -63q-44 -29 -105 -29z" />
    <glyph glyph-name="Tcaron" unicode="&#x164;" horiz-adv-x="505" 
d="M218 718l-121 155h77l78 -82l76 82h78l-124 -155h-64zM207 0v590h-188v76h467v-76h-188v-590h-91z" />
    <glyph glyph-name="tcaron" unicode="&#x165;" horiz-adv-x="357" 
d="M236 552l40 168h100l-77 -168h-63zM229 -12q-126 0 -126 132v295h-79v66h79v138h84v-138h120v-66h-120v-284q0 -37 12.5 -54t42.5 -17q35 0 65 20l27 -63q-44 -29 -105 -29z" />
    <glyph glyph-name="Tbar" unicode="&#x166;" horiz-adv-x="505" 
d="M40 341v66h167v183h-188v76h467v-76h-188v-183h166v-66h-166v-341h-91v341h-167z" />
    <glyph glyph-name="tbar" unicode="&#x167;" horiz-adv-x="356" 
d="M44 237v65h59v114h-79v65h79v138h84v-138h120v-65h-120v-114h100v-65h-100v-106q0 -37 12.5 -54t42.5 -17q35 0 65 20l27 -63q-44 -29 -105 -29q-126 0 -126 132v117h-59z" />
    <glyph glyph-name="Utilde" unicode="&#x168;" horiz-adv-x="695" 
d="M351 -12q-134 0 -198.5 69t-64.5 194v415h90v-405q0 -100 42.5 -148t132.5 -48q84 0 127 49t43 134v418h84v-409q0 -128 -64 -198.5t-192 -70.5zM398 723q-26 0 -58 19t-50 19q-7 0 -13.5 -2t-12.5 -6.5t-9.5 -8t-8.5 -9t-6 -6.5l-44 40q44 63 98 63q28 0 59.5 -19
t48.5 -19q27 0 52 31l44 -41q-46 -61 -100 -61z" />
    <glyph glyph-name="utilde" unicode="&#x169;" horiz-adv-x="534" 
d="M216 -12q-73 0 -108 41.5t-35 110.5v341h85v-325q0 -46 18.5 -69.5t63.5 -23.5q31 0 62 19.5t44.5 34.5t23.5 29v335h85v-372q0 -67 10 -109h-85q-6 24 -8 70q-61 -82 -156 -82zM318 544q-26 0 -58 19t-50 19q-7 0 -13.5 -2t-12.5 -6.5t-9.5 -8t-8.5 -9t-6 -6.5l-44 40
q44 63 98 63q28 0 59.5 -19t48.5 -19q27 0 52 31l44 -41q-46 -61 -100 -61z" />
    <glyph glyph-name="Umacron" unicode="&#x16a;" horiz-adv-x="695" 
d="M351 -12q-134 0 -198.5 69t-64.5 194v415h90v-405q0 -100 42.5 -148t132.5 -48q84 0 127 49t43 134v418h84v-409q0 -128 -64 -198.5t-192 -70.5zM211 751v67h273v-67h-273z" />
    <glyph glyph-name="umacron" unicode="&#x16b;" horiz-adv-x="534" 
d="M216 -12q-73 0 -108 41.5t-35 110.5v341h85v-325q0 -46 18.5 -69.5t63.5 -23.5q31 0 62 19.5t44.5 34.5t23.5 29v335h85v-372q0 -67 10 -109h-85q-6 24 -8 70q-61 -82 -156 -82zM131 572v67h273v-67h-273z" />
    <glyph glyph-name="Ubreve" unicode="&#x16c;" horiz-adv-x="695" 
d="M351 -12q-134 0 -198.5 69t-64.5 194v415h90v-405q0 -100 42.5 -148t132.5 -48q84 0 127 49t43 134v418h84v-409q0 -128 -64 -198.5t-192 -70.5zM348 714q-59 0 -101 36t-48 108h74q3 -37 22.5 -59t52.5 -22q32 0 51.5 22t22.5 59h74q-6 -72 -48 -108t-100 -36z" />
    <glyph glyph-name="ubreve" unicode="&#x16d;" horiz-adv-x="534" 
d="M216 -12q-73 0 -108 41.5t-35 110.5v341h85v-325q0 -46 18.5 -69.5t63.5 -23.5q31 0 62 19.5t44.5 34.5t23.5 29v335h85v-372q0 -67 10 -109h-85q-6 24 -8 70q-61 -82 -156 -82zM268 535q-59 0 -101 36t-48 108h74q3 -37 22.5 -59t52.5 -22q32 0 51.5 22t22.5 59h74
q-6 -72 -48 -108t-100 -36z" />
    <glyph glyph-name="Uring" unicode="&#x16e;" horiz-adv-x="695" 
d="M347 723q-39 0 -68.5 28.5t-29.5 68.5t29.5 68.5t68.5 28.5t68.5 -28.5t29.5 -68.5t-29.5 -68.5t-68.5 -28.5zM347 766q22 0 35.5 16t13.5 38q0 23 -13 38.5t-36 15.5t-36 -15.5t-13 -38.5q0 -22 13.5 -38t35.5 -16zM351 -12q-134 0 -198.5 69t-64.5 194v415h90v-405
q0 -100 42.5 -148t132.5 -48q84 0 127 49t43 134v418h84v-409q0 -128 -64 -198.5t-192 -70.5z" />
    <glyph glyph-name="uring" unicode="&#x16f;" horiz-adv-x="534" 
d="M267 544q-39 0 -68.5 28.5t-29.5 68.5t29.5 68.5t68.5 28.5t68.5 -28.5t29.5 -68.5t-29.5 -68.5t-68.5 -28.5zM267 587q22 0 35.5 16t13.5 38q0 23 -13 38.5t-36 15.5t-36 -15.5t-13 -38.5q0 -22 13.5 -38t35.5 -16zM216 -12q-73 0 -108 41.5t-35 110.5v341h85v-325
q0 -46 18.5 -69.5t63.5 -23.5q31 0 62 19.5t44.5 34.5t23.5 29v335h85v-372q0 -67 10 -109h-85q-6 24 -8 70q-61 -82 -156 -82z" />
    <glyph glyph-name="Uhungarumlaut" unicode="&#x170;" horiz-adv-x="695" 
d="M351 -12q-134 0 -198.5 69t-64.5 194v415h90v-405q0 -100 42.5 -148t132.5 -48q84 0 127 49t43 134v418h84v-409q0 -128 -64 -198.5t-192 -70.5zM206 719l93 128h115l-135 -128h-73zM378 719l93 128h114l-134 -128h-73z" />
    <glyph glyph-name="uhungarumlaut" unicode="&#x171;" horiz-adv-x="534" 
d="M216 -12q-73 0 -108 41.5t-35 110.5v341h85v-325q0 -46 18.5 -69.5t63.5 -23.5q31 0 62 19.5t44.5 34.5t23.5 29v335h85v-372q0 -67 10 -109h-85q-6 24 -8 70q-61 -82 -156 -82zM126 540l93 128h115l-135 -128h-73zM298 540l93 128h114l-134 -128h-73z" />
    <glyph glyph-name="Uogonek" unicode="&#x172;" horiz-adv-x="695" 
d="M476 -221q-48 0 -75 26t-27 67q0 37 21.5 72.5t47.5 57.5q-37 -14 -92 -14q-134 0 -198.5 69t-64.5 194v415h90v-405q0 -100 42.5 -148t132.5 -48q84 0 127 49t43 134v418h84v-409q0 -78 -23.5 -131.5t-89.5 -125.5q-52 -66 -52 -118q0 -47 49 -47q22 0 43 8l12 -47
q-32 -17 -70 -17z" />
    <glyph glyph-name="uogonek" unicode="&#x173;" horiz-adv-x="534" 
d="M417 -221q-48 0 -75.5 26t-27.5 67q0 65 66 128q-6 24 -8 70q-61 -82 -156 -82q-73 0 -108 41.5t-35 110.5v341h85v-325q0 -46 18.5 -69.5t63.5 -23.5q31 0 62 19.5t44.5 34.5t23.5 29v335h85v-372q0 -73 11 -111l-8 -2q-32 -10 -54 -44t-22 -69q0 -48 50 -48q22 0 43 8
l12 -47q-32 -17 -70 -17z" />
    <glyph glyph-name="Wcircumflex" unicode="&#x174;" horiz-adv-x="883" 
d="M286 720l123 154h64l122 -154h-78l-78 81l-76 -81h-77zM202 0l-182 666h98l107 -426q5 -22 11 -50t9.5 -47t3.5 -20h2q0 1 2 9t4.5 20t6 26.5t8 31.5t8.5 31l121 425h91l119 -422q4 -15 8.5 -32t7.5 -31.5t6 -26.5t4.5 -20t1.5 -9h2l3 19q3 19 8.5 47t11.5 52l109 423h89
l-183 -666h-83l-122 434q-4 15 -8.5 33t-8 33.5t-6 29t-4.5 22t-2 9.5h-2q-30 -121 -32 -127l-127 -434h-82z" />
    <glyph glyph-name="wcircumflex" unicode="&#x175;" horiz-adv-x="707" 
d="M197 541l123 154h64l122 -154h-78l-78 81l-76 -81h-77zM158 0l-142 481h92l97 -352h2l107 352h81l107 -353h2l98 353h85l-143 -481h-76l-115 364h-2l-117 -364h-76z" />
    <glyph glyph-name="Ycircumflex" unicode="&#x176;" horiz-adv-x="563" 
d="M239 0v252l-222 414h100l171 -329h1l171 329h87l-217 -414v-252h-91zM127 720l123 154h64l122 -154h-78l-78 81l-76 -81h-77z" />
    <glyph glyph-name="ycircumflex" unicode="&#x177;" horiz-adv-x="478" 
d="M61 -232q-27 0 -52 5l12 70q21 -3 39 -3q48 0 74 25t45 79l22 60l-181 477h94l131 -370h3l126 370h89l-203 -543q-31 -83 -73.5 -126.5t-125.5 -43.5zM89 541l123 154h64l122 -154h-78l-78 81l-76 -81h-77z" />
    <glyph glyph-name="Ydieresis" unicode="&#x178;" horiz-adv-x="563" 
d="M239 0v252l-222 414h100l171 -329h1l171 329h87l-217 -414v-252h-91zM185 718q-24 0 -40.5 16.5t-16.5 40.5q0 23 16.5 40t40.5 17t41 -17t17 -40q0 -24 -17 -40.5t-41 -16.5zM376 718q-23 0 -40 16.5t-17 40.5q0 23 17 40t40 17q24 0 41 -17t17 -40q0 -24 -16.5 -40.5
t-41.5 -16.5z" />
    <glyph glyph-name="Zacute" unicode="&#x179;" horiz-adv-x="563" 
d="M249 719l90 128h122l-136 -128h-76zM46 0v62l352 530h-336v74h444v-59l-357 -533h368v-74h-471z" />
    <glyph glyph-name="zacute" unicode="&#x17a;" horiz-adv-x="430" 
d="M177 540l90 128h122l-136 -128h-76zM41 0v51l238 363h-224v67h327v-54l-238 -360h242v-67h-345z" />
    <glyph glyph-name="Zdotaccent" unicode="&#x17b;" horiz-adv-x="563" 
d="M46 0v62l352 530h-336v74h444v-59l-357 -533h368v-74h-471zM289 746q-25 0 -41.5 17t-16.5 41t16.5 40.5t41.5 16.5t41.5 -16.5t16.5 -40.5t-16.5 -41t-41.5 -17z" />
    <glyph glyph-name="zdotaccent" unicode="&#x17c;" horiz-adv-x="430" 
d="M41 0v51l238 363h-224v67h327v-54l-238 -360h242v-67h-345zM218 567q-25 0 -41.5 17t-16.5 41t16.5 40.5t41.5 16.5t41.5 -16.5t16.5 -40.5t-16.5 -41t-41.5 -17z" />
    <glyph glyph-name="Zcaron" unicode="&#x17d;" horiz-adv-x="563" 
d="M256 718l-121 155h77l78 -82l76 82h78l-124 -155h-64zM46 0v62l352 530h-336v74h444v-59l-357 -533h368v-74h-471z" />
    <glyph glyph-name="zcaron" unicode="&#x17e;" horiz-adv-x="430" 
d="M185 539l-121 155h77l78 -82l76 82h78l-124 -155h-64zM41 0v51l238 363h-224v67h327v-54l-238 -360h242v-67h-345z" />
    <glyph glyph-name="florin" unicode="&#x192;" horiz-adv-x="443" 
d="M30 -188q-58 0 -92 20l25 66q28 -14 58 -14q97 0 112 126l39 351h-103l9 66h102l14 125q9 87 58 133.5t136 46.5q64 0 112 -30l-32 -65q-34 24 -87 24q-52 0 -76.5 -32t-31.5 -95l-11 -107h112l-11 -66h-108l-40 -359q-10 -88 -55.5 -139t-129.5 -51z" />
    <glyph glyph-name="Scommaaccent" unicode="&#x218;" horiz-adv-x="502" 
d="M201 -221q29 33 29 60q0 15 -16 34t-16 37t13 30t33 12q23 0 39 -16.5t16 -43.5q0 -53 -51 -113h-47zM234 -12q-68 0 -117.5 21.5t-75.5 46.5l44 64q61 -57 151 -57q57 0 93.5 31t36.5 75q0 25 -9.5 45t-34 38t-40 27t-52.5 27q-5 3 -8.5 4.5t-7.5 3.5q-75 36 -114 77.5
t-39 113.5q0 79 57.5 126t140.5 47q110 0 179 -54l-42 -66q-58 45 -136 45q-49 0 -80 -25.5t-31 -68.5t29.5 -68.5t91.5 -54.5q27 -13 39 -19t36 -19.5t36 -23.5t29 -27.5t25 -34.5t14.5 -40.5t6.5 -50.5q0 -81 -61.5 -132t-160.5 -51z" />
    <glyph glyph-name="scommaaccent" unicode="&#x219;" horiz-adv-x="410" 
d="M156 -221q29 33 29 60q0 15 -16 34t-16 37t13 30t33 12q23 0 39 -16.5t16 -43.5q0 -53 -51 -113h-47zM194 -13q-90 0 -156 46l35 63q54 -39 119 -39q44 0 69 17t25 47q0 15 -6 26.5t-23.5 23t-32 18.5t-47.5 22q-64 28 -96 60t-32 87q0 59 43 97t115 38q86 0 145 -44
l-38 -61q-46 35 -106 35q-38 0 -58 -16t-20 -45t22 -45.5t72 -36.5q35 -15 56.5 -26.5t44.5 -29t34 -40.5t11 -52q0 -67 -47.5 -106t-128.5 -39z" />
    <glyph glyph-name="uni021A" unicode="&#x21a;" horiz-adv-x="505" 
d="M204 -221q29 33 29 60q0 15 -16 34t-16 37t13 30t33 12q23 0 39 -16.5t16 -43.5q0 -53 -51 -113h-47zM207 0v590h-188v76h467v-76h-188v-590h-91z" />
    <glyph glyph-name="uni021B" unicode="&#x21b;" horiz-adv-x="356" 
d="M175 -221q29 33 29 60q0 15 -16 34t-16 37t13 30t33 12q23 0 39 -16.5t16 -43.5q0 -53 -51 -113h-47zM229 -12q-126 0 -126 132v295h-79v66h79v138h84v-138h120v-66h-120v-284q0 -37 12.5 -54t42.5 -17q35 0 65 20l27 -63q-44 -29 -105 -29z" />
    <glyph glyph-name="dotlessj" unicode="&#x237;" horiz-adv-x="246" 
d="M23 -231q-35 0 -59 8l15 70q15 -6 34 -6q37 0 52.5 28t15.5 86v526h85v-539q0 -173 -143 -173z" />
    <glyph glyph-name="circumflex" unicode="&#x2c6;" horiz-adv-x="500" 
d="M96 541l123 154h64l122 -154h-78l-78 81l-76 -81h-77z" />
    <glyph glyph-name="caron" unicode="&#x2c7;" horiz-adv-x="500" 
d="M217 539l-121 155h77l78 -82l76 82h78l-124 -155h-64z" />
    <glyph glyph-name="breve" unicode="&#x2d8;" horiz-adv-x="500" 
d="M250 535q-59 0 -101 36t-48 108h74q3 -37 22.5 -59t52.5 -22q32 0 51.5 22t22.5 59h74q-6 -72 -48 -108t-100 -36z" />
    <glyph glyph-name="dotaccent" unicode="&#x2d9;" horiz-adv-x="500" 
d="M250 567q-25 0 -41.5 17t-16.5 41t16.5 40.5t41.5 16.5t41.5 -16.5t16.5 -40.5t-16.5 -41t-41.5 -17z" />
    <glyph glyph-name="ring" unicode="&#x2da;" horiz-adv-x="500" 
d="M250 544q-39 0 -68.5 28.5t-29.5 68.5t29.5 68.5t68.5 28.5t68.5 -28.5t29.5 -68.5t-29.5 -68.5t-68.5 -28.5zM250 587q22 0 35.5 16t13.5 38q0 23 -13 38.5t-36 15.5t-36 -15.5t-13 -38.5q0 -22 13.5 -38t35.5 -16z" />
    <glyph glyph-name="ogonek" unicode="&#x2db;" horiz-adv-x="500" 
d="M262 -221q-48 0 -75.5 26t-27.5 67q0 65 66 128h55q-53 -66 -53 -118q0 -47 50 -47q22 0 43 8l12 -47q-32 -17 -70 -17z" />
    <glyph glyph-name="tilde" unicode="&#x2dc;" horiz-adv-x="500" 
d="M301 544q-26 0 -58 19t-50 19q-7 0 -13.5 -2t-12.5 -6.5t-9.5 -8t-8.5 -9t-6 -6.5l-44 40q44 63 98 63q28 0 59.5 -19t48.5 -19q27 0 52 31l44 -41q-46 -61 -100 -61z" />
    <glyph glyph-name="hungarumlaut" unicode="&#x2dd;" horiz-adv-x="500" 
d="M70 540l93 128h115l-135 -128h-73zM242 540l93 128h114l-134 -128h-73z" />
    <glyph glyph-name="tonos" unicode="&#x384;" horiz-adv-x="500" 
d="M175 540l31 128h105l-68 -128h-68z" />
    <glyph glyph-name="dieresistonos" unicode="&#x385;" horiz-adv-x="500" 
d="M98 539q-23 0 -40 16.5t-17 40.5q0 23 17 40t40 17q24 0 41 -16.5t17 -40.5t-16.5 -40.5t-41.5 -16.5zM401 539q-24 0 -40.5 16.5t-16.5 40.5q0 23 16.5 40t40.5 17t41 -17t17 -40q0 -24 -17 -40.5t-41 -16.5zM192 540l30 132h105l-68 -132h-67z" />
    <glyph glyph-name="Alphatonos" unicode="&#x386;" horiz-adv-x="641" 
d="M69 539l31 128h105l-68 -128h-68zM198 232h240l-79 215q-12 33 -25 71.5t-15 43.5h-2q-16 -53 -39 -115zM23 0l255 666h87l257 -666h-98l-58 157h-296l-57 -157h-90z" />
    <glyph glyph-name="anoteleia" unicode="&#x387;" horiz-adv-x="227" 
d="M114 225q-28 0 -47.5 19t-19.5 47t19.5 46.5t47.5 18.5t47 -18.5t19 -46.5t-19 -47t-47 -19z" />
    <glyph glyph-name="Epsilontonos" unicode="&#x388;" horiz-adv-x="623" 
d="M24 539l31 128h105l-68 -128h-68zM207 0v666h351v-76h-261v-201h229v-75h-229v-238h268v-76h-358z" />
    <glyph glyph-name="Etatonos" unicode="&#x389;" horiz-adv-x="844" 
d="M24 539l31 128h105l-68 -128h-68zM207 0v666h91v-278h361v278h91v-666h-91v312h-361v-312h-91z" />
    <glyph glyph-name="Iotatonos" unicode="&#x38a;" horiz-adv-x="399" 
d="M24 539l31 128h105l-68 -128h-68zM207 0v666h91v-666h-91z" />
    <glyph glyph-name="Omicrontonos" unicode="&#x38c;" horiz-adv-x="826" 
d="M24 539l31 128h105l-68 -128h-68zM446 -12q-151 0 -241.5 100.5t-90.5 243.5q0 144 89.5 245t240.5 101t241 -100.5t90 -243.5t-89.5 -244.5t-239.5 -101.5zM444 63q111 0 173 77t62 192t-61.5 193t-171.5 78q-111 0 -174 -77.5t-63 -191.5q0 -115 62 -193t173 -78z" />
    <glyph glyph-name="Upsilontonos" unicode="&#x38e;" horiz-adv-x="746" 
d="M24 539l31 128h105l-68 -128h-68zM421 0v252l-222 414h100l171 -329h1l171 329h87l-217 -414v-252h-91z" />
    <glyph glyph-name="Omegatonos" unicode="&#x38f;" horiz-adv-x="818" 
d="M24 539l31 128h105l-68 -128h-68zM129 0v74h136q-63 43 -99.5 119.5t-36.5 163.5q0 142 93.5 231.5t222.5 89.5t222.5 -89.5t93.5 -231.5q0 -87 -36.5 -163.5t-99.5 -119.5h137v-74h-238v72q144 100 144 284q0 100 -64 173.5t-159 73.5t-159 -73.5t-64 -173.5
q0 -184 145 -284v-72h-238z" />
    <glyph glyph-name="iotadieresistonos" unicode="&#x390;" horiz-adv-x="285" 
d="M-17 539q-23 0 -40 16.5t-17 40.5q0 23 17 40t40 17q25 0 41.5 -16.5t16.5 -40.5t-16.5 -40.5t-41.5 -16.5zM286 539q-24 0 -40.5 16.5t-16.5 40.5q0 23 16.5 40t40.5 17t41 -17t17 -40q0 -24 -17 -40.5t-41 -16.5zM77 540l30 132h105l-68 -132h-67zM189 -12
q-59 0 -83.5 31.5t-24.5 90.5v371h84v-360q0 -32 8 -46.5t28 -14.5q18 0 36 14l26 -63q-31 -23 -74 -23z" />
    <glyph glyph-name="Alpha" unicode="&#x391;" horiz-adv-x="637" 
d="M195 232h240l-79 215q-12 33 -25 71.5t-15 43.5h-2q-16 -53 -39 -115zM20 0l255 666h87l257 -666h-98l-58 157h-296l-57 -157h-90z" />
    <glyph glyph-name="Beta" unicode="&#x392;" horiz-adv-x="578" 
d="M93 0v666h185q100 0 160.5 -40t60.5 -126q0 -117 -119 -148v-2q64 -11 106 -54t42 -109q0 -187 -253 -187h-182zM183 73h90q83 0 122 27t39 87q0 124 -155 124h-96v-238zM183 382h86q72 0 105 26.5t33 83.5q0 101 -136 101h-88v-211z" />
    <glyph glyph-name="Gamma" unicode="&#x393;" horiz-adv-x="470" 
d="M93 0v666h358v-75h-267v-591h-91z" />
    <glyph glyph-name="Delta" unicode="&#x394;" horiz-adv-x="617" 
d="M22 0v56l240 610h88l247 -610v-56h-575zM117 76h377l-145 371q-24 60 -44 124h-2q-36 -102 -44 -124z" />
    <glyph glyph-name="Epsilon" unicode="&#x395;" horiz-adv-x="508" 
d="M93 0v666h351v-76h-261v-201h229v-75h-229v-238h268v-76h-358z" />
    <glyph glyph-name="Zeta" unicode="&#x396;" horiz-adv-x="563" 
d="M46 0v62l352 530h-336v74h444v-59l-357 -533h368v-74h-471z" />
    <glyph glyph-name="Eta" unicode="&#x397;" horiz-adv-x="729" 
d="M93 0v666h91v-278h361v278h91v-666h-91v312h-361v-312h-91z" />
    <glyph glyph-name="Theta" unicode="&#x398;" horiz-adv-x="763" 
d="M383 -12q-151 0 -241.5 100.5t-90.5 243.5q0 144 89.5 245t240.5 101t241 -100.5t90 -243.5t-89.5 -244.5t-239.5 -101.5zM381 63q111 0 173 77t62 192t-61.5 193t-171.5 78q-111 0 -174 -77.5t-63 -191.5q0 -115 62 -193t173 -78zM233 295v75h284v-75h-284z" />
    <glyph glyph-name="Iota" unicode="&#x399;" horiz-adv-x="290" 
d="M99 0v666h91v-666h-91z" />
    <glyph glyph-name="Kappa" unicode="&#x39a;" horiz-adv-x="581" 
d="M93 0v666h90v-317l262 317h104l-264 -313l281 -353h-111l-272 344v-344h-90z" />
    <glyph glyph-name="Lambda" unicode="&#x39b;" horiz-adv-x="629" 
d="M20 0l248 666h87l256 -666h-98l-165 447q-11 30 -23.5 70t-14.5 46h-2q-24 -78 -37 -116l-161 -447h-90z" />
    <glyph glyph-name="Mu" unicode="&#x39c;" horiz-adv-x="858" 
d="M51 0l92 666h85l159 -445q23 -65 41 -121h2q12 44 40 121l160 445h86l90 -666h-91l-55 418q-7 56 -11 94h-2q-12 -45 -29 -93l-149 -419h-88l-152 419q-16 46 -31 93h-2q-2 -28 -10 -96l-51 -416h-84z" />
    <glyph glyph-name="Nu" unicode="&#x39d;" horiz-adv-x="717" 
d="M92 0v666h89l300 -430q36 -52 63 -101h2q-4 48 -4 93v438h83v-666h-83l-315 454q-15 21 -54 89h-2q4 -48 4 -76v-467h-83z" />
    <glyph glyph-name="Xi" unicode="&#x39e;" horiz-adv-x="569" 
d="M58 0v83h452v-83h-452zM97 310v83h375v-83h-375zM65 583v83h438v-83h-438z" />
    <glyph glyph-name="Omicron" unicode="&#x39f;" horiz-adv-x="763" 
d="M383 -12q-151 0 -241.5 100.5t-90.5 243.5q0 144 89.5 245t240.5 101t241 -100.5t90 -243.5t-89.5 -244.5t-239.5 -101.5zM381 63q111 0 173 77t62 192t-61.5 193t-171.5 78q-111 0 -174 -77.5t-63 -191.5q0 -115 62 -193t173 -78z" />
    <glyph glyph-name="Pi" unicode="&#x3a0;" horiz-adv-x="701" 
d="M93 0v666h514v-666h-90v590h-333v-590h-91z" />
    <glyph glyph-name="Rho" unicode="&#x3a1;" horiz-adv-x="552" 
d="M93 0v666h177q106 0 172 -50.5t66 -145.5q0 -99 -66 -153t-184 -54h-74v-263h-91zM184 337h75q82 0 119.5 32.5t37.5 98.5q0 124 -154 124h-78v-255z" />
    <glyph glyph-name="Sigma" unicode="&#x3a3;" horiz-adv-x="509" 
d="M51 0v62l188 287l-175 255v62h384v-76h-277l163 -233l-184 -281h316v-76h-415z" />
    <glyph glyph-name="Tau" unicode="&#x3a4;" horiz-adv-x="505" 
d="M207 0v590h-188v76h467v-76h-188v-590h-91z" />
    <glyph glyph-name="Upsilon" unicode="&#x3a5;" horiz-adv-x="563" 
d="M239 0v252l-222 414h100l171 -329h1l171 329h87l-217 -414v-252h-91z" />
    <glyph glyph-name="Phi" unicode="&#x3a6;" horiz-adv-x="724" 
d="M318 0v73q-126 2 -205.5 77t-79.5 188t79 189.5t206 78.5v60h88v-60q126 -2 205.5 -77t79.5 -188q0 -114 -79 -190t-206 -78v-73h-88zM401 143q89 1 144.5 55.5t55.5 139.5q0 87 -55.5 141.5t-144.5 56.5v-393zM323 143v393q-89 -2 -144.5 -56t-55.5 -139
q0 -86 55.5 -141.5t144.5 -56.5z" />
    <glyph glyph-name="Chi" unicode="&#x3a7;" horiz-adv-x="575" 
d="M24 0l211 344l-200 322h103l154 -248l145 248h94l-195 -321l215 -345h-103l-169 272l-161 -272h-94z" />
    <glyph glyph-name="Psi" unicode="&#x3a8;" horiz-adv-x="730" 
d="M323 0v206q-257 25 -257 272v188h90v-179q0 -104 45 -151.5t127 -53.5v384h80v-384q79 6 125.5 53.5t46.5 138.5v192h85v-184q0 -250 -252 -276v-206h-90z" />
    <glyph glyph-name="Omega" unicode="&#x3a9;" horiz-adv-x="748" 
d="M58 0v74h136q-63 43 -99.5 119.5t-36.5 163.5q0 142 93.5 231.5t222.5 89.5t222.5 -89.5t93.5 -231.5q0 -87 -36.5 -163.5t-99.5 -119.5h137v-74h-238v72q144 100 144 284q0 100 -64 173.5t-159 73.5t-159 -73.5t-64 -173.5q0 -184 145 -284v-72h-238z" />
    <glyph glyph-name="Iotadieresis" unicode="&#x3aa;" horiz-adv-x="290" 
d="M49 718q-24 0 -40.5 16.5t-16.5 40.5q0 23 16.5 40t40.5 17t41 -17t17 -40q0 -24 -17 -40.5t-41 -16.5zM240 718q-23 0 -40 16.5t-17 40.5q0 23 17 40t40 17q24 0 41 -17t17 -40q0 -24 -16.5 -40.5t-41.5 -16.5zM99 0v666h91v-666h-91z" />
    <glyph glyph-name="Upsilondieresis" unicode="&#x3ab;" horiz-adv-x="563" 
d="M185 718q-24 0 -40.5 16.5t-16.5 40.5q0 23 16.5 40t40.5 17t41 -17t17 -40q0 -24 -17 -40.5t-41 -16.5zM376 718q-23 0 -40 16.5t-17 40.5q0 23 17 40t40 17q24 0 41 -17t17 -40q0 -24 -16.5 -40.5t-41.5 -16.5zM239 0v252l-222 414h100l171 -329h1l171 329h87
l-217 -414v-252h-91z" />
    <glyph glyph-name="alphatonos" unicode="&#x3ac;" horiz-adv-x="561" 
d="M234 540l31 128h105l-68 -128h-68zM237 -12q-71 0 -118.5 40.5t-65.5 94.5t-18 117q0 45 11 88t33.5 81t63 61t94.5 23q66 0 109 -35t59 -84h1q2 26 13.5 60.5t19.5 46.5h88q-27 -38 -47 -119l-31 -116l35 -127q19 -76 52 -119h-89q-9 12 -23 47.5t-18 60.5h-1
q-16 -49 -59.5 -84.5t-108.5 -35.5zM247 58q100 0 128 181q-10 79 -44 131.5t-89 52.5q-60 0 -88.5 -50t-28.5 -131t30.5 -132.5t91.5 -51.5z" />
    <glyph glyph-name="epsilontonos" unicode="&#x3ad;" horiz-adv-x="433" 
d="M193 540l31 128h105l-68 -128h-68zM238 -12q-92 0 -147 36.5t-55 107.5q0 44 32 78t78 42v1q-90 24 -90 108q0 62 55.5 97t135.5 35q96 0 157 -43l-32 -64q-54 36 -128 36q-47 0 -72.5 -18t-25.5 -52q0 -35 32.5 -53.5t82.5 -18.5h40l1 -64h-40q-57 0 -96.5 -20.5
t-39.5 -57.5q0 -79 115 -79q79 0 137 39l37 -65q-75 -45 -177 -45z" />
    <glyph glyph-name="etatonos" unicode="&#x3ae;" horiz-adv-x="535" 
d="M226 540l31 128h105l-68 -128h-68zM376 -217v542q0 94 -81 94q-70 0 -132 -83v-336h-84v375q0 50 -13 106h85q9 -30 9 -67q65 79 159 79q73 0 107.5 -41.5t34.5 -109.5v-559h-85z" />
    <glyph glyph-name="iotatonos" unicode="&#x3af;" horiz-adv-x="285" 
d="M91 540l31 128h105l-68 -128h-68zM189 -12q-59 0 -83.5 31.5t-24.5 90.5v371h84v-360q0 -32 8 -46.5t28 -14.5q18 0 36 14l26 -63q-31 -23 -74 -23z" />
    <glyph glyph-name="upsilondieresistonos" unicode="&#x3b0;" horiz-adv-x="525" 
d="M118 539q-23 0 -40 16.5t-17 40.5q0 23 17 40t40 17q24 0 41 -16.5t17 -40.5t-16.5 -40.5t-41.5 -16.5zM421 539q-24 0 -40.5 16.5t-16.5 40.5q0 23 16.5 40t40.5 17t41 -17t17 -40q0 -24 -17 -40.5t-41 -16.5zM212 540l30 132h105l-68 -132h-67zM264 -12
q-91 0 -142.5 56t-51.5 163v274h85v-263q0 -160 109 -160q57 0 87.5 55t30.5 187q0 91 -30 181h87q30 -80 30 -181q0 -312 -205 -312z" />
    <glyph glyph-name="alpha" unicode="&#x3b1;" horiz-adv-x="561" 
d="M237 -12q-71 0 -118.5 40.5t-65.5 94.5t-18 117q0 45 11 88t33.5 81t63 61t94.5 23q66 0 109 -35t59 -84h1q2 26 13.5 60.5t19.5 46.5h88q-27 -38 -47 -119l-31 -116l35 -127q19 -76 52 -119h-89q-9 12 -23 47.5t-18 60.5h-1q-16 -49 -59.5 -84.5t-108.5 -35.5zM247 58
q100 0 128 181q-10 79 -44 131.5t-89 52.5q-60 0 -88.5 -50t-28.5 -131t30.5 -132.5t91.5 -51.5z" />
    <glyph glyph-name="beta" unicode="&#x3b2;" horiz-adv-x="539" 
d="M79 -217v713q0 116 57.5 176t148.5 60q80 0 128.5 -46t48.5 -107q0 -59 -37 -108.5t-84 -61.5v-1q61 -8 108 -63t47 -124q0 -107 -59 -168.5t-164 -61.5q-70 0 -110 36v-244h-84zM268 60q68 0 102.5 42.5t34.5 110.5q0 71 -50.5 111t-133.5 40v62q57 1 104.5 43t47.5 101
q0 38 -24 63.5t-67 25.5q-54 0 -86.5 -41.5t-32.5 -123.5v-395q40 -37 105 -39z" />
    <glyph glyph-name="gamma" unicode="&#x3b3;" horiz-adv-x="469" 
d="M190 -217v226l-175 472h92l126 -371h2q97 191 123 371h86q-24 -178 -172 -469v-229h-82z" />
    <glyph glyph-name="delta" unicode="&#x3b4;" horiz-adv-x="535" 
d="M265 -12q-109 0 -169 67.5t-60 162.5q0 86 52.5 154.5t119.5 99.5q-63 67 -63 128q0 58 43.5 95t108.5 37q79 0 128 -36l-38 -62q-41 28 -87 28q-31 0 -48 -17t-17 -45q0 -24 18.5 -50t37 -42.5t62.5 -52.5q32 -25 52 -44.5t44.5 -50t37 -67.5t12.5 -80q0 -92 -61 -158.5
t-173 -66.5zM287 403q-18 14 -26 21q-56 -26 -95.5 -80t-39.5 -124q0 -73 37.5 -117.5t102.5 -44.5t103.5 41t38.5 112q0 41 -18.5 78t-40.5 58.5t-62 55.5z" />
    <glyph glyph-name="epsilon" unicode="&#x3b5;" horiz-adv-x="435" 
d="M239 -12q-92 0 -147 36.5t-55 107.5q0 44 32 78t78 42v1q-90 24 -90 108q0 62 55.5 97t135.5 35q96 0 157 -43l-32 -64q-54 36 -128 36q-47 0 -72.5 -18t-25.5 -52q0 -35 32.5 -53.5t82.5 -18.5h40l1 -64h-40q-57 0 -96.5 -20.5t-39.5 -57.5q0 -79 115 -79q78 0 137 39
l37 -65q-75 -45 -177 -45z" />
    <glyph glyph-name="zeta" unicode="&#x3b6;" horiz-adv-x="366" 
d="M291 -164l-50 43q39 23 39 60q0 35 -46 53l-44 19q-151 66 -151 191q0 61 33 127.5t98 160.5l110 163h-216v67h321v-54l-159 -226q-100 -142 -100 -222q0 -50 25.5 -80.5t82.5 -55.5l44 -19q82 -35 82 -102q0 -38 -20 -72t-49 -53z" />
    <glyph glyph-name="eta" unicode="&#x3b7;" horiz-adv-x="535" 
d="M376 -217v542q0 94 -81 94q-70 0 -132 -83v-336h-84v375q0 50 -13 106h85q9 -30 9 -67q65 79 159 79q73 0 107.5 -41.5t34.5 -109.5v-559h-85z" />
    <glyph glyph-name="theta" unicode="&#x3b8;" horiz-adv-x="536" 
d="M269 -12q-50 0 -89.5 23t-63.5 59.5t-39 87t-21 99.5t-6 102t5.5 102t20.5 100t38.5 87.5t62.5 60t90 23.5q62 0 107 -33.5t68 -91t33 -118t10 -128.5t-9.5 -128.5t-32 -118.5t-67 -92t-107.5 -34zM270 58q122 0 130 275h-264q2 -75 15 -134t43.5 -100t75.5 -41zM265 662
q-63 0 -94 -74t-35 -189h263q-3 73 -16.5 129t-43.5 95t-74 39z" />
    <glyph glyph-name="iota" unicode="&#x3b9;" horiz-adv-x="285" 
d="M189 -12q-59 0 -83.5 31.5t-24.5 90.5v371h84v-360q0 -32 8 -46.5t28 -14.5q18 0 36 14l26 -63q-31 -23 -74 -23z" />
    <glyph glyph-name="kappa" unicode="&#x3ba;" horiz-adv-x="521" 
d="M82 0v481h83v-214q0 -73 -12 -129h1q49 140 243 343h103q-108 -103 -184 -194l188 -287h-98l-139 224q-90 -120 -112 -224h-73z" />
    <glyph glyph-name="lambda" unicode="&#x3bb;" horiz-adv-x="498" 
d="M24 0l188 493l-28 78q-17 45 -30 63t-33 18q-23 0 -43 -13l-21 62q31 23 80 23q40 0 68 -26t53 -95l221 -603h-89l-116 338q-12 33 -20 72h-1q-7 -38 -20 -72l-120 -338h-89z" />
    <glyph glyph-name="mu" unicode="&#x3bc;" horiz-adv-x="551" 
d="M75 -217v698h85v-332q0 -40 14.5 -63t55.5 -23q75 0 142 82v336h85v-377q0 -66 8 -104h-85q-5 25 -7 68q-72 -78 -152 -79q-39 0 -63 15h-2q3 -32 3 -109v-112h-84z" />
    <glyph glyph-name="nu" unicode="&#x3bd;" horiz-adv-x="469" 
d="M194 0l-178 481h91l126 -371h2q97 191 123 371h86q-24 -178 -181 -481h-69z" />
    <glyph glyph-name="xi" unicode="&#x3be;" horiz-adv-x="407" 
d="M309 -164l-50 43q39 23 39 61q0 36 -45 53l-54 18q-74 26 -115 66.5t-41 115.5q0 69 38.5 122.5t99.5 66.5v2q-46 13 -73 48t-27 83q0 49 25.5 90t61.5 52v1q-31 -4 -67 -4h-80v66h361v-67h-78q-66 0 -102 -39.5t-36 -98.5q0 -49 36.5 -79.5t95.5 -30.5h44v-65h-51
q-79 0 -119.5 -40t-40.5 -101q0 -45 29 -71t92 -49l45 -15q81 -28 81 -103q0 -38 -19.5 -72t-49.5 -53z" />
    <glyph glyph-name="omicron" unicode="&#x3bf;" horiz-adv-x="532" 
d="M264 -12q-77 0 -130 40t-74.5 95t-21.5 117q0 45 12.5 88t37.5 81t70 61t104 23q58 0 104.5 -22.5t73 -60t40.5 -80.5t14 -88t-13.5 -88t-39.5 -81t-72 -61.5t-105 -23.5zM266 58q68 0 103 51t35 131q0 79 -37.5 131t-105.5 52t-100.5 -49.5t-32.5 -131.5
q0 -81 34.5 -132.5t103.5 -51.5z" />
    <glyph glyph-name="pi" unicode="&#x3c0;" horiz-adv-x="619" 
d="M484 -12q-59 0 -83.5 31.5t-24.5 90.5v305h-164q0 -215 -29 -415h-87q34 210 34 415h-98v66h545v-66h-116v-294q0 -32 7.5 -46.5t28.5 -14.5q19 0 35 14l26 -63q-29 -23 -74 -23z" />
    <glyph glyph-name="rho" unicode="&#x3c1;" horiz-adv-x="519" 
d="M60 -217v472q0 238 206 238q99 0 157 -63t58 -181q0 -117 -64.5 -189t-165.5 -72q-65 0 -106 33v-238h-85zM248 59q65 0 103.5 51.5t38.5 136.5q0 81 -31.5 128.5t-93.5 47.5q-120 0 -120 -173v-156q43 -35 103 -35z" />
    <glyph glyph-name="sigma1" unicode="&#x3c2;" horiz-adv-x="436" 
d="M308 -164l-50 43q40 22 40 60q0 34 -46 53l-58 24q-79 31 -117.5 84.5t-38.5 143.5q0 118 65 183.5t163 65.5q88 0 147 -46l-36 -62q-53 38 -111 38q-69 0 -103.5 -48t-34.5 -128q0 -113 110 -159l58 -25q81 -35 81 -102q0 -38 -19.5 -72t-49.5 -53z" />
    <glyph glyph-name="sigma" unicode="&#x3c3;" horiz-adv-x="550" 
d="M264 -12q-58 0 -103.5 22.5t-71 60t-38.5 79t-13 84.5t13 84.5t39 79t73.5 60.5t108.5 23h252v-66h-112v-1q35 -22 58.5 -71.5t23.5 -106.5q0 -34 -8 -67.5t-26 -66.5t-44 -58t-65.5 -40.5t-86.5 -15.5zM266 58q68 0 103 49.5t35 126.5q0 75 -37.5 126t-105.5 51
q-67 0 -100 -49t-33 -126q0 -76 35 -127t103 -51z" />
    <glyph glyph-name="tau" unicode="&#x3c4;" horiz-adv-x="411" 
d="M251 -12q-59 0 -83.5 31.5t-24.5 90.5v305h-131v66h383v-66h-168v-294q0 -32 8 -46.5t28 -14.5q18 0 36 14l26 -63q-31 -23 -74 -23z" />
    <glyph glyph-name="upsilon" unicode="&#x3c5;" horiz-adv-x="525" 
d="M265 -12q-91 0 -142.5 56t-51.5 163v274h85v-263q0 -160 109 -160q57 0 87.5 55t30.5 187q0 91 -30 181h87q30 -80 30 -181q0 -312 -205 -312z" />
    <glyph glyph-name="phi" unicode="&#x3c6;" horiz-adv-x="646" 
d="M282 -219v207q-115 3 -180.5 78t-65.5 174q0 98 65.5 174t180.5 79v227h76v-227q115 -3 183.5 -78.5t68.5 -172.5q0 -98 -68.5 -174.5t-183.5 -79.5v-207h-76zM358 54q72 3 117.5 53t45.5 132t-45.5 133t-117.5 55v-373zM282 55v372q-72 -4 -114 -53.5t-42 -131.5
q0 -83 42 -134t114 -53z" />
    <glyph glyph-name="chi" unicode="&#x3c7;" horiz-adv-x="441" 
d="M0 -217l176 363l-162 335h91l117 -258h1l119 258h85l-163 -334l177 -364h-91l-133 286h-1l-130 -286h-86z" />
    <glyph glyph-name="psi" unicode="&#x3c8;" horiz-adv-x="664" 
d="M293 -219v207q-96 3 -159 59.5t-63 160.5v273h85v-261q0 -79 39.5 -119.5t98.5 -42.5v582h77v-582q64 3 107.5 58.5t43.5 183.5q0 91 -30 181h87q29 -77 29 -181q0 -84 -19 -145.5t-53 -96.5t-74.5 -51.5t-89.5 -18.5v-207h-79z" />
    <glyph glyph-name="omega" unicode="&#x3c9;" horiz-adv-x="751" 
d="M221 -12q-79 0 -125 59t-46 166q0 162 78 268h92q-83 -117 -83 -260q0 -160 89 -160q101 0 109 262h82q8 -262 108 -262q90 0 90 160q0 141 -84 260h92q79 -105 79 -268q0 -107 -46.5 -166t-125.5 -59q-61 0 -99.5 38t-54.5 97h-1q-16 -59 -54.5 -97t-99.5 -38z" />
    <glyph glyph-name="iotadieresis" unicode="&#x3ca;" horiz-adv-x="285" 
d="M29 539q-24 0 -40.5 16.5t-16.5 40.5q0 23 16.5 40t40.5 17t41 -17t17 -40q0 -24 -17 -40.5t-41 -16.5zM220 539q-23 0 -40 16.5t-17 40.5q0 23 17 40t40 17q24 0 41 -16.5t17 -40.5t-16.5 -40.5t-41.5 -16.5zM189 -12q-59 0 -83.5 31.5t-24.5 90.5v371h84v-360
q0 -32 8 -46.5t28 -14.5q18 0 36 14l26 -63q-31 -23 -74 -23z" />
    <glyph glyph-name="upsilondieresis" unicode="&#x3cb;" horiz-adv-x="525" 
d="M166 539q-24 0 -40.5 16.5t-16.5 40.5q0 23 16.5 40t40.5 17t41 -17t17 -40q0 -24 -17 -40.5t-41 -16.5zM357 539q-23 0 -40 16.5t-17 40.5q0 23 17 40t40 17q25 0 41.5 -16.5t16.5 -40.5t-16.5 -40.5t-41.5 -16.5zM265 -12q-91 0 -142.5 56t-51.5 163v274h85v-263
q0 -160 109 -160q57 0 87.5 55t30.5 187q0 91 -30 181h87q30 -80 30 -181q0 -312 -205 -312z" />
    <glyph glyph-name="omicrontonos" unicode="&#x3cc;" horiz-adv-x="532" 
d="M232 540l31 128h105l-68 -128h-68zM264 -12q-77 0 -130 40t-74.5 95t-21.5 117q0 45 12.5 88t37.5 81t70 61t104 23q58 0 104.5 -22.5t73 -60t40.5 -80.5t14 -88t-13.5 -88t-39.5 -81t-72 -61.5t-105 -23.5zM266 58q68 0 103 51t35 131q0 79 -37.5 131t-105.5 52
t-100.5 -49.5t-32.5 -131.5q0 -81 34.5 -132.5t103.5 -51.5z" />
    <glyph glyph-name="upsilontonos" unicode="&#x3cd;" horiz-adv-x="525" 
d="M228 540l31 128h105l-68 -128h-68zM265 -12q-91 0 -142.5 56t-51.5 163v274h85v-263q0 -160 109 -160q57 0 87.5 55t30.5 187q0 91 -30 181h87q30 -80 30 -181q0 -312 -205 -312z" />
    <glyph glyph-name="omegatonos" unicode="&#x3ce;" horiz-adv-x="750" 
d="M340 540l31 128h105l-68 -128h-68zM221 -12q-79 0 -125 59t-46 166q0 162 78 268h92q-83 -117 -83 -260q0 -160 89 -160q101 0 109 262h82q8 -262 108 -262q90 0 90 160q0 141 -84 260h92q79 -105 79 -268q0 -107 -46.5 -166t-125.5 -59q-61 0 -99.5 38t-54.5 97h-1
q-16 -59 -54.5 -97t-99.5 -38z" />
    <glyph glyph-name="afii10023" unicode="&#x401;" horiz-adv-x="508" 
d="M177 718q-24 0 -40.5 16.5t-16.5 40.5q0 23 16.5 40t40.5 17t41 -17t17 -40q0 -24 -17 -40.5t-41 -16.5zM368 718q-23 0 -40 16.5t-17 40.5q0 23 17 40t40 17q24 0 41 -17t17 -40q0 -24 -16.5 -40.5t-41.5 -16.5zM93 0v666h351v-76h-261v-201h229v-75h-229v-238h268v-76
h-358z" />
    <glyph glyph-name="afii10051" unicode="&#x402;" horiz-adv-x="707" 
d="M181 0v590h-162v76h470v-76h-218v-219q28 37 78 68.5t113 31.5q98 0 147 -74.5t49 -201.5q0 -167 -77 -277.5t-192 -110.5q-41 0 -65 12l18 74q19 -7 51 -7q73 0 122.5 88.5t49.5 214.5q0 206 -126 206q-54 0 -98.5 -32t-69.5 -68v-295h-90z" />
    <glyph glyph-name="afii10052" unicode="&#x403;" horiz-adv-x="470" 
d="M209 719l90 128h122l-136 -128h-76zM93 0v666h358v-75h-267v-591h-91z" />
    <glyph glyph-name="afii10053" unicode="&#x404;" horiz-adv-x="616" 
d="M379 -12q-152 0 -240 100.5t-88 246.5q0 144 89.5 243.5t240.5 99.5q111 0 189 -51l-44 -67q-63 43 -147 43q-102 0 -163.5 -68.5t-67.5 -165.5h321v-75h-320q7 -97 68.5 -163.5t163.5 -66.5q95 0 161 56l40 -64q-29 -27 -83.5 -47.5t-119.5 -20.5z" />
    <glyph glyph-name="afii10054" unicode="&#x405;" horiz-adv-x="502" 
d="M234 -12q-68 0 -117.5 21.5t-75.5 46.5l44 64q61 -57 151 -57q57 0 93.5 31t36.5 75q0 25 -9.5 45t-34 38t-40 27t-52.5 27q-5 3 -8.5 4.5t-7.5 3.5q-75 36 -114 77.5t-39 113.5q0 79 57.5 126t140.5 47q110 0 179 -54l-42 -66q-58 45 -136 45q-49 0 -80 -25.5t-31 -68.5
t29.5 -68.5t91.5 -54.5q27 -13 39 -19t36 -19.5t36 -23.5t29 -27.5t25 -34.5t14.5 -40.5t6.5 -50.5q0 -81 -61.5 -132t-160.5 -51z" />
    <glyph glyph-name="afii10055" unicode="&#x406;" horiz-adv-x="284" 
d="M93 0v666h91v-666h-91z" />
    <glyph glyph-name="afii10056" unicode="&#x407;" horiz-adv-x="290" 
d="M99 0v666h91v-666h-91zM49 718q-24 0 -40.5 16.5t-16.5 40.5q0 23 16.5 40t40.5 17t41 -17t17 -40q0 -24 -17 -40.5t-41 -16.5zM240 718q-23 0 -40 16.5t-17 40.5q0 23 17 40t40 17q24 0 41 -17t17 -40q0 -24 -16.5 -40.5t-41.5 -16.5z" />
    <glyph glyph-name="afii10057" unicode="&#x408;" horiz-adv-x="292" 
d="M40 -193q-35 0 -65 11l14 77q19 -8 41 -8q40 0 59 28t19 87v664h91v-678q0 -87 -40.5 -134t-118.5 -47z" />
    <glyph glyph-name="afii10058" unicode="&#x409;" horiz-adv-x="959" 
d="M39 -10l-12 74q57 3 86 66.5t40 192.5l29 343h391v-263h107q106 0 172 -50t66 -145q0 -100 -66 -154t-184 -54h-185v590h-217l-24 -284q-13 -159 -61 -237.5t-142 -78.5zM573 74h95q158 0 158 131q0 124 -155 124h-98v-255z" />
    <glyph glyph-name="afii10059" unicode="&#x40a;" horiz-adv-x="954" 
d="M93 0v666h91v-266h294v266h90v-266h106q106 0 172 -50t66 -144q0 -99 -65.5 -152.5t-184.5 -53.5h-184v325h-294v-325h-91zM568 74h95q157 0 157 129q0 123 -154 123h-98v-252z" />
    <glyph glyph-name="afii10060" unicode="&#x40b;" horiz-adv-x="723" 
d="M181 0v590h-162v76h470v-76h-218v-219q27 36 80.5 68t116.5 32q88 0 139 -51.5t51 -142.5v-277h-90v260q0 67 -34 101t-89 34q-54 0 -101.5 -32.5t-72.5 -67.5v-295h-90z" />
    <glyph glyph-name="afii10061" unicode="&#x40c;" horiz-adv-x="587" 
d="M257 719l90 128h122l-136 -128h-76zM93 0v666h90v-291h57l216 291h101l-245 -317q34 -26 107 -134q9 -13 23.5 -34.5t21.5 -32t18 -25t18 -21.5t16 -14t17.5 -10t18.5 -3h10l-2 -75h-35q-45 0 -76.5 31.5t-97.5 128.5q-11 17 -31 47t-28 41.5t-21.5 27t-25 21t-24.5 5.5
h-38v-302h-90z" />
    <glyph glyph-name="afii10062" unicode="&#x40e;" horiz-adv-x="552" 
d="M108 -2q-30 0 -44 6l12 69q12 -3 32 -3q40 0 67 24.5t51 79.5l17 38l-201 454h87l158 -357l157 357h87l-231 -525q-34 -77 -78.5 -110t-113.5 -33zM287 714q-59 0 -101 36t-48 108h74q3 -37 22.5 -59t52.5 -22q32 0 51.5 22t22.5 59h74q-6 -72 -48 -108t-100 -36z" />
    <glyph glyph-name="afii10145" unicode="&#x40f;" horiz-adv-x="693" 
d="M316 -144l-7 144h-216v666h91v-590h325v590h90v-666h-214l-7 -144h-62z" />
    <glyph glyph-name="afii10017" unicode="&#x410;" horiz-adv-x="637" 
d="M195 232h240l-79 215q-12 33 -25 71.5t-15 43.5h-2q-16 -53 -39 -115zM20 0l255 666h87l257 -666h-98l-58 157h-296l-57 -157h-90z" />
    <glyph glyph-name="afii10018" unicode="&#x411;" horiz-adv-x="581" 
d="M93 0v666h377v-76h-286v-190h106q106 0 172 -50t66 -144q0 -99 -65.5 -152.5t-184.5 -53.5h-185zM184 74h94q158 0 158 129q0 123 -154 123h-98v-252z" />
    <glyph glyph-name="afii10019" unicode="&#x412;" horiz-adv-x="578" 
d="M93 0v666h185q100 0 160.5 -40t60.5 -126q0 -117 -119 -148v-2q64 -11 106 -54t42 -109q0 -187 -253 -187h-182zM183 73h90q83 0 122 27t39 87q0 124 -155 124h-96v-238zM183 382h86q72 0 105 26.5t33 83.5q0 101 -136 101h-88v-211z" />
    <glyph glyph-name="afii10020" unicode="&#x413;" horiz-adv-x="470" 
d="M93 0v666h358v-75h-267v-591h-91z" />
    <glyph glyph-name="afii10021" unicode="&#x414;" horiz-adv-x="698" 
d="M37 -144l-12 220h53q39 33 57 86.5t28 160.5l33 343h387v-590h68l-21 -220h-62l-7 144h-448l-14 -144h-62zM178 76h314v514h-213l-27 -282q-16 -171 -74 -232z" />
    <glyph glyph-name="afii10022" unicode="&#x415;" horiz-adv-x="508" 
d="M93 0v666h351v-76h-261v-201h229v-75h-229v-238h268v-76h-358z" />
    <glyph glyph-name="afii10024" unicode="&#x416;" horiz-adv-x="897" 
d="M25 0l2 75h8q10 0 18.5 3t17.5 10t16 14t17.5 21.5t18 25.5t21 31.5t23.5 34.5q71 107 107 134l-244 317h100l216 -291h58v291h89v-291h58l215 291h101l-245 -317q33 -25 108 -134q9 -13 23.5 -34.5t21 -31.5t17.5 -25t17.5 -21.5t16 -14.5t18 -10.5t18.5 -2.5h10l-2 -75
h-35q-44 0 -76.5 32t-97.5 128q-10 14 -23 34.5t-20.5 31.5t-17.5 25.5t-17 22t-16 15t-17.5 10.5t-17.5 3h-39v-302h-89v302h-43q-12 -1 -23 -6.5t-24 -21.5t-21 -27t-28 -41.5t-30 -45.5q-64 -96 -96.5 -128t-77.5 -32h-36z" />
    <glyph glyph-name="afii10025" unicode="&#x417;" horiz-adv-x="525" 
d="M227 -12q-116 0 -194 61l43 65q58 -51 153 -51q153 0 153 119q0 59 -43 94t-121 35h-67v71h57q68 0 107.5 30t39.5 85q0 48 -33 76t-95 28q-88 0 -144 -43l-34 62q69 58 180 58q97 0 157 -44.5t60 -128.5q0 -59 -29 -99t-84 -54v-2q63 -11 102.5 -56t39.5 -113
q0 -95 -68 -144t-180 -49z" />
    <glyph glyph-name="afii10026" unicode="&#x418;" horiz-adv-x="721" 
d="M93 0v666h84v-445q0 -45 -4 -93h2q44 71 64 101l298 437h90v-666h-83v474q0 20 1.5 46.5t1.5 29.5h-2q-35 -61 -54 -89l-314 -461h-84z" />
    <glyph glyph-name="afii10027" unicode="&#x419;" horiz-adv-x="721" 
d="M93 0v666h84v-445q0 -45 -4 -93h2q44 71 64 101l298 437h90v-666h-83v474q0 20 1.5 46.5t1.5 29.5h-2q-35 -61 -54 -89l-314 -461h-84zM363 714q-59 0 -101 36t-48 108h74q3 -37 22.5 -59t52.5 -22q32 0 51.5 22t22.5 59h74q-6 -72 -48 -108t-100 -36z" />
    <glyph glyph-name="afii10028" unicode="&#x41a;" horiz-adv-x="587" 
d="M93 0v666h90v-291h57l216 291h101l-245 -317q34 -26 107 -134q9 -13 23.5 -34.5t21.5 -32t18 -25t18 -21.5t16 -14t17.5 -10t18.5 -3h10l-2 -75h-35q-45 0 -76.5 31.5t-97.5 128.5q-11 17 -31 47t-28 41.5t-21.5 27t-25 21t-24.5 5.5h-38v-302h-90z" />
    <glyph glyph-name="afii10029" unicode="&#x41b;" horiz-adv-x="667" 
d="M39 -10l-12 74q57 3 86 66.5t40 192.5l29 343h391v-666h-90v590h-217l-24 -284q-13 -159 -61 -237.5t-142 -78.5z" />
    <glyph glyph-name="afii10030" unicode="&#x41c;" horiz-adv-x="858" 
d="M51 0l92 666h85l159 -445q23 -65 41 -121h2q12 44 40 121l160 445h86l90 -666h-91l-55 418q-7 56 -11 94h-2q-12 -45 -29 -93l-149 -419h-88l-152 419q-16 46 -31 93h-2q-2 -28 -10 -96l-51 -416h-84z" />
    <glyph glyph-name="afii10031" unicode="&#x41d;" horiz-adv-x="729" 
d="M93 0v666h91v-278h361v278h91v-666h-91v312h-361v-312h-91z" />
    <glyph glyph-name="afii10032" unicode="&#x41e;" horiz-adv-x="763" 
d="M383 -12q-151 0 -241.5 100.5t-90.5 243.5q0 144 89.5 245t240.5 101t241 -100.5t90 -243.5t-89.5 -244.5t-239.5 -101.5zM381 63q111 0 173 77t62 192t-61.5 193t-171.5 78q-111 0 -174 -77.5t-63 -191.5q0 -115 62 -193t173 -78z" />
    <glyph glyph-name="afii10033" unicode="&#x41f;" horiz-adv-x="701" 
d="M93 0v666h514v-666h-90v590h-333v-590h-91z" />
    <glyph glyph-name="afii10034" unicode="&#x420;" horiz-adv-x="552" 
d="M93 0v666h177q107 0 173 -50.5t66 -145.5q0 -99 -66 -153t-184 -54h-75v-263h-91zM184 337h75q82 0 119.5 32.5t37.5 98.5q0 124 -154 124h-78v-255z" />
    <glyph glyph-name="afii10035" unicode="&#x421;" horiz-adv-x="616" 
d="M379 -12q-151 0 -239.5 102t-88.5 245q0 91 38 168.5t114.5 126t177.5 48.5q111 0 189 -51l-44 -67q-63 43 -147 43q-110 0 -171.5 -77t-61.5 -189q0 -115 61 -194t174 -79q95 0 161 56l40 -64q-29 -27 -83.5 -47.5t-119.5 -20.5z" />
    <glyph glyph-name="afii10036" unicode="&#x422;" horiz-adv-x="505" 
d="M207 0v590h-188v76h467v-76h-188v-590h-91z" />
    <glyph glyph-name="afii10037" unicode="&#x423;" horiz-adv-x="552" 
d="M108 -2q-30 0 -44 6l12 69q12 -3 32 -3q40 0 67 24.5t51 79.5l17 38l-201 454h87l158 -357l157 357h87l-231 -525q-34 -77 -78.5 -110t-113.5 -33z" />
    <glyph glyph-name="afii10038" unicode="&#x424;" horiz-adv-x="724" 
d="M318 0v73q-126 2 -205.5 77t-79.5 188t79 189.5t206 78.5v60h88v-60q126 -2 205.5 -77t79.5 -188q0 -114 -79 -190t-206 -78v-73h-88zM401 143q89 1 144.5 55.5t55.5 139.5q0 87 -55.5 141.5t-144.5 56.5v-393zM323 143v393q-89 -2 -144.5 -56t-55.5 -139
q0 -86 55.5 -141.5t144.5 -56.5z" />
    <glyph glyph-name="afii10039" unicode="&#x425;" horiz-adv-x="575" 
d="M24 0l211 344l-200 322h103l154 -248l145 248h94l-195 -321l215 -345h-103l-169 272l-161 -272h-94z" />
    <glyph glyph-name="afii10040" unicode="&#x426;" horiz-adv-x="714" 
d="M585 -144l-8 144h-484v666h91v-590h325v590h90v-590h69l-21 -220h-62z" />
    <glyph glyph-name="afii10041" unicode="&#x427;" horiz-adv-x="636" 
d="M453 0v286q-27 -37 -80.5 -69t-117.5 -32q-88 0 -139.5 52t-51.5 143v286h90v-269q0 -67 34.5 -101.5t89.5 -34.5t102.5 32.5t72.5 67.5v305h90v-666h-90z" />
    <glyph glyph-name="afii10042" unicode="&#x428;" horiz-adv-x="1012" 
d="M93 0v666h91v-590h270v590h90v-590h270v590h91v-666h-812z" />
    <glyph glyph-name="afii10043" unicode="&#x429;" horiz-adv-x="1020" 
d="M890 -144l-7 144h-790v666h91v-590h270v590h90v-590h270v590h91v-590h69l-22 -220h-62z" />
    <glyph glyph-name="afii10044" unicode="&#x42a;" horiz-adv-x="655" 
d="M179 0v590h-160v76h250v-263h107q106 0 172 -50t66 -145q0 -100 -66 -154t-184 -54h-185zM269 74h95q82 0 120 33t38 98q0 124 -155 124h-98v-255z" />
    <glyph glyph-name="afii10045" unicode="&#x42b;" horiz-adv-x="837" 
d="M652 0v666h91v-666h-91zM93 0v666h91v-263h106q106 0 172 -50t66 -145q0 -100 -66 -154t-184 -54h-185zM184 74h94q82 0 120 33t38 98q0 124 -154 124h-98v-255z" />
    <glyph glyph-name="afii10046" unicode="&#x42c;" horiz-adv-x="570" 
d="M93 0v666h91v-263h106q106 0 172 -50t66 -145q0 -100 -66 -154t-184 -54h-185zM184 74h94q82 0 120 33t38 98q0 124 -154 124h-98v-255z" />
    <glyph glyph-name="afii10047" unicode="&#x42d;" horiz-adv-x="616" 
d="M235 -12q-120 0 -202 59l44 67q66 -51 160 -51q100 0 162.5 67t67.5 164h-311v75h310q-4 98 -65.5 165.5t-166.5 67.5q-84 0 -148 -47l-41 64q80 59 192 59q153 0 240 -98.5t87 -245.5q0 -145 -89 -245.5t-240 -100.5z" />
    <glyph glyph-name="afii10048" unicode="&#x42e;" horiz-adv-x="1067" 
d="M687 -12q-145 0 -234.5 94t-96.5 230h-172v-312h-91v666h91v-278h176q17 125 103.5 207.5t221.5 82.5q151 0 241 -100.5t90 -243.5t-89 -244.5t-240 -101.5zM685 63q111 0 173.5 77.5t62.5 191.5q0 115 -61.5 193t-172.5 78t-173.5 -77.5t-62.5 -191.5q0 -115 61.5 -193
t172.5 -78z" />
    <glyph glyph-name="afii10049" unicode="&#x42f;" horiz-adv-x="593" 
d="M45 0l-2 75h10q9 0 18 2.5t18 10t15.5 14t17.5 21t17.5 24.5t20.5 30.5t23 33.5q55 82 82 99v2q-81 6 -131 50t-50 122q0 86 59.5 134t166.5 48h189v-666h-90v301h-27q-11 0 -21 -5.5t-18 -12t-20 -22t-19.5 -27t-23.5 -35.5l-26 -39q-65 -96 -97.5 -128t-76.5 -32h-35z
M313 372h96v220h-90q-143 0 -143 -107q0 -113 137 -113z" />
    <glyph glyph-name="afii10065" unicode="&#x430;" horiz-adv-x="478" 
d="M181 -12q-61 0 -100 36t-39 95q0 60 41 99t95.5 53t120.5 14h20v42q0 49 -22 71.5t-71 22.5q-65 0 -125 -51l-42 57q71 66 174 66q170 0 170 -163v-214q0 -66 12 -116h-84q-5 17 -8 57q-24 -31 -61.5 -50t-80.5 -19zM198 58q72 0 121 64v104h-20q-169 0 -169 -104
q0 -32 21 -48t47 -16z" />
    <glyph glyph-name="afii10066" unicode="&#x431;" 
d="M274 -12q-224 0 -224 354q0 144 54.5 232t186.5 119l157 36l14 -78l-155 -32q-167 -37 -173 -213q55 80 151 80q92 0 150 -66t58 -179q0 -111 -64.5 -182t-154.5 -71zM277 58q57 0 91.5 48t34.5 133q0 80 -33 128.5t-90 48.5q-52 0 -84 -23.5t-58 -66.5v-21
q0 -122 37.5 -184.5t101.5 -62.5z" />
    <glyph glyph-name="afii10067" unicode="&#x432;" horiz-adv-x="494" 
d="M81 0v481h177q172 0 172 -120q0 -84 -89 -108v-1q48 -8 79 -38.5t31 -79.5q0 -134 -195 -134h-175zM166 67h88q59 0 84.5 16t25.5 56q0 79 -105 79h-93v-151zM166 280h83q50 0 73 17.5t23 54.5q0 64 -94 64h-85v-136z" />
    <glyph glyph-name="afii10068" unicode="&#x433;" horiz-adv-x="397" 
d="M81 0v481h297v-67h-212v-414h-85z" />
    <glyph glyph-name="afii10069" unicode="&#x434;" horiz-adv-x="560" 
d="M31 -144l-12 211h38q47 30 59 168l22 246h318v-414h64l-21 -211h-59l-8 144h-327l-14 -144h-60zM143 67h229v347h-162l-15 -191q-9 -110 -52 -156z" />
    <glyph glyph-name="afii10070" unicode="&#x435;" horiz-adv-x="496" 
d="M271 -12q-112 0 -172.5 71.5t-60.5 184.5q0 108 62.5 178.5t158.5 70.5q99 0 150.5 -69.5t40.5 -187.5h-321q2 -79 37.5 -128.5t108.5 -49.5q59 0 131 41l33 -62q-75 -49 -168 -49zM132 301h235q-2 54 -28.5 88.5t-81.5 34.5q-53 0 -84.5 -33t-40.5 -90z" />
    <glyph glyph-name="afii10072" unicode="&#x436;" horiz-adv-x="730" 
d="M25 0l2 68h5q19 0 38.5 21t54.5 73q49 74 83 97l-187 222h97l166 -201h38v201h86v-201h38l166 201h97l-187 -222q31 -21 83 -97q35 -52 54.5 -73t38.5 -21h7l-2 -68h-27q-40 0 -67.5 25t-73.5 94q-34 50 -56.5 73.5t-42.5 24.5h-28v-217h-86v217h-28q-20 -1 -42.5 -24.5
t-56.5 -73.5q-46 -69 -73.5 -94t-67.5 -25h-29z" />
    <glyph glyph-name="afii10073" unicode="&#x437;" horiz-adv-x="428" 
d="M29 33l37 58q48 -35 122 -35q110 0 110 83q0 37 -39.5 59t-93.5 22h-26v57h26q49 0 81.5 20t32.5 55q0 34 -24.5 54t-69.5 20q-63 0 -113 -34l-32 57q62 44 148 44q76 0 126 -34t50 -98q0 -84 -89 -108v-1q48 -8 79 -38.5t31 -79.5q0 -71 -55 -108.5t-145 -37.5
q-92 0 -156 45z" />
    <glyph glyph-name="afii10074" unicode="&#x438;" horiz-adv-x="583" 
d="M81 0v481h78v-294v-21.5t-0.5 -20.5t-1 -16.5t-0.5 -12.5v-4h1q22 42 50 81l209 288h84v-481h-80v316l3 63h-1q0 -1 -5.5 -11t-16.5 -28t-22 -33l-223 -307h-75z" />
    <glyph glyph-name="afii10075" unicode="&#x439;" horiz-adv-x="583" 
d="M81 0v481h78v-294v-21.5t-0.5 -20.5t-1 -16.5t-0.5 -12.5v-4h1q22 42 50 81l209 288h84v-481h-80v316l3 63h-1q0 -1 -5.5 -11t-16.5 -28t-22 -33l-223 -307h-75zM287 535q-59 0 -101 36t-48 108h74q3 -37 22.5 -59t52.5 -22q32 0 51.5 22t22.5 59h74q-6 -72 -48 -108
t-100 -36z" />
    <glyph glyph-name="afii10076" unicode="&#x43a;" horiz-adv-x="489" 
d="M81 0v481h86v-201h38l166 201h98l-187 -222q33 -23 82 -97q34 -51 54.5 -72.5t38.5 -21.5h7l-2 -68h-27q-39 0 -66.5 25t-74.5 94q-34 50 -56.5 73.5t-42.5 24.5h-27l-1 -217h-86z" />
    <glyph glyph-name="afii10077" unicode="&#x43b;" horiz-adv-x="542" 
d="M37 -8l-14 65q39 2 60.5 45.5t29.5 132.5l21 246h326v-481h-84v414h-168l-16 -193q-18 -229 -155 -229z" />
    <glyph glyph-name="afii10078" unicode="&#x43c;" horiz-adv-x="672" 
d="M43 0l68 481h84l111 -312l29 -86h2q13 47 28 86l114 312h83l67 -481h-87l-37 278l-7 69h-2q-10 -34 -22 -68l-100 -279h-83l-103 279l-21 68h-2q-2 -37 -6 -70l-37 -277h-79z" />
    <glyph glyph-name="afii10079" unicode="&#x43d;" horiz-adv-x="574" 
d="M81 0v481h86v-195h240v195h86v-481h-86v217h-240v-217h-86z" />
    <glyph glyph-name="afii10080" unicode="&#x43e;" horiz-adv-x="532" 
d="M264 -12q-77 0 -130 40t-74.5 95t-21.5 117q0 45 12.5 88t37.5 81t70 61t104 23q58 0 104.5 -22.5t73 -60t40.5 -80.5t14 -88t-13.5 -88t-39.5 -81t-72 -61.5t-105 -23.5zM266 58q68 0 103 51t35 131q0 79 -37.5 131t-105.5 52t-100.5 -49.5t-32.5 -131.5
q0 -81 34.5 -132.5t103.5 -51.5z" />
    <glyph glyph-name="afii10081" unicode="&#x43f;" horiz-adv-x="558" 
d="M81 0v481h395v-481h-85v414h-224v-414h-86z" />
    <glyph glyph-name="afii10082" unicode="&#x440;" horiz-adv-x="538" 
d="M81 -219v700h85v-51q52 63 138 63q90 0 143 -66.5t53 -184.5q0 -113 -60 -183.5t-154 -70.5q-74 0 -120 41v-248h-85zM275 59q64 0 99 49.5t35 131.5t-31.5 131t-93.5 49q-69 0 -118 -64v-255q46 -42 109 -42z" />
    <glyph glyph-name="afii10083" unicode="&#x441;" horiz-adv-x="444" 
d="M263 -12q-105 0 -165 73t-60 180q0 119 65 185.5t163 66.5q88 0 147 -46l-36 -62q-53 38 -111 38q-68 0 -103 -49.5t-35 -130.5q0 -80 35.5 -132t104.5 -52q67 0 115 38l32 -62q-59 -47 -152 -47z" />
    <glyph glyph-name="afii10084" unicode="&#x442;" horiz-adv-x="423" 
d="M168 0v414h-149v67h385v-67h-150v-414h-86z" />
    <glyph glyph-name="afii10085" unicode="&#x443;" horiz-adv-x="473" 
d="M56 -232q-27 0 -52 5l12 70q21 -3 39 -3q48 0 74 25t45 79l22 60l-181 477h94l131 -370h3l126 370h89l-203 -543q-31 -83 -73.5 -126.5t-125.5 -43.5z" />
    <glyph glyph-name="afii10086" unicode="&#x444;" horiz-adv-x="745" 
d="M414 -219h-83v243q-41 -36 -103 -36q-86 0 -138 70.5t-52 181.5q0 112 52.5 183.5t137.5 71.5q65 0 103 -38v263h83v-263q38 38 103 38q86 0 138 -70t52 -182t-52 -183.5t-138 -71.5q-65 0 -103 36v-243zM128 243q0 -80 28.5 -132t83.5 -52q54 0 94 40v285q-40 40 -94 40
q-56 0 -84 -51t-28 -130zM617 240q0 80 -28 132t-83 52t-95 -40v-285q40 -40 95 -40t83 51t28 130z" />
    <glyph glyph-name="afii10087" unicode="&#x445;" horiz-adv-x="472" 
d="M21 0l166 251l-157 230h96q105 -156 111 -164l103 164h88l-150 -225l174 -256h-96l-129 191l-118 -191h-88z" />
    <glyph glyph-name="afii10088" unicode="&#x446;" horiz-adv-x="582" 
d="M462 -144l-8 144h-373v481h86v-414h225v414h86v-414h64l-21 -211h-59z" />
    <glyph glyph-name="afii10089" unicode="&#x447;" 
d="M365 0v217q-62 -83 -158 -83q-74 0 -109.5 42.5t-35.5 110.5v194h85v-177q0 -95 84 -95q32 0 64 20t46 35t24 29v188h85v-481h-85z" />
    <glyph glyph-name="afii10090" unicode="&#x448;" horiz-adv-x="809" 
d="M81 0v481h86v-414h195v414h85v-414h195v414h85v-481h-646z" />
    <glyph glyph-name="afii10091" unicode="&#x449;" horiz-adv-x="831" 
d="M712 -144l-8 144h-623v481h86v-414h195v414h85v-414h195v414h85v-414h64l-20 -211h-59z" />
    <glyph glyph-name="afii10092" unicode="&#x44a;" horiz-adv-x="536" 
d="M143 0v414h-124v67h210v-179h95q84 0 135.5 -37t51.5 -109q0 -77 -51.5 -116.5t-144.5 -39.5h-172zM229 66h86q110 0 110 87q0 84 -108 84h-88v-171z" />
    <glyph glyph-name="afii10093" unicode="&#x44b;" horiz-adv-x="717" 
d="M549 0v481h86v-481h-86zM81 0v481h86v-179h95q84 0 135.5 -37t51.5 -109q0 -77 -51.5 -116.5t-144.5 -39.5h-172zM167 66h86q110 0 110 87q0 84 -108 84h-88v-171z" />
    <glyph glyph-name="afii10094" unicode="&#x44c;" horiz-adv-x="474" 
d="M81 0v481h86v-179h95q84 0 135.5 -37t51.5 -109q0 -77 -51.5 -116.5t-144.5 -39.5h-172zM167 66h86q110 0 110 87q0 84 -108 84h-88v-171z" />
    <glyph glyph-name="afii10095" unicode="&#x44d;" horiz-adv-x="478" 
d="M184 -7q-94 0 -155 44l40 63q46 -36 116 -36t113.5 40.5t47.5 104.5h-257v65h256q-4 64 -47 105.5t-114 41.5q-62 0 -110 -34l-36 62q58 42 149 42q119 0 186 -71t67 -177q0 -107 -68.5 -178.5t-187.5 -71.5z" />
    <glyph glyph-name="afii10096" unicode="&#x44e;" horiz-adv-x="794" 
d="M526 -12q-106 0 -162 68t-63 161h-134v-217h-86v481h86v-195h137q12 87 66.5 147t153.5 60q58 0 104.5 -22.5t73 -60t40.5 -80.5t14 -88t-13.5 -88t-39.5 -81t-72 -61.5t-105 -23.5zM527 58q69 0 104 51t35 131q0 79 -37.5 131t-106.5 52q-68 0 -100 -50t-32 -131
t34.5 -132.5t102.5 -51.5z" />
    <glyph glyph-name="afii10097" unicode="&#x44f;" horiz-adv-x="499" 
d="M30 0v68h6q19 0 39.5 18.5t50.5 63.5q40 60 68 70v1q-53 3 -91 35t-38 90q0 66 47 100.5t133 34.5h172v-481h-85v208h-32q-21 0 -43.5 -23t-56.5 -74q-45 -65 -73 -88t-68 -23h-29zM247 270h85v145h-80q-51 0 -75 -17t-24 -55q0 -73 94 -73z" />
    <glyph glyph-name="afii10071" unicode="&#x451;" horiz-adv-x="496" 
d="M160 539q-24 0 -40.5 16.5t-16.5 40.5q0 23 16.5 40t40.5 17t41 -17t17 -40q0 -24 -17 -40.5t-41 -16.5zM351 539q-23 0 -40 16.5t-17 40.5q0 23 17 40t40 17q25 0 41.5 -16.5t16.5 -40.5t-16.5 -40.5t-41.5 -16.5zM271 -12q-112 0 -172.5 71.5t-60.5 184.5
q0 108 62.5 178.5t158.5 70.5q91 0 142 -59t51 -161q0 -11 -2 -37h-321q2 -79 37.5 -128.5t108.5 -49.5q59 0 131 41l33 -62q-75 -49 -168 -49zM132 301h235q-2 54 -28.5 88.5t-81.5 34.5q-53 0 -84.5 -33t-40.5 -90z" />
    <glyph glyph-name="afii10099" unicode="&#x452;" 
d="M306 -133l-33 57q53 33 85 115t32 199q0 81 -29.5 129.5t-93.5 48.5q-28 0 -56 -13.5t-45 -31.5v-371h-85v573h-43v67h43v80h85v-80h161v-67h-161v-133q50 50 119 50q89 0 140.5 -65.5t51.5 -184.5q0 -137 -48.5 -238.5t-122.5 -134.5z" />
    <glyph glyph-name="afii10100" unicode="&#x453;" horiz-adv-x="397" 
d="M191 540l90 128h122l-136 -128h-76zM81 0v481h297v-67h-212v-414h-85z" />
    <glyph glyph-name="afii10101" unicode="&#x454;" horiz-adv-x="476" 
d="M291 -8q-119 0 -186 71.5t-67 177.5q0 107 68.5 178t187.5 71q86 0 146 -38l-40 -63q-44 31 -108 31q-70 0 -113 -41t-47 -105h249v-64h-250q6 -65 49 -106t114 -41q66 0 118 39l35 -62q-57 -48 -156 -48z" />
    <glyph glyph-name="afii10102" unicode="&#x455;" horiz-adv-x="410" 
d="M194 -13q-90 0 -156 46l35 63q54 -39 119 -39q44 0 69 17t25 47q0 15 -6 26.5t-23.5 23t-32 18.5t-47.5 22q-64 28 -96 60t-32 87q0 59 43 97t115 38q86 0 145 -44l-38 -61q-46 35 -106 35q-38 0 -58 -16t-20 -45t22 -45.5t72 -36.5q35 -15 56.5 -26.5t44.5 -29t34 -40.5
t11 -52q0 -67 -47.5 -106t-128.5 -39z" />
    <glyph glyph-name="afii10103" unicode="&#x456;" horiz-adv-x="256" 
d="M128 566q-25 0 -42 17.5t-17 41.5q0 25 17 42t42 17t42 -17t17 -42q0 -24 -17 -41.5t-42 -17.5zM85 0v481h86v-481h-86z" />
    <glyph glyph-name="afii10104" unicode="&#x457;" horiz-adv-x="256" 
d="M32 539q-24 0 -40.5 16.5t-16.5 40.5q0 23 16.5 40t40.5 17t41 -17t17 -40q0 -24 -17 -40.5t-41 -16.5zM223 539q-23 0 -40 16.5t-17 40.5q0 23 17 40t40 17q25 0 41.5 -16.5t16.5 -40.5t-16.5 -40.5t-41.5 -16.5zM85 0v481h86v-481h-86z" />
    <glyph glyph-name="afii10105" unicode="&#x458;" horiz-adv-x="246" 
d="M23 -231q-35 0 -59 8l15 70q15 -6 34 -6q37 0 52.5 28t15.5 86v526h85v-539q0 -173 -143 -173zM123 566q-25 0 -42.5 17.5t-17.5 41.5q0 25 17.5 42t42.5 17t42 -17t17 -42q0 -24 -17 -41.5t-42 -17.5z" />
    <glyph glyph-name="afii10106" unicode="&#x459;" horiz-adv-x="770" 
d="M37 -8l-14 65q39 2 60.5 45.5t29.5 132.5l21 246h328v-179h96q84 0 135 -37t51 -109q0 -77 -51.5 -116.5t-144.5 -39.5h-171v414h-172l-15 -193q-10 -115 -47 -172t-106 -57zM462 66h86q110 0 110 87q0 84 -107 84h-89v-171z" />
    <glyph glyph-name="afii10107" unicode="&#x45a;" horiz-adv-x="813" 
d="M81 0v481h86v-180h253v180h86v-180h95q85 0 136 -37t51 -109q0 -77 -51.5 -116t-144.5 -39h-172v234h-253v-234h-86zM506 66h86q57 0 83.5 21t26.5 65q0 42 -25.5 62.5t-81.5 20.5h-89v-169z" />
    <glyph glyph-name="afii10108" unicode="&#x45b;" horiz-adv-x="534" 
d="M77 0v573h-43v67h43v80h85v-80h161v-67h-161v-160q61 79 155 79q72 0 107 -42t35 -110v-340h-85v323q0 94 -81 94q-31 0 -62.5 -19.5t-45 -34.5t-23.5 -29v-334h-85z" />
    <glyph glyph-name="afii10109" unicode="&#x45c;" horiz-adv-x="489" 
d="M186 540l90 128h122l-136 -128h-76zM81 0v481h86v-201h38l166 201h98l-187 -222q33 -23 82 -97q34 -51 54.5 -72.5t38.5 -21.5h7l-2 -68h-27q-39 0 -66.5 25t-74.5 94q-34 50 -56.5 73.5t-42.5 24.5h-27l-1 -217h-86z" />
    <glyph glyph-name="afii10110" unicode="&#x45e;" horiz-adv-x="473" 
d="M56 -232q-27 0 -52 5l12 70q21 -3 39 -3q48 0 74 25t45 79l22 60l-181 477h94l131 -370h3l126 370h89l-203 -543q-31 -83 -73.5 -126.5t-125.5 -43.5zM243 535q-59 0 -101 36t-48 108h74q3 -37 22.5 -59t52.5 -22q32 0 51.5 22t22.5 59h74q-6 -72 -48 -108t-100 -36z" />
    <glyph glyph-name="afii10193" unicode="&#x45f;" horiz-adv-x="565" 
d="M253 -144l-8 144h-164v481h86v-414h230v414h86v-481h-164l-7 -144h-59z" />
    <glyph glyph-name="afii10050" unicode="&#x490;" horiz-adv-x="470" 
d="M93 0v666h277l13 145h62l7 -220h-268v-591h-91z" />
    <glyph glyph-name="afii10098" unicode="&#x491;" horiz-adv-x="397" 
d="M81 0v481h218l11 145h59l13 -212h-216v-414h-85z" />
    <glyph glyph-name="Wgrave" unicode="&#x1e80;" horiz-adv-x="883" 
d="M202 0l-182 666h98l107 -426q5 -22 11 -50t9.5 -47t3.5 -20h2q0 1 2 9t4.5 20t6 26.5t8 31.5t8.5 31l121 425h91l119 -422q4 -15 8.5 -32t7.5 -31.5t6 -26.5t4.5 -20t1.5 -9h2l3 19q3 19 8.5 47t11.5 52l109 423h89l-183 -666h-83l-122 434q-4 15 -8.5 33t-8 33.5t-6 29
t-4.5 22t-2 9.5h-2q-30 -121 -32 -127l-127 -434h-82zM408 719l-136 128h121l90 -128h-75z" />
    <glyph glyph-name="wgrave" unicode="&#x1e81;" horiz-adv-x="707" 
d="M158 0l-142 481h92l97 -352h2l107 352h81l107 -353h2l98 353h85l-143 -481h-76l-115 364h-2l-117 -364h-76zM319 540l-136 128h121l90 -128h-75z" />
    <glyph glyph-name="Wacute" unicode="&#x1e82;" horiz-adv-x="883" 
d="M400 719l90 128h122l-136 -128h-76zM202 0l-182 666h98l107 -426q5 -22 11 -50t9.5 -47t3.5 -20h2q0 1 2 9t4.5 20t6 26.5t8 31.5t8.5 31l121 425h91l119 -422q4 -15 8.5 -32t7.5 -31.5t6 -26.5t4.5 -20t1.5 -9h2l3 19q3 19 8.5 47t11.5 52l109 423h89l-183 -666h-83
l-122 434q-4 15 -8.5 33t-8 33.5t-6 29t-4.5 22t-2 9.5h-2q-30 -121 -32 -127l-127 -434h-82z" />
    <glyph glyph-name="wacute" unicode="&#x1e83;" horiz-adv-x="707" 
d="M311 540l90 128h122l-136 -128h-76zM158 0l-142 481h92l97 -352h2l107 352h81l107 -353h2l98 353h85l-143 -481h-76l-115 364h-2l-117 -364h-76z" />
    <glyph glyph-name="Wdieresis" unicode="&#x1e84;" horiz-adv-x="883" 
d="M344 718q-24 0 -40.5 16.5t-16.5 40.5q0 23 16.5 40t40.5 17t41 -17t17 -40q0 -24 -17 -40.5t-41 -16.5zM535 718q-23 0 -40 16.5t-17 40.5q0 23 17 40t40 17q25 0 41.5 -17t16.5 -40q0 -24 -16.5 -40.5t-41.5 -16.5zM202 0l-182 666h98l107 -426q5 -22 11 -50t9.5 -47
t3.5 -20h2q0 1 2 9t4.5 20t6 26.5t8 31.5t8.5 31l121 425h91l119 -422q4 -15 8.5 -32t7.5 -31.5t6 -26.5t4.5 -20t1.5 -9h2l3 19q3 19 8.5 47t11.5 52l109 423h89l-183 -666h-83l-122 434q-4 15 -8.5 33t-8 33.5t-6 29t-4.5 22t-2 9.5h-2q-30 -121 -32 -127l-127 -434h-82z
" />
    <glyph glyph-name="wdieresis" unicode="&#x1e85;" horiz-adv-x="707" 
d="M255 539q-24 0 -40.5 16.5t-16.5 40.5q0 23 16.5 40t40.5 17t41 -17t17 -40q0 -24 -17 -40.5t-41 -16.5zM446 539q-23 0 -40 16.5t-17 40.5q0 23 17 40t40 17q24 0 41 -16.5t17 -40.5t-16.5 -40.5t-41.5 -16.5zM158 0l-142 481h92l97 -352h2l107 352h81l107 -353h2
l98 353h85l-143 -481h-76l-115 364h-2l-117 -364h-76z" />
    <glyph glyph-name="Ygrave" unicode="&#x1ef2;" horiz-adv-x="563" 
d="M239 0v252l-222 414h100l171 -329h1l171 329h87l-217 -414v-252h-91zM250 719l-136 128h121l90 -128h-75z" />
    <glyph glyph-name="ygrave" unicode="&#x1ef3;" horiz-adv-x="478" 
d="M61 -232q-27 0 -52 5l12 70q21 -3 39 -3q48 0 74 25t45 79l22 60l-181 477h94l131 -370h3l126 370h89l-203 -543q-31 -83 -73.5 -126.5t-125.5 -43.5zM211 540l-136 128h121l90 -128h-75z" />
    <glyph glyph-name="endash" unicode="&#x2013;" horiz-adv-x="530" 
d="M53 239v69h424v-69h-424z" />
    <glyph glyph-name="emdash" unicode="&#x2014;" horiz-adv-x="839" 
d="M53 239v69h734v-69h-734z" />
    <glyph glyph-name="afii00208" unicode="&#x2015;" horiz-adv-x="839" 
d="M53 239v69h734v-69h-734z" />
    <glyph glyph-name="quoteleft" unicode="&#x2018;" horiz-adv-x="207" 
d="M111 428q-29 0 -50 20.5t-21 55.5q0 44 21.5 89t43.5 73h60q-37 -49 -37 -93q0 -20 20.5 -44.5t20.5 -47.5t-16.5 -38t-41.5 -15z" />
    <glyph glyph-name="quoteright" unicode="&#x2019;" horiz-adv-x="207" 
d="M43 440q37 50 37 93q0 19 -21 43.5t-21 48.5q0 23 17 38t42 15q29 0 49.5 -20.5t20.5 -55.5q0 -44 -21 -89t-44 -73h-59z" />
    <glyph glyph-name="quotesinglbase" unicode="&#x201a;" horiz-adv-x="213" 
d="M46 -120q37 53 37 93q0 19 -21 44t-21 48t17 38t42 15q28 0 49 -21t21 -55q0 -44 -21.5 -89t-43.5 -73h-59z" />
    <glyph glyph-name="quotedblleft" unicode="&#x201c;" horiz-adv-x="378" 
d="M102 428q-29 0 -50 20.5t-21 55.5q0 44 21.5 89t43.5 73h60q-37 -49 -37 -93q0 -20 20.5 -44.5t20.5 -47.5t-16.5 -38t-41.5 -15zM281 428q-29 0 -49.5 20.5t-20.5 55.5q0 44 21.5 90t43.5 72h59q-37 -53 -37 -93q0 -20 21 -44.5t21 -47.5t-16.5 -38t-42.5 -15z" />
    <glyph glyph-name="quotedblright" unicode="&#x201d;" horiz-adv-x="378" 
d="M43 440q37 50 37 93q0 19 -21 43.5t-21 48.5q0 23 17 38t42 15q29 0 49.5 -20.5t20.5 -55.5q0 -44 -21 -89t-44 -73h-59zM222 440q37 47 37 93q0 19 -20.5 43.5t-20.5 48.5q0 23 16.5 38t41.5 15q29 0 50 -20.5t21 -55.5q0 -44 -21 -89t-44 -73h-60z" />
    <glyph glyph-name="quotedblbase" unicode="&#x201e;" horiz-adv-x="387" 
d="M43 -120q37 53 37 93q0 19 -21 44t-21 48t17 38t42 15q29 0 49.5 -20.5t20.5 -55.5q0 -44 -21.5 -89t-43.5 -73h-59zM222 -120q37 49 37 93q0 19 -20.5 44t-20.5 48t16.5 38t41.5 15q29 0 50 -20.5t21 -55.5q0 -44 -21.5 -89t-43.5 -73h-60z" />
    <glyph glyph-name="dagger" unicode="&#x2020;" horiz-adv-x="546" 
d="M245 -170l-22 442l17 139l-80 -9h-110v79h110l80 -8l-14 110v137h94v-137l-14 -110l80 8h110v-79h-110l-80 9l16 -139l-21 -442h-56z" />
    <glyph glyph-name="daggerdbl" unicode="&#x2021;" horiz-adv-x="548" 
d="M226 -168v133l14 110l-80 -8h-110v79h110l80 -8l-17 136l17 137l-80 -9h-110v79h110l80 -8l-14 110v137h94v-137l-14 -110l80 8h110v-79h-110l-80 9l16 -137l-16 -136l80 8h110v-79h-110l-80 8l14 -110v-133h-94z" />
    <glyph glyph-name="bullet" unicode="&#x2022;" horiz-adv-x="377" 
d="M188 152q-56 0 -95.5 39.5t-39.5 94.5q0 56 39.5 95.5t95.5 39.5t96 -39.5t40 -95.5q0 -55 -40 -94.5t-96 -39.5z" />
    <glyph glyph-name="ellipsis" unicode="&#x2026;" horiz-adv-x="648" 
d="M116 -9q-28 0 -46.5 19t-18.5 46t18.5 45.5t46.5 18.5q27 0 46.5 -18.5t19.5 -45.5t-19.5 -46t-46.5 -19zM324 -9q-27 0 -46 19t-19 46t19 45.5t46 18.5q28 0 46.5 -18.5t18.5 -45.5t-18.5 -46t-46.5 -19zM532 -9q-27 0 -46.5 19t-19.5 46t19.5 45.5t46.5 18.5t46 -18.5
t19 -45.5t-19 -46t-46 -19z" />
    <glyph glyph-name="perthousand" unicode="&#x2030;" horiz-adv-x="1109" 
d="M179 208q-72 0 -109.5 42.5t-37.5 99.5q0 56 38.5 99.5t110.5 43.5q71 0 108.5 -42t37.5 -99q0 -56 -38.5 -100t-109.5 -44zM181 262q38 0 56 24.5t18 63.5t-19.5 64t-56.5 25q-38 0 -57 -24t-19 -63q0 -38 20 -64t58 -26zM590 -12q-71 0 -108.5 43t-37.5 99t38.5 99.5
t109.5 43.5q72 0 109 -42t37 -99t-38 -100.5t-110 -43.5zM592 42q38 0 56.5 24.5t18.5 63.5t-19.5 64t-57.5 25q-37 0 -56 -24t-19 -63q0 -38 20 -64t57 -26zM929 -12q-71 0 -108.5 43t-37.5 99t38.5 99.5t109.5 43.5q72 0 109 -42t37 -99t-38 -100.5t-110 -43.5zM931 42
q38 0 56.5 24.5t18.5 63.5t-19.5 64t-57.5 25q-37 0 -56 -24t-19 -63q0 -38 20 -64t57 -26zM207 0l289 482h72l-288 -482h-73z" />
    <glyph glyph-name="guilsinglleft" unicode="&#x2039;" horiz-adv-x="302" 
d="M173 55l-131 190l131 191h89l-129 -191l129 -190h-89z" />
    <glyph glyph-name="guilsinglright" unicode="&#x203a;" horiz-adv-x="302" 
d="M40 55l130 190l-130 191h89l131 -191l-131 -190h-89z" />
    <glyph glyph-name="fraction" unicode="&#x2044;" horiz-adv-x="106" 
d="M-190 0l415 666h70l-415 -666h-70z" />
    <glyph glyph-name="uni2070" unicode="&#x2070;" horiz-adv-x="409" 
d="M204 330q-79 0 -121 50.5t-42 120.5q0 72 41.5 121.5t121.5 49.5q79 0 121.5 -50t42.5 -121q0 -70 -42.5 -120.5t-121.5 -50.5zM204 385q39 0 61.5 30.5t22.5 85.5t-22.5 85.5t-61.5 30.5q-37 0 -60.5 -31t-23.5 -85t23.5 -85t60.5 -31z" />
    <glyph glyph-name="uni2074" unicode="&#x2074;" horiz-adv-x="327" 
d="M189 336v67h-174v46l177 217h66v-208h54v-55h-54v-67h-69zM90 455q14 3 45 3h55v121h-1z" />
    <glyph glyph-name="uni2075" unicode="&#x2075;" horiz-adv-x="302" 
d="M91 330q-34 0 -57 7l11 56q24 -8 47 -8q42 0 70.5 14t28.5 43q0 55 -101 55q-18 0 -39 -3l11 172h192v-55h-129l-5 -63q66 -2 105 -27.5t39 -74.5q0 -56 -46.5 -86t-126.5 -30z" />
    <glyph glyph-name="uni2076" unicode="&#x2076;" horiz-adv-x="342" 
d="M178 330q-70 0 -103 41t-33 105q0 89 61 142.5t170 53.5l16 -54q-150 -4 -173 -98q31 21 78 21q51 0 82.5 -27.5t31.5 -74.5q0 -50 -36 -79.5t-94 -29.5zM179 383q26 0 41.5 14.5t15.5 37.5q0 26 -16.5 40.5t-43.5 14.5q-41 0 -63 -20v-5q0 -40 18 -61t48 -21z" />
    <glyph glyph-name="uni2077" unicode="&#x2077;" horiz-adv-x="300" 
d="M119 323l-61 24l122 261h-162v58h242v-38z" />
    <glyph glyph-name="uni2078" unicode="&#x2078;" horiz-adv-x="335" 
d="M167 330q-61 0 -96 24t-35 64q0 51 73 87q-63 33 -63 80q0 38 36 62.5t87 24.5q54 0 87.5 -22t33.5 -61q0 -43 -68 -78q77 -33 77 -90q0 -42 -37 -66.5t-95 -24.5zM166 380q28 0 44 11t16 29q0 12 -11 23.5t-22.5 18t-32.5 16.5q-16 -9 -25 -15t-19 -18.5t-10 -24.5
q0 -18 16.5 -29t43.5 -11zM170 537q51 29 51 50q0 16 -14 25.5t-37 9.5t-38 -10t-15 -25q0 -10 9.5 -20.5t18 -15.5t25.5 -14z" />
    <glyph glyph-name="uni2079" unicode="&#x2079;" horiz-adv-x="345" 
d="M73 327l-15 54q64 1 110 25.5t59 75.5q-33 -20 -79 -20q-51 0 -83.5 27.5t-32.5 73.5q0 49 37.5 79t94.5 30q71 0 104.5 -41t33.5 -105q0 -91 -59.5 -145t-169.5 -54zM166 512q41 0 64 20v5q0 39 -18.5 61t-47.5 22q-26 0 -41.5 -15.5t-15.5 -37.5q0 -26 16.5 -40.5
t42.5 -14.5z" />
    <glyph glyph-name="uni207A" unicode="&#x207a;" horiz-adv-x="342" 
d="M142 386v88h-104v54h104v86h59v-86h103v-54h-103v-88h-59z" />
    <glyph glyph-name="uni207B" unicode="&#x207b;" horiz-adv-x="319" 
d="M56 474v54h207v-54h-207z" />
    <glyph glyph-name="uni207D" unicode="&#x207d;" horiz-adv-x="218" 
d="M149 282q-101 87 -101 219q0 69 29.5 124.5t71.5 89.5h67q-38 -33 -65.5 -87.5t-27.5 -124.5q0 -135 93 -221h-67z" />
    <glyph glyph-name="uni207E" unicode="&#x207e;" horiz-adv-x="218" 
d="M2 282q94 84 94 216q0 133 -94 217h68q100 -82 100 -216q0 -72 -29 -127.5t-71 -89.5h-68z" />
    <glyph glyph-name="uni2080" unicode="&#x2080;" horiz-adv-x="409" 
d="M204 -206q-79 0 -121 50.5t-42 121.5t41.5 120.5t121.5 49.5q79 0 121.5 -50t42.5 -120q0 -71 -42.5 -121.5t-121.5 -50.5zM204 -151q39 0 61.5 31t22.5 86q0 54 -22.5 84.5t-61.5 30.5q-37 0 -60.5 -31t-23.5 -84q0 -54 23 -85.5t61 -31.5z" />
    <glyph glyph-name="uni2081" unicode="&#x2081;" horiz-adv-x="262" 
d="M105 -200v270l-72 -20l-16 55l106 25h52v-330h-70z" />
    <glyph glyph-name="uni2082" unicode="&#x2082;" horiz-adv-x="337" 
d="M32 -200v38q31 25 38.5 31.5t35 29.5t37.5 35t26 31.5t22 35.5t6 32q0 47 -53 47q-42 0 -78 -32l-37 44q51 44 126 44q59 0 88 -25.5t29 -69.5q0 -47 -36 -91.5t-99 -94.5h3q3 0 7.5 0.5t9.5 0.5h11h11h111v-56h-258z" />
    <glyph glyph-name="uni2083" unicode="&#x2083;" horiz-adv-x="309" 
d="M97 -206q-47 0 -72 10l14 55q22 -10 55 -10q42 0 66.5 13t24.5 37q0 49 -108 51v46q43 1 70 14.5t27 36.5q0 34 -52 34q-38 0 -69 -26l-29 44q17 14 49 25.5t65 11.5q54 0 81.5 -20t27.5 -55q0 -60 -70 -78v-1q35 -3 58.5 -24.5t23.5 -57.5q0 -51 -42.5 -78.5
t-119.5 -27.5z" />
    <glyph glyph-name="uni2084" unicode="&#x2084;" horiz-adv-x="327" 
d="M189 -200v68h-174v46l177 216h66v-208h54v-54h-54v-68h-69zM90 -80q18 2 45 2h55v121h-1z" />
    <glyph glyph-name="uni2085" unicode="&#x2085;" horiz-adv-x="302" 
d="M91 -206q-36 0 -57 8l11 55q21 -7 47 -7q42 0 70.5 13.5t28.5 42.5q0 55 -101 55q-18 0 -39 -3l11 172h192v-55h-129l-5 -63q66 -2 105 -27t39 -75q0 -56 -46.5 -86t-126.5 -30z" />
    <glyph glyph-name="uni2086" unicode="&#x2086;" horiz-adv-x="342" 
d="M178 -206q-70 0 -103 41t-33 105q0 89 61 142.5t170 53.5l16 -54q-150 -4 -173 -98q31 21 78 21q51 0 82.5 -27.5t31.5 -74.5q0 -50 -36 -79.5t-94 -29.5zM179 -153q26 0 41.5 14.5t15.5 37.5q0 26 -16.5 40.5t-43.5 14.5q-41 0 -63 -20v-4q0 -41 18 -62t48 -21z" />
    <glyph glyph-name="uni2087" unicode="&#x2087;" horiz-adv-x="300" 
d="M119 -213l-61 24l122 261h-162v58h242v-37z" />
    <glyph glyph-name="uni2088" unicode="&#x2088;" horiz-adv-x="335" 
d="M167 -206q-61 0 -96 24.5t-35 64.5q0 50 73 86q-63 33 -63 80q0 38 36 62.5t87 24.5q54 0 87.5 -22t33.5 -61q0 -44 -68 -77q77 -35 77 -91q0 -42 -37 -66.5t-95 -24.5zM166 -155q28 0 44 10.5t16 28.5q0 12 -11 23.5t-22.5 18t-32.5 16.5q-16 -9 -25 -15t-19 -18.5
t-10 -24.5q0 -18 16.5 -28.5t43.5 -10.5zM170 1q51 29 51 50q0 16 -14 25.5t-37 9.5t-38 -10t-15 -25q0 -10 9.5 -20.5t18 -15.5t25.5 -14z" />
    <glyph glyph-name="uni2089" unicode="&#x2089;" horiz-adv-x="345" 
d="M73 -209l-15 54q64 1 110 25.5t59 75.5q-33 -20 -79 -20q-51 0 -83.5 27.5t-32.5 73.5q0 49 37.5 79t94.5 30q71 0 104.5 -41t33.5 -105q0 -91 -59.5 -145t-169.5 -54zM166 -24q41 0 64 20v5q0 39 -18.5 61t-47.5 22q-26 0 -41.5 -15.5t-15.5 -37.5q0 -26 16.5 -40.5
t42.5 -14.5z" />
    <glyph glyph-name="Euro" unicode="&#x20ac;" horiz-adv-x="584" 
d="M38 364v65h74q22 118 96.5 183.5t180.5 65.5q96 0 160 -41l-38 -69q-61 35 -123 35q-68 0 -116 -45t-66 -129h175v-65h-184v-27q0 -34 2 -50h182v-65h-171q21 -79 69.5 -118.5t112.5 -39.5q68 0 125 39l40 -64q-75 -51 -168 -51q-99 0 -173.5 60t-99.5 174h-78v65h68
q-2 15 -2 48q0 19 1 29h-67z" />
    <glyph glyph-name="afii61352" unicode="&#x2116;" horiz-adv-x="1101" 
d="M93 0v666h90l300 -430q15 -23 63 -101h2q-4 48 -4 93v438h83v-666h-83l-315 454q-14 20 -35 54l-20 35h-2q4 -48 4 -76v-467h-83zM886 353q-79 0 -122 48.5t-43 110.5q0 61 44 110t123 49t121.5 -47t42.5 -110q0 -62 -43.5 -111.5t-122.5 -49.5zM888 414q42 0 64 27.5
t22 70.5q0 42 -23.5 70.5t-64.5 28.5q-42 0 -64.5 -27.5t-22.5 -69.5q0 -43 23.5 -71.5t65.5 -28.5z" />
    <glyph glyph-name="uni2117" unicode="&#x2117;" horiz-adv-x="859" 
d="M429 -14q-154 0 -263 109.5t-109 263.5t109 263.5t263 109.5q155 0 264 -109t109 -264t-109 -264t-264 -109zM429 43q135 0 223.5 89t88.5 227t-88.5 227t-223.5 89q-134 0 -222.5 -89.5t-88.5 -226.5q0 -138 88.5 -227t222.5 -89zM305 139v445h148q67 0 104.5 -40
t37.5 -95q0 -57 -41.5 -95.5t-126.5 -38.5h-51v-176h-71zM376 369h47q97 0 97 78t-81 78h-63v-156z" />
    <glyph glyph-name="trademark" unicode="&#x2122;" horiz-adv-x="719" 
d="M302 374l33 292h64l65 -166q18 -47 18 -57h2l2 7q3 8 7.5 22.5t9.5 28.5l64 165h66l33 -292h-59l-15 158q-4 35 -4 61h-2q0 -17 -20 -68l-60 -151h-51l-56 144q-5 14 -10.5 33t-8.5 31l-4 11h-2q0 -15 -4 -63l-14 -156h-54zM125 374v242h-84v50h228v-50h-84v-242h-60z
" />
    <glyph glyph-name="uni2126" unicode="&#x2126;" horiz-adv-x="719" 
d="M52 0v70h138q-64 43 -103.5 121.5t-39.5 165.5q0 145 94.5 233t217.5 88t217 -88t94 -233q0 -86 -39.5 -165t-102.5 -122h139v-70h-230v72q144 99 144 284q0 100 -63.5 173.5t-158.5 73.5q-96 0 -159.5 -73t-63.5 -174q0 -184 145 -284v-72h-229z" />
    <glyph glyph-name="partialdiff" unicode="&#x2202;" horiz-adv-x="560" 
d="M249 -12q-87 0 -147.5 58t-60.5 142q0 99 62.5 166.5t159.5 67.5q49 0 102 -14.5t79 -33.5q-18 258 -291 258l24 73h9q170 0 260.5 -96.5t90.5 -256.5q0 -159 -82.5 -261.5t-205.5 -102.5zM254 62q75 0 128 71.5t62 169.5q-26 19 -78 33.5t-98 14.5q-62 0 -99 -44.5
t-37 -114.5q0 -57 35.5 -93.5t86.5 -36.5z" />
    <glyph glyph-name="uni2206" unicode="&#x2206;" horiz-adv-x="748" 
d="M37 0l288 700h76l287 -700h-651zM154 78h417l-208 510z" />
    <glyph glyph-name="product" unicode="&#x220f;" horiz-adv-x="859" 
d="M175 -224v852h-109v72h709v-72h-109v-852h-86v852h-319v-852h-86z" />
    <glyph glyph-name="summation" unicode="&#x2211;" horiz-adv-x="619" 
d="M53 -147v62l277 425l-261 375v62h492v-75h-395l253 -359l-269 -414h426v-76h-523z" />
    <glyph glyph-name="minus" unicode="&#x2212;" horiz-adv-x="550" 
d="M86 241v71h369v-71h-369z" />
    <glyph glyph-name="uni2219" unicode="&#x2219;" horiz-adv-x="227" 
d="M114 225q-28 0 -47.5 19t-19.5 47t19.5 46.5t47.5 18.5t47 -18.5t19 -46.5t-19 -47t-47 -19z" />
    <glyph glyph-name="radical" unicode="&#x221a;" horiz-adv-x="573" 
d="M232 0l-187 481h88l138 -373h2l192 612h87l-240 -720h-80z" />
    <glyph glyph-name="infinity" unicode="&#x221e;" horiz-adv-x="892" 
d="M214 103q-78 0 -127.5 44.5t-49.5 108.5q0 67 53 114.5t128 47.5q49 0 101 -26t128 -85q142 111 227 111q77 0 126.5 -44.5t49.5 -109.5q0 -67 -52.5 -114t-129.5 -47q-87 0 -226 110q-81 -63 -130 -86.5t-98 -23.5zM220 173q53 0 165 85q-114 89 -169 89
q-41 0 -71 -25.5t-30 -60.5q0 -38 30.5 -63t74.5 -25zM673 173q40 0 70 26t30 60q0 39 -30.5 63.5t-74.5 24.5q-53 0 -165 -86q116 -88 170 -88z" />
    <glyph glyph-name="uni2224" unicode="&#x2224;" horiz-adv-x="227" 
d="M114 225q-28 0 -47.5 19t-19.5 47t19.5 46.5t47.5 18.5t47 -18.5t19 -46.5t-19 -47t-47 -19z" />
    <glyph glyph-name="logicaland" unicode="&#x2227;" horiz-adv-x="227" 
d="M114 225q-28 0 -47.5 19t-19.5 47t19.5 46.5t47.5 18.5t47 -18.5t19 -46.5t-19 -47t-47 -19z" />
    <glyph glyph-name="integral" unicode="&#x222b;" horiz-adv-x="343" 
d="M29 -235q-39 0 -85 22l27 71q36 -15 68 -15q98 0 98 139v575q0 84 50 139.5t141 55.5q42 0 84 -23l-31 -70q-28 15 -63 15q-50 0 -74 -39t-24 -99v-576q0 -85 -49 -140t-142 -55z" />
    <glyph glyph-name="approxequal" unicode="&#x2248;" horiz-adv-x="606" 
d="M103 129l-34 59q61 59 136 59q48 0 105 -29t93 -29q55 0 104 44l32 -60q-55 -58 -142 -58q-47 0 -105.5 29t-92.5 29q-52 0 -96 -44zM101 293l-34 58q58 60 136 60q48 0 105 -29t93 -29q55 0 104 44l32 -60q-56 -59 -142 -59q-47 0 -105.5 29t-92.5 29q-50 0 -96 -43z
" />
    <glyph glyph-name="notequal" unicode="&#x2260;" horiz-adv-x="630" 
d="M196 -17l-57 31l74 124h-153v65h193l60 99h-253v65h293l81 132l58 -33l-63 -99h140v-65h-180l-60 -99h240v-65h-280z" />
    <glyph glyph-name="lessequal" unicode="&#x2264;" horiz-adv-x="574" 
d="M507 16l-437 204v60l437 204v-78l-348 -156l348 -157v-77zM70 -122v72h437v-72h-437z" />
    <glyph glyph-name="greaterequal" unicode="&#x2265;" horiz-adv-x="580" 
d="M70 16v77l348 157l-348 156v78l437 -204v-60zM70 -122v72h437v-72h-437z" />
    <glyph glyph-name="dotmath" unicode="&#x22c5;" horiz-adv-x="227" 
d="M114 225q-28 0 -47.5 19t-19.5 47t19.5 46.5t47.5 18.5t47 -18.5t19 -46.5t-19 -47t-47 -19z" />
    <glyph glyph-name="lozenge" unicode="&#x25ca;" horiz-adv-x="634" 
d="M293 -4l-256 327l252 350h54l256 -330l-250 -347h-56zM323 83l178 255l-187 242l-179 -254z" />
    <glyph glyph-name="numbersign.case" horiz-adv-x="566" 
d="M113 0l32 212h-125l10 64h124l20 129h-125l10 64h124l31 197h63l-30 -197h116l30 197h63l-29 -197h118l-10 -64h-118l-20 -129h120l-11 -64h-119l-32 -212h-63l32 212h-116l-32 -212h-63zM217 276h117l20 129h-117z" />
    <glyph glyph-name="dollar.case" horiz-adv-x="502" 
d="M289 -118h-68v106q-114 5 -180 68l44 64q55 -55 142 -58v245q-3 1 -7.5 3.5t-5.5 3.5q-75 36 -114 77.5t-39 113.5q0 69 45 114t115 56v109h68v-107q88 -6 149 -53l-42 -65q-49 37 -113 44v-223q40 -20 64 -34t52.5 -39t42.5 -59t14 -77q0 -69 -45 -116.5t-122 -61.5
v-111zM367 169q0 37 -21.5 62.5t-62.5 47.5v-211q39 11 61.5 38.5t22.5 62.5zM148 509q0 -37 20 -60t59 -43v194q-36 -8 -57.5 -32t-21.5 -59z" />
    <glyph glyph-name="percent.case" horiz-adv-x="834" 
d="M205 340q-86 0 -130.5 50.5t-44.5 117.5q0 65 45 116.5t129 51.5q85 0 130 -50.5t45 -116.5q0 -67 -44.5 -118t-129.5 -51zM206 400q46 0 73 30.5t27 77.5t-27.5 78t-73.5 31t-73.5 -30.5t-27.5 -77.5t27.5 -78t74.5 -31zM630 -8q-86 0 -130.5 51t-44.5 118
q0 66 44.5 117t129.5 51t130 -50.5t45 -116.5q0 -68 -44.5 -119t-129.5 -51zM631 52q45 0 72 31t27 78t-27 77.5t-73 30.5t-73.5 -30t-27.5 -77q0 -48 27.5 -79t74.5 -31zM167 0l423 666h77l-423 -666h-77z" />
    <glyph glyph-name="parenleft.case" horiz-adv-x="316" 
d="M233 -119q-85 92 -133 209t-48 247q0 127 49.5 242t131.5 197h81q-72 -74 -122.5 -186.5t-50.5 -251.5q0 -260 173 -457h-81z" />
    <glyph glyph-name="parenright.case" horiz-adv-x="317" 
d="M3 -119q73 75 123 188t50 252q0 259 -173 455h82q84 -91 132 -207.5t48 -246.5q0 -129 -49 -243.5t-131 -197.5h-82z" />
    <glyph glyph-name="hyphen.case" horiz-adv-x="313" 
d="M53 314v72h207v-72h-207z" />
    <glyph glyph-name="slash.case" horiz-adv-x="411" 
d="M6 -161l318 881h81l-318 -881h-81z" />
    <glyph glyph-name="less.case" horiz-adv-x="435" 
d="M312 -21l-256 260l256 261l52 -53l-206 -208l206 -207z" />
    <glyph glyph-name="equal.case" horiz-adv-x="561" 
d="M67 133v70h427v-70h-427zM67 302v69h427v-69h-427z" />
    <glyph glyph-name="greater.case" horiz-adv-x="435" 
d="M123 -21l-52 53l206 207l-207 207l52 54l256 -260z" />
    <glyph glyph-name="bracketleft.case" horiz-adv-x="313" 
d="M77 -109v881h211v-65h-129v-751h129v-65h-211z" />
    <glyph glyph-name="bracketright.case" horiz-adv-x="313" 
d="M25 -109v65h129v751h-129v65h211v-881h-211z" />
    <glyph glyph-name="braceleft.case" horiz-adv-x="367" 
d="M249 -109q-45 0 -77.5 28.5t-32.5 82.5v195q0 49 -29.5 77.5t-81.5 29.5v65q52 1 81.5 29t29.5 79v185q0 54 32.5 82t77.5 28h93v-65h-65q-32 0 -44 -19t-12 -58v-169q0 -95 -98 -121v-2q98 -29 98 -128v-181q0 -38 11.5 -55.5t43.5 -17.5h66v-65h-93z" />
    <glyph glyph-name="braceright.case" horiz-adv-x="367" 
d="M25 -109v65h65q32 0 44 19t12 58v180q0 95 98 121v2q-98 29 -98 128v169q0 40 -11 57t-44 17h-66v65h93q45 0 77.5 -29t32.5 -82v-184q0 -49 29.5 -78t82.5 -30v-65q-52 -1 -82 -29t-30 -78v-196q0 -54 -32 -82t-77 -28h-94z" />
    <glyph glyph-name="exclamdown.case" horiz-adv-x="280" 
d="M141 551q-26 0 -44.5 18t-18.5 43q0 26 18.5 44t44.5 18t44 -18t18 -44q0 -25 -18.5 -43t-43.5 -18zM89 0l18 462h67l18 -462h-103z" />
    <glyph glyph-name="guillemotleft.case" horiz-adv-x="488" 
d="M173 159l-131 190l131 190h88l-129 -190l129 -190h-88zM360 159l-131 190l131 190h88l-129 -190l129 -190h-88z" />
    <glyph glyph-name="uni00AD.case" horiz-adv-x="313" 
d="M53 314v72h207v-72h-207z" />
    <glyph glyph-name="guillemotright.case" horiz-adv-x="488" 
d="M40 159l130 190l-130 190h88l131 -190l-131 -190h-88zM227 159l129 190l-129 190h87l132 -190l-132 -190h-87z" />
    <glyph glyph-name="questiondown.case" horiz-adv-x="402" 
d="M245 -12q-96 0 -147.5 47t-51.5 123q0 36 11 65t32.5 50.5t37 33.5t39.5 26q32 19 43.5 36t11.5 46v52h79v-61q0 -42 -15.5 -69t-57.5 -52q-32 -19 -47.5 -31t-29 -35.5t-13.5 -54.5q0 -103 117 -103q40 0 82 21l31 -65q-56 -29 -122 -29zM259 551q-26 0 -44 18t-18 43
q0 26 18 44t44 18t44 -18t18 -44q0 -25 -18 -43t-44 -18z" />
    <glyph glyph-name="endash.case" horiz-adv-x="530" 
d="M53 315v69h424v-69h-424z" />
    <glyph glyph-name="emdash.case" horiz-adv-x="839" 
d="M53 315v69h734v-69h-734z" />
    <glyph glyph-name="perthousand.case" horiz-adv-x="1237" 
d="M205 340q-86 0 -130.5 50.5t-44.5 117.5q0 65 45 116.5t129 51.5q85 0 130 -50.5t45 -116.5q0 -67 -44.5 -118t-129.5 -51zM206 400q46 0 73 30.5t27 77.5t-27.5 78t-73.5 31t-73.5 -30.5t-27.5 -77.5t27.5 -78t74.5 -31zM630 -8q-86 0 -130.5 51t-44.5 118
q0 66 44.5 117t129.5 51t130 -50.5t45 -116.5q0 -68 -44.5 -119t-129.5 -51zM631 52q45 0 72 31t27 78t-27 77.5t-73 30.5t-73.5 -30t-27.5 -77q0 -48 27.5 -79t74.5 -31zM1033 -8q-86 0 -130.5 51t-44.5 118q0 65 45 116.5t129 51.5q85 0 130 -50.5t45 -116.5
q0 -68 -44.5 -119t-129.5 -51zM1034 52q45 0 72.5 31t27.5 78t-27.5 77.5t-73.5 30.5t-73.5 -30t-27.5 -77q0 -48 27.5 -79t74.5 -31zM167 0l423 666h77l-423 -666h-77z" />
    <glyph glyph-name="guilsinglleft.case" horiz-adv-x="302" 
d="M173 159l-131 190l131 190h89l-129 -190l129 -190h-89z" />
    <glyph glyph-name="guilsinglright.case" horiz-adv-x="302" 
d="M40 159l130 190l-130 190h89l131 -190l-131 -190h-89z" />
    <glyph glyph-name="zero.dnom" horiz-adv-x="409" 
d="M204 -6q-79 0 -121 50.5t-42 121.5t41.5 120.5t121.5 49.5q79 0 121.5 -50t42.5 -120q0 -71 -42.5 -121.5t-121.5 -50.5zM204 49q39 0 61.5 31t22.5 86q0 54 -22.5 84.5t-61.5 30.5q-37 0 -60.5 -31t-23.5 -84q0 -54 23 -85.5t61 -31.5z" />
    <glyph glyph-name="one.dnom" horiz-adv-x="262" 
d="M105 0v270l-72 -20l-16 55l106 25h52v-330h-70z" />
    <glyph glyph-name="two.dnom" horiz-adv-x="337" 
d="M32 0v38q31 25 38.5 31.5t35 29.5t37.5 35t26 31.5t22 35.5t6 32q0 47 -53 47q-42 0 -78 -32l-37 44q51 44 126 44q59 0 88 -25.5t29 -69.5q0 -47 -36 -91.5t-99 -94.5h3q3 0 7.5 0.5t9.5 0.5h11h11h111v-56h-258z" />
    <glyph glyph-name="three.dnom" horiz-adv-x="309" 
d="M97 -6q-47 0 -72 10l14 55q22 -10 55 -10q42 0 66.5 13t24.5 37q0 49 -108 51v46q43 1 70 14.5t27 36.5q0 34 -52 34q-38 0 -69 -26l-29 44q17 14 49 25.5t65 11.5q54 0 81.5 -20t27.5 -55q0 -60 -70 -78v-1q35 -3 58.5 -24.5t23.5 -57.5q0 -51 -42.5 -78.5t-119.5 -27.5
z" />
    <glyph glyph-name="four.dnom" horiz-adv-x="327" 
d="M189 0v68h-174v46l177 216h66v-208h54v-54h-54v-68h-69zM90 120q18 2 45 2h55v121h-1z" />
    <glyph glyph-name="five.dnom" horiz-adv-x="302" 
d="M91 -6q-36 0 -57 8l11 55q21 -7 47 -7q42 0 70.5 13.5t28.5 42.5q0 55 -101 55q-18 0 -39 -3l11 172h192v-55h-129l-5 -63q66 -2 105 -27t39 -75q0 -56 -46.5 -86t-126.5 -30z" />
    <glyph glyph-name="six.dnom" horiz-adv-x="342" 
d="M178 -6q-70 0 -103 41t-33 105q0 89 61 142.5t170 53.5l16 -54q-150 -4 -173 -98q31 21 78 21q51 0 82.5 -27.5t31.5 -74.5q0 -50 -36 -79.5t-94 -29.5zM179 47q26 0 41.5 14.5t15.5 37.5q0 26 -16.5 40.5t-43.5 14.5q-41 0 -63 -20v-4q0 -41 18 -62t48 -21z" />
    <glyph glyph-name="seven.dnom" horiz-adv-x="300" 
d="M119 -13l-61 24l122 261h-162v58h242v-37z" />
    <glyph glyph-name="eight.dnom" horiz-adv-x="335" 
d="M167 -6q-61 0 -96 24.5t-35 64.5q0 50 73 86q-63 33 -63 80q0 38 36 62.5t87 24.5q54 0 87.5 -22t33.5 -61q0 -44 -68 -77q77 -35 77 -91q0 -42 -37 -66.5t-95 -24.5zM166 45q28 0 44 10.5t16 28.5q0 12 -11 23.5t-22.5 18t-32.5 16.5q-16 -9 -25 -15t-19 -18.5
t-10 -24.5q0 -18 16.5 -28.5t43.5 -10.5zM170 201q51 29 51 50q0 16 -14 25.5t-37 9.5t-38 -10t-15 -25q0 -10 9.5 -20.5t18 -15.5t25.5 -14z" />
    <glyph glyph-name="nine.dnom" horiz-adv-x="345" 
d="M73 -9l-15 54q64 1 110 25.5t59 75.5q-33 -20 -79 -20q-51 0 -83.5 27.5t-32.5 73.5q0 49 37.5 79t94.5 30q71 0 104.5 -41t33.5 -105q0 -91 -59.5 -145t-169.5 -54zM166 176q41 0 64 20v5q0 39 -18.5 61t-47.5 22q-26 0 -41.5 -15.5t-15.5 -37.5q0 -26 16.5 -40.5
t42.5 -14.5z" />
    <glyph glyph-name="zero.lf" horiz-adv-x="601" 
d="M301 -12q-66 0 -117 30t-80 80.5t-43.5 110t-14.5 124.5q0 66 14 125t42.5 110t79.5 80.5t118 29.5q66 0 116.5 -30t80 -80.5t44 -110t14.5 -124.5t-14.5 -124.5t-43.5 -110t-80 -80.5t-116 -30zM300 59q81 0 122 75.5t41 198.5t-41 198.5t-121 75.5q-82 0 -123 -75.5
t-41 -198.5t41 -198.5t122 -75.5z" />
    <glyph glyph-name="one.lf" horiz-adv-x="349" 
d="M167 0v588l-131 -42l-18 70l165 50h70v-666h-86z" />
    <glyph glyph-name="two.lf" horiz-adv-x="500" 
d="M33 0v49q56 55 79 78t77 82t79.5 97t48.5 89.5t23 92.5q0 57 -31.5 87t-80.5 30q-80 0 -146 -66l-44 55q82 84 196 84q90 0 145 -48t55 -130q0 -43 -18.5 -92t-42.5 -87.5t-68 -89.5t-72.5 -80.5t-78.5 -78.5q41 2 75 2h219v-74h-415z" />
    <glyph glyph-name="three.lf" horiz-adv-x="469" 
d="M142 -12q-69 0 -102 9l13 73q36 -9 86 -9q87 0 134.5 35.5t47.5 98.5q0 129 -208 131v62q78 1 133 36.5t55 94.5q0 40 -27 62t-77 22q-73 0 -132 -47l-40 57q76 65 182 65q89 0 137 -42t48 -109q0 -59 -41.5 -100.5t-102.5 -58.5v-1q67 -6 116 -53.5t49 -114.5
q0 -100 -75 -155.5t-196 -55.5z" />
    <glyph glyph-name="four.lf" horiz-adv-x="539" 
d="M334 0v148h-309v67l306 451h86v-443h96v-75h-96v-148h-83zM113 219q34 4 84 4h136v322h-2z" />
    <glyph glyph-name="five.lf" horiz-adv-x="448" 
d="M107 -12q-37 0 -70 6l12 73q48 -6 61 -6q89 0 146 39t57 112q0 138 -191 138q-37 0 -57 -2l19 318h302v-74h-223l-10 -169q120 -3 186.5 -57t66.5 -149q0 -109 -81.5 -169t-217.5 -60z" />
    <glyph glyph-name="six.lf" horiz-adv-x="525" 
d="M274 -12q-58 0 -103 25t-71.5 66t-40 90.5t-13.5 102.5q0 187 105.5 296.5t289.5 109.5l16 -69q-151 0 -231 -74q-69 -64 -85 -184q53 55 142 55q92 0 149 -57t57 -147q0 -92 -59 -153t-156 -61zM279 59q58 0 89 41t31 97q0 68 -32.5 103.5t-94.5 35.5q-81 0 -137 -53
v-14q0 -99 37.5 -154.5t106.5 -55.5z" />
    <glyph glyph-name="seven.lf" horiz-adv-x="452" 
d="M162 -24l-80 27l232 588h-294v75h389v-58z" />
    <glyph glyph-name="eight.lf" horiz-adv-x="496" 
d="M246 -12q-100 0 -153 50t-53 125q0 107 138 185q-58 37 -88.5 73t-30.5 93q0 71 56 117.5t137 46.5q86 0 137 -43t51 -116q0 -55 -35.5 -92t-95.5 -71q147 -79 147 -188q0 -80 -58 -130t-152 -50zM248 60q54 0 85 30.5t31 78.5q0 46 -35.5 80t-92.5 65q-30 -20 -49 -35.5
t-38 -46.5t-19 -65q0 -49 30.5 -78t87.5 -29zM250 391q47 28 74.5 56t27.5 67q0 40 -26 66.5t-73 26.5q-48 0 -76.5 -26t-28.5 -66q0 -29 17.5 -54.5t36 -39t48.5 -30.5z" />
    <glyph glyph-name="nine.lf" horiz-adv-x="525" 
d="M92 -18l-17 69q155 0 235 89q59 65 74 175q-53 -55 -142 -55q-92 0 -149 57t-57 147q0 92 59 153t156 61q77 0 130 -42.5t75.5 -104.5t22.5 -137q0 -190 -100 -301t-287 -111zM253 330q81 0 136 53v14q0 99 -36.5 154.5t-104.5 55.5q-59 0 -90.5 -41t-31.5 -97
q0 -139 127 -139z" />
    <glyph glyph-name="exclam.sc" horiz-adv-x="242" 
d="M121 -7q-25 0 -42.5 17.5t-17.5 41.5t17.5 41t42.5 17t42.5 -17t17.5 -41t-17.5 -41.5t-42.5 -17.5zM89 171l-16 343h98l-16 -343h-66z" />
    <glyph glyph-name="ampersand.sc" 
d="M219 -9q-86 0 -135.5 40t-49.5 102q0 52 28 84.5t84 61.5q-62 69 -62 123q0 55 42 88.5t107 33.5q63 0 102.5 -31.5t39.5 -80.5q0 -41 -29 -73.5t-89 -66.5l121 -126q28 42 41 107l72 -12q-15 -82 -65 -146l90 -95h-99l-43 45q-70 -54 -155 -54zM217 313q81 45 81 95
q0 23 -18 39.5t-47 16.5q-31 0 -49.5 -17t-18.5 -43q0 -24 12 -43.5t40 -47.5zM223 56q61 0 105 36l-138 142q-71 -39 -71 -97q0 -35 28 -58t76 -23z" />
    <glyph glyph-name="question.sc" horiz-adv-x="342" 
d="M91 171v34q0 34 12.5 55t44.5 39q35 20 51 38.5t16 47.5q0 71 -87 71q-31 0 -67 -17l-29 61q53 24 109 24q78 0 120 -36.5t42 -95.5q0 -33 -17 -61t-32 -39.5t-41 -28.5q-28 -17 -38 -30t-10 -37v-25h-74zM130 -7q-25 0 -42.5 17.5t-17.5 41.5t17.5 41t42.5 17t42 -17
t17 -41t-17 -41.5t-42 -17.5z" />
    <glyph glyph-name="a.sc" horiz-adv-x="537" 
d="M172 182h187l-61 157l-32 93h-2q-16 -50 -32 -93zM19 0l207 514h84l209 -514h-90l-44 112h-239l-42 -112h-85z" />
    <glyph glyph-name="b.sc" horiz-adv-x="489" 
d="M78 0v514h159q182 0 182 -129q0 -90 -96 -115v-1q51 -7 84.5 -40t33.5 -86q0 -143 -206 -143h-157zM163 68h69q65 0 93.5 17.5t28.5 61.5q0 87 -117 87h-74v-166zM163 298h64q106 0 106 80q0 69 -104 69h-66v-149z" />
    <glyph glyph-name="c.sc" horiz-adv-x="510" 
d="M313 -9q-126 0 -197.5 77t-71.5 190q0 112 73 189t199 77q92 0 155 -41l-41 -64q-50 33 -116 33q-85 0 -131.5 -53t-46.5 -138q0 -89 46 -143.5t134 -54.5q71 0 127 41l36 -61q-61 -52 -166 -52z" />
    <glyph glyph-name="d.sc" horiz-adv-x="571" 
d="M78 0v514h143q154 0 230 -66.5t76 -183.5q0 -119 -77.5 -191.5t-232.5 -72.5h-139zM164 70h60q213 0 213 191q0 98 -52.5 141t-164.5 43h-56v-375z" />
    <glyph glyph-name="e.sc" horiz-adv-x="450" 
d="M78 0v514h314v-70h-228v-141h204v-68h-204v-165h233v-70h-319z" />
    <glyph glyph-name="f.sc" horiz-adv-x="429" 
d="M78 0v514h309v-70h-223v-146h197v-69h-197v-229h-86z" />
    <glyph glyph-name="g.sc" horiz-adv-x="584" 
d="M320 -9q-128 0 -202 77.5t-74 189.5q0 113 76 189.5t206 76.5q108 0 172 -47l-39 -64q-58 39 -135 39q-93 0 -140.5 -53t-47.5 -138q0 -88 47 -144t138 -56q71 0 117 28v121h-109v67h192v-231q-64 -55 -201 -55z" />
    <glyph glyph-name="h.sc" horiz-adv-x="605" 
d="M78 0v514h86v-209h277v209h86v-514h-86v233h-277v-233h-86z" />
    <glyph glyph-name="i.sc" horiz-adv-x="252" 
d="M83 0v514h86v-514h-86z" />
    <glyph glyph-name="j.sc" horiz-adv-x="256" 
d="M43 -153q-42 0 -62 9l13 72q16 -7 35 -7q63 0 63 84v509h87v-521q0 -71 -35.5 -108.5t-100.5 -37.5z" />
    <glyph glyph-name="k.sc" horiz-adv-x="497" 
d="M384 0l-217 269l206 245h98l-205 -242l215 -272h-97zM78 0v514h85v-514h-85z" />
    <glyph glyph-name="l.sc" horiz-adv-x="417" 
d="M78 0v514h88v-444h217v-70h-305z" />
    <glyph glyph-name="m.sc" horiz-adv-x="716" 
d="M47 0l74 514h83l122 -338l31 -93h2q15 50 31 93l124 338h83l72 -514h-87l-41 305q-8 61 -8 74h-2q0 -4 -23 -73l-112 -306h-84l-113 306q-24 66 -24 73h-2q0 -26 -7 -75l-40 -304h-79z" />
    <glyph glyph-name="n.sc" horiz-adv-x="596" 
d="M76 0v514h87l227 -311q13 -18 26 -39.5t20 -33.5l7 -12h2q-4 40 -4 79v317h78v-514h-78l-241 330l-46 76h-1q3 -34 3 -66v-340h-80z" />
    <glyph glyph-name="o.sc" horiz-adv-x="630" 
d="M317 -9q-124 0 -198.5 77.5t-74.5 187.5q0 111 73.5 189.5t197.5 78.5t197.5 -77t73.5 -188t-72.5 -189.5t-196.5 -78.5zM315 62q86 0 133 55.5t47 138.5q0 84 -46.5 141t-131.5 57t-133 -56t-48 -139q0 -84 47 -140.5t132 -56.5z" />
    <glyph glyph-name="p.sc" horiz-adv-x="471" 
d="M78 0v514h157q89 0 143 -39t54 -116q0 -81 -54.5 -123t-152.5 -42h-61v-194h-86zM164 262h61q63 0 92 22.5t29 71.5q0 47 -28 69t-91 22h-63v-185z" />
    <glyph glyph-name="q.sc" horiz-adv-x="630" 
d="M504 -131q-61 0 -111 27.5t-104 96.5q-113 9 -179 84t-66 179q0 111 73.5 189.5t197.5 78.5t197.5 -77t73.5 -188q0 -94 -53.5 -167t-147.5 -93q29 -34 56 -49t66 -15q38 0 65 21l30 -59q-37 -28 -98 -28zM315 61q86 0 133 56t47 139q0 84 -46.5 141t-131.5 57t-133 -56
t-48 -139q0 -84 47 -141t132 -57z" />
    <glyph glyph-name="r.sc" horiz-adv-x="490" 
d="M78 0v514h161q91 0 140 -36.5t49 -105.5q0 -62 -39 -95t-102 -40v-2q22 -16 61 -70l122 -165h-99l-104 147q-37 51 -53.5 64t-40.5 13h-9v-224h-86zM164 288h73q103 0 103 80q0 79 -108 79h-68v-159z" />
    <glyph glyph-name="s.sc" horiz-adv-x="421" 
d="M196 -9q-103 0 -159 51l38 61q59 -42 120 -42q46 0 73.5 19.5t27.5 52.5q0 10 -2.5 18.5t-6 15t-11.5 14t-13.5 11.5t-18.5 11t-20.5 10.5t-25 11.5t-26.5 12q-59 27 -90.5 60t-31.5 88q0 65 48 102t118 37q87 0 149 -42l-37 -61q-48 33 -109 33q-38 0 -61.5 -16.5
t-23.5 -48.5q0 -31 20.5 -47.5t66.5 -36.5q8 -3 12 -5q34 -15 54.5 -26.5t44.5 -31t35.5 -45.5t11.5 -60q0 -67 -49.5 -106.5t-133.5 -39.5z" />
    <glyph glyph-name="t.sc" horiz-adv-x="437" 
d="M175 0v443h-157v71h401v-71h-157v-443h-87z" />
    <glyph glyph-name="u.sc" horiz-adv-x="578" 
d="M292 -9q-110 0 -164.5 57t-54.5 159v307h87v-297q0 -82 32 -118t103 -36q129 0 129 145v306h80v-299q0 -106 -53.5 -165t-158.5 -59z" />
    <glyph glyph-name="v.sc" horiz-adv-x="527" 
d="M225 0l-208 514h91l130 -337q30 -76 30 -88h2q0 10 30 88l125 337h83l-199 -514h-84z" />
    <glyph glyph-name="w.sc" horiz-adv-x="732" 
d="M166 0l-147 514h90l85 -310q20 -72 20 -92h2q0 13 24 94l89 308h85l88 -307l22 -93h2q8 50 20 92l85 308h81l-147 -514h-80l-90 321l-25 99h-2q-13 -56 -26 -99l-96 -321h-80z" />
    <glyph glyph-name="x.sc" horiz-adv-x="487" 
d="M23 0l173 268l-162 246h94l118 -185l114 185h87l-159 -251l175 -263h-93l-132 204l-128 -204h-87z" />
    <glyph glyph-name="y.sc" horiz-adv-x="476" 
d="M197 0v195l-181 319h94l132 -244h2l130 244h84l-175 -319v-195h-86z" />
    <glyph glyph-name="z.sc" horiz-adv-x="469" 
d="M42 0v58l273 386h-262v70h366v-56l-276 -388h285v-70h-386z" />
    <glyph glyph-name="exclamdown.sc" horiz-adv-x="242" 
d="M121 404q-25 0 -42.5 17t-17.5 41q0 25 17.5 42t42.5 17t42.5 -17t17.5 -42q0 -24 -17.5 -41t-42.5 -17zM71 0l16 343h66l16 -343h-98z" />
    <glyph glyph-name="mu.sc" horiz-adv-x="716" 
d="M47 0l74 514h83l122 -338l31 -93h2q15 50 31 93l124 338h83l72 -514h-87l-41 305q-8 61 -8 74h-2q0 -4 -23 -73l-112 -306h-84l-113 306q-24 66 -24 73h-2q0 -26 -7 -75l-40 -304h-79z" />
    <glyph glyph-name="questiondown.sc" horiz-adv-x="342" 
d="M201 -9q-79 0 -120.5 36.5t-41.5 95.5q0 33 17 61t32 39.5t41 28.5q28 17 38 30t10 37v25h74v-34q0 -34 -12.5 -55t-44.5 -39q-35 -20 -51 -38.5t-16 -47.5q0 -71 87 -71q31 0 67 17l29 -61q-53 -24 -109 -24zM212 405q-25 0 -42 17t-17 41t17 41.5t42 17.5t42.5 -17.5
t17.5 -41.5t-17.5 -41t-42.5 -17z" />
    <glyph glyph-name="germandbls.sc" horiz-adv-x="841" 
d="M196 -9q-103 0 -159 51l38 61q59 -42 120 -42q46 0 73.5 19.5t27.5 52.5q0 10 -2.5 19t-6 15.5t-11.5 14t-13.5 11.5t-19 11t-20.5 10.5t-24.5 11.5t-26.5 12q-59 27 -90.5 59.5t-31.5 87.5q0 65 48 102t118 37q87 0 149 -42l-37 -61q-48 33 -109 33q-38 0 -61.5 -16.5
t-23.5 -48.5q0 -31 20.5 -48t66.5 -37q8 -3 12 -5q34 -15 54.5 -26.5t44.5 -30.5t35.5 -45t11.5 -60q0 -67 -49.5 -106.5t-133.5 -39.5zM616 -9q-103 0 -159 51l39 61q55 -42 119 -42q46 0 73.5 19.5t27.5 52.5q0 10 -2.5 19t-6 15.5t-11.5 14t-13.5 11.5t-19 11t-20.5 10.5
t-24.5 11.5t-26.5 12q-59 27 -90 59.5t-31 87.5q0 65 48 102t117 37q90 0 149 -42l-37 -61q-48 33 -108 33q-39 0 -62.5 -16.5t-23.5 -48.5q0 -31 20.5 -48t66.5 -37q8 -3 12 -5q34 -15 54.5 -26.5t44.5 -30.5t35.5 -45t11.5 -60q0 -67 -49.5 -106.5t-133.5 -39.5z" />
    <glyph glyph-name="agrave.sc" horiz-adv-x="537" 
d="M172 182h187l-61 157l-32 93h-2q-16 -50 -32 -93zM19 0l207 514h84l209 -514h-90l-44 112h-239l-42 -112h-85zM237 561l-136 128h121l90 -128h-75z" />
    <glyph glyph-name="aacute.sc" horiz-adv-x="537" 
d="M228 561l90 128h122l-136 -128h-76zM172 182h187l-61 157l-32 93h-2q-16 -50 -32 -93zM19 0l207 514h84l209 -514h-90l-44 112h-239l-42 -112h-85z" />
    <glyph glyph-name="acircumflex.sc" horiz-adv-x="537" 
d="M114 562l123 154h64l122 -154h-78l-78 81l-76 -81h-77zM172 182h187l-61 157l-32 93h-2q-16 -50 -32 -93zM19 0l207 514h84l209 -514h-90l-44 112h-239l-42 -112h-85z" />
    <glyph glyph-name="atilde.sc" horiz-adv-x="537" 
d="M172 182h187l-61 157l-32 93h-2q-16 -50 -32 -93zM19 0l207 514h84l209 -514h-90l-44 112h-239l-42 -112h-85zM319 565q-26 0 -58 19t-50 19q-7 0 -13.5 -2t-12.5 -6.5t-9.5 -8t-8.5 -9t-6 -6.5l-44 40q44 63 98 63q28 0 59.5 -19t48.5 -19q27 0 52 31l44 -41
q-46 -61 -100 -61z" />
    <glyph glyph-name="adieresis.sc" horiz-adv-x="537" 
d="M172 560q-24 0 -40.5 16.5t-16.5 40.5q0 23 16.5 40t40.5 17t41 -17t17 -40q0 -24 -17 -40.5t-41 -16.5zM363 560q-23 0 -40 16.5t-17 40.5q0 23 17 40t40 17q25 0 41.5 -17t16.5 -40q0 -24 -16.5 -40.5t-41.5 -16.5zM172 182h187l-61 157l-32 93h-2q-16 -50 -32 -93z
M19 0l207 514h84l209 -514h-90l-44 112h-239l-42 -112h-85z" />
    <glyph glyph-name="aring.sc" horiz-adv-x="537" 
d="M268 565q-39 0 -68.5 28.5t-29.5 68.5t29.5 68.5t68.5 28.5t68.5 -28.5t29.5 -68.5t-29.5 -68.5t-68.5 -28.5zM268 608q22 0 35.5 16t13.5 38q0 23 -13 38.5t-36 15.5t-36 -15.5t-13 -38.5q0 -22 13.5 -38t35.5 -16zM172 182h187l-61 157l-32 93h-2q-16 -50 -32 -93z
M19 0l207 514h84l209 -514h-90l-44 112h-239l-42 -112h-85z" />
    <glyph glyph-name="ae.sc" horiz-adv-x="686" 
d="M-10 0l309 514h331v-70h-207v-141h182v-68h-182v-165h212v-70h-299v123h-180l-72 -123h-94zM195 191h141v242z" />
    <glyph glyph-name="ccedilla.sc" horiz-adv-x="510" 
d="M266 -221q-41 0 -70 12l13 46q22 -11 53 -11q50 0 50 38q0 44 -71 40l33 89q-109 12 -169.5 87t-60.5 178q0 112 73 189t199 77q92 0 155 -41l-41 -64q-50 33 -116 33q-85 0 -131.5 -53t-46.5 -138q0 -89 46 -143.5t134 -54.5q71 0 127 41l36 -61q-53 -47 -150 -51
l-21 -56q31 -5 51 -24t20 -48q0 -39 -32.5 -62t-80.5 -23z" />
    <glyph glyph-name="egrave.sc" horiz-adv-x="450" 
d="M200 561l-136 128h121l90 -128h-75zM78 0v514h314v-70h-228v-141h204v-68h-204v-165h233v-70h-319z" />
    <glyph glyph-name="eacute.sc" horiz-adv-x="450" 
d="M190 561l90 128h122l-136 -128h-76zM78 0v514h314v-70h-228v-141h204v-68h-204v-165h233v-70h-319z" />
    <glyph glyph-name="ecircumflex.sc" horiz-adv-x="450" 
d="M78 562l123 154h64l122 -154h-78l-78 81l-76 -81h-77zM78 0v514h314v-70h-228v-141h204v-68h-204v-165h233v-70h-319z" />
    <glyph glyph-name="edieresis.sc" horiz-adv-x="450" 
d="M136 560q-24 0 -40.5 16.5t-16.5 40.5q0 23 16.5 40t40.5 17t41 -17t17 -40q0 -24 -17 -40.5t-41 -16.5zM327 560q-23 0 -40 16.5t-17 40.5q0 23 17 40t40 17q25 0 41.5 -17t16.5 -40q0 -24 -16.5 -40.5t-41.5 -16.5zM78 0v514h314v-70h-228v-141h204v-68h-204v-165h233
v-70h-319z" />
    <glyph glyph-name="igrave.sc" horiz-adv-x="252" 
d="M83 0v514h86v-514h-86zM94 561l-136 128h121l90 -128h-75z" />
    <glyph glyph-name="iacute.sc" horiz-adv-x="252" 
d="M86 561l90 128h122l-136 -128h-76zM83 0v514h86v-514h-86z" />
    <glyph glyph-name="icircumflex.sc" horiz-adv-x="252" 
d="M-28 562l123 154h64l122 -154h-78l-78 81l-76 -81h-77zM83 0v514h86v-514h-86z" />
    <glyph glyph-name="idieresis.sc" horiz-adv-x="252" 
d="M30 560q-24 0 -40.5 16.5t-16.5 40.5q0 23 16.5 40t40.5 17t41 -17t17 -40q0 -24 -17 -40.5t-41 -16.5zM221 560q-23 0 -40 16.5t-17 40.5q0 23 17 40t40 17q25 0 41.5 -17t16.5 -40q0 -24 -16.5 -40.5t-41.5 -16.5zM83 0v514h86v-514h-86z" />
    <glyph glyph-name="eth.sc" horiz-adv-x="571" 
d="M78 0v222h-54v66h54v226h143q154 0 230 -66.5t76 -183.5q0 -119 -77.5 -191.5t-232.5 -72.5h-139zM164 70h60q213 0 213 191q0 98 -52.5 141t-164.5 43h-56v-157h116v-66h-116v-152z" />
    <glyph glyph-name="ntilde.sc" horiz-adv-x="596" 
d="M76 0v514h87l227 -311q13 -18 26 -39.5t20 -33.5l7 -12h2q-4 40 -4 79v317h78v-514h-78l-241 330l-46 76h-1q3 -34 3 -66v-340h-80zM348 565q-26 0 -58 19t-50 19q-7 0 -13.5 -2t-12.5 -6.5t-9.5 -8t-8.5 -9t-6 -6.5l-44 40q44 63 98 63q28 0 59.5 -19t48.5 -19
q27 0 52 31l44 -41q-46 -61 -100 -61z" />
    <glyph glyph-name="ograve.sc" horiz-adv-x="630" 
d="M317 -9q-124 0 -198.5 77.5t-74.5 187.5q0 111 73.5 189.5t197.5 78.5t197.5 -77t73.5 -188t-72.5 -189.5t-196.5 -78.5zM315 62q86 0 133 55.5t47 138.5q0 84 -46.5 141t-131.5 57t-133 -56t-48 -139q0 -84 47 -140.5t132 -56.5zM283 561l-136 128h121l90 -128h-75z" />
    <glyph glyph-name="oacute.sc" horiz-adv-x="630" 
d="M274 561l90 128h122l-136 -128h-76zM317 -9q-124 0 -198.5 77.5t-74.5 187.5q0 111 73.5 189.5t197.5 78.5t197.5 -77t73.5 -188t-72.5 -189.5t-196.5 -78.5zM315 62q86 0 133 55.5t47 138.5q0 84 -46.5 141t-131.5 57t-133 -56t-48 -139q0 -84 47 -140.5t132 -56.5z" />
    <glyph glyph-name="ocircumflex.sc" horiz-adv-x="630" 
d="M161 562l123 154h64l122 -154h-78l-78 81l-76 -81h-77zM317 -9q-124 0 -198.5 77.5t-74.5 187.5q0 111 73.5 189.5t197.5 78.5t197.5 -77t73.5 -188t-72.5 -189.5t-196.5 -78.5zM315 62q86 0 133 55.5t47 138.5q0 84 -46.5 141t-131.5 57t-133 -56t-48 -139
q0 -84 47 -140.5t132 -56.5z" />
    <glyph glyph-name="otilde.sc" horiz-adv-x="630" 
d="M317 -9q-124 0 -198.5 77.5t-74.5 187.5q0 111 73.5 189.5t197.5 78.5t197.5 -77t73.5 -188t-72.5 -189.5t-196.5 -78.5zM315 62q86 0 133 55.5t47 138.5q0 84 -46.5 141t-131.5 57t-133 -56t-48 -139q0 -84 47 -140.5t132 -56.5zM366 565q-26 0 -58 19t-50 19
q-7 0 -13.5 -2t-12.5 -6.5t-9.5 -8t-8.5 -9t-6 -6.5l-44 40q44 63 98 63q28 0 59.5 -19t48.5 -19q27 0 52 31l44 -41q-46 -61 -100 -61z" />
    <glyph glyph-name="odieresis.sc" horiz-adv-x="630" 
d="M219 560q-24 0 -40.5 16.5t-16.5 40.5q0 23 16.5 40t40.5 17t41 -17t17 -40q0 -24 -17 -40.5t-41 -16.5zM410 560q-23 0 -40 16.5t-17 40.5q0 23 17 40t40 17q24 0 41 -17t17 -40q0 -24 -16.5 -40.5t-41.5 -16.5zM317 -9q-124 0 -198.5 77.5t-74.5 187.5
q0 111 73.5 189.5t197.5 78.5t197.5 -77t73.5 -188t-72.5 -189.5t-196.5 -78.5zM315 62q86 0 133 55.5t47 138.5q0 84 -46.5 141t-131.5 57t-133 -56t-48 -139q0 -84 47 -140.5t132 -56.5z" />
    <glyph glyph-name="oslash.sc" horiz-adv-x="630" 
d="M138 -54l-50 35l49 70q-93 77 -93 205q0 111 73.5 189.5t197.5 78.5q79 0 141 -35l51 73l51 -37l-53 -71q81 -78 81 -195q0 -111 -72.5 -189.5t-196.5 -78.5q-71 0 -128 27zM136 259q0 -89 50 -144l226 314q-41 25 -95 25q-85 0 -133 -56t-48 -139zM315 62q86 0 133 55.5
t47 138.5q0 80 -40 132l-223 -308q34 -18 83 -18z" />
    <glyph glyph-name="ugrave.sc" horiz-adv-x="578" 
d="M258 561l-136 128h121l90 -128h-75zM292 -9q-110 0 -164.5 57t-54.5 159v307h87v-297q0 -82 32 -118t103 -36q129 0 129 145v306h80v-299q0 -106 -53.5 -165t-158.5 -59z" />
    <glyph glyph-name="uacute.sc" horiz-adv-x="578" 
d="M249 561l90 128h122l-136 -128h-76zM292 -9q-110 0 -164.5 57t-54.5 159v307h87v-297q0 -82 32 -118t103 -36q129 0 129 145v306h80v-299q0 -106 -53.5 -165t-158.5 -59z" />
    <glyph glyph-name="ucircumflex.sc" horiz-adv-x="578" 
d="M135 562l123 154h64l122 -154h-78l-78 81l-76 -81h-77zM292 -9q-110 0 -164.5 57t-54.5 159v307h87v-297q0 -82 32 -118t103 -36q129 0 129 145v306h80v-299q0 -106 -53.5 -165t-158.5 -59z" />
    <glyph glyph-name="udieresis.sc" horiz-adv-x="578" 
d="M193 560q-24 0 -40.5 16.5t-16.5 40.5q0 23 16.5 40t40.5 17t41 -17t17 -40q0 -24 -17 -40.5t-41 -16.5zM384 560q-23 0 -40 16.5t-17 40.5q0 23 17 40t40 17q24 0 41 -17t17 -40q0 -24 -16.5 -40.5t-41.5 -16.5zM292 -9q-110 0 -164.5 57t-54.5 159v307h87v-297
q0 -82 32 -118t103 -36q129 0 129 145v306h80v-299q0 -106 -53.5 -165t-158.5 -59z" />
    <glyph glyph-name="yacute.sc" horiz-adv-x="476" 
d="M197 561l90 128h122l-136 -128h-76zM197 0v195l-181 319h94l132 -244h2l130 244h84l-175 -319v-195h-86z" />
    <glyph glyph-name="thorn.sc" horiz-adv-x="471" 
d="M78 0v514h86v-87h74q89 0 143 -39t54 -116q0 -81 -54.5 -123t-152.5 -42h-64v-107h-86zM164 175h64q63 0 92 22.5t29 71.5q0 46 -28 68t-91 22h-66v-184z" />
    <glyph glyph-name="ydieresis.sc" horiz-adv-x="476" 
d="M142 560q-24 0 -40.5 16.5t-16.5 40.5q0 23 16.5 40t40.5 17t41 -17t17 -40q0 -24 -17 -40.5t-41 -16.5zM333 560q-23 0 -40 16.5t-17 40.5q0 23 17 40t40 17q25 0 41.5 -17t16.5 -40q0 -24 -16.5 -40.5t-41.5 -16.5zM197 0v195l-181 319h94l132 -244h2l130 244h84
l-175 -319v-195h-86z" />
    <glyph glyph-name="amacron.sc" horiz-adv-x="537" 
d="M172 182h187l-61 157l-32 93h-2q-16 -50 -32 -93zM19 0l207 514h84l209 -514h-90l-44 112h-239l-42 -112h-85zM132 593v67h273v-67h-273z" />
    <glyph glyph-name="abreve.sc" horiz-adv-x="537" 
d="M172 182h187l-61 157l-32 93h-2q-16 -50 -32 -93zM19 0l207 514h84l209 -514h-90l-44 112h-239l-42 -112h-85zM269 556q-59 0 -101 36t-48 108h74q3 -37 22.5 -59t52.5 -22q32 0 51.5 22t22.5 59h74q-6 -72 -48 -108t-100 -36z" />
    <glyph glyph-name="aogonek.sc" horiz-adv-x="537" 
d="M466 -221q-48 0 -75.5 26t-27.5 67q0 65 66 128l-44 112h-239l-42 -112h-85l207 514h84l209 -514l-8 -1q-34 -4 -57 -41t-23 -75q0 -48 50 -48q22 0 43 8l12 -47q-32 -17 -70 -17zM172 182h187l-61 157l-32 93h-2q-16 -50 -32 -93z" />
    <glyph glyph-name="cacute.sc" horiz-adv-x="510" 
d="M253 561l90 128h122l-136 -128h-76zM313 -9q-126 0 -197.5 77t-71.5 190q0 112 73 189t199 77q92 0 155 -41l-41 -64q-50 33 -116 33q-85 0 -131.5 -53t-46.5 -138q0 -89 46 -143.5t134 -54.5q71 0 127 41l36 -61q-61 -52 -166 -52z" />
    <glyph glyph-name="ccircumflex.sc" horiz-adv-x="510" 
d="M139 562l123 154h64l122 -154h-78l-78 81l-76 -81h-77zM313 -9q-126 0 -197.5 77t-71.5 190q0 112 73 189t199 77q92 0 155 -41l-41 -64q-50 33 -116 33q-85 0 -131.5 -53t-46.5 -138q0 -89 46 -143.5t134 -54.5q71 0 127 41l36 -61q-61 -52 -166 -52z" />
    <glyph glyph-name="cdotaccent.sc" horiz-adv-x="510" 
d="M313 -9q-126 0 -197.5 77t-71.5 190q0 112 73 189t199 77q92 0 155 -41l-41 -64q-50 33 -116 33q-85 0 -131.5 -53t-46.5 -138q0 -89 46 -143.5t134 -54.5q71 0 127 41l36 -61q-61 -52 -166 -52zM293 588q-25 0 -41.5 17t-16.5 41t16.5 40.5t41.5 16.5t41.5 -16.5
t16.5 -40.5t-16.5 -41t-41.5 -17z" />
    <glyph glyph-name="ccaron.sc" horiz-adv-x="510" 
d="M260 560l-121 155h77l78 -82l76 82h78l-124 -155h-64zM313 -9q-126 0 -197.5 77t-71.5 190q0 112 73 189t199 77q92 0 155 -41l-41 -64q-50 33 -116 33q-85 0 -131.5 -53t-46.5 -138q0 -89 46 -143.5t134 -54.5q71 0 127 41l36 -61q-61 -52 -166 -52z" />
    <glyph glyph-name="dcaron.sc" horiz-adv-x="571" 
d="M246 560l-121 155h77l78 -82l76 82h78l-124 -155h-64zM78 0v514h143q154 0 230 -66.5t76 -183.5q0 -119 -77.5 -191.5t-232.5 -72.5h-139zM164 70h60q213 0 213 191q0 98 -52.5 141t-164.5 43h-56v-375z" />
    <glyph glyph-name="dcroat.sc" horiz-adv-x="571" 
d="M78 0v222h-54v66h54v226h143q154 0 230 -66.5t76 -183.5q0 -119 -77.5 -191.5t-232.5 -72.5h-139zM164 70h60q213 0 213 191q0 98 -52.5 141t-164.5 43h-56v-157h116v-66h-116v-152z" />
    <glyph glyph-name="emacron.sc" horiz-adv-x="450" 
d="M96 593v67h273v-67h-273zM78 0v514h314v-70h-228v-141h204v-68h-204v-165h233v-70h-319z" />
    <glyph glyph-name="ebreve.sc" horiz-adv-x="450" 
d="M233 556q-59 0 -101 36t-48 108h74q3 -37 22.5 -59t52.5 -22q32 0 51.5 22t22.5 59h74q-6 -72 -48 -108t-100 -36zM78 0v514h314v-70h-228v-141h204v-68h-204v-165h233v-70h-319z" />
    <glyph glyph-name="edotaccent.sc" horiz-adv-x="450" 
d="M232 588q-25 0 -41.5 17t-16.5 41t16.5 40.5t41.5 16.5t41.5 -16.5t16.5 -40.5t-16.5 -41t-41.5 -17zM78 0v514h314v-70h-228v-141h204v-68h-204v-165h233v-70h-319z" />
    <glyph glyph-name="eogonek.sc" horiz-adv-x="450" 
d="M321 -221q-48 0 -75 26t-27 67q0 39 23.5 76t53.5 52h-218v514h314v-70h-228v-141h204v-68h-204v-165h233v-70h-2q-49 0 -78.5 -34.5t-29.5 -83.5q0 -47 49 -47q22 0 43 8l12 -47q-32 -17 -70 -17z" />
    <glyph glyph-name="ecaron.sc" horiz-adv-x="450" 
d="M199 560l-121 155h77l78 -82l76 82h78l-124 -155h-64zM78 0v514h314v-70h-228v-141h204v-68h-204v-165h233v-70h-319z" />
    <glyph glyph-name="gcircumflex.sc" horiz-adv-x="584" 
d="M164 562l123 154h64l122 -154h-78l-78 81l-76 -81h-77zM320 -9q-128 0 -202 77.5t-74 189.5q0 113 76 189.5t206 76.5q108 0 172 -47l-39 -64q-58 39 -135 39q-93 0 -140.5 -53t-47.5 -138q0 -88 47 -144t138 -56q71 0 117 28v121h-109v67h192v-231q-64 -55 -201 -55z
" />
    <glyph glyph-name="gbreve.sc" horiz-adv-x="584" 
d="M320 -9q-128 0 -202 77.5t-74 189.5q0 113 76 189.5t206 76.5q108 0 172 -47l-39 -64q-58 39 -135 39q-93 0 -140.5 -53t-47.5 -138q0 -88 47 -144t138 -56q71 0 117 28v121h-109v67h192v-231q-64 -55 -201 -55zM319 556q-59 0 -101 36t-48 108h74q3 -37 22.5 -59
t52.5 -22q32 0 51.5 22t22.5 59h74q-6 -72 -48 -108t-100 -36z" />
    <glyph glyph-name="gdotaccent.sc" horiz-adv-x="584" 
d="M320 -9q-128 0 -202 77.5t-74 189.5q0 113 76 189.5t206 76.5q108 0 172 -47l-39 -64q-58 39 -135 39q-93 0 -140.5 -53t-47.5 -138q0 -88 47 -144t138 -56q71 0 117 28v121h-109v67h192v-231q-64 -55 -201 -55zM318 588q-25 0 -41.5 17t-16.5 41t16.5 40.5t41.5 16.5
t41.5 -16.5t16.5 -40.5t-16.5 -41t-41.5 -17z" />
    <glyph glyph-name="gcommaaccent.sc" horiz-adv-x="584" 
d="M265 -221q29 33 29 60q0 15 -16 34t-16 37t13 30t33 12q23 0 39 -16.5t16 -43.5q0 -53 -51 -113h-47zM320 -9q-128 0 -202 77.5t-74 189.5q0 113 76 189.5t206 76.5q108 0 172 -47l-39 -64q-58 39 -135 39q-93 0 -140.5 -53t-47.5 -138q0 -88 47 -144t138 -56
q71 0 117 28v121h-109v67h192v-231q-64 -55 -201 -55z" />
    <glyph glyph-name="hcircumflex.sc" horiz-adv-x="605" 
d="M147 562l123 154h64l122 -154h-78l-78 81l-76 -81h-77zM78 0v514h86v-209h277v209h86v-514h-86v233h-277v-233h-86z" />
    <glyph glyph-name="hbar.sc" horiz-adv-x="618" 
d="M31 372v65h54v77h86v-77h277v77h86v-77h53v-65h-53v-372h-86v227h-277v-227h-86v372h-54zM171 299h277v73h-277v-73z" />
    <glyph glyph-name="itilde.sc" horiz-adv-x="252" 
d="M83 0v514h86v-514h-86zM177 565q-26 0 -58 19t-50 19q-7 0 -13.5 -2t-12.5 -6.5t-9.5 -8t-8.5 -9t-6 -6.5l-44 40q44 63 98 63q28 0 59.5 -19t48.5 -19q27 0 52 31l44 -41q-46 -61 -100 -61z" />
    <glyph glyph-name="imacron.sc" horiz-adv-x="252" 
d="M83 0v514h86v-514h-86zM-10 593v67h273v-67h-273z" />
    <glyph glyph-name="ibreve.sc" horiz-adv-x="252" 
d="M83 0v514h86v-514h-86zM127 556q-59 0 -101 36t-48 108h74q3 -37 22.5 -59t52.5 -22q32 0 51.5 22t22.5 59h74q-6 -72 -48 -108t-100 -36z" />
    <glyph glyph-name="iogonek.sc" horiz-adv-x="252" 
d="M123 -221q-48 0 -75 26t-27 67q0 37 21 71t47 57h-6v514h86v-514h-3q-26 0 -51.5 -38.5t-25.5 -78.5q0 -48 49 -48q22 0 43 8l12 -47q-32 -17 -70 -17z" />
    <glyph glyph-name="dotlessi.sc" horiz-adv-x="252" 
d="M83 0v514h86v-514h-86z" />
    <glyph glyph-name="ij.sc" horiz-adv-x="508" 
d="M83 0v514h86v-514h-86zM295 -153q-42 0 -62 9l13 72q16 -7 35 -7q63 0 63 84v509h87v-521q0 -71 -35.5 -108.5t-100.5 -37.5z" />
    <glyph glyph-name="jcircumflex.sc" horiz-adv-x="256" 
d="M-19 562l123 154h64l122 -154h-78l-78 81l-76 -81h-77zM43 -153q-42 0 -62 9l13 72q16 -7 35 -7q63 0 63 84v509h87v-521q0 -71 -35.5 -108.5t-100.5 -37.5z" />
    <glyph glyph-name="kcommaaccent.sc" horiz-adv-x="497" 
d="M204 -221q29 33 29 60q0 15 -16 34t-16 37t13 30t33 12q23 0 39 -16.5t16 -43.5q0 -53 -51 -113h-47zM384 0l-217 269l206 245h98l-205 -242l215 -272h-97zM78 0v514h85v-514h-85z" />
    <glyph glyph-name="lacute.sc" horiz-adv-x="417" 
d="M78 0v514h88v-444h217v-70h-305zM82 561l90 128h122l-136 -128h-76z" />
    <glyph glyph-name="lcommaaccent.sc" horiz-adv-x="417" 
d="M171 -221q29 33 29 60q0 15 -16 34t-16 37t13 30t33 12q23 0 39 -16.5t16 -43.5q0 -53 -51 -113h-47zM78 0v514h88v-444h217v-70h-305z" />
    <glyph glyph-name="lcaron.sc" horiz-adv-x="418" 
d="M223 374l41 170h100l-78 -170h-63zM78 0v514h88v-444h217v-70h-305z" />
    <glyph glyph-name="ldot.sc" horiz-adv-x="417" 
d="M78 0v514h88v-444h217v-70h-305zM282 258q-25 0 -41.5 17t-16.5 41t16.5 40.5t41.5 16.5t41.5 -16.5t16.5 -40.5t-16.5 -41t-41.5 -17z" />
    <glyph glyph-name="lslash.sc" horiz-adv-x="418" 
d="M80 0v185l-49 -37l-34 47l83 64v255h87v-190l81 62l35 -49l-116 -87v-180h218v-70h-305z" />
    <glyph glyph-name="nacute.sc" horiz-adv-x="596" 
d="M256 561l90 128h122l-136 -128h-76zM76 0v514h87l227 -311q13 -18 26 -39.5t20 -33.5l7 -12h2q-4 40 -4 79v317h78v-514h-78l-241 330l-46 76h-1q3 -34 3 -66v-340h-80z" />
    <glyph glyph-name="ncommaaccent.sc" horiz-adv-x="596" 
d="M249 -221q29 33 29 60q0 15 -16 34t-16 37t13 30t33 12q23 0 39 -16.5t16 -43.5q0 -53 -51 -113h-47zM76 0v514h87l227 -311q13 -18 26 -39.5t20 -33.5l7 -12h2q-4 40 -4 79v317h78v-514h-78l-241 330l-46 76h-1q3 -34 3 -66v-340h-80z" />
    <glyph glyph-name="ncaron.sc" horiz-adv-x="596" 
d="M264 560l-121 155h77l78 -82l76 82h78l-124 -155h-64zM76 0v514h87l227 -311q13 -18 26 -39.5t20 -33.5l7 -12h2q-4 40 -4 79v317h78v-514h-78l-241 330l-46 76h-1q3 -34 3 -66v-340h-80z" />
    <glyph glyph-name="omacron.sc" horiz-adv-x="630" 
d="M317 -9q-124 0 -198.5 77.5t-74.5 187.5q0 111 73.5 189.5t197.5 78.5t197.5 -77t73.5 -188t-72.5 -189.5t-196.5 -78.5zM315 62q86 0 133 55.5t47 138.5q0 84 -46.5 141t-131.5 57t-133 -56t-48 -139q0 -84 47 -140.5t132 -56.5zM179 593v67h273v-67h-273z" />
    <glyph glyph-name="obreve.sc" horiz-adv-x="630" 
d="M317 -9q-124 0 -198.5 77.5t-74.5 187.5q0 111 73.5 189.5t197.5 78.5t197.5 -77t73.5 -188t-72.5 -189.5t-196.5 -78.5zM315 62q86 0 133 55.5t47 138.5q0 84 -46.5 141t-131.5 57t-133 -56t-48 -139q0 -84 47 -140.5t132 -56.5zM316 556q-59 0 -101 36t-48 108h74
q3 -37 22.5 -59t52.5 -22q32 0 51.5 22t22.5 59h74q-6 -72 -48 -108t-100 -36z" />
    <glyph glyph-name="ohungarumlaut.sc" horiz-adv-x="630" 
d="M317 -9q-124 0 -198.5 77.5t-74.5 187.5q0 111 73.5 189.5t197.5 78.5t197.5 -77t73.5 -188t-72.5 -189.5t-196.5 -78.5zM315 62q86 0 133 55.5t47 138.5q0 84 -46.5 141t-131.5 57t-133 -56t-48 -139q0 -84 47 -140.5t132 -56.5zM176 561l93 128h115l-135 -128h-73z
M348 561l93 128h114l-134 -128h-73z" />
    <glyph glyph-name="oe.sc" horiz-adv-x="742" 
d="M316 -9q-124 0 -198 77t-74 188t72.5 189.5t197.5 78.5q48 0 85 -10h287v-70h-208v-141h182v-68h-182v-165h214v-70h-295q-35 -9 -81 -9zM314 62q49 0 79 13v363q-32 16 -77 16q-86 0 -134 -56.5t-48 -138.5q0 -84 47 -140.5t133 -56.5z" />
    <glyph glyph-name="racute.sc" horiz-adv-x="490" 
d="M200 561l90 128h122l-136 -128h-76zM78 0v514h161q91 0 140 -36.5t49 -105.5q0 -62 -39 -95t-102 -40v-2q22 -16 61 -70l122 -165h-99l-104 147q-37 51 -53.5 64t-40.5 13h-9v-224h-86zM164 288h73q103 0 103 80q0 79 -108 79h-68v-159z" />
    <glyph glyph-name="rcommaaccent.sc" horiz-adv-x="490" 
d="M207 -221q29 33 29 60q0 15 -16 34t-16 37t13 30t33 12q23 0 39 -16.5t16 -43.5q0 -53 -51 -113h-47zM78 0v514h161q91 0 140 -36.5t49 -105.5q0 -62 -39 -95t-102 -40v-2q22 -16 61 -70l122 -165h-99l-104 147q-37 51 -53.5 64t-40.5 13h-9v-224h-86zM164 288h73
q103 0 103 80q0 79 -108 79h-68v-159z" />
    <glyph glyph-name="rcaron.sc" horiz-adv-x="490" 
d="M209 560l-121 155h77l78 -82l76 82h78l-124 -155h-64zM78 0v514h161q91 0 140 -36.5t49 -105.5q0 -62 -39 -95t-102 -40v-2q22 -16 61 -70l122 -165h-99l-104 147q-37 51 -53.5 64t-40.5 13h-9v-224h-86zM164 288h73q103 0 103 80q0 79 -108 79h-68v-159z" />
    <glyph glyph-name="sacute.sc" horiz-adv-x="421" 
d="M171 561l90 128h122l-136 -128h-76zM196 -9q-103 0 -159 51l38 61q59 -42 120 -42q46 0 73.5 19.5t27.5 52.5q0 10 -2.5 18.5t-6 15t-11.5 14t-13.5 11.5t-18.5 11t-20.5 10.5t-25 11.5t-26.5 12q-59 27 -90.5 60t-31.5 88q0 65 48 102t118 37q87 0 149 -42l-37 -61
q-48 33 -109 33q-38 0 -61.5 -16.5t-23.5 -48.5q0 -31 20.5 -47.5t66.5 -36.5q8 -3 12 -5q34 -15 54.5 -26.5t44.5 -31t35.5 -45.5t11.5 -60q0 -67 -49.5 -106.5t-133.5 -39.5z" />
    <glyph glyph-name="scircumflex.sc" horiz-adv-x="421" 
d="M58 562l123 154h64l122 -154h-78l-78 81l-76 -81h-77zM196 -9q-103 0 -159 51l38 61q59 -42 120 -42q46 0 73.5 19.5t27.5 52.5q0 10 -2.5 18.5t-6 15t-11.5 14t-13.5 11.5t-18.5 11t-20.5 10.5t-25 11.5t-26.5 12q-59 27 -90.5 60t-31.5 88q0 65 48 102t118 37
q87 0 149 -42l-37 -61q-48 33 -109 33q-38 0 -61.5 -16.5t-23.5 -48.5q0 -31 20.5 -47.5t66.5 -36.5q8 -3 12 -5q34 -15 54.5 -26.5t44.5 -31t35.5 -45.5t11.5 -60q0 -67 -49.5 -106.5t-133.5 -39.5z" />
    <glyph glyph-name="scedilla.sc" horiz-adv-x="421" 
d="M180 -221q-41 0 -70 12l13 46q22 -11 53 -11q50 0 50 38q0 44 -71 40l32 87q-99 2 -150 51l38 61q59 -42 120 -42q46 0 73.5 19.5t27.5 52.5q0 10 -2.5 18.5t-6 15t-11.5 14t-13.5 11.5t-18.5 11t-20.5 10.5t-25 11.5t-26.5 12q-59 27 -90.5 60t-31.5 88q0 65 48 102
t118 37q87 0 149 -42l-37 -61q-48 33 -109 33q-38 0 -61.5 -16.5t-23.5 -48.5q0 -31 20.5 -47.5t66.5 -36.5q8 -3 12 -5q34 -15 54.5 -26.5t44.5 -31t35.5 -45.5t11.5 -60q0 -57 -36 -94t-99 -48l-22 -59q31 -5 51 -24t20 -48q0 -39 -32.5 -62t-80.5 -23z" />
    <glyph glyph-name="scaron.sc" horiz-adv-x="421" 
d="M179 560l-121 155h77l78 -82l76 82h78l-124 -155h-64zM196 -9q-103 0 -159 51l38 61q59 -42 120 -42q46 0 73.5 19.5t27.5 52.5q0 10 -2.5 18.5t-6 15t-11.5 14t-13.5 11.5t-18.5 11t-20.5 10.5t-25 11.5t-26.5 12q-59 27 -90.5 60t-31.5 88q0 65 48 102t118 37
q87 0 149 -42l-37 -61q-48 33 -109 33q-38 0 -61.5 -16.5t-23.5 -48.5q0 -31 20.5 -47.5t66.5 -36.5q8 -3 12 -5q34 -15 54.5 -26.5t44.5 -31t35.5 -45.5t11.5 -60q0 -67 -49.5 -106.5t-133.5 -39.5z" />
    <glyph glyph-name="tcommaaccent.sc" horiz-adv-x="437" 
d="M171 -221q29 33 29 60q0 15 -16 34t-16 37t13 30t33 12q23 0 39 -16.5t16 -43.5q0 -53 -51 -113h-47zM175 0v443h-157v71h401v-71h-157v-443h-87z" />
    <glyph glyph-name="tcaron.sc" horiz-adv-x="437" 
d="M186 560l-121 155h77l78 -82l76 82h78l-124 -155h-64zM175 0v443h-157v71h401v-71h-157v-443h-87z" />
    <glyph glyph-name="tbar.sc" horiz-adv-x="437" 
d="M38 243v65h137v135h-157v71h401v-71h-157v-135h136v-65h-136v-243h-87v243h-137z" />
    <glyph glyph-name="utilde.sc" horiz-adv-x="578" 
d="M340 565q-26 0 -58 19t-50 19q-7 0 -13.5 -2t-12.5 -6.5t-9.5 -8t-8.5 -9t-6 -6.5l-44 40q44 63 98 63q28 0 59.5 -19t48.5 -19q27 0 52 31l44 -41q-46 -61 -100 -61zM292 -9q-110 0 -164.5 57t-54.5 159v307h87v-297q0 -82 32 -118t103 -36q129 0 129 145v306h80v-299
q0 -106 -53.5 -165t-158.5 -59z" />
    <glyph glyph-name="umacron.sc" horiz-adv-x="578" 
d="M153 593v67h273v-67h-273zM292 -9q-110 0 -164.5 57t-54.5 159v307h87v-297q0 -82 32 -118t103 -36q129 0 129 145v306h80v-299q0 -106 -53.5 -165t-158.5 -59z" />
    <glyph glyph-name="ubreve.sc" horiz-adv-x="578" 
d="M290 556q-59 0 -101 36t-48 108h74q3 -37 22.5 -59t52.5 -22q32 0 51.5 22t22.5 59h74q-6 -72 -48 -108t-100 -36zM292 -9q-110 0 -164.5 57t-54.5 159v307h87v-297q0 -82 32 -118t103 -36q129 0 129 145v306h80v-299q0 -106 -53.5 -165t-158.5 -59z" />
    <glyph glyph-name="uring.sc" horiz-adv-x="578" 
d="M289 565q-39 0 -68.5 28.5t-29.5 68.5t29.5 68.5t68.5 28.5t68.5 -28.5t29.5 -68.5t-29.5 -68.5t-68.5 -28.5zM289 608q22 0 35.5 16t13.5 38q0 23 -13 38.5t-36 15.5t-36 -15.5t-13 -38.5q0 -22 13.5 -38t35.5 -16zM292 -9q-110 0 -164.5 57t-54.5 159v307h87v-297
q0 -82 32 -118t103 -36q129 0 129 145v306h80v-299q0 -106 -53.5 -165t-158.5 -59z" />
    <glyph glyph-name="uhungarumlaut.sc" horiz-adv-x="578" 
d="M150 561l93 128h115l-135 -128h-73zM322 561l93 128h114l-134 -128h-73zM292 -9q-110 0 -164.5 57t-54.5 159v307h87v-297q0 -82 32 -118t103 -36q129 0 129 145v306h80v-299q0 -106 -53.5 -165t-158.5 -59z" />
    <glyph glyph-name="uogonek.sc" horiz-adv-x="578" 
d="M392 -221q-48 0 -75.5 26t-27.5 67q0 36 22 73t48 56q-33 -10 -67 -10q-110 0 -164.5 57t-54.5 159v307h87v-297q0 -82 32 -118t103 -36q129 0 129 145v306h80v-299q0 -68 -21 -111.5t-73 -103.5q-52 -66 -52 -118q0 -47 49 -47q22 0 43 8l12 -47q-32 -17 -70 -17z" />
    <glyph glyph-name="wcircumflex.sc" horiz-adv-x="732" 
d="M211 562l123 154h64l122 -154h-78l-78 81l-76 -81h-77zM166 0l-147 514h90l85 -310q20 -72 20 -92h2q0 13 24 94l89 308h85l88 -307l22 -93h2q8 50 20 92l85 308h81l-147 -514h-80l-90 321l-25 99h-2q-13 -56 -26 -99l-96 -321h-80z" />
    <glyph glyph-name="ycircumflex.sc" horiz-adv-x="476" 
d="M84 562l123 154h64l122 -154h-78l-78 81l-76 -81h-77zM197 0v195l-181 319h94l132 -244h2l130 244h84l-175 -319v-195h-86z" />
    <glyph glyph-name="zacute.sc" horiz-adv-x="469" 
d="M194 561l90 128h122l-136 -128h-76zM42 0v58l273 386h-262v70h366v-56l-276 -388h285v-70h-386z" />
    <glyph glyph-name="zdotaccent.sc" horiz-adv-x="469" 
d="M236 588q-25 0 -41.5 17t-16.5 41t16.5 40.5t41.5 16.5t41.5 -16.5t16.5 -40.5t-16.5 -41t-41.5 -17zM42 0v58l273 386h-262v70h366v-56l-276 -388h285v-70h-386z" />
    <glyph glyph-name="zcaron.sc" horiz-adv-x="469" 
d="M203 560l-121 155h77l78 -82l76 82h78l-124 -155h-64zM42 0v58l273 386h-262v70h366v-56l-276 -388h285v-70h-386z" />
    <glyph glyph-name="scommaaccent.sc" horiz-adv-x="421" 
d="M153 -221q29 33 29 60q0 15 -16 34t-16 37t13 30t33 12q23 0 39 -16.5t16 -43.5q0 -53 -51 -113h-47zM196 -9q-103 0 -159 51l38 61q59 -42 120 -42q46 0 73.5 19.5t27.5 52.5q0 10 -2.5 18.5t-6 15t-11.5 14t-13.5 11.5t-18.5 11t-20.5 10.5t-25 11.5t-26.5 12
q-59 27 -90.5 60t-31.5 88q0 65 48 102t118 37q87 0 149 -42l-37 -61q-48 33 -109 33q-38 0 -61.5 -16.5t-23.5 -48.5q0 -31 20.5 -47.5t66.5 -36.5q8 -3 12 -5q34 -15 54.5 -26.5t44.5 -31t35.5 -45.5t11.5 -60q0 -67 -49.5 -106.5t-133.5 -39.5z" />
    <glyph glyph-name="uni021B.sc" horiz-adv-x="437" 
d="M171 -221q29 33 29 60q0 15 -16 34t-16 37t13 30t33 12q23 0 39 -16.5t16 -43.5q0 -53 -51 -113h-47zM175 0v443h-157v71h401v-71h-157v-443h-87z" />
    <glyph glyph-name="Alphatonos.sc" horiz-adv-x="637" 
d="M195 232h240l-79 215q-12 33 -25 71.5t-15 43.5h-2q-16 -53 -39 -115zM20 0l255 666h87l257 -666h-98l-58 157h-296l-57 -157h-90z" />
    <glyph glyph-name="Epsilontonos.sc" horiz-adv-x="508" 
d="M93 0v666h351v-76h-261v-201h229v-75h-229v-238h268v-76h-358z" />
    <glyph glyph-name="Etatonos.sc" horiz-adv-x="729" 
d="M93 0v666h91v-278h361v278h91v-666h-91v312h-361v-312h-91z" />
    <glyph glyph-name="Iotatonos.sc" horiz-adv-x="290" 
d="M99 0v666h91v-666h-91z" />
    <glyph glyph-name="Omicrontonos.sc" horiz-adv-x="763" 
d="M383 -12q-151 0 -241.5 100.5t-90.5 243.5q0 144 89.5 245t240.5 101t241 -100.5t90 -243.5t-89.5 -244.5t-239.5 -101.5zM381 63q111 0 173 77t62 192t-61.5 193t-171.5 78q-111 0 -174 -77.5t-63 -191.5q0 -115 62 -193t173 -78z" />
    <glyph glyph-name="Upsilontonos.sc" horiz-adv-x="563" 
d="M239 0v252l-222 414h100l171 -329h1l171 329h87l-217 -414v-252h-91z" />
    <glyph glyph-name="Omegatonos.sc" horiz-adv-x="748" 
d="M58 0v74h136q-63 43 -99.5 119.5t-36.5 163.5q0 142 93.5 231.5t222.5 89.5t222.5 -89.5t93.5 -231.5q0 -87 -36.5 -163.5t-99.5 -119.5h137v-74h-238v72q144 100 144 284q0 100 -64 173.5t-159 73.5t-159 -73.5t-64 -173.5q0 -184 145 -284v-72h-238z" />
    <glyph glyph-name="iotadieresistonos.sc" horiz-adv-x="252" 
d="M83 0v514h86v-514h-86zM40 560q-24 0 -40.5 16.5t-16.5 40.5q0 23 16.5 40t40.5 17t41 -17t17 -40q0 -24 -17 -40.5t-41 -16.5zM231 560q-23 0 -40 16.5t-17 40.5q0 23 17 40t40 17q25 0 41.5 -17t16.5 -40q0 -24 -16.5 -40.5t-41.5 -16.5z" />
    <glyph glyph-name="alphatonos.sc" horiz-adv-x="537" 
d="M172 182h187l-61 157l-32 93h-2q-16 -50 -32 -93zM19 0l207 514h84l209 -514h-90l-44 112h-239l-42 -112h-85z" />
    <glyph glyph-name="epsilontonos.sc" horiz-adv-x="450" 
d="M78 0v514h314v-70h-228v-141h204v-68h-204v-165h233v-70h-319z" />
    <glyph glyph-name="etatonos.sc" horiz-adv-x="605" 
d="M78 0v514h86v-209h277v209h86v-514h-86v233h-277v-233h-86z" />
    <glyph glyph-name="iotatonos.sc" horiz-adv-x="252" 
d="M83 0v514h86v-514h-86z" />
    <glyph glyph-name="upsilondieresistonos.sc" horiz-adv-x="476" 
d="M197 0v195l-181 319h94l132 -244h2l130 244h84l-175 -319v-195h-86zM150 560q-24 0 -40.5 16.5t-16.5 40.5q0 23 16.5 40t40.5 17t41 -17t17 -40q0 -24 -17 -40.5t-41 -16.5zM341 560q-23 0 -40 16.5t-17 40.5q0 23 17 40t40 17q25 0 41.5 -17t16.5 -40
q0 -24 -16.5 -40.5t-41.5 -16.5z" />
    <glyph glyph-name="alpha.sc" horiz-adv-x="537" 
d="M172 182h187l-61 157l-32 93h-2q-16 -50 -32 -93zM19 0l207 514h84l209 -514h-90l-44 112h-239l-42 -112h-85z" />
    <glyph glyph-name="beta.sc" horiz-adv-x="489" 
d="M78 0v514h159q182 0 182 -129q0 -90 -96 -115v-1q51 -7 84.5 -40t33.5 -86q0 -143 -206 -143h-157zM163 68h69q65 0 93.5 17.5t28.5 61.5q0 87 -117 87h-74v-166zM163 298h64q106 0 106 80q0 69 -104 69h-66v-149z" />
    <glyph glyph-name="gamma.sc" horiz-adv-x="405" 
d="M78 0v514h309v-71h-223v-443h-86z" />
    <glyph glyph-name="delta.sc" horiz-adv-x="523" 
d="M121 70h274l-105 269l-32 93h-2q-16 -53 -31 -93zM31 0v50l187 464h84l190 -464v-50h-461z" />
    <glyph glyph-name="epsilon.sc" horiz-adv-x="450" 
d="M78 0v514h314v-70h-228v-141h204v-68h-204v-165h233v-70h-319z" />
    <glyph glyph-name="zeta.sc" horiz-adv-x="469" 
d="M42 0v58l273 386h-262v70h366v-56l-276 -388h285v-70h-386z" />
    <glyph glyph-name="eta.sc" horiz-adv-x="605" 
d="M78 0v514h86v-209h277v209h86v-514h-86v233h-277v-233h-86z" />
    <glyph glyph-name="theta.sc" horiz-adv-x="630" 
d="M317 -9q-124 0 -198.5 77.5t-74.5 187.5q0 111 73.5 189.5t197.5 78.5t197.5 -77t73.5 -188t-72.5 -189.5t-196.5 -78.5zM315 62q86 0 133 55.5t47 138.5q0 84 -46.5 141t-131.5 57t-133 -56t-48 -139q0 -84 47 -140.5t132 -56.5zM212 225v68h207v-68h-207z" />
    <glyph glyph-name="iota.sc" horiz-adv-x="252" 
d="M83 0v514h86v-514h-86z" />
    <glyph glyph-name="kappa.sc" horiz-adv-x="497" 
d="M384 0l-217 269l206 245h98l-205 -242l215 -272h-97zM78 0v514h85v-514h-85z" />
    <glyph glyph-name="lambda.sc" horiz-adv-x="537" 
d="M19 0l207 514h84l209 -514h-90l-131 339l-32 93h-2q-16 -53 -32 -93l-128 -339h-85z" />
    <glyph glyph-name="nu.sc" horiz-adv-x="596" 
d="M76 0v514h87l227 -311q13 -18 26 -39.5t20 -33.5l7 -12h2q-4 40 -4 79v317h78v-514h-78l-241 330l-46 76h-1q3 -34 3 -66v-340h-80z" />
    <glyph glyph-name="xi.sc" horiz-adv-x="450" 
d="M48 0v76h354v-76h-354zM77 232v75h296v-75h-296zM53 438v76h344v-76h-344z" />
    <glyph glyph-name="omicron.sc" horiz-adv-x="630" 
d="M317 -9q-124 0 -198.5 77.5t-74.5 187.5q0 111 73.5 189.5t197.5 78.5t197.5 -77t73.5 -188t-72.5 -189.5t-196.5 -78.5zM315 62q86 0 133 55.5t47 138.5q0 84 -46.5 141t-131.5 57t-133 -56t-48 -139q0 -84 47 -140.5t132 -56.5z" />
    <glyph glyph-name="pi.sc" horiz-adv-x="593" 
d="M78 0v514h438v-514h-86v442h-266v-442h-86z" />
    <glyph glyph-name="rho.sc" horiz-adv-x="471" 
d="M78 0v514h157q89 0 143 -39t54 -116q0 -81 -54.5 -123t-152.5 -42h-61v-194h-86zM164 262h61q63 0 92 22.5t29 71.5q0 47 -28 69t-91 22h-63v-185z" />
    <glyph glyph-name="sigma1.sc" horiz-adv-x="441" 
d="M40 0v62l146 212l-129 178v62h325v-70h-229l121 -163l-144 -211h266v-70h-356z" />
    <glyph glyph-name="sigma.sc" horiz-adv-x="441" 
d="M40 0v62l146 212l-129 178v62h325v-70h-229l121 -163l-144 -211h266v-70h-356z" />
    <glyph glyph-name="tau.sc" horiz-adv-x="437" 
d="M175 0v443h-157v71h401v-71h-157v-443h-87z" />
    <glyph glyph-name="upsilon.sc" horiz-adv-x="476" 
d="M197 0v195l-181 319h94l132 -244h2l130 244h84l-175 -319v-195h-86z" />
    </font>
</defs>
</svg>
